<svg xmlns="http://www.w3.org/2000/svg" id="canvas" viewBox="200.782 447.590 972.355 144.359"><path d="M 225.54,467.52 C 224.66 468.20, 224.38 469.10, 223.88 470.88 C 223.39 472.65, 223.16 473.83, 223.06 476.39 C 222.96 478.95, 223.21 480.61, 223.39 483.67 C 223.56 486.74, 223.77 488.39, 223.93 491.70 C 224.10 495.02, 223.90 496.80, 224.22 500.26 C 224.54 503.72, 224.57 507.27, 225.53 509.00 C 226.49 510.74, 228.12 510.70, 229.01 508.94 C 229.91 507.17, 229.78 503.63, 229.99 500.18 C 230.21 496.72, 229.99 494.96, 230.10 491.66 C 230.22 488.35, 230.42 486.71, 230.58 483.65 C 230.73 480.59, 231.00 478.93, 230.88 476.37 C 230.76 473.81, 230.51 472.62, 230.00 470.84 C 229.48 469.07, 229.19 468.17, 228.30 467.51 C 227.41 466.85, 226.43 466.85, 225.54 467.52" style="stroke: black; fill: black;"/><path d="M 215.19,462.69 C 216.13 462.84, 216.54 462.32, 217.39 461.93 C 218.23 461.53, 218.42 461.28, 219.42 460.73 C 220.41 460.18, 220.89 459.69, 222.38 459.19 C 223.86 458.70, 224.77 458.49, 226.86 458.25 C 228.95 458.02, 230.22 457.99, 232.82 458.02 C 235.42 458.05, 236.91 457.98, 239.85 458.41 C 242.79 458.84, 244.43 459.16, 247.53 460.17 C 250.63 461.19, 252.29 461.86, 255.35 463.50 C 258.41 465.14, 260.00 466.13, 262.84 468.36 C 265.67 470.60, 267.09 471.91, 269.54 474.68 C 271.99 477.45, 273.15 479.01, 275.09 482.21 C 277.03 485.41, 277.88 487.17, 279.25 490.66 C 280.61 494.16, 281.16 496.05, 281.93 499.69 C 282.70 503.33, 282.93 505.23, 283.09 508.84 C 283.25 512.46, 283.15 514.33, 282.73 517.75 C 282.32 521.17, 281.95 522.86, 281.00 525.95 C 280.04 529.03, 279.42 530.52, 277.95 533.19 C 276.48 535.85, 275.59 537.09, 273.64 539.25 C 271.69 541.41, 270.57 542.35, 268.18 543.99 C 265.80 545.64, 264.46 546.35, 261.70 547.48 C 258.94 548.61, 257.43 549.04, 254.37 549.64 C 251.32 550.24, 249.64 550.40, 246.41 550.48 C 243.18 550.56, 241.44 550.46, 238.22 550.06 C 234.99 549.65, 233.30 549.30, 230.27 548.45 C 227.24 547.60, 225.68 546.99, 223.05 545.80 C 220.42 544.62, 219.16 543.86, 217.12 542.53 C 215.07 541.20, 214.16 540.56, 212.83 539.18 C 211.49 537.79, 211.13 536.91, 210.44 535.60 C 209.75 534.28, 209.67 533.58, 209.38 532.60 C 209.08 531.61, 209.13 531.26, 208.96 530.68 C 208.79 530.10, 208.72 530.05, 208.55 529.69 C 208.37 529.32, 208.46 529.23, 208.10 528.85 C 207.74 528.48, 207.32 527.92, 206.75 527.81 C 206.19 527.71, 205.81 527.81, 205.27 528.32 C 204.73 528.83, 204.35 529.28, 204.07 530.35 C 203.79 531.42, 203.69 532.08, 203.88 533.65 C 204.08 535.22, 204.16 536.27, 205.04 538.21 C 205.92 540.15, 206.57 541.40, 208.29 543.34 C 210.01 545.28, 211.15 546.30, 213.63 547.90 C 216.10 549.51, 217.65 550.17, 220.68 551.39 C 223.71 552.61, 225.43 553.14, 228.80 553.99 C 232.17 554.84, 233.98 555.21, 237.53 555.63 C 241.08 556.05, 242.96 556.18, 246.54 556.11 C 250.13 556.03, 251.99 555.90, 255.45 555.25 C 258.92 554.59, 260.67 554.13, 263.88 552.83 C 267.09 551.53, 268.68 550.71, 271.49 548.75 C 274.29 546.79, 275.64 545.63, 277.91 543.04 C 280.17 540.45, 281.18 538.92, 282.82 535.80 C 284.45 532.69, 285.09 530.96, 286.09 527.46 C 287.09 523.96, 287.42 522.09, 287.82 518.32 C 288.21 514.55, 288.27 512.52, 288.04 508.59 C 287.82 504.66, 287.54 502.61, 286.68 498.67 C 285.82 494.73, 285.23 492.69, 283.74 488.90 C 282.26 485.11, 281.34 483.19, 279.25 479.70 C 277.15 476.21, 275.90 474.49, 273.26 471.43 C 270.62 468.37, 269.10 466.91, 266.04 464.39 C 262.99 461.87, 261.28 460.74, 257.97 458.81 C 254.66 456.88, 252.88 456.08, 249.50 454.74 C 246.13 453.41, 244.36 452.94, 241.10 452.14 C 237.84 451.34, 236.20 450.99, 233.19 450.73 C 230.19 450.48, 228.74 450.59, 226.07 450.87 C 223.40 451.14, 222.03 451.31, 219.86 452.11 C 217.68 452.92, 216.62 453.71, 215.20 454.91 C 213.78 456.11, 213.28 456.87, 212.77 458.12 C 212.27 459.37, 212.18 460.24, 212.66 461.15 C 213.14 462.07, 214.24 462.53, 215.19 462.69" style="stroke: black; fill: black;"/><path d="M 315.54,513.05 C 316.06 512.14, 315.95 511.30, 315.58 510.16 C 315.20 509.03, 314.75 508.41, 313.67 507.38 C 312.60 506.35, 311.75 505.75, 310.20 505.02 C 308.66 504.28, 307.75 504.09, 305.94 503.71 C 304.12 503.33, 303.16 503.17, 301.11 503.10 C 299.06 503.04, 297.94 503.07, 295.69 503.40 C 293.45 503.74, 292.21 504.01, 289.87 504.80 C 287.53 505.59, 286.28 506.14, 283.99 507.37 C 281.69 508.61, 280.51 509.33, 278.40 510.97 C 276.30 512.61, 275.21 513.56, 273.46 515.57 C 271.70 517.58, 270.85 518.72, 269.63 521.02 C 268.41 523.32, 267.86 524.60, 267.35 527.08 C 266.84 529.56, 266.72 530.96, 267.05 533.43 C 267.38 535.90, 267.79 537.21, 269.00 539.43 C 270.21 541.64, 271.07 542.73, 273.09 544.50 C 275.10 546.28, 276.37 547.12, 279.08 548.28 C 281.78 549.44, 283.42 549.84, 286.60 550.31 C 289.78 550.78, 291.57 550.76, 294.98 550.62 C 298.39 550.47, 300.22 550.23, 303.64 549.57 C 307.07 548.92, 308.89 548.44, 312.10 547.36 C 315.30 546.28, 316.93 545.68, 319.66 544.18 C 322.40 542.68, 323.69 541.76, 325.77 539.87 C 327.86 537.97, 328.77 536.87, 330.08 534.71 C 331.39 532.55, 331.83 531.36, 332.34 529.09 C 332.85 526.81, 332.91 525.57, 332.63 523.32 C 332.35 521.07, 331.94 519.87, 330.95 517.84 C 329.96 515.81, 329.18 514.84, 327.68 513.18 C 326.18 511.51, 325.22 510.74, 323.45 509.53 C 321.67 508.31, 320.58 507.68, 318.80 507.08 C 317.01 506.48, 315.95 506.43, 314.53 506.52 C 313.11 506.61, 312.35 506.90, 311.71 507.54 C 311.06 508.19, 311.01 508.92, 311.30 509.73 C 311.59 510.55, 312.20 510.89, 313.15 511.63 C 314.10 512.36, 314.78 512.66, 316.05 513.39 C 317.33 514.12, 318.21 514.39, 319.54 515.28 C 320.87 516.17, 321.59 516.72, 322.72 517.85 C 323.84 518.97, 324.39 519.62, 325.16 520.91 C 325.92 522.19, 326.25 522.87, 326.53 524.25 C 326.81 525.64, 326.85 526.37, 326.54 527.82 C 326.24 529.27, 325.99 530.03, 325.01 531.50 C 324.02 532.96, 323.32 533.74, 321.63 535.15 C 319.95 536.57, 318.87 537.30, 316.57 538.59 C 314.26 539.88, 312.91 540.62, 310.10 541.62 C 307.30 542.63, 305.60 543.10, 302.55 543.64 C 299.50 544.17, 297.81 544.33, 294.84 544.32 C 291.88 544.31, 290.34 544.06, 287.71 543.57 C 285.09 543.07, 283.83 542.68, 281.74 541.85 C 279.65 541.03, 278.73 540.55, 277.28 539.45 C 275.83 538.35, 275.29 537.71, 274.50 536.35 C 273.70 534.99, 273.48 534.22, 273.31 532.65 C 273.13 531.07, 273.20 530.17, 273.62 528.49 C 274.04 526.80, 274.43 525.90, 275.41 524.22 C 276.39 522.55, 277.08 521.67, 278.52 520.12 C 279.97 518.58, 280.86 517.81, 282.62 516.51 C 284.37 515.21, 285.39 514.61, 287.30 513.62 C 289.20 512.63, 290.23 512.19, 292.13 511.57 C 294.02 510.94, 295.00 510.79, 296.77 510.52 C 298.55 510.25, 299.45 510.22, 301.00 510.21 C 302.55 510.21, 303.33 510.25, 304.52 510.50 C 305.71 510.74, 306.06 510.94, 306.93 511.44 C 307.81 511.93, 308.12 512.45, 308.87 512.98 C 309.63 513.52, 309.88 513.77, 310.70 514.11 C 311.52 514.45, 312.01 514.91, 312.98 514.70 C 313.94 514.49, 315.02 513.95, 315.54 513.05" style="stroke: black; fill: black;"/><path d="M 347.70,532.96 C 348.44 533.64, 349.14 533.69, 350.50 533.74 C 351.85 533.79, 352.71 533.71, 354.48 533.21 C 356.24 532.72, 357.38 532.20, 359.31 531.26 C 361.24 530.33, 362.24 529.67, 364.13 528.54 C 366.02 527.41, 367.01 526.82, 368.76 525.61 C 370.50 524.41, 371.40 523.82, 372.85 522.53 C 374.30 521.24, 375.00 520.59, 375.99 519.18 C 376.98 517.76, 377.42 517.00, 377.80 515.45 C 378.17 513.90, 378.24 512.98, 377.87 511.42 C 377.49 509.87, 377.05 508.96, 375.91 507.70 C 374.76 506.43, 373.91 505.85, 372.15 505.10 C 370.39 504.35, 369.29 504.13, 367.09 503.95 C 364.90 503.77, 363.63 503.84, 361.17 504.20 C 358.71 504.55, 357.37 504.87, 354.80 505.71 C 352.23 506.55, 350.83 507.12, 348.33 508.40 C 345.82 509.68, 344.51 510.45, 342.26 512.11 C 340.00 513.77, 338.87 514.71, 337.05 516.70 C 335.23 518.69, 334.33 519.79, 333.15 522.06 C 331.96 524.33, 331.48 525.59, 331.12 528.03 C 330.75 530.47, 330.74 531.81, 331.32 534.26 C 331.90 536.70, 332.45 538.05, 334.01 540.26 C 335.57 542.46, 336.69 543.58, 339.13 545.28 C 341.58 546.99, 343.13 547.66, 346.25 548.76 C 349.37 549.86, 351.20 550.21, 354.73 550.78 C 358.26 551.35, 360.22 551.48, 363.92 551.60 C 367.61 551.73, 369.58 551.67, 373.21 551.40 C 376.84 551.14, 378.70 550.89, 382.07 550.30 C 385.44 549.70, 387.15 549.41, 390.05 548.42 C 392.96 547.42, 394.30 546.74, 396.61 545.32 C 398.92 543.90, 399.92 543.09, 401.60 541.34 C 403.28 539.58, 403.99 538.58, 404.99 536.55 C 406.00 534.52, 406.28 533.31, 406.63 531.19 C 406.99 529.08, 406.88 527.95, 406.77 525.98 C 406.65 524.02, 406.41 523.05, 406.05 521.37 C 405.69 519.69, 405.43 518.85, 404.99 517.59 C 404.55 516.32, 404.43 515.70, 403.85 515.05 C 403.27 514.39, 402.89 514.28, 402.08 514.31 C 401.26 514.33, 400.52 514.57, 399.78 515.17 C 399.04 515.77, 398.55 516.24, 398.39 517.31 C 398.23 518.37, 398.54 519.06, 398.97 520.49 C 399.41 521.92, 399.93 522.71, 400.55 524.46 C 401.17 526.21, 401.47 527.31, 402.08 529.22 C 402.70 531.12, 403.07 532.19, 403.62 533.98 C 404.17 535.78, 404.26 536.73, 404.82 538.20 C 405.37 539.67, 405.51 540.51, 406.38 541.32 C 407.26 542.13, 408.07 542.37, 409.19 542.25 C 410.31 542.13, 411.15 541.68, 411.98 540.73 C 412.82 539.78, 413.13 539.00, 413.37 537.49 C 413.60 535.98, 413.32 534.97, 413.16 533.20 C 412.99 531.43, 412.66 530.42, 412.54 528.66 C 412.42 526.90, 412.39 526.04, 412.57 524.40 C 412.74 522.75, 412.93 521.95, 413.41 520.43 C 413.90 518.90, 414.21 518.16, 414.98 516.80 C 415.75 515.43, 416.20 514.77, 417.27 513.61 C 418.34 512.45, 418.98 511.90, 420.32 511.01 C 421.67 510.11, 422.42 509.69, 423.99 509.13 C 425.56 508.58, 426.43 508.38, 428.17 508.24 C 429.91 508.10, 430.88 508.12, 432.68 508.42 C 434.47 508.71, 435.39 508.94, 437.13 509.70 C 438.86 510.47, 439.73 511.00, 441.33 512.24 C 442.94 513.48, 443.73 514.23, 445.15 515.90 C 446.56 517.57, 447.21 518.54, 448.41 520.58 C 449.62 522.62, 450.17 523.79, 451.18 526.08 C 452.19 528.37, 452.58 529.64, 453.45 532.02 C 454.32 534.40, 454.73 535.79, 455.53 537.97 C 456.34 540.16, 456.68 541.35, 457.48 542.95 C 458.27 544.54, 458.74 545.06, 459.50 545.95 C 460.27 546.84, 460.60 547.23, 461.30 547.39 C 462.00 547.56, 462.56 547.33, 462.99 546.77 C 463.43 546.22, 463.39 545.76, 463.48 544.62 C 463.56 543.48, 463.69 542.84, 463.43 541.07 C 463.16 539.31, 462.84 538.07, 462.15 535.77 C 461.47 533.48, 460.94 532.11, 460.01 529.61 C 459.08 527.11, 458.65 525.78, 457.52 523.26 C 456.38 520.74, 455.79 519.38, 454.35 517.01 C 452.91 514.65, 452.11 513.46, 450.32 511.43 C 448.54 509.39, 447.53 508.42, 445.44 506.84 C 443.34 505.27, 442.17 504.56, 439.84 503.54 C 437.51 502.52, 436.24 502.14, 433.79 501.72 C 431.34 501.31, 430.00 501.25, 427.59 501.47 C 425.18 501.68, 423.93 502.00, 421.73 502.78 C 419.53 503.57, 418.46 504.15, 416.58 505.41 C 414.70 506.67, 413.80 507.46, 412.32 509.09 C 410.85 510.71, 410.23 511.69, 409.19 513.55 C 408.16 515.41, 407.81 516.41, 407.15 518.37 C 406.49 520.33, 406.30 521.35, 405.90 523.36 C 405.51 525.36, 405.41 526.39, 405.17 528.41 C 404.92 530.43, 404.73 531.55, 404.67 533.45 C 404.62 535.35, 404.50 536.43, 404.88 537.90 C 405.26 539.38, 405.71 540.06, 406.58 540.83 C 407.45 541.60, 408.26 541.87, 409.22 541.74 C 410.17 541.61, 410.89 541.21, 411.36 540.20 C 411.82 539.18, 411.68 538.26, 411.53 536.65 C 411.37 535.04, 410.99 534.04, 410.56 532.14 C 410.13 530.25, 409.84 529.16, 409.37 527.18 C 408.89 525.20, 408.61 524.11, 408.18 522.25 C 407.76 520.39, 407.76 519.43, 407.25 517.88 C 406.74 516.32, 406.58 515.43, 405.64 514.49 C 404.70 513.54, 403.76 513.22, 402.54 513.16 C 401.32 513.10, 400.38 513.52, 399.54 514.17 C 398.69 514.82, 398.47 515.40, 398.30 516.42 C 398.13 517.43, 398.46 518.00, 398.69 519.26 C 398.93 520.52, 399.19 521.26, 399.47 522.71 C 399.75 524.16, 399.94 524.98, 400.10 526.52 C 400.27 528.05, 400.39 528.88, 400.29 530.38 C 400.18 531.88, 400.15 532.65, 399.57 534.02 C 398.99 535.39, 398.60 536.02, 397.39 537.23 C 396.17 538.44, 395.39 539.00, 393.51 540.06 C 391.63 541.12, 390.48 541.59, 387.97 542.51 C 385.46 543.42, 383.99 543.97, 380.95 544.64 C 377.92 545.31, 376.15 545.59, 372.80 545.85 C 369.44 546.12, 367.56 546.16, 364.17 545.96 C 360.78 545.76, 358.95 545.55, 355.84 544.87 C 352.73 544.19, 351.17 543.63, 348.61 542.57 C 346.06 541.50, 344.94 540.80, 343.06 539.54 C 341.18 538.29, 340.38 537.65, 339.22 536.29 C 338.07 534.93, 337.71 534.19, 337.29 532.73 C 336.88 531.28, 336.85 530.53, 337.13 529.01 C 337.41 527.50, 337.75 526.71, 338.69 525.16 C 339.63 523.62, 340.34 522.79, 341.85 521.31 C 343.37 519.83, 344.32 519.06, 346.25 517.76 C 348.18 516.47, 349.34 515.85, 351.49 514.84 C 353.65 513.82, 354.88 513.36, 357.02 512.69 C 359.17 512.03, 360.30 511.79, 362.22 511.52 C 364.14 511.25, 365.09 511.28, 366.63 511.34 C 368.16 511.39, 368.83 511.58, 369.89 511.79 C 370.95 512.00, 371.34 512.15, 371.93 512.36 C 372.53 512.58, 372.71 512.59, 372.86 512.87 C 373.02 513.15, 373.00 513.27, 372.69 513.76 C 372.39 514.25, 372.14 514.60, 371.35 515.33 C 370.56 516.06, 370.00 516.53, 368.74 517.42 C 367.48 518.31, 366.66 518.86, 365.05 519.79 C 363.44 520.72, 362.49 521.25, 360.69 522.09 C 358.88 522.93, 357.84 523.23, 356.02 523.99 C 354.20 524.75, 353.11 525.09, 351.59 525.89 C 350.07 526.68, 349.38 527.09, 348.42 527.98 C 347.45 528.87, 346.91 529.33, 346.77 530.33 C 346.62 531.33, 346.95 532.28, 347.70 532.96" style="stroke: black; fill: black;"/><path d="M 549.67,477.32 C 548.86 477.99, 548.67 478.81, 548.39 480.36 C 548.10 481.90, 548.07 482.85, 548.23 485.03 C 548.40 487.22, 548.67 488.65, 549.21 491.27 C 549.75 493.90, 550.24 495.27, 550.92 498.16 C 551.60 501.05, 551.96 502.60, 552.62 505.72 C 553.28 508.83, 553.60 510.50, 554.24 513.74 C 554.88 516.98, 555.21 518.69, 555.84 521.91 C 556.46 525.14, 556.81 526.79, 557.37 529.86 C 557.93 532.94, 558.12 534.53, 558.64 537.29 C 559.16 540.05, 559.39 541.41, 559.99 543.67 C 560.59 545.93, 560.92 547.03, 561.63 548.58 C 562.33 550.12, 562.72 550.90, 563.52 551.40 C 564.32 551.90, 565.01 551.81, 565.61 551.07 C 566.21 550.34, 566.39 549.46, 566.54 547.74 C 566.68 546.01, 566.64 544.81, 566.35 542.45 C 566.07 540.10, 565.71 538.73, 565.11 535.97 C 564.50 533.21, 564.03 531.68, 563.33 528.64 C 562.64 525.60, 562.28 523.97, 561.64 520.77 C 560.99 517.57, 560.69 515.88, 560.12 512.64 C 559.55 509.41, 559.25 507.74, 558.79 504.60 C 558.32 501.46, 558.14 499.87, 557.78 496.93 C 557.42 493.99, 557.38 492.54, 556.99 489.91 C 556.61 487.28, 556.39 485.85, 555.86 483.78 C 555.32 481.71, 555.01 480.90, 554.33 479.55 C 553.64 478.19, 553.37 477.47, 552.44 477.02 C 551.51 476.58, 550.48 476.66, 549.67 477.32" style="stroke: black; fill: black;"/><path d="M 543.49,482.21 C 544.47 482.11, 544.78 481.37, 545.65 480.69 C 546.53 480.01, 546.74 479.62, 547.85 478.79 C 548.96 477.96, 549.50 477.27, 551.20 476.53 C 552.90 475.80, 553.96 475.58, 556.36 475.09 C 558.76 474.60, 560.23 474.24, 563.18 474.09 C 566.13 473.94, 567.83 473.92, 571.12 474.32 C 574.41 474.72, 576.25 475.06, 579.65 476.10 C 583.05 477.13, 584.86 477.82, 588.13 479.49 C 591.40 481.16, 593.07 482.19, 595.99 484.44 C 598.91 486.69, 600.34 488.03, 602.75 490.75 C 605.15 493.47, 606.25 495.01, 608.03 498.04 C 609.80 501.07, 610.54 502.70, 611.63 505.91 C 612.72 509.11, 613.07 510.84, 613.48 514.07 C 613.90 517.30, 613.90 518.97, 613.70 522.07 C 613.50 525.16, 613.23 526.71, 612.47 529.53 C 611.70 532.36, 611.15 533.75, 609.86 536.19 C 608.57 538.64, 607.76 539.76, 606.02 541.77 C 604.27 543.78, 603.25 544.68, 601.14 546.24 C 599.02 547.80, 597.81 548.47, 595.43 549.57 C 593.06 550.67, 591.77 551.11, 589.26 551.74 C 586.75 552.36, 585.41 552.52, 582.88 552.71 C 580.35 552.90, 579.01 552.88, 576.62 552.69 C 574.23 552.51, 573.01 552.29, 570.92 551.79 C 568.84 551.29, 567.86 550.86, 566.21 550.18 C 564.56 549.51, 564.00 549.14, 562.69 548.43 C 561.37 547.72, 560.68 546.67, 559.63 546.64 C 558.59 546.61, 557.59 547.10, 557.47 548.29 C 557.35 549.47, 557.83 551.04, 559.03 552.56 C 560.23 554.08, 561.41 554.77, 563.46 555.88 C 565.51 556.99, 566.76 557.43, 569.28 558.13 C 571.80 558.82, 573.23 559.09, 576.06 559.35 C 578.88 559.60, 580.43 559.64, 583.41 559.39 C 586.38 559.15, 587.96 558.93, 590.92 558.14 C 593.88 557.35, 595.41 556.80, 598.22 555.44 C 601.03 554.07, 602.46 553.25, 604.97 551.31 C 607.48 549.38, 608.70 548.25, 610.75 545.77 C 612.80 543.29, 613.75 541.87, 615.21 538.91 C 616.67 535.95, 617.25 534.28, 618.05 530.96 C 618.85 527.65, 619.09 525.88, 619.23 522.35 C 619.37 518.83, 619.31 516.96, 618.76 513.33 C 618.21 509.70, 617.77 507.77, 616.48 504.20 C 615.20 500.64, 614.34 498.83, 612.33 495.48 C 610.33 492.14, 609.10 490.46, 606.44 487.47 C 603.78 484.48, 602.21 483.03, 599.02 480.54 C 595.82 478.05, 594.02 476.91, 590.47 475.02 C 586.93 473.12, 584.99 472.32, 581.29 471.05 C 577.60 469.77, 575.63 469.32, 572.01 468.64 C 568.39 467.96, 566.57 467.81, 563.19 467.65 C 559.82 467.48, 558.16 467.40, 555.14 467.81 C 552.13 468.23, 550.56 468.60, 548.13 469.73 C 545.70 470.86, 544.51 471.87, 542.98 473.45 C 541.45 475.03, 540.93 476.07, 540.48 477.61 C 540.03 479.15, 540.12 480.24, 540.73 481.16 C 541.33 482.08, 542.50 482.30, 543.49 482.21" style="stroke: black; fill: black;"/><path d="M 650.60,519.90 C 650.75 518.88, 650.42 518.18, 649.67 517.25 C 648.91 516.33, 648.24 515.87, 646.83 515.29 C 645.43 514.70, 644.41 514.47, 642.63 514.34 C 640.86 514.20, 639.89 514.33, 637.96 514.61 C 636.02 514.90, 635.00 515.09, 632.96 515.76 C 630.92 516.43, 629.82 516.86, 627.76 517.96 C 625.70 519.07, 624.59 519.76, 622.65 521.29 C 620.70 522.82, 619.70 523.72, 618.04 525.61 C 616.39 527.50, 615.57 528.57, 614.38 530.74 C 613.20 532.91, 612.66 534.12, 612.11 536.46 C 611.57 538.80, 611.43 540.08, 611.68 542.45 C 611.93 544.81, 612.24 546.10, 613.36 548.29 C 614.48 550.47, 615.32 551.61, 617.27 553.38 C 619.21 555.15, 620.47 555.97, 623.10 557.15 C 625.73 558.33, 627.31 558.79, 630.41 559.28 C 633.51 559.77, 635.30 559.73, 638.60 559.61 C 641.91 559.49, 643.66 559.27, 646.92 558.68 C 650.18 558.09, 651.85 557.68, 654.91 556.67 C 657.96 555.66, 659.58 555.09, 662.20 553.64 C 664.81 552.18, 666.02 551.27, 667.97 549.41 C 669.93 547.55, 670.79 546.48, 671.99 544.34 C 673.20 542.19, 673.65 540.98, 674.01 538.69 C 674.37 536.40, 674.29 535.13, 673.78 532.88 C 673.27 530.64, 672.74 529.46, 671.48 527.47 C 670.22 525.47, 669.31 524.51, 667.47 522.92 C 665.64 521.32, 664.48 520.60, 662.32 519.49 C 660.15 518.37, 658.89 517.95, 656.66 517.34 C 654.42 516.72, 653.23 516.51, 651.13 516.41 C 649.03 516.31, 647.86 516.39, 646.17 516.82 C 644.48 517.25, 643.69 517.77, 642.68 518.56 C 641.68 519.34, 641.44 519.95, 641.15 520.74 C 640.86 521.53, 640.90 522.00, 641.23 522.52 C 641.56 523.04, 642.28 523.18, 642.80 523.33 C 643.32 523.49, 643.35 523.30, 643.82 523.30 C 644.29 523.30, 644.45 523.43, 645.14 523.34 C 645.83 523.26, 646.19 522.94, 647.27 522.86 C 648.35 522.79, 649.05 522.76, 650.53 522.98 C 652.02 523.20, 652.98 523.42, 654.69 523.97 C 656.40 524.53, 657.43 524.89, 659.09 525.75 C 660.76 526.60, 661.63 527.15, 663.01 528.25 C 664.39 529.34, 665.04 529.97, 665.99 531.22 C 666.94 532.46, 667.34 533.14, 667.77 534.46 C 668.20 535.78, 668.33 536.44, 668.14 537.81 C 667.95 539.18, 667.69 539.91, 666.82 541.30 C 665.96 542.70, 665.36 543.46, 663.80 544.77 C 662.24 546.08, 661.22 546.68, 659.04 547.86 C 656.85 549.03, 655.50 549.72, 652.86 550.64 C 650.22 551.56, 648.71 551.99, 645.83 552.47 C 642.96 552.95, 641.36 553.08, 638.51 553.05 C 635.66 553.02, 634.11 552.78, 631.58 552.32 C 629.04 551.87, 627.83 551.55, 625.84 550.76 C 623.84 549.96, 623.00 549.43, 621.62 548.33 C 620.25 547.24, 619.71 546.59, 618.96 545.29 C 618.21 543.99, 618.00 543.28, 617.87 541.84 C 617.75 540.39, 617.86 539.61, 618.33 538.07 C 618.79 536.52, 619.22 535.67, 620.19 534.11 C 621.17 532.55, 621.84 531.72, 623.20 530.29 C 624.56 528.85, 625.41 528.14, 627.00 526.94 C 628.59 525.75, 629.52 525.19, 631.16 524.31 C 632.81 523.43, 633.67 523.07, 635.23 522.53 C 636.79 522.00, 637.61 521.81, 638.95 521.63 C 640.29 521.45, 640.82 521.50, 641.91 521.64 C 643.01 521.79, 643.48 522.15, 644.43 522.37 C 645.38 522.58, 645.75 522.74, 646.65 522.73 C 647.55 522.71, 648.13 522.88, 648.92 522.31 C 649.71 521.75, 650.45 520.91, 650.60 519.90" style="stroke: black; fill: black;"/><path d="M 686.83,541.98 C 687.54 542.67, 688.17 542.73, 689.45 542.82 C 690.73 542.91, 691.54 542.88, 693.24 542.44 C 694.94 542.00, 696.05 541.52, 697.95 540.64 C 699.86 539.76, 700.87 539.14, 702.77 538.04 C 704.66 536.94, 705.67 536.33, 707.44 535.15 C 709.21 533.96, 710.12 533.39, 711.60 532.11 C 713.08 530.83, 713.81 530.16, 714.84 528.75 C 715.86 527.33, 716.32 526.58, 716.73 525.03 C 717.14 523.47, 717.25 522.54, 716.89 520.97 C 716.54 519.40, 716.10 518.46, 714.95 517.18 C 713.81 515.91, 712.94 515.35, 711.17 514.61 C 709.41 513.87, 708.33 513.66, 706.13 513.49 C 703.93 513.33, 702.64 513.41, 700.18 513.78 C 697.71 514.15, 696.35 514.49, 693.80 515.35 C 691.25 516.21, 689.89 516.78, 687.43 518.07 C 684.96 519.37, 683.67 520.14, 681.48 521.82 C 679.29 523.49, 678.20 524.43, 676.47 526.45 C 674.75 528.48, 673.91 529.63, 672.85 531.93 C 671.79 534.23, 671.38 535.50, 671.15 537.94 C 670.93 540.37, 671.01 541.72, 671.73 544.11 C 672.45 546.50, 673.10 547.76, 674.76 549.88 C 676.41 552.00, 677.50 553.07, 680.00 554.70 C 682.49 556.33, 684.07 556.97, 687.21 558.02 C 690.34 559.07, 692.16 559.40, 695.66 559.94 C 699.16 560.48, 701.08 560.61, 704.72 560.73 C 708.36 560.85, 710.30 560.79, 713.86 560.55 C 717.42 560.30, 719.24 560.08, 722.51 559.50 C 725.78 558.92, 727.42 558.64, 730.21 557.65 C 733.00 556.67, 734.28 555.97, 736.47 554.57 C 738.65 553.17, 739.61 552.36, 741.15 550.65 C 742.69 548.94, 743.28 547.94, 744.16 546.00 C 745.04 544.06, 745.26 542.95, 745.55 540.96 C 745.83 538.96, 745.74 537.90, 745.59 536.04 C 745.43 534.17, 745.16 533.23, 744.78 531.63 C 744.40 530.03, 744.11 529.24, 743.67 528.04 C 743.24 526.83, 743.22 526.25, 742.59 525.59 C 741.96 524.94, 741.47 524.72, 740.53 524.75 C 739.58 524.79, 738.64 525.09, 737.86 525.78 C 737.09 526.48, 736.77 527.09, 736.63 528.22 C 736.48 529.36, 736.77 530.01, 737.14 531.45 C 737.51 532.90, 737.97 533.78, 738.49 535.47 C 739.01 537.15, 739.28 538.15, 739.73 539.87 C 740.18 541.59, 740.37 542.51, 740.73 544.06 C 741.10 545.62, 741.15 546.45, 741.56 547.64 C 741.97 548.83, 742.07 549.41, 742.78 550.00 C 743.49 550.59, 744.11 550.71, 745.10 550.60 C 746.08 550.50, 746.93 550.21, 747.72 549.49 C 748.51 548.76, 748.84 548.15, 749.05 546.97 C 749.26 545.79, 748.93 545.02, 748.75 543.58 C 748.57 542.15, 748.27 541.31, 748.16 539.78 C 748.05 538.25, 748.03 537.43, 748.19 535.92 C 748.35 534.41, 748.50 533.67, 748.97 532.24 C 749.44 530.81, 749.75 530.09, 750.54 528.79 C 751.33 527.48, 751.80 526.83, 752.91 525.70 C 754.02 524.57, 754.67 524.02, 756.09 523.13 C 757.52 522.25, 758.34 521.83, 760.03 521.26 C 761.71 520.70, 762.67 520.49, 764.52 520.30 C 766.36 520.11, 767.38 520.07, 769.26 520.29 C 771.13 520.51, 772.10 520.72, 773.89 521.39 C 775.67 522.07, 776.56 522.55, 778.19 523.68 C 779.82 524.81, 780.62 525.51, 782.04 527.05 C 783.47 528.59, 784.11 529.50, 785.31 531.38 C 786.51 533.27, 787.06 534.35, 788.04 536.47 C 789.03 538.59, 789.41 539.76, 790.23 541.97 C 791.05 544.17, 791.31 545.49, 792.12 547.48 C 792.94 549.47, 793.38 550.52, 794.29 551.92 C 795.21 553.32, 795.77 554.10, 796.68 554.48 C 797.59 554.86, 798.29 554.66, 798.84 553.83 C 799.39 553.01, 799.45 552.07, 799.43 550.37 C 799.40 548.67, 799.25 547.51, 798.71 545.34 C 798.18 543.17, 797.64 541.89, 796.75 539.53 C 795.86 537.17, 795.40 535.90, 794.27 533.53 C 793.13 531.16, 792.53 529.88, 791.07 527.66 C 789.61 525.43, 788.79 524.31, 786.98 522.41 C 785.16 520.50, 784.12 519.59, 781.99 518.14 C 779.85 516.69, 778.65 516.05, 776.28 515.14 C 773.90 514.22, 772.60 513.90, 770.11 513.57 C 767.62 513.24, 766.29 513.24, 763.83 513.48 C 761.37 513.72, 760.10 513.98, 757.82 514.76 C 755.55 515.54, 754.40 516.12, 752.45 517.37 C 750.50 518.61, 749.60 519.39, 748.06 520.98 C 746.53 522.57, 745.87 523.50, 744.77 525.31 C 743.68 527.12, 743.29 528.12, 742.60 530.03 C 741.92 531.93, 741.73 532.92, 741.34 534.82 C 740.95 536.72, 740.88 537.70, 740.66 539.54 C 740.45 541.38, 740.27 542.36, 740.25 544.02 C 740.23 545.68, 740.11 546.61, 740.56 547.85 C 741.02 549.09, 741.56 549.66, 742.53 550.22 C 743.50 550.78, 744.43 550.83, 745.43 550.64 C 746.42 550.46, 747.01 550.11, 747.51 549.30 C 748.02 548.50, 747.93 547.90, 747.94 546.61 C 747.95 545.32, 747.75 544.51, 747.56 542.87 C 747.37 541.23, 747.24 540.24, 746.98 538.41 C 746.71 536.59, 746.51 535.56, 746.24 533.73 C 745.98 531.91, 746.03 530.86, 745.63 529.29 C 745.24 527.72, 745.06 526.88, 744.25 525.87 C 743.44 524.86, 742.76 524.44, 741.60 524.23 C 740.44 524.01, 739.40 524.24, 738.46 524.78 C 737.52 525.33, 737.14 525.97, 736.91 526.97 C 736.69 527.98, 737.08 528.58, 737.33 529.82 C 737.58 531.06, 737.84 531.78, 738.16 533.18 C 738.48 534.57, 738.71 535.35, 738.92 536.78 C 739.13 538.21, 739.27 538.95, 739.23 540.33 C 739.18 541.72, 739.16 542.42, 738.69 543.69 C 738.21 544.97, 737.92 545.59, 736.85 546.73 C 735.78 547.86, 735.09 548.41, 733.33 549.39 C 731.58 550.37, 730.47 550.78, 728.07 551.64 C 725.68 552.50, 724.29 553.03, 721.36 553.68 C 718.43 554.33, 716.71 554.62, 713.43 554.89 C 710.15 555.15, 708.30 555.20, 704.96 555.02 C 701.62 554.84, 699.83 554.64, 696.73 553.99 C 693.64 553.34, 692.07 552.80, 689.48 551.77 C 686.89 550.74, 685.72 550.05, 683.79 548.82 C 681.85 547.60, 681.04 546.97, 679.81 545.64 C 678.58 544.32, 678.13 543.61, 677.61 542.19 C 677.09 540.78, 677.03 540.06, 677.22 538.57 C 677.40 537.08, 677.70 536.29, 678.54 534.75 C 679.38 533.21, 680.01 532.35, 681.41 530.87 C 682.81 529.39, 683.70 528.65, 685.55 527.36 C 687.39 526.07, 688.54 525.45, 690.64 524.44 C 692.74 523.43, 693.93 522.97, 696.05 522.32 C 698.18 521.66, 699.33 521.45, 701.27 521.17 C 703.21 520.89, 704.21 520.89, 705.76 520.91 C 707.31 520.93, 707.97 521.09, 709.02 521.26 C 710.07 521.44, 710.43 521.57, 711.00 521.78 C 711.57 521.98, 711.74 522.01, 711.87 522.29 C 712.00 522.57, 711.99 522.70, 711.66 523.20 C 711.33 523.70, 711.05 524.04, 710.22 524.79 C 709.40 525.53, 708.82 526.03, 707.53 526.91 C 706.24 527.80, 705.41 528.31, 703.78 529.22 C 702.15 530.13, 701.18 530.66, 699.37 531.47 C 697.57 532.29, 696.55 532.57, 694.77 533.29 C 692.98 534.00, 691.92 534.30, 690.45 535.06 C 688.99 535.82, 688.34 536.23, 687.43 537.09 C 686.52 537.96, 686.04 538.40, 685.92 539.38 C 685.80 540.35, 686.13 541.29, 686.83 541.98" style="stroke: black; fill: black;"/><path d="M 882.84,491.48 C 882.02 492.05, 881.81 492.74, 881.47 494.09 C 881.12 495.44, 881.06 496.25, 881.13 498.21 C 881.19 500.17, 881.41 501.44, 881.78 503.88 C 882.16 506.32, 882.46 507.65, 882.99 510.41 C 883.53 513.16, 883.89 514.65, 884.46 517.66 C 885.04 520.67, 885.29 522.30, 885.87 525.45 C 886.44 528.60, 886.74 530.26, 887.33 533.41 C 887.91 536.57, 888.23 538.20, 888.78 541.24 C 889.34 544.28, 889.57 545.84, 890.11 548.61 C 890.65 551.39, 890.84 552.76, 891.48 555.10 C 892.12 557.44, 892.52 558.67, 893.31 560.30 C 894.10 561.93, 894.58 562.76, 895.43 563.26 C 896.28 563.77, 896.98 563.64, 897.57 562.83 C 898.15 562.03, 898.30 561.07, 898.37 559.25 C 898.45 557.44, 898.30 556.14, 897.94 553.74 C 897.59 551.34, 897.21 550.00, 896.59 547.25 C 895.98 544.51, 895.52 543.00, 894.87 540.02 C 894.21 537.03, 893.88 535.43, 893.31 532.31 C 892.74 529.20, 892.47 527.56, 892.00 524.44 C 891.54 521.31, 891.33 519.71, 891.00 516.68 C 890.68 513.66, 890.65 512.11, 890.38 509.33 C 890.10 506.54, 889.96 505.18, 889.63 502.75 C 889.31 500.32, 889.21 499.04, 888.76 497.18 C 888.30 495.31, 887.99 494.60, 887.36 493.41 C 886.72 492.23, 886.49 491.64, 885.59 491.25 C 884.69 490.87, 883.67 490.91, 882.84 491.48" style="stroke: black; fill: black;"/><path d="M 875.19,494.02 C 876.16 494.06, 876.51 493.42, 877.44 492.87 C 878.38 492.32, 878.65 491.99, 879.86 491.27 C 881.07 490.55, 881.70 489.94, 883.50 489.29 C 885.30 488.64, 886.41 488.44, 888.86 488.02 C 891.31 487.59, 892.80 487.28, 895.76 487.17 C 898.71 487.06, 900.40 487.05, 903.64 487.47 C 906.88 487.89, 908.63 488.22, 911.96 489.27 C 915.29 490.31, 917.08 491.03, 920.28 492.69 C 923.49 494.35, 925.13 495.37, 927.98 497.57 C 930.83 499.78, 932.20 501.07, 934.54 503.74 C 936.88 506.40, 937.95 507.92, 939.68 510.90 C 941.41 513.89, 942.10 515.49, 943.17 518.67 C 944.24 521.84, 944.61 523.53, 945.02 526.77 C 945.43 530.00, 945.46 531.70, 945.22 534.82 C 944.98 537.95, 944.65 539.52, 943.84 542.39 C 943.03 545.27, 942.44 546.68, 941.16 549.20 C 939.88 551.72, 939.10 552.90, 937.44 554.98 C 935.79 557.06, 934.83 557.95, 932.90 559.58 C 930.97 561.21, 929.92 561.95, 927.80 563.13 C 925.68 564.31, 924.52 564.77, 922.27 565.48 C 920.03 566.20, 918.81 566.44, 916.57 566.72 C 914.33 567.01, 913.18 567.03, 911.07 566.90 C 908.96 566.78, 907.87 566.57, 906.01 566.11 C 904.14 565.65, 903.22 565.28, 901.75 564.61 C 900.28 563.93, 899.61 563.49, 898.66 562.73 C 897.72 561.97, 897.36 561.57, 897.02 560.80 C 896.68 560.04, 896.69 559.71, 896.97 558.91 C 897.25 558.11, 897.82 557.73, 898.41 556.82 C 899.00 555.90, 899.52 555.42, 899.93 554.32 C 900.35 553.22, 900.75 552.31, 900.48 551.32 C 900.21 550.33, 899.63 549.60, 898.58 549.37 C 897.54 549.13, 896.50 549.38, 895.25 550.15 C 893.99 550.93, 893.18 551.67, 892.31 553.25 C 891.44 554.83, 891.01 556.11, 890.90 558.05 C 890.79 560.00, 891.04 561.16, 891.77 562.97 C 892.50 564.78, 893.11 565.65, 894.53 567.11 C 895.95 568.58, 896.89 569.24, 898.86 570.31 C 900.83 571.37, 902.01 571.81, 904.37 572.44 C 906.73 573.08, 908.06 573.30, 910.67 573.47 C 913.28 573.63, 914.67 573.61, 917.40 573.27 C 920.12 572.93, 921.58 572.65, 924.30 571.76 C 927.02 570.88, 928.43 570.29, 931.00 568.83 C 933.57 567.38, 934.86 566.50, 937.14 564.49 C 939.43 562.48, 940.53 561.32, 942.41 558.78 C 944.29 556.25, 945.15 554.80, 946.54 551.81 C 947.94 548.83, 948.54 547.19, 949.38 543.87 C 950.22 540.54, 950.55 538.74, 950.74 535.17 C 950.92 531.61, 950.85 529.68, 950.32 526.04 C 949.79 522.40, 949.34 520.51, 948.09 516.97 C 946.84 513.43, 946.03 511.64, 944.08 508.33 C 942.12 505.02, 940.91 503.36, 938.31 500.41 C 935.71 497.47, 934.20 496.06, 931.07 493.61 C 927.95 491.15, 926.18 490.04, 922.70 488.15 C 919.21 486.26, 917.29 485.44, 913.66 484.16 C 910.04 482.88, 908.14 482.44, 904.58 481.74 C 901.02 481.05, 899.21 480.91, 895.87 480.69 C 892.53 480.47, 890.89 480.34, 887.88 480.65 C 884.87 480.95, 883.31 481.25, 880.83 482.21 C 878.35 483.16, 877.13 484.02, 875.49 485.43 C 873.86 486.85, 873.24 487.81, 872.66 489.27 C 872.08 490.72, 872.09 491.76, 872.59 492.71 C 873.10 493.66, 874.22 493.99, 875.19 494.02" style="stroke: black; fill: black;"/><path d="M 984.14,535.36 C 984.48 534.38, 984.25 533.60, 983.67 532.52 C 983.10 531.44, 982.54 530.86, 981.27 529.96 C 980.00 529.06, 979.06 528.56, 977.34 528.02 C 975.62 527.47, 974.61 527.39, 972.67 527.23 C 970.74 527.07, 969.76 527.06, 967.66 527.23 C 965.57 527.41, 964.42 527.53, 962.21 528.09 C 959.99 528.66, 958.79 529.08, 956.60 530.07 C 954.40 531.06, 953.27 531.67, 951.23 533.06 C 949.19 534.45, 948.12 535.25, 946.39 537.02 C 944.67 538.78, 943.82 539.81, 942.60 541.88 C 941.39 543.96, 940.86 545.14, 940.30 547.40 C 939.74 549.67, 939.57 550.93, 939.80 553.23 C 940.03 555.52, 940.36 556.77, 941.44 558.89 C 942.53 561.01, 943.34 562.10, 945.22 563.83 C 947.11 565.55, 948.31 566.34, 950.87 567.52 C 953.42 568.70, 954.96 569.20, 958.01 569.74 C 961.06 570.29, 962.83 570.28, 966.12 570.25 C 969.40 570.22, 971.18 570.05, 974.44 569.58 C 977.70 569.12, 979.40 568.81, 982.42 567.93 C 985.44 567.04, 986.99 566.48, 989.53 565.16 C 992.07 563.85, 993.22 563.02, 995.13 561.35 C 997.04 559.67, 997.89 558.74, 999.09 556.78 C 1000.30 554.82, 1000.76 553.69, 1001.17 551.55 C 1001.57 549.41, 1001.52 548.19, 1001.12 546.08 C 1000.72 543.97, 1000.23 542.86, 999.14 540.99 C 998.06 539.11, 997.26 538.21, 995.70 536.69 C 994.14 535.18, 993.16 534.51, 991.37 533.43 C 989.57 532.35, 988.53 531.79, 986.75 531.30 C 984.97 530.81, 983.87 530.79, 982.47 530.97 C 981.06 531.14, 980.32 531.49, 979.72 532.18 C 979.11 532.87, 979.09 533.62, 979.42 534.44 C 979.76 535.25, 980.40 535.60, 981.39 536.26 C 982.39 536.93, 983.13 537.13, 984.40 537.75 C 985.67 538.37, 986.46 538.56, 987.76 539.36 C 989.06 540.16, 989.77 540.72, 990.91 541.76 C 992.06 542.80, 992.66 543.42, 993.49 544.56 C 994.31 545.71, 994.68 546.31, 995.05 547.50 C 995.43 548.70, 995.53 549.31, 995.35 550.53 C 995.17 551.75, 994.96 552.39, 994.14 553.61 C 993.31 554.83, 992.73 555.48, 991.22 556.63 C 989.72 557.77, 988.76 558.34, 986.63 559.35 C 984.50 560.36, 983.19 560.91, 980.58 561.69 C 977.96 562.47, 976.43 562.87, 973.56 563.25 C 970.68 563.64, 969.05 563.73, 966.20 563.62 C 963.36 563.51, 961.85 563.20, 959.34 562.70 C 956.83 562.20, 955.61 561.90, 953.65 561.12 C 951.69 560.34, 950.88 559.84, 949.56 558.80 C 948.23 557.76, 947.74 557.13, 947.03 555.90 C 946.32 554.67, 946.11 554.02, 946.00 552.65 C 945.89 551.29, 946.03 550.54, 946.48 549.07 C 946.93 547.61, 947.30 546.78, 948.24 545.33 C 949.18 543.89, 949.81 543.13, 951.17 541.84 C 952.53 540.54, 953.40 539.92, 955.06 538.86 C 956.72 537.80, 957.67 537.31, 959.46 536.55 C 961.24 535.78, 962.22 535.49, 963.99 535.03 C 965.76 534.58, 966.69 534.44, 968.30 534.27 C 969.91 534.11, 970.71 534.07, 972.04 534.21 C 973.37 534.35, 973.88 534.56, 974.95 534.97 C 976.01 535.39, 976.44 535.81, 977.35 536.27 C 978.27 536.72, 978.60 537.02, 979.53 537.25 C 980.46 537.49, 981.07 537.82, 982.00 537.44 C 982.92 537.06, 983.80 536.35, 984.14 535.36" style="stroke: black; fill: black;"/><path d="M 1015.89,556.10 C 1016.64 556.79, 1017.38 556.84, 1018.76 556.89 C 1020.14 556.94, 1021.01 556.84, 1022.80 556.35 C 1024.58 555.86, 1025.72 555.37, 1027.67 554.46 C 1029.62 553.55, 1030.64 552.91, 1032.54 551.80 C 1034.44 550.69, 1035.43 550.09, 1037.16 548.90 C 1038.89 547.72, 1039.77 547.15, 1041.20 545.89 C 1042.63 544.63, 1043.33 543.98, 1044.31 542.59 C 1045.29 541.20, 1045.72 540.45, 1046.09 538.92 C 1046.47 537.39, 1046.55 536.48, 1046.18 534.93 C 1045.82 533.38, 1045.41 532.45, 1044.27 531.18 C 1043.13 529.90, 1042.25 529.31, 1040.47 528.56 C 1038.70 527.80, 1037.59 527.59, 1035.39 527.40 C 1033.19 527.22, 1031.92 527.30, 1029.46 527.63 C 1027.00 527.97, 1025.64 528.28, 1023.08 529.09 C 1020.53 529.91, 1019.15 530.45, 1016.68 531.71 C 1014.21 532.97, 1012.91 533.72, 1010.73 535.38 C 1008.56 537.04, 1007.47 538.01, 1005.80 540.01 C 1004.14 542.01, 1003.37 543.12, 1002.41 545.37 C 1001.44 547.62, 1001.09 548.87, 1000.96 551.24 C 1000.84 553.62, 1000.98 554.93, 1001.79 557.25 C 1002.60 559.57, 1003.29 560.79, 1005.02 562.85 C 1006.75 564.90, 1007.90 565.95, 1010.44 567.52 C 1012.99 569.09, 1014.60 569.69, 1017.74 570.71 C 1020.89 571.73, 1022.69 572.07, 1026.17 572.63 C 1029.66 573.20, 1031.55 573.37, 1035.16 573.53 C 1038.77 573.69, 1040.70 573.65, 1044.21 573.44 C 1047.73 573.23, 1049.53 573.04, 1052.73 572.48 C 1055.93 571.91, 1057.51 571.59, 1060.21 570.60 C 1062.91 569.61, 1064.15 568.94, 1066.23 567.55 C 1068.32 566.15, 1069.22 565.32, 1070.63 563.62 C 1072.04 561.93, 1072.53 560.94, 1073.29 559.06 C 1074.04 557.17, 1074.20 556.12, 1074.40 554.21 C 1074.60 552.31, 1074.49 551.29, 1074.30 549.52 C 1074.11 547.75, 1073.82 546.86, 1073.46 545.36 C 1073.10 543.87, 1073.02 543.13, 1072.49 542.06 C 1071.97 540.99, 1071.73 540.44, 1070.85 540.04 C 1069.97 539.63, 1069.10 539.66, 1068.11 540.04 C 1067.13 540.42, 1066.45 540.96, 1065.92 541.92 C 1065.39 542.89, 1065.34 543.55, 1065.47 544.87 C 1065.59 546.18, 1066.07 546.95, 1066.55 548.50 C 1067.02 550.06, 1067.38 550.97, 1067.85 552.64 C 1068.32 554.31, 1068.53 555.24, 1068.91 556.87 C 1069.29 558.49, 1069.43 559.39, 1069.75 560.77 C 1070.08 562.15, 1070.05 562.88, 1070.54 563.79 C 1071.02 564.69, 1071.32 565.04, 1072.16 565.30 C 1073.00 565.56, 1073.78 565.47, 1074.73 565.09 C 1075.68 564.72, 1076.39 564.30, 1076.93 563.41 C 1077.47 562.52, 1077.47 561.88, 1077.42 560.66 C 1077.37 559.45, 1076.90 558.71, 1076.67 557.33 C 1076.45 555.96, 1076.33 555.18, 1076.30 553.80 C 1076.28 552.41, 1076.27 551.71, 1076.55 550.40 C 1076.82 549.09, 1077.06 548.50, 1077.67 547.26 C 1078.29 546.02, 1078.68 545.37, 1079.64 544.20 C 1080.60 543.03, 1081.15 542.46, 1082.49 541.43 C 1083.82 540.39, 1084.63 539.86, 1086.31 539.02 C 1087.98 538.18, 1088.92 537.77, 1090.85 537.23 C 1092.79 536.69, 1093.91 536.48, 1095.98 536.32 C 1098.06 536.15, 1099.17 536.14, 1101.23 536.42 C 1103.28 536.69, 1104.34 536.96, 1106.28 537.69 C 1108.21 538.42, 1109.20 538.91, 1110.92 540.07 C 1112.64 541.22, 1113.44 541.93, 1114.88 543.46 C 1116.31 545.00, 1116.97 545.89, 1118.08 547.75 C 1119.20 549.61, 1119.62 550.66, 1120.46 552.74 C 1121.30 554.83, 1121.63 555.99, 1122.27 558.16 C 1122.92 560.34, 1123.14 561.51, 1123.70 563.63 C 1124.26 565.74, 1124.41 566.97, 1125.08 568.73 C 1125.75 570.49, 1126.25 571.31, 1127.05 572.42 C 1127.85 573.53, 1128.29 574.02, 1129.09 574.27 C 1129.90 574.53, 1130.51 574.35, 1131.05 573.70 C 1131.59 573.06, 1131.69 572.38, 1131.78 571.04 C 1131.87 569.70, 1131.79 568.82, 1131.50 567.00 C 1131.20 565.17, 1130.84 564.08, 1130.30 561.92 C 1129.76 559.76, 1129.50 558.56, 1128.79 556.21 C 1128.08 553.86, 1127.74 552.57, 1126.75 550.17 C 1125.76 547.78, 1125.23 546.49, 1123.83 544.23 C 1122.42 541.98, 1121.58 540.82, 1119.74 538.88 C 1117.91 536.94, 1116.85 536.02, 1114.64 534.54 C 1112.42 533.05, 1111.15 532.41, 1108.67 531.44 C 1106.18 530.48, 1104.83 530.13, 1102.20 529.72 C 1099.58 529.31, 1098.17 529.25, 1095.52 529.40 C 1092.88 529.55, 1091.47 529.80, 1088.99 530.48 C 1086.52 531.15, 1085.32 531.67, 1083.15 532.77 C 1080.98 533.88, 1079.91 534.54, 1078.14 535.98 C 1076.37 537.42, 1075.59 538.30, 1074.30 539.97 C 1073.02 541.64, 1072.56 542.59, 1071.71 544.34 C 1070.86 546.09, 1070.58 546.96, 1070.06 548.74 C 1069.55 550.51, 1069.41 551.45, 1069.13 553.23 C 1068.85 555.00, 1068.80 555.93, 1068.68 557.60 C 1068.56 559.28, 1068.30 560.20, 1068.52 561.59 C 1068.74 562.98, 1068.96 563.71, 1069.78 564.56 C 1070.60 565.41, 1071.49 565.72, 1072.61 565.83 C 1073.73 565.94, 1074.61 565.69, 1075.40 565.12 C 1076.19 564.54, 1076.36 564.03, 1076.57 562.95 C 1076.78 561.87, 1076.55 561.19, 1076.43 559.72 C 1076.31 558.25, 1076.18 557.32, 1075.95 555.59 C 1075.72 553.86, 1075.54 552.88, 1075.28 551.07 C 1075.02 549.27, 1074.95 548.25, 1074.66 546.56 C 1074.36 544.87, 1074.36 543.89, 1073.79 542.63 C 1073.22 541.36, 1072.77 540.79, 1071.80 540.22 C 1070.82 539.65, 1069.97 539.57, 1068.91 539.75 C 1067.85 539.93, 1067.08 540.32, 1066.50 541.12 C 1065.93 541.91, 1065.96 542.57, 1066.01 543.74 C 1066.07 544.90, 1066.47 545.60, 1066.78 546.94 C 1067.09 548.29, 1067.31 549.06, 1067.56 550.45 C 1067.81 551.84, 1067.99 552.58, 1068.03 553.90 C 1068.07 555.22, 1068.13 555.87, 1067.77 557.07 C 1067.42 558.27, 1067.19 558.83, 1066.25 559.91 C 1065.30 560.99, 1064.67 561.52, 1063.04 562.47 C 1061.40 563.42, 1060.35 563.83, 1058.06 564.65 C 1055.77 565.46, 1054.42 565.92, 1051.57 566.54 C 1048.73 567.15, 1047.04 567.45, 1043.82 567.70 C 1040.60 567.95, 1038.77 567.99, 1035.46 567.79 C 1032.16 567.59, 1030.38 567.36, 1027.28 566.69 C 1024.18 566.03, 1022.60 565.51, 1019.97 564.47 C 1017.35 563.43, 1016.16 562.71, 1014.16 561.48 C 1012.16 560.26, 1011.28 559.63, 1009.97 558.34 C 1008.66 557.05, 1008.19 556.38, 1007.59 555.02 C 1007.00 553.67, 1006.89 552.99, 1006.98 551.58 C 1007.07 550.18, 1007.29 549.44, 1008.04 547.99 C 1008.79 546.55, 1009.37 545.77, 1010.72 544.36 C 1012.07 542.95, 1012.97 542.20, 1014.79 540.95 C 1016.61 539.70, 1017.73 539.08, 1019.81 538.11 C 1021.90 537.14, 1023.10 536.71, 1025.23 536.09 C 1027.36 535.47, 1028.52 535.26, 1030.46 535.00 C 1032.39 534.75, 1033.37 534.75, 1034.92 534.81 C 1036.47 534.86, 1037.14 535.07, 1038.20 535.27 C 1039.27 535.48, 1039.67 535.63, 1040.26 535.84 C 1040.85 536.05, 1041.01 536.06, 1041.15 536.34 C 1041.30 536.61, 1041.28 536.75, 1040.99 537.23 C 1040.69 537.71, 1040.46 538.04, 1039.69 538.75 C 1038.92 539.47, 1038.36 539.93, 1037.12 540.80 C 1035.89 541.67, 1035.10 542.20, 1033.51 543.10 C 1031.92 544.01, 1030.98 544.52, 1029.18 545.33 C 1027.38 546.15, 1026.34 546.44, 1024.51 547.17 C 1022.67 547.90, 1021.56 548.21, 1020.00 548.99 C 1018.44 549.78, 1017.72 550.20, 1016.71 551.09 C 1015.71 551.98, 1015.15 552.45, 1014.98 553.45 C 1014.82 554.45, 1015.13 555.41, 1015.89 556.10" style="stroke: black; fill: black;"/><path d="M 1165.25,500.40 C 1164.36 500.69, 1164.10 501.13, 1163.53 502.04 C 1162.96 502.95, 1162.71 503.52, 1162.41 504.95 C 1162.12 506.39, 1162.12 507.37, 1162.05 509.20 C 1161.99 511.03, 1162.10 512.03, 1162.08 514.10 C 1162.06 516.18, 1162.00 517.29, 1161.94 519.56 C 1161.88 521.83, 1161.83 523.04, 1161.78 525.46 C 1161.72 527.87, 1161.70 529.14, 1161.66 531.63 C 1161.62 534.12, 1161.58 535.43, 1161.58 537.92 C 1161.58 540.42, 1161.46 541.84, 1161.66 544.11 C 1161.87 546.38, 1162.08 547.58, 1162.59 549.29 C 1163.09 551.01, 1163.39 552.00, 1164.18 552.68 C 1164.97 553.36, 1165.74 553.38, 1166.53 552.68 C 1167.32 551.98, 1167.70 550.92, 1168.13 549.17 C 1168.56 547.43, 1168.58 546.20, 1168.68 543.94 C 1168.77 541.69, 1168.61 540.34, 1168.60 537.91 C 1168.59 535.47, 1168.58 534.20, 1168.63 531.75 C 1168.67 529.31, 1168.73 528.06, 1168.83 525.68 C 1168.92 523.31, 1168.96 522.13, 1169.10 519.88 C 1169.24 517.63, 1169.35 516.51, 1169.52 514.45 C 1169.69 512.39, 1169.84 511.39, 1169.96 509.60 C 1170.08 507.80, 1170.20 506.90, 1170.10 505.48 C 1170.00 504.06, 1169.88 503.48, 1169.46 502.51 C 1169.03 501.53, 1168.84 501.03, 1168.00 500.61 C 1167.16 500.19, 1166.15 500.12, 1165.25 500.40" style="stroke: black; fill: black;"/><path d="M 1158.26,588.59 C 1159.25 588.33, 1159.74 587.85, 1159.64 587.61 C 1159.53 587.36, 1158.68 587.21, 1157.73 587.36 C 1156.79 587.50, 1155.79 588.02, 1154.90 588.32 C 1154.01 588.63, 1153.31 588.76, 1153.27 588.88 C 1153.24 588.99, 1153.74 588.95, 1154.73 588.89 C 1155.73 588.84, 1157.28 588.85, 1158.26 588.59" style="stroke: black; fill: black;"/></svg>