<?xml version="1.0" encoding="UTF-8" standalone="no"?>
<!-- Created with Inkscape (http://www.inkscape.org/) -->

<svg
   width="83.797554mm"
   height="11.582423mm"
   viewBox="0 0 83.797557 11.582423"
   version="1.1"
   id="svg1"
   inkscape:version="1.4.3 (0d15f75, 2025-12-25)"
   sodipodi:docname="doen-doen-doen.svg"
   xmlns:inkscape="http://www.inkscape.org/namespaces/inkscape"
   xmlns:sodipodi="http://sodipodi.sourceforge.net/DTD/sodipodi-0.dtd"
   xmlns="http://www.w3.org/2000/svg"
   xmlns:svg="http://www.w3.org/2000/svg">
  <sodipodi:namedview
     id="namedview1"
     pagecolor="#ffffff"
     bordercolor="#000000"
     borderopacity="0.25"
     inkscape:showpageshadow="2"
     inkscape:pageopacity="0.0"
     inkscape:pagecheckerboard="0"
     inkscape:deskcolor="#d1d1d1"
     inkscape:document-units="mm"
     inkscape:zoom="0.86679994"
     inkscape:cx="178.81865"
     inkscape:cy="68.64329"
     inkscape:window-width="1190"
     inkscape:window-height="1122"
     inkscape:window-x="0"
     inkscape:window-y="25"
     inkscape:window-maximized="0"
     inkscape:current-layer="layer1" />
  <defs
     id="defs1" />
  <g
     inkscape:label="Laag 1"
     inkscape:groupmode="layer"
     id="layer1"
     transform="translate(-18.009249,-2.7721291)">
    <path
       style="font-size:11.2889px;font-family:'Aerosoldier Drip PERSONAL USE';-inkscape-font-specification:'Aerosoldier Drip PERSONAL USE, Normal';stroke-width:0.264583"
       d="m 22.028099,13.474012 c 0.654756,-0.135467 2.122313,-0.72249 2.98027,-1.151468 0.857956,-0.428978 2.731913,-1.399824 3.454403,-1.783646 1.016001,-0.51929 1.33209,-1.1740461 1.151468,-1.9191135 C 29.365884,7.5812057 28.011216,7.0393384 26.995215,6.7909826 25.956636,6.520049 25.256724,6.40716 24.082679,6.0459152 23.744012,6.0007596 23.224722,5.6620926 23.111833,5.5717814 22.208721,4.9847586 21.553965,3.7204017 20.402497,4.713825 c -0.677334,0.7676452 -0.587023,1.3998236 0,1.6707572 0.2032,0.090311 0.383823,0.225778 0.541867,0.4064004 0.541868,0.5870228 1.377246,2.5512915 1.512713,3.3415144 0.02258,0.135467 0.09031,1.083735 0.02258,1.151468 -0.09031,0.158045 -0.699912,0.496712 -0.92569,0.677334 -0.338667,0.248356 -0.632178,0.383823 -0.677334,0.857956 -0.02258,0.406401 0.158045,0.609601 0.451556,0.677334 l 0.03387,0.51929 c 0.02258,0.225778 0.06773,0.338667 0.169333,0.327378 0.1016,0 0.158045,-0.112889 0.169334,-0.3048 0.01129,-0.1016 0.02258,-0.31609 0.02258,-0.51929 z m 2.190047,-2.709336 -0.948268,-3.3866706 c 0.699912,0.3838227 4.380093,1.0160011 4.538138,1.7610685 0.06773,0.2709336 -0.361245,0.5418672 -0.745068,0.6999118 -0.925689,0.3612453 -1.873957,0.6999123 -2.844802,0.9256903 z m 8.319922,-0.51929 c -0.699912,0.72249 -2.235203,0.587023 -2.844803,-0.180622 -0.338667,-0.4064007 -0.767645,-1.6256019 -0.428978,-2.0771579 0.09031,-0.112889 0.541867,-0.2709336 0.677334,-0.2935114 1.354668,-0.2032002 3.093158,0.4741338 2.822225,2.0997354 -0.02258,0.1354668 -0.135467,0.3386669 -0.225778,0.4515559 z m -3.476982,1.557868 c 1.557869,1.038579 3.747915,0.51929 4.786494,-0.993423 0.158045,-0.248356 0.316089,-0.564445 0.428978,-0.9256897 C 34.434603,9.3422741 34.389447,8.7326735 34.163669,8.2133841 33.825002,7.3780054 33.125091,6.6780936 32.176823,6.3394266 31.409178,6.068493 31.025355,6.0910708 30.25771,6.3845822 c -0.180623,0.090311 -0.316089,0.225778 -0.51929,0.2709336 0.270934,-0.4289782 0.903113,-0.8805342 1.128891,-1.1740456 0.112889,-0.1580446 0.04515,-0.4967116 -0.31609,-0.6321784 -0.6096,-0.2483558 -1.53529,0.4741338 -1.941691,1.2192012 -0.496711,0.8805342 -0.587022,1.5352905 -0.835378,2.4835581 -0.2032,1.3998236 0.428978,2.6190249 1.286934,3.2512029 z m 6.570141,1.490135 c 0.8128,-0.2032 0.632178,-0.2032 1.648179,-0.880534 0.72249,-0.474134 3.318937,-2.4158247 3.544715,-3.1157365 0.2032,-0.564445 -0.09031,-0.903112 -0.677334,-0.7450674 -1.174046,0.677334 -2.528714,1.9868469 -3.770493,2.4384029 -1.241779,0.428978 -1.016001,-0.203201 -1.106312,-1.2192017 0.654756,-0.045156 2.596447,-0.2709336 3.048003,-0.6096006 0.699912,-0.4741338 0.92569,-1.580446 0.338667,-1.6030238 -0.767645,-0.045156 -2.302936,0.5870228 -3.138314,0.5870228 -0.225778,0 -0.248356,-0.1354668 -0.248356,-0.338667 V 6.4523156 c 0.677334,0.1354668 1.354668,0.2935114 2.032002,0.3612448 0.338667,0.045156 1.083734,0.112889 1.399823,0.090311 0.541868,-0.067733 1.219202,-0.790223 0.835379,-1.3095124 C 39.333986,5.3234256 36.850428,4.9621808 36.308561,4.7815584 35.360293,4.4654692 34.57007,4.2171133 33.870158,4.3525801 c -0.699912,0.1354669 -1.083734,0.8353787 -0.92569,1.3546681 0.158045,0.4967116 0.745068,0.8353786 0.835379,1.6707572 0.02258,0.2483559 -0.135467,3.8156486 -0.158045,4.0188486 -0.03387,1.061157 0.654757,1.772357 1.411113,1.907824 l 0.03387,0.417689 c 0.02258,0.225778 0.06773,0.338667 0.169333,0.327379 0.1016,0 0.158045,-0.112889 0.169334,-0.304801 0.01129,-0.09031 0.02258,-0.248356 0.02258,-0.417689 z m 5.576723,-0.248356 c 0.72249,0.383823 1.941691,-0.541867 1.693335,-1.106312 -0.180622,-0.383822 -1.648179,-0.835378 -1.986846,-0.835378 0.248355,-0.248356 0.857956,-0.993424 0.293511,-2.1674693 1.241779,1.4449793 2.551291,3.0480033 2.709336,3.2512033 0.316089,0.372534 0.609601,0.62089 0.869245,0.677334 l 0.03387,0.587023 c 0.02258,0.225778 0.06773,0.338667 0.169334,0.327378 0.1016,0 0.158044,-0.112889 0.169333,-0.3048 0.02258,-0.146756 0.02258,-0.372534 0.03387,-0.643468 0.214489,-0.09031 0.428978,-0.282222 0.688623,-0.620889 0.248356,-0.293512 0.428978,-0.993423 0.02258,-1.151468 -0.383823,-0.158045 -1.106313,-1.016001 -1.377246,-1.9416909 -0.293512,-0.9482676 -0.51929,-1.7836463 -0.51929,-3.1383143 0,-1.241779 -1.761068,-0.1580446 -1.806224,0.790223 -0.02258,0.7450675 0.72249,1.8965353 0.993423,2.5512915 -0.158044,0.022578 -3.612448,-4.6510269 -3.702759,-4.7413381 -0.745067,-0.6999119 -1.986846,0.8579564 -1.557868,1.6256016 2.212624,1.9642687 2.46098,4.5381382 1.512713,4.6961822 -1.128891,0.428979 -1.354669,1.580446 -0.677334,1.625602 0.722489,0.04516 2.280357,0.4064 2.438402,0.519289 z m 7.834506,0.428979 c 0.654756,-0.135467 2.122313,-0.72249 2.98027,-1.151468 0.857956,-0.428978 2.731914,-1.399824 3.454403,-1.783646 1.016001,-0.51929 1.33209,-1.1740461 1.151468,-1.9191135 C 56.380241,7.5812057 55.025573,7.0393384 54.009572,6.7909826 52.970993,6.520049 52.271081,6.40716 51.097036,6.0459152 50.758369,6.0007596 50.239079,5.6620926 50.12619,5.5717814 49.223078,4.9847586 48.568322,3.7204017 47.416854,4.713825 c -0.677334,0.7676452 -0.587022,1.3998236 0,1.6707572 0.203201,0.090311 0.383823,0.225778 0.541868,0.4064004 0.541867,0.5870228 1.377245,2.5512915 1.512712,3.3415144 0.02258,0.135467 0.09031,1.083735 0.02258,1.151468 -0.09031,0.158045 -0.699912,0.496712 -0.92569,0.677334 -0.338667,0.248356 -0.632178,0.383823 -0.677334,0.857956 -0.02258,0.406401 0.158045,0.609601 0.451556,0.677334 l 0.03387,0.51929 c 0.02258,0.225778 0.06773,0.338667 0.169333,0.327378 0.1016,0 0.158045,-0.112889 0.169334,-0.3048 0.01129,-0.1016 0.02258,-0.31609 0.02258,-0.51929 z m 2.190047,-2.709336 -0.948268,-3.3866706 c 0.699912,0.3838227 4.380093,1.0160011 4.538138,1.7610685 0.06773,0.2709336 -0.361245,0.5418672 -0.745067,0.6999118 -0.92569,0.3612453 -1.873958,0.6999123 -2.844803,0.9256903 z m 8.319921,-0.51929 c -0.699911,0.72249 -2.235202,0.587023 -2.844803,-0.180622 -0.338667,-0.4064007 -0.767645,-1.6256019 -0.428978,-2.0771579 0.09031,-0.112889 0.541867,-0.2709336 0.677334,-0.2935114 1.354668,-0.2032002 3.093159,0.4741338 2.822225,2.0997354 -0.02258,0.1354668 -0.135466,0.3386669 -0.225778,0.4515559 z m -3.476981,1.557868 c 1.557868,1.038579 3.747915,0.51929 4.786494,-0.993423 0.158044,-0.248356 0.316089,-0.564445 0.428978,-0.9256897 C 61.44896,9.3422741 61.403804,8.7326735 61.178026,8.2133841 60.839359,7.3780054 60.139447,6.6780936 59.19118,6.3394266 58.423534,6.068493 58.039712,6.0910708 57.272067,6.3845822 c -0.180623,0.090311 -0.31609,0.225778 -0.51929,0.2709336 0.270934,-0.4289782 0.903112,-0.8805342 1.12889,-1.1740456 0.112889,-0.1580446 0.04516,-0.4967116 -0.316089,-0.6321784 -0.609601,-0.2483558 -1.535291,0.4741338 -1.941691,1.2192012 -0.496712,0.8805342 -0.587023,1.5352905 -0.835379,2.4835581 -0.2032,1.3998236 0.428979,2.6190249 1.286935,3.2512029 z m 6.57014,1.490135 c 0.812801,-0.2032 0.632179,-0.2032 1.64818,-0.880534 0.722489,-0.474134 3.318936,-2.4158247 3.544714,-3.1157365 0.203201,-0.564445 -0.09031,-0.903112 -0.677334,-0.7450674 -1.174045,0.677334 -2.528713,1.9868469 -3.770492,2.4384029 -1.241779,0.428978 -1.016001,-0.203201 -1.106313,-1.2192017 0.654757,-0.045156 2.596447,-0.2709336 3.048003,-0.6096006 0.699912,-0.4741338 0.92569,-1.580446 0.338667,-1.6030238 -0.767645,-0.045156 -2.302935,0.5870228 -3.138314,0.5870228 -0.225778,0 -0.248356,-0.1354668 -0.248356,-0.338667 V 6.4523156 c 0.677334,0.1354668 1.354668,0.2935114 2.032002,0.3612448 0.338667,0.045156 1.083735,0.112889 1.399824,0.090311 0.541867,-0.067733 1.219201,-0.790223 0.835379,-1.3095124 C 66.348343,5.3234256 63.864784,4.9621808 63.322917,4.7815584 62.37465,4.4654692 61.584427,4.2171133 60.884515,4.3525801 60.184603,4.488047 59.80078,5.1879588 59.958825,5.7072482 c 0.158045,0.4967116 0.745067,0.8353786 0.835379,1.6707572 0.02258,0.2483559 -0.135467,3.8156486 -0.158045,4.0188486 -0.03387,1.061157 0.654756,1.772357 1.411112,1.907824 l 0.03387,0.417689 c 0.02258,0.225778 0.06773,0.338667 0.169334,0.327379 0.1016,0 0.158044,-0.112889 0.169333,-0.304801 0.01129,-0.09031 0.02258,-0.248356 0.02258,-0.417689 z m 5.576722,-0.248356 c 0.722489,0.383823 1.941691,-0.541867 1.693335,-1.106312 -0.180623,-0.383822 -1.64818,-0.835378 -1.986847,-0.835378 0.248356,-0.248356 0.857957,-0.993424 0.293512,-2.1674693 1.241779,1.4449793 2.551291,3.0480033 2.709336,3.2512033 0.316089,0.372534 0.6096,0.62089 0.869245,0.677334 l 0.03387,0.587023 c 0.02258,0.225778 0.06773,0.338667 0.169333,0.327378 0.1016,0 0.158045,-0.112889 0.169334,-0.3048 0.02258,-0.146756 0.02258,-0.372534 0.03387,-0.643468 0.214489,-0.09031 0.428978,-0.282222 0.688622,-0.620889 0.248356,-0.293512 0.428979,-0.993423 0.02258,-1.151468 C 72.534665,10.900142 71.812175,10.042186 71.541241,9.1164961 71.24773,8.1682285 71.021952,7.3328498 71.021952,5.9781818 c 0,-1.241779 -1.761068,-0.1580446 -1.806224,0.790223 -0.02258,0.7450675 0.72249,1.8965353 0.993423,2.5512915 -0.158044,0.022578 -3.612448,-4.6510269 -3.702759,-4.7413381 -0.745068,-0.6999119 -1.986847,0.8579564 -1.557868,1.6256016 2.212624,1.9642687 2.46098,4.5381382 1.512712,4.6961822 -1.12889,0.428979 -1.354668,1.580446 -0.677334,1.625602 0.72249,0.04516 2.280358,0.4064 2.438403,0.519289 z m 7.834506,0.428979 c 0.654756,-0.135467 2.122313,-0.72249 2.980269,-1.151468 0.857957,-0.428978 2.731914,-1.399824 3.454404,-1.783646 1.016001,-0.51929 1.33209,-1.1740461 1.151468,-1.9191135 C 83.394596,7.5812057 82.039928,7.0393384 81.023927,6.7909826 79.985348,6.520049 79.285436,6.40716 78.111391,6.0459152 77.772724,6.0007596 77.253434,5.6620926 77.140545,5.5717814 76.237433,4.9847586 75.582677,3.7204017 74.431209,4.713825 c -0.677334,0.7676452 -0.587023,1.3998236 0,1.6707572 0.2032,0.090311 0.383823,0.225778 0.541867,0.4064004 0.541867,0.5870228 1.377246,2.5512915 1.512713,3.3415144 0.02258,0.135467 0.09031,1.083735 0.02258,1.151468 -0.09031,0.158045 -0.699912,0.496712 -0.92569,0.677334 -0.338667,0.248356 -0.632179,0.383823 -0.677334,0.857956 -0.02258,0.406401 0.158044,0.609601 0.451556,0.677334 l 0.03387,0.51929 c 0.02258,0.225778 0.06773,0.338667 0.169333,0.327378 0.1016,0 0.158045,-0.112889 0.169334,-0.3048 0.01129,-0.1016 0.02258,-0.31609 0.02258,-0.51929 z M 78.246857,10.764676 77.29859,7.3780054 c 0.699912,0.3838227 4.380093,1.0160011 4.538138,1.7610685 0.06773,0.2709336 -0.361245,0.5418672 -0.745068,0.6999118 -0.92569,0.3612453 -1.873957,0.6999123 -2.844803,0.9256903 z m 8.319922,-0.51929 c -0.699912,0.72249 -2.235202,0.587023 -2.844803,-0.180622 -0.338667,-0.4064007 -0.767645,-1.6256019 -0.428978,-2.0771579 0.09031,-0.112889 0.541867,-0.2709336 0.677334,-0.2935114 1.354668,-0.2032002 3.093159,0.4741338 2.822225,2.0997354 -0.02258,0.1354668 -0.135467,0.3386669 -0.225778,0.4515559 z m -3.476981,1.557868 c 1.557868,1.038579 3.747915,0.51929 4.786494,-0.993423 0.158044,-0.248356 0.316089,-0.564445 0.428978,-0.9256897 C 88.463314,9.3422741 88.418159,8.7326735 88.192381,8.2133841 87.853714,7.3780054 87.153802,6.6780936 86.205534,6.3394266 85.437889,6.068493 85.054066,6.0910708 84.286421,6.3845822 84.105799,6.4748934 83.970332,6.6103602 83.767132,6.6555158 84.038065,6.2265376 84.670244,5.7749816 84.896022,5.4814702 85.008911,5.3234256 84.941177,4.9847586 84.579933,4.8492918 83.970332,4.600936 83.044642,5.3234256 82.638242,6.068493 82.14153,6.9490272 82.051219,7.6037835 81.802863,8.5520511 c -0.2032,1.3998236 0.428978,2.6190249 1.286935,3.2512029 z m 6.57014,1.490135 c 0.812801,-0.2032 0.632178,-0.2032 1.648179,-0.880534 0.72249,-0.474134 3.318937,-2.4158247 3.544715,-3.1157365 0.2032,-0.564445 -0.09031,-0.903112 -0.677334,-0.7450674 -1.174046,0.677334 -2.528714,1.9868469 -3.770493,2.4384029 -1.241779,0.428978 -1.016001,-0.203201 -1.106312,-1.2192017 0.654756,-0.045156 2.596447,-0.2709336 3.048003,-0.6096006 0.699912,-0.4741338 0.92569,-1.580446 0.338667,-1.6030238 -0.767645,-0.045156 -2.302935,0.5870228 -3.138314,0.5870228 -0.225778,0 -0.248356,-0.1354668 -0.248356,-0.338667 V 6.4523156 c 0.677334,0.1354668 1.354668,0.2935114 2.032002,0.3612448 0.338667,0.045156 1.083735,0.112889 1.399824,0.090311 0.541867,-0.067733 1.219201,-0.790223 0.835378,-1.3095124 C 93.362697,5.3234256 90.879139,4.9621808 90.337272,4.7815584 89.389004,4.4654692 88.598781,4.2171133 87.898869,4.3525801 87.198958,4.488047 86.815135,5.1879588 86.97318,5.7072482 c 0.158044,0.4967116 0.745067,0.8353786 0.835378,1.6707572 0.02258,0.2483559 -0.135467,3.8156486 -0.158044,4.0188486 -0.03387,1.061157 0.654756,1.772357 1.411112,1.907824 l 0.03387,0.417689 c 0.02258,0.225778 0.06773,0.338667 0.169333,0.327379 0.1016,0 0.158045,-0.112889 0.169334,-0.304801 0.01129,-0.09031 0.02258,-0.248356 0.02258,-0.417689 z m 5.576725,-0.248356 c 0.72249,0.383823 1.941691,-0.541867 1.693335,-1.106312 -0.180622,-0.383822 -1.648179,-0.835378 -1.986846,-0.835378 0.248356,-0.248356 0.857956,-0.993424 0.293511,-2.1674693 1.241779,1.4449793 2.551292,3.0480033 2.709336,3.2512033 0.31609,0.372534 0.609601,0.62089 0.869246,0.677334 l 0.03387,0.587023 c 0.02258,0.225778 0.06773,0.338667 0.169334,0.327378 0.1016,0 0.158044,-0.112889 0.169333,-0.3048 0.02258,-0.146756 0.02258,-0.372534 0.03387,-0.643468 0.214489,-0.09031 0.428978,-0.282222 0.688623,-0.620889 0.248352,-0.293512 0.428982,-0.993423 0.02258,-1.151468 C 99.549023,10.900142 98.826534,10.042186 98.5556,9.1164961 98.262089,8.1682285 98.036311,7.3328498 98.036311,5.9781818 c 0,-1.241779 -1.761069,-0.1580446 -1.806225,0.790223 -0.02258,0.7450675 0.72249,1.8965353 0.993424,2.5512915 -0.158045,0.022578 -3.612448,-4.6510269 -3.70276,-4.7413381 -0.745067,-0.6999119 -1.986846,0.8579564 -1.557868,1.6256016 2.212625,1.9642687 2.46098,4.5381382 1.512713,4.6961822 -1.12889,0.428979 -1.354668,1.580446 -0.677334,1.625602 0.722489,0.04516 2.280358,0.4064 2.438402,0.519289 z m 4.346232,0.891824 c 0.699915,0.169333 2.223915,-1.625602 1.444975,-2.47227 -0.76764,-0.846667 -3.070577,2.05458 -1.444975,2.47227 z m 0.03387,-3.18347 c 0.406398,0.270933 1.004708,-0.428979 1.095028,-0.9144013 0.13546,-0.8128008 0.37253,-4.5042712 0.58702,-5.4976945 0.24835,-1.2192012 0.0564,-1.5691571 -1.00471,-1.0272899 -0.993428,0.5080005 -1.083739,0.7450674 -1.049872,2.1110244 0,1.0498677 0.05644,3.3189367 0.146756,4.6058713 0.04515,0.462845 0.06773,0.632178 0.225778,0.72249 z"
       id="text1"
       aria-label=" DOEN DOEN DOEN!" />
  </g>
</svg>
