<?xml version="1.0" encoding="UTF-8" standalone="no"?>
<!-- Created with Inkscape (http://www.inkscape.org/) -->

<svg
   width="65.667549mm"
   height="12.022685mm"
   viewBox="0 0 65.667551 12.022685"
   version="1.1"
   id="svg1"
   inkscape:version="1.4.3 (0d15f75, 2025-12-25)"
   sodipodi:docname="mechanic-four.svg"
   xmlns:inkscape="http://www.inkscape.org/namespaces/inkscape"
   xmlns:sodipodi="http://sodipodi.sourceforge.net/DTD/sodipodi-0.dtd"
   xmlns="http://www.w3.org/2000/svg"
   xmlns:svg="http://www.w3.org/2000/svg">
  <sodipodi:namedview
     id="namedview1"
     pagecolor="#ffffff"
     bordercolor="#000000"
     borderopacity="0.25"
     inkscape:showpageshadow="2"
     inkscape:pageopacity="0.0"
     inkscape:pagecheckerboard="0"
     inkscape:deskcolor="#d1d1d1"
     inkscape:document-units="mm"
     inkscape:zoom="0.86679994"
     inkscape:cx="197.27735"
     inkscape:cy="68.64329"
     inkscape:window-width="1190"
     inkscape:window-height="1122"
     inkscape:window-x="0"
     inkscape:window-y="25"
     inkscape:window-maximized="0"
     inkscape:current-layer="layer1" />
  <defs
     id="defs1" />
  <g
     inkscape:label="Laag 1"
     inkscape:groupmode="layer"
     id="layer1"
     transform="translate(-16.203026,-2.8850207)">
    <path
       style="font-size:11.2889px;font-family:'Aerosoldier Drip PERSONAL USE';-inkscape-font-specification:'Aerosoldier Drip PERSONAL USE, Normal';stroke-width:0.264583"
       d="m 17.17387,14.015879 c 0.564445,-0.270934 1.174046,-0.677334 1.761069,-0.92569 0.474133,-0.180622 1.286934,-0.316089 1.422401,-0.338667 0.428978,-0.04516 0.903112,-0.496712 0.383823,-1.309512 -0.383823,-0.564445 -1.219202,0.02258 -1.738491,0 0,-0.903112 0.180622,-1.9416913 0.316089,-2.8222255 0.135467,0.338667 0.609601,1.354668 0.903112,1.8739575 0.383823,0.654756 0.72249,1.151468 1.512713,0.541867 0.812801,-0.6096 0.474134,-0.970845 0.587023,-1.8288017 0.09031,-0.6321784 0.361244,-1.6481794 0.474133,-2.1900467 0.135467,0.5192895 0.406401,1.3095125 0.564446,1.7384907 0.361244,0.9934232 0.745067,2.0094247 1.241779,2.9576917 0,0.112889 -1.083735,0.158045 -1.309513,0.225778 -0.383823,0.112889 -0.857956,0.496712 -0.948268,0.880534 -0.112889,0.541868 0.04516,0.767646 0.349956,0.82409 l 0.03387,0.485423 c 0.02258,0.225778 0.06773,0.338667 0.169334,0.327378 0.1016,0 0.158044,-0.112889 0.169333,-0.3048 0.01129,-0.1016 0.02258,-0.304801 0.02258,-0.508001 0.598312,-0.07902 1.354668,-0.4064 1.715913,-0.417689 0.383822,-0.02258 0.767645,0.09031 1.174045,0.135467 0.812801,0.02258 1.106313,-1.422402 0.609601,-1.64818 C 26.092101,11.487165 25.437345,9.8615635 25.053523,8.8681403 24.782589,7.8972949 24.534233,6.9264494 24.218144,5.9781818 24.082677,5.5717814 23.563388,3.7881351 23.315032,3.6300905 c -0.51929,-0.3160892 -1.557868,0.3612448 -1.693335,0.8805343 -0.09031,0.3612448 -0.06773,0.9256898 -0.135467,1.354668 l -0.428978,2.5061359 c -0.02258,0.067733 -0.02258,0.2935114 -0.135467,0.2709336 C 20.35734,7.2199608 20.312184,5.616937 19.770317,4.2171133 19.318761,3.9236019 18.347916,4.713825 18.235027,5.1879588 c -0.180623,0.8353786 0.09031,1.806224 -0.112889,2.6416027 l -0.293512,1.6256016 c -0.338667,1.1740459 -0.587022,2.5061359 -1.106312,3.3866699 -0.519289,0.880534 -0.316089,1.557868 0.451556,1.174046 z m 8.940817,-1.738491 c 1.715912,1.625602 3.318936,0.04516 4.380093,-1.399823 0.2032,-0.383823 0.09031,-0.812801 -0.338667,-0.812801 -0.880534,0.06773 -1.828802,1.73849 -2.822225,1.106312 -0.09031,-0.04516 -0.428978,-0.632178 -0.180623,-0.587023 0.654757,0.06773 1.106313,0.316089 1.761069,-0.02258 0.4064,-0.2032 0.880534,-0.8353783 0.993423,-1.6256013 C 29.975491,8.3262731 29.523935,6.5652046 28.8466,5.729826 27.627399,4.2622689 26.137264,5.2556922 25.572819,7.0619162 24.895485,9.1164961 24.985797,10.945298 26.114687,12.277388 Z m 1.964268,-3.3415143 c -0.248356,0.1580446 -1.219201,0.067733 -1.309512,-0.1806224 -0.09031,-0.2709336 0.09031,-2.0094243 0.338667,-2.0771577 0.338667,-0.067733 0.541867,0.3838226 0.654756,0.6547562 0.180622,0.4967117 0.248356,1.0837345 0.316089,1.6030239 z m 4.391381,3.5672923 c 0.654756,-0.112889 1.286934,-0.361245 1.94169,-0.903112 0.632179,-0.541867 1.106313,-1.399823 1.241779,-1.8513795 0.31609,-1.0611566 -0.383822,-1.2869346 -0.880534,-0.5418672 -0.338667,0.4967116 -0.6096,0.9708457 -1.286934,1.3772457 -1.964269,1.196624 -2.415825,-1.2417789 -1.535291,-2.5738691 0.361245,-0.5418672 0.880534,-0.5644451 1.151468,0.045156 0.214489,0.4289782 0.158045,1.2643568 0.541867,1.3772458 l 0.02258,0.2935114 c 0.02258,0.225778 0.06773,0.3386673 0.169333,0.3273783 0.101601,0 0.158045,-0.1128892 0.169334,-0.3048005 0.01129,-0.090311 0.02258,-0.225778 0.02258,-0.3725337 0.06773,-0.033867 0.146755,-0.079022 0.248356,-0.1467557 0.632178,-0.4064004 0.496711,-0.6321784 0.722489,-1.1966234 0.225778,-0.6547563 0.72249,-1.7610685 0.699912,-2.4384025 -0.02258,-0.8128008 -1.264357,0.1580446 -1.399824,0.5418672 -0.790223,-0.5870228 -1.783646,-0.3838226 -2.528713,0.1806224 -1.241779,0.9256898 -1.964269,2.7093361 -1.761069,4.4704042 0.361245,1.512713 1.377246,1.919113 2.460981,1.715913 z m 4.35752,-0.519289 c 0.270934,-0.474134 -0.04515,-0.812801 -0.07902,-1.241779 -0.02258,-0.72249 0.666045,-1.8965355 1.12889,-2.2352025 0,0.5418672 0.04516,1.4449792 0.06773,1.8513795 0.07902,0.654756 0.338667,1.241779 0.778935,1.535291 0.146755,0.1016 0.349955,0.112889 0.575733,0.05644 l 0.03387,0.598312 c 0.02258,0.225778 0.06773,0.338667 0.169334,0.327378 0.1016,0 0.158044,-0.112889 0.169333,-0.3048 0.02258,-0.169334 0.03387,-0.474134 0.03387,-0.778935 0.4064,-0.214489 0.756356,-0.553156 0.722489,-0.756356 -0.06773,-0.361245 -0.530578,-0.496711 -0.677334,-0.790223 C 39.55977,9.7938301 39.55977,8.8229847 39.55977,8.3262731 39.525903,7.2425386 40.191949,5.4814702 38.238969,6.5877824 37.60679,6.9264494 36.99719,7.423161 36.602078,8.0101839 l -0.553156,0.9934232 c 0.02258,-0.4289782 -0.05644,-1.6933351 0,-2.1448911 0.06773,-0.7224896 0.440267,-1.6030238 0.485423,-2.2803578 0.04516,-0.9482677 -1.219201,-0.045156 -1.535291,0.2935114 -0.316089,0.3612448 -0.440267,0.9482676 -0.485422,1.580446 -0.07902,0.6999118 0.237067,4.3349374 0.417689,5.4864054 0.191911,1.12889 1.43369,0.948268 1.896535,0.04516 z m 4.380094,-0.04516 c -0.02258,-0.135467 0.04516,-0.180622 0.112889,-0.270933 0.383823,-0.496712 1.44498,-0.970846 2.077158,-0.948268 0.349956,0 0.643467,0.04516 0.82409,0.158045 0.09031,0.349955 -0.982135,0.767645 -1.207913,0.857956 -0.270933,0.112889 -1.693335,0.564445 -1.806224,0.2032 z m -0.338667,1.783646 c 1.083735,0 3.522137,-0.959556 4.018849,-1.399823 0.428978,-0.372534 0.519289,-0.474134 0.564445,-0.564445 0.428978,0.485423 0.428978,1.106312 1.02729,0.970845 l 0.03387,0.496712 c 0.02258,0.225778 0.06773,0.338667 0.169333,0.327378 0.1016,0 0.158045,-0.112889 0.169334,-0.3048 0.02258,-0.146756 0.02258,-0.395112 0.03387,-0.677334 0.248356,-0.146756 0.801512,-0.699912 0.82409,-0.993424 0,-0.451556 -0.677334,-1.309512 -0.812801,-1.9642683 -0.180622,-0.8805342 -0.112889,-1.8513796 -0.02258,-2.4835581 0.09031,-0.564445 0.180623,-1.0611566 0.04516,-1.2869346 -0.225778,-0.3612448 -1.12889,-0.338667 -1.64818,-0.2935114 -1.422401,0.1354668 -2.889958,0.5418672 -4.222048,1.0611566 -0.699912,0.2709336 -1.33209,0.4967116 -1.422402,1.3772459 -0.112889,0.9934232 1.151468,0.903112 1.806224,0.9934232 0.880535,0.1354668 1.941691,0.090311 2.235203,-0.1354668 0.225778,-0.1580446 0.2032,-0.451556 -0.04516,-0.6547562 C 43.330264,7.9876061 42.85613,7.7618281 42.540041,7.5812057 42.901285,7.4683167 44.775243,6.9038716 44.978443,7.0619162 l 0.293511,2.5512915 C 44.413998,9.3196963 43.443153,9.2971185 42.314263,9.5003187 41.20795,9.7035189 40.101638,10.493742 39.559771,11.532321 c -0.06773,0.158044 -0.112889,0.293511 -0.135467,0.451556 -0.112889,1.286934 1.061157,1.73849 1.444979,1.73849 z M 52.293639,13.496589 C 53.445107,12.7741 52.474262,12.25481 52.135595,11.600054 51.932394,11.193654 51.729194,10.584053 51.661461,9.3196963 51.57115,8.0779173 52.225906,6.0233374 51.77435,5.616937 51.706616,5.5266258 51.548572,5.4814702 51.458261,5.4814702 c -0.948268,0 -2.235203,2.0771577 -2.57387,2.9802697 0,-0.1354668 0.09031,-1.7159129 -0.112889,-2.0320021 -0.316089,-0.451556 -1.264357,0.2032002 -1.490135,0.5192894 -0.383822,0.5192895 -0.564445,1.3546681 0,1.3546681 0.203201,0.8353786 0.361245,1.7384907 0.293512,2.5964467 -0.06773,0.632179 -0.677334,1.64818 0.02258,2.05458 0.428978,0.248356 0.677334,0.112889 1.038578,-0.158044 0.970846,-0.72249 0.609601,-1.106313 0.72249,-2.099736 0.06773,-0.677334 0.474134,-1.7610683 0.948268,-2.2577799 -0.135467,0.9256898 -0.112889,1.9868469 0.112889,2.8899589 0.06773,0.316089 0.316089,1.12889 0.451556,1.399823 0.180622,0.349956 0.564445,0.790223 0.959556,0.857957 l 0.03387,0.428978 c 0.02258,0.225778 0.06773,0.338667 0.169333,0.327378 0.101601,0 0.158045,-0.112889 0.169334,-0.3048 0.01129,-0.1016 0.02258,-0.304801 0.02258,-0.508001 0.03387,-0.01129 0.03387,-0.01129 0.06773,-0.03387 z m 0.496713,-1.828801 c 0.519289,0.496711 1.309512,-0.180623 1.377245,-0.767646 0.112889,-0.767645 -0.270933,-1.3998233 -0.4064,-2.0771573 -0.04516,-0.225778 0.04516,-0.6547562 -0.112889,-0.8128008 -0.338667,-0.338667 -1.061157,0.2935114 -1.219201,0.6096006 -0.428978,0.8579564 0.06773,1.241779 0.135467,1.9868465 0,0.180622 -0.180623,0.293511 -0.180623,0.496712 0,0.180622 0.2032,0.383822 0.406401,0.564445 z M 52.135595,7.7618281 c 1.106313,0.338667 1.896536,-1.8739575 1.761069,-2.6190249 -0.135467,-0.6999119 -1.422402,0.2935114 -1.625602,0.6096006 -0.158044,0.2709336 -0.361245,1.8288019 -0.135467,2.0094243 z m 4.560719,4.7413379 c 0.654757,-0.112889 1.286935,-0.361245 1.941691,-0.903112 0.632179,-0.541867 1.106312,-1.399823 1.241779,-1.8513795 0.316089,-1.0611566 -0.383822,-1.2869346 -0.880534,-0.5418672 -0.338667,0.4967116 -0.609601,0.9708457 -1.286935,1.3772457 -1.964268,1.196624 -2.415824,-1.2417789 -1.53529,-2.5738691 0.361245,-0.5418672 0.880534,-0.5644451 1.151468,0.045156 0.214489,0.4289782 0.158044,1.2643568 0.541867,1.3772458 l 0.02258,0.2935114 c 0.02258,0.225778 0.06773,0.3386673 0.169333,0.3273783 0.1016,0 0.158045,-0.1128892 0.169334,-0.3048005 0.01129,-0.090311 0.02258,-0.225778 0.02258,-0.3725337 0.06773,-0.033867 0.146755,-0.079022 0.248355,-0.1467557 0.632179,-0.4064004 0.496712,-0.6321784 0.72249,-1.1966234 0.225778,-0.6547563 0.72249,-1.7610685 0.699912,-2.4384025 -0.02258,-0.8128008 -1.264357,0.1580446 -1.399824,0.5418672 -0.790223,-0.5870228 -1.783646,-0.3838226 -2.528713,0.1806224 -1.241779,0.9256898 -1.964269,2.7093361 -1.761069,4.4704042 0.361245,1.512713 1.377246,1.919113 2.46098,1.715913 z m 4.628457,-7.2474738 c 0.112889,0.1806224 0.428978,0.2032002 0.587022,0.3838226 0.383823,0.4064004 1.12889,1.6256016 1.399824,2.1448911 0.06773,0.1580446 0.496712,1.12889 0.496712,1.1966234 0.02258,0.225778 -0.632179,0.4289782 -0.812801,0.5418672 -1.106312,0.7224895 -1.354668,2.3706695 0.225778,1.5578685 0.428978,-0.2032 0.767645,-0.609601 1.264357,-0.677334 0.135466,0.767645 0.699911,1.490135 0.925689,2.212624 0.146756,0.485423 0.09031,1.343379 0.598312,1.467557 l 0.03387,0.485423 c 0.02258,0.225778 0.06773,0.338667 0.169333,0.327378 0.101601,0 0.158045,-0.112889 0.169334,-0.3048 0.01129,-0.1016 0.02258,-0.316089 0.02258,-0.530579 0.462845,-0.124177 1.038579,-1.106312 0.993423,-1.557868 -0.02258,-0.4064 -0.496712,-0.767645 -0.677334,-1.038579 -0.180622,-0.270933 -0.654756,-1.038578 -0.72249,-1.286934 -0.09031,-0.3838229 0.654757,-0.4741341 0.970846,-0.5192897 0.857956,-0.067733 1.467557,0.2483558 2.05458,-0.6547562 0.361244,-0.5870228 0.112889,-1.12889 -0.587023,-1.12889 -0.948268,0.022578 -2.144891,0.4967116 -3.093159,0.677334 L 64.485663,6.7006714 c 1.603024,0.338667 4.696182,1.5352905 5.779917,-0.225778 0.496711,-0.8353786 0.158044,-1.6030238 -0.428979,-2.2803579 -0.451556,-0.5192894 -1.309512,-1.3095124 -1.919113,-0.564445 -0.135466,0.1580446 -0.248355,0.5870228 -0.225778,0.790223 0.112889,0.6999119 1.174046,0.6773341 1.151468,1.4224015 -0.04515,0.112889 -0.135467,0.2032002 -0.248356,0.2032002 -0.632178,0 -2.709336,-0.4289782 -3.815648,-1.0385788 -0.474134,-0.2483558 -1.919113,-1.3998237 -2.483558,-1.3998237 -0.632178,0 -1.377246,1.0160011 -0.970845,1.6481795 z m 7.69904,6.1863178 c 1.625601,2.167468 3.815648,1.016001 4.425249,-1.12889 C 73.697416,9.4551631 73.516793,8.2133841 72.907193,7.2199608 72.658837,6.858716 71.958925,6.294271 71.529947,6.294271 c -1.761069,0.045156 -2.799648,1.4901349 -3.025426,3.1157365 -0.06773,0.7450675 0.04516,1.4449795 0.51929,2.0320025 z m 2.709336,-0.699912 c -0.72249,0.564445 -1.512713,-0.293512 -1.625602,-1.0160013 -0.09031,-0.4741338 -0.04516,-1.6256016 0.51929,-1.7610684 0.722489,-0.1806224 2.05458,2.032002 1.106312,2.7770697 z m 2.754495,1.851379 c 0.745067,-0.496711 1.12889,-1.241779 1.354668,-1.648179 0.112889,0.632178 0.4064,1.490135 0.903112,1.603024 0.05644,0.01129 0.112889,0.01129 0.158045,0.01129 0,0.124178 0.01129,0.248356 0.02258,0.327378 0.02258,0.225778 0.06773,0.338667 0.169334,0.327378 0.1016,0 0.158045,-0.112889 0.169333,-0.3048 0.01129,-0.1016 0.02258,-0.304801 0.02258,-0.508001 0.327378,-0.237067 0.553156,-0.666045 0.496712,-0.982134 -0.06773,-0.496712 -0.699912,-0.948268 -0.835379,-1.9642689 -0.135467,-0.9934232 0.180623,-3.3640923 -0.158044,-3.6801815 -0.361245,-0.338667 -1.580446,0.090311 -1.603024,1.1740456 -0.02258,1.0837345 0.248356,1.8965353 -0.135467,2.9802697 -0.383823,1.0837341 -0.767645,1.0385791 -0.857956,0.1806221 -0.06773,-0.8805339 0.338667,-1.6481791 0.2032,-2.3706687 -0.135467,-0.7224897 -1.44498,-0.225778 -1.603024,0.7450674 -0.158045,0.9482676 -0.180623,2.4609803 0,3.1608923 0.2032,0.699912 0.92569,1.444979 1.693335,0.948267 z m 5.125149,-0.338667 c 0.564445,-0.745067 0,-0.993423 -0.248356,-1.603023 -0.474134,-1.1063127 -0.04516,-2.2126249 0.587023,-3.1383147 0.09031,-0.1128891 0.112889,-0.1580447 0.180622,-0.1806225 v 1.1514679 c 0,0.2709336 0.203201,0.564445 0.496712,0.6096006 0.496712,0.090311 0.699912,-0.225778 0.880534,-0.8353786 0.2032,-0.6096006 0.361245,-1.3546681 0.293512,-1.8288019 -0.04516,-0.4289782 -0.428979,-0.9934232 -0.903112,-1.016001 -0.993424,-0.045156 -1.964269,1.4224014 -2.280358,2.2126245 -0.135467,-0.3386671 0.06773,-0.7450675 0.06773,-1.1063123 0,-0.1806224 -0.02258,-0.451556 -0.248356,-0.5192894 -0.361245,-0.090311 -0.993423,0.6096006 -1.151468,0.8128008 -0.474133,0.6321784 -0.180622,0.8579565 -0.135466,1.4675571 0.112889,1.2869346 0.225778,2.4158245 0.8128,3.6124485 0.248356,0.519289 0.530579,0.880534 0.891824,0.869245 l 0.03387,0.462845 c 0.02258,0.225778 0.06773,0.338667 0.169334,0.327378 0.1016,0 0.158044,-0.112889 0.169333,-0.3048 0.02258,-0.135467 0.02258,-0.361245 0.03387,-0.632179 0.1016,-0.07902 0.237067,-0.214489 0.349956,-0.361245 z"
       id="text1"
       aria-label="Mechanic Four" />
  </g>
</svg>
