<svg xmlns="http://www.w3.org/2000/svg" id="canvas" viewBox="215.360 448.354 908.900 119.354"><path d="M 221.84,459.57 C 220.81 460.28, 220.53 461.26, 219.90 463.15 C 219.27 465.04, 218.87 466.23, 218.70 469.00 C 218.52 471.77, 218.95 473.59, 219.02 476.99 C 219.09 480.40, 219.08 482.24, 219.04 486.02 C 218.99 489.80, 218.89 491.83, 218.78 495.88 C 218.68 499.93, 218.58 502.07, 218.50 506.27 C 218.42 510.48, 218.37 512.69, 218.36 516.90 C 218.36 521.10, 218.40 523.28, 218.45 527.31 C 218.51 531.35, 218.57 533.37, 218.65 537.07 C 218.74 540.77, 218.78 542.60, 218.88 545.81 C 218.98 549.03, 218.80 550.60, 219.15 553.14 C 219.50 555.67, 219.95 556.87, 220.64 558.51 C 221.32 560.16, 221.74 560.85, 222.57 561.36 C 223.40 561.88, 224.11 561.78, 224.80 561.09 C 225.48 560.40, 225.68 559.64, 225.99 557.92 C 226.30 556.19, 226.46 554.99, 226.34 552.47 C 226.23 549.95, 225.79 548.47, 225.41 545.33 C 225.04 542.19, 224.78 540.39, 224.48 536.76 C 224.18 533.13, 224.08 531.14, 223.93 527.17 C 223.77 523.19, 223.71 521.05, 223.71 516.90 C 223.71 512.75, 223.77 510.57, 223.92 506.42 C 224.07 502.27, 224.18 500.16, 224.46 496.15 C 224.74 492.15, 224.92 490.14, 225.32 486.39 C 225.71 482.64, 225.99 480.81, 226.45 477.42 C 226.91 474.03, 227.52 472.25, 227.62 469.43 C 227.71 466.62, 227.43 465.33, 226.91 463.36 C 226.40 461.39, 226.07 460.36, 225.05 459.60 C 224.04 458.84, 222.87 458.86, 221.84 459.57" style="stroke: black; fill: black;"/><path d="M 222.39,451.68 C 221.43 452.19, 221.09 452.87, 220.73 454.19 C 220.37 455.52, 220.27 456.42, 220.58 458.30 C 220.90 460.19, 221.36 461.42, 222.32 463.62 C 223.29 465.81, 224.03 466.96, 225.41 469.28 C 226.79 471.59, 227.58 472.84, 229.22 475.20 C 230.86 477.56, 231.74 478.77, 233.62 481.08 C 235.51 483.39, 236.49 484.58, 238.63 486.75 C 240.77 488.93, 241.92 490.03, 244.31 491.96 C 246.71 493.90, 248.00 494.89, 250.62 496.42 C 253.24 497.96, 254.65 498.62, 257.43 499.65 C 260.21 500.68, 261.66 501.10, 264.53 501.58 C 267.40 502.06, 268.91 502.18, 271.78 502.05 C 274.66 501.93, 276.11 501.70, 278.91 500.96 C 281.70 500.23, 283.12 499.70, 285.75 498.38 C 288.38 497.06, 289.73 496.19, 292.06 494.36 C 294.40 492.53, 295.47 491.42, 297.43 489.24 C 299.39 487.06, 300.28 485.82, 301.85 483.46 C 303.41 481.09, 304.12 479.78, 305.24 477.42 C 306.36 475.06, 306.70 473.81, 307.43 471.66 C 308.16 469.51, 308.61 468.52, 308.89 466.67 C 309.17 464.81, 309.40 463.66, 308.81 462.38 C 308.23 461.09, 307.26 460.48, 305.98 460.23 C 304.69 459.98, 303.57 460.17, 302.38 461.12 C 301.18 462.07, 300.63 462.95, 300.00 464.99 C 299.37 467.04, 299.27 468.46, 299.22 471.33 C 299.17 474.20, 299.60 475.94, 299.74 479.34 C 299.87 482.74, 299.82 484.60, 299.87 488.32 C 299.93 492.04, 299.91 494.04, 300.02 497.96 C 300.13 501.89, 300.17 503.98, 300.42 507.96 C 300.67 511.94, 300.83 514.00, 301.27 517.87 C 301.71 521.74, 301.97 523.69, 302.63 527.30 C 303.30 530.91, 303.66 532.69, 304.59 535.92 C 305.53 539.16, 305.96 540.77, 307.32 543.47 C 308.68 546.17, 309.57 547.38, 311.39 549.43 C 313.22 551.49, 314.24 552.41, 316.44 553.75 C 318.65 555.08, 319.90 555.58, 322.42 556.11 C 324.93 556.65, 326.33 556.70, 329.01 556.43 C 331.70 556.15, 333.13 555.79, 335.84 554.74 C 338.56 553.70, 339.99 552.93, 342.59 551.22 C 345.19 549.51, 346.45 548.39, 348.87 546.20 C 351.28 544.02, 352.47 542.76, 354.66 540.29 C 356.85 537.83, 357.94 536.52, 359.82 533.89 C 361.71 531.26, 362.62 529.87, 364.07 527.14 C 365.52 524.42, 366.18 523.00, 367.09 520.28 C 367.99 517.55, 368.29 516.12, 368.59 513.53 C 368.88 510.95, 368.86 509.66, 368.55 507.34 C 368.23 505.01, 367.93 503.88, 367.00 501.92 C 366.06 499.96, 365.40 498.99, 363.88 497.54 C 362.36 496.09, 361.37 495.44, 359.39 494.67 C 357.41 493.90, 356.21 493.67, 353.98 493.68 C 351.75 493.69, 350.50 493.92, 348.23 494.71 C 345.97 495.49, 344.77 496.13, 342.66 497.63 C 340.54 499.13, 339.48 500.11, 337.66 502.20 C 335.85 504.29, 334.95 505.53, 333.60 508.08 C 332.24 510.64, 331.62 512.11, 330.88 514.96 C 330.15 517.82, 329.91 519.39, 329.92 522.37 C 329.93 525.34, 330.06 526.93, 330.94 529.86 C 331.83 532.79, 332.49 534.39, 334.34 536.99 C 336.20 539.60, 337.49 540.83, 340.21 542.89 C 342.92 544.95, 344.55 545.81, 347.93 547.29 C 351.30 548.77, 353.22 549.37, 357.07 550.31 C 360.91 551.25, 363.34 551.48, 367.15 551.99 C 370.95 552.49, 373.06 552.81, 376.08 552.83 C 379.10 552.84, 380.24 552.55, 382.24 552.05 C 384.24 551.56, 385.05 551.07, 386.07 550.36 C 387.08 549.64, 387.19 549.14, 387.31 548.48 C 387.42 547.81, 387.07 547.44, 386.63 547.03 C 386.20 546.62, 386.11 546.67, 385.13 546.43 C 384.16 546.19, 383.53 546.01, 381.74 545.82 C 379.95 545.63, 378.97 545.55, 376.19 545.48 C 373.41 545.41, 371.36 545.72, 367.83 545.46 C 364.31 545.19, 361.99 544.98, 358.58 544.14 C 355.16 543.30, 353.51 542.64, 350.74 541.26 C 347.98 539.88, 346.77 538.96, 344.74 537.23 C 342.71 535.49, 341.93 534.49, 340.61 532.59 C 339.30 530.68, 338.75 529.71, 338.15 527.69 C 337.54 525.66, 337.50 524.58, 337.57 522.46 C 337.65 520.33, 337.88 519.16, 338.51 517.06 C 339.14 514.97, 339.64 513.86, 340.71 511.97 C 341.78 510.08, 342.52 509.15, 343.87 507.60 C 345.22 506.06, 346.04 505.33, 347.48 504.24 C 348.92 503.15, 349.70 502.74, 351.06 502.15 C 352.43 501.55, 353.12 501.42, 354.31 501.28 C 355.50 501.13, 356.05 501.17, 357.03 501.43 C 358.00 501.69, 358.43 501.91, 359.18 502.58 C 359.93 503.25, 360.32 503.68, 360.80 504.79 C 361.28 505.89, 361.48 506.56, 361.59 508.11 C 361.71 509.66, 361.69 510.61, 361.37 512.56 C 361.05 514.50, 360.76 515.62, 359.98 517.84 C 359.19 520.07, 358.64 521.29, 357.43 523.67 C 356.21 526.04, 355.53 527.37, 353.90 529.72 C 352.28 532.07, 351.28 533.27, 349.29 535.43 C 347.30 537.58, 346.15 538.70, 343.95 540.50 C 341.74 542.30, 340.50 543.06, 338.28 544.42 C 336.05 545.77, 334.89 546.37, 332.82 547.27 C 330.75 548.17, 329.76 548.53, 327.93 548.90 C 326.09 549.28, 325.25 549.36, 323.66 549.16 C 322.06 548.97, 321.36 548.78, 319.97 547.93 C 318.57 547.08, 317.93 546.48, 316.68 544.93 C 315.43 543.38, 314.89 542.38, 313.72 540.17 C 312.55 537.97, 311.86 536.71, 310.83 533.90 C 309.79 531.08, 309.32 529.43, 308.56 526.08 C 307.80 522.73, 307.49 520.86, 307.01 517.17 C 306.53 513.47, 306.36 511.47, 306.15 507.62 C 305.93 503.76, 305.91 501.73, 305.94 497.90 C 305.97 494.08, 306.04 492.12, 306.29 488.49 C 306.54 484.86, 306.68 483.03, 307.20 479.77 C 307.71 476.50, 308.43 474.89, 308.86 472.17 C 309.29 469.45, 309.48 468.13, 309.35 466.17 C 309.23 464.21, 308.99 463.41, 308.22 462.35 C 307.45 461.29, 306.59 460.97, 305.50 460.86 C 304.42 460.76, 303.55 461.00, 302.78 461.84 C 302.01 462.68, 302.10 463.59, 301.64 465.06 C 301.18 466.53, 301.14 467.41, 300.47 469.19 C 299.80 470.97, 299.34 472.00, 298.31 473.98 C 297.27 475.96, 296.64 477.09, 295.29 479.10 C 293.95 481.10, 293.20 482.20, 291.58 484.01 C 289.96 485.83, 289.08 486.69, 287.20 488.18 C 285.32 489.67, 284.24 490.36, 282.18 491.45 C 280.13 492.55, 279.05 493.03, 276.90 493.64 C 274.76 494.26, 273.67 494.43, 271.45 494.54 C 269.23 494.64, 268.06 494.55, 265.80 494.15 C 263.53 493.76, 262.37 493.44, 260.13 492.56 C 257.88 491.68, 256.76 491.07, 254.55 489.76 C 252.35 488.45, 251.19 487.67, 249.12 486.00 C 247.04 484.33, 246.02 483.38, 244.18 481.42 C 242.34 479.45, 241.50 478.34, 239.89 476.18 C 238.29 474.03, 237.52 472.87, 236.15 470.65 C 234.79 468.43, 234.13 467.24, 233.07 465.09 C 232.01 462.95, 231.66 461.82, 230.85 459.92 C 230.05 458.03, 229.75 456.96, 229.03 455.61 C 228.32 454.26, 227.97 453.96, 227.28 453.16 C 226.58 452.37, 226.54 451.93, 225.56 451.64 C 224.58 451.34, 223.36 451.17, 222.39 451.68" style="stroke: black; fill: black;"/><path d="M 421.18,505.65 C 421.36 504.47, 420.93 503.66, 420.06 502.65 C 419.20 501.63, 418.46 501.17, 416.85 500.58 C 415.25 499.98, 414.05 499.71, 412.06 499.68 C 410.06 499.65, 408.97 499.93, 406.86 500.44 C 404.76 500.95, 403.69 501.30, 401.51 502.23 C 399.34 503.17, 398.16 503.74, 395.99 505.11 C 393.82 506.48, 392.68 507.31, 390.66 509.10 C 388.65 510.90, 387.59 511.93, 385.91 514.07 C 384.23 516.21, 383.42 517.41, 382.28 519.82 C 381.13 522.24, 380.63 523.57, 380.17 526.16 C 379.72 528.75, 379.61 530.16, 380.01 532.79 C 380.42 535.42, 380.86 536.85, 382.21 539.30 C 383.57 541.74, 384.51 543.02, 386.79 545.01 C 389.07 547.01, 390.56 547.90, 393.61 549.27 C 396.66 550.63, 398.49 551.14, 402.05 551.85 C 405.61 552.56, 407.59 552.69, 411.41 552.83 C 415.23 552.96, 417.29 552.89, 421.17 552.53 C 425.05 552.17, 427.08 551.82, 430.80 551.01 C 434.53 550.20, 436.66 549.66, 439.78 548.48 C 442.90 547.31, 444.42 546.61, 446.42 545.15 C 448.42 543.69, 449.39 542.42, 449.79 541.17 C 450.19 539.92, 449.66 539.19, 448.45 538.90 C 447.23 538.60, 445.94 539.08, 443.73 539.70 C 441.52 540.33, 440.26 540.96, 437.39 542.01 C 434.51 543.06, 432.70 544.05, 429.35 544.93 C 426.00 545.82, 424.13 546.14, 420.62 546.44 C 417.10 546.75, 415.16 546.72, 411.76 546.45 C 408.37 546.18, 406.60 545.93, 403.63 545.11 C 400.65 544.29, 399.26 543.57, 396.91 542.36 C 394.56 541.14, 393.54 540.41, 391.88 539.05 C 390.22 537.68, 389.57 537.01, 388.63 535.54 C 387.69 534.07, 387.43 533.28, 387.19 531.69 C 386.94 530.09, 387.03 529.26, 387.41 527.57 C 387.79 525.89, 388.17 524.97, 389.10 523.28 C 390.04 521.59, 390.68 520.71, 392.07 519.11 C 393.45 517.52, 394.35 516.70, 396.02 515.32 C 397.69 513.93, 398.64 513.28, 400.41 512.19 C 402.18 511.11, 403.16 510.65, 404.85 509.90 C 406.55 509.15, 407.47 508.81, 408.89 508.43 C 410.31 508.05, 410.84 507.97, 411.94 507.99 C 413.04 508.00, 413.46 508.32, 414.38 508.51 C 415.30 508.70, 415.57 508.94, 416.53 508.94 C 417.48 508.95, 418.23 509.21, 419.16 508.55 C 420.10 507.89, 421.00 506.83, 421.18 505.65" style="stroke: black; fill: black;"/><path d="M 444.71,474.79 C 443.84 475.43, 443.71 475.99, 443.37 477.34 C 443.04 478.70, 442.89 479.56, 443.03 481.58 C 443.18 483.59, 443.51 484.90, 444.10 487.42 C 444.69 489.93, 445.25 491.29, 445.99 494.14 C 446.73 496.99, 447.13 498.56, 447.78 501.68 C 448.44 504.80, 448.73 506.48, 449.27 509.76 C 449.80 513.04, 450.03 514.78, 450.47 518.08 C 450.90 521.38, 451.10 523.11, 451.44 526.26 C 451.79 529.41, 451.82 531.03, 452.19 533.84 C 452.57 536.65, 452.82 538.04, 453.31 540.29 C 453.79 542.54, 453.84 543.63, 454.62 545.09 C 455.40 546.56, 455.93 547.14, 457.19 547.63 C 458.44 548.11, 459.53 548.08, 460.90 547.52 C 462.28 546.96, 463.14 546.29, 464.06 544.83 C 464.98 543.38, 465.11 542.29, 465.52 540.24 C 465.92 538.19, 465.73 536.87, 466.09 534.59 C 466.45 532.31, 466.65 531.09, 467.33 528.83 C 468.02 526.57, 468.49 525.43, 469.50 523.29 C 470.52 521.15, 471.14 520.05, 472.42 518.13 C 473.71 516.21, 474.44 515.29, 475.91 513.71 C 477.39 512.14, 478.22 511.39, 479.79 510.24 C 481.36 509.09, 482.23 508.61, 483.78 507.94 C 485.32 507.28, 486.09 507.06, 487.50 506.93 C 488.91 506.80, 489.58 506.86, 490.84 507.27 C 492.09 507.68, 492.65 508.00, 493.76 508.97 C 494.87 509.94, 495.38 510.57, 496.39 512.13 C 497.39 513.69, 497.87 514.67, 498.77 516.75 C 499.67 518.84, 500.10 520.07, 500.89 522.54 C 501.68 525.01, 502.04 526.42, 502.73 529.10 C 503.42 531.78, 503.67 533.26, 504.34 535.94 C 505.02 538.62, 505.35 540.04, 506.12 542.51 C 506.89 544.97, 507.23 546.35, 508.19 548.26 C 509.16 550.18, 509.88 551.00, 510.95 552.08 C 512.02 553.17, 512.61 553.57, 513.55 553.69 C 514.48 553.80, 515.13 553.44, 515.61 552.65 C 516.10 551.87, 516.05 551.16, 515.96 549.75 C 515.87 548.34, 515.65 547.50, 515.18 545.61 C 514.70 543.73, 514.21 542.64, 513.59 540.34 C 512.98 538.03, 512.69 536.72, 512.10 534.09 C 511.50 531.45, 511.27 529.98, 510.62 527.17 C 509.96 524.36, 509.70 522.80, 508.83 520.03 C 507.96 517.26, 507.49 515.82, 506.28 513.31 C 505.08 510.80, 504.40 509.53, 502.80 507.49 C 501.20 505.45, 500.26 504.50, 498.28 503.09 C 496.30 501.69, 495.16 501.12, 492.90 500.46 C 490.65 499.81, 489.37 499.69, 487.01 499.82 C 484.65 499.94, 483.41 500.25, 481.09 501.10 C 478.78 501.95, 477.60 502.60, 475.45 504.05 C 473.30 505.51, 472.26 506.45, 470.36 508.38 C 468.47 510.30, 467.56 511.42, 465.96 513.69 C 464.36 515.96, 463.66 517.27, 462.38 519.75 C 461.10 522.22, 460.57 523.54, 459.56 526.08 C 458.55 528.62, 458.12 529.98, 457.32 532.44 C 456.52 534.90, 455.94 536.23, 455.56 538.38 C 455.18 540.53, 455.08 541.67, 455.43 543.18 C 455.79 544.69, 456.47 545.35, 457.34 545.93 C 458.20 546.51, 459.05 546.54, 459.76 546.10 C 460.47 545.67, 460.74 545.16, 460.91 543.76 C 461.08 542.36, 460.84 541.33, 460.60 539.12 C 460.37 536.91, 460.20 535.48, 459.75 532.72 C 459.29 529.95, 458.85 528.41, 458.33 525.30 C 457.81 522.19, 457.60 520.48, 457.14 517.17 C 456.67 513.86, 456.46 512.10, 456.01 508.76 C 455.57 505.43, 455.32 503.73, 454.93 500.50 C 454.54 497.27, 454.40 495.62, 454.05 492.63 C 453.69 489.65, 453.61 488.12, 453.16 485.57 C 452.72 483.01, 452.46 481.74, 451.83 479.84 C 451.20 477.94, 450.85 477.19, 450.03 476.05 C 449.20 474.91, 448.78 474.39, 447.72 474.14 C 446.66 473.89, 445.58 474.15, 444.71 474.79" style="stroke: black; fill: black;"/><path d="M 561.52,515.46 C 562.16 514.36, 562.08 513.21, 561.62 511.71 C 561.15 510.22, 560.56 509.36, 559.22 507.97 C 557.87 506.59, 556.83 505.75, 554.89 504.80 C 552.96 503.85, 551.76 503.60, 549.52 503.21 C 547.29 502.82, 546.13 502.73, 543.71 502.84 C 541.29 502.94, 539.96 503.07, 537.43 503.73 C 534.90 504.39, 533.54 504.90, 531.06 506.14 C 528.58 507.38, 527.30 508.16, 525.05 509.92 C 522.79 511.67, 521.64 512.72, 519.78 514.93 C 517.93 517.13, 517.03 518.40, 515.76 520.94 C 514.49 523.48, 513.94 524.91, 513.42 527.62 C 512.89 530.34, 512.79 531.85, 513.12 534.52 C 513.44 537.19, 513.87 538.60, 515.04 540.98 C 516.21 543.36, 517.06 544.54, 518.97 546.43 C 520.88 548.32, 522.10 549.18, 524.58 550.43 C 527.07 551.67, 528.57 552.13, 531.38 552.65 C 534.20 553.17, 535.76 553.22, 538.68 553.03 C 541.59 552.85, 543.14 552.57, 545.95 551.74 C 548.76 550.92, 550.21 550.30, 552.73 548.92 C 555.25 547.53, 556.46 546.65, 558.56 544.83 C 560.65 543.00, 561.63 541.94, 563.22 539.78 C 564.80 537.62, 565.46 536.38, 566.49 534.01 C 567.51 531.64, 567.83 530.35, 568.34 527.92 C 568.84 525.49, 569.02 524.16, 569.02 521.86 C 569.03 519.57, 569.08 518.09, 568.34 516.44 C 567.60 514.80, 566.69 514.06, 565.33 513.62 C 563.97 513.19, 562.78 513.40, 561.55 514.26 C 560.32 515.12, 559.58 516.09, 559.17 517.93 C 558.76 519.78, 558.96 521.15, 559.51 523.48 C 560.06 525.80, 560.90 527.10, 561.92 529.56 C 562.93 532.02, 563.45 533.34, 564.58 535.79 C 565.71 538.24, 566.28 539.51, 567.56 541.82 C 568.83 544.12, 569.47 545.33, 570.96 547.32 C 572.45 549.31, 573.21 550.52, 575.01 551.77 C 576.81 553.01, 578.57 553.70, 579.98 553.54 C 581.39 553.37, 582.08 552.27, 582.08 550.95 C 582.07 549.63, 580.91 548.55, 579.95 546.96 C 578.99 545.36, 578.37 544.73, 577.28 542.97 C 576.20 541.21, 575.54 540.22, 574.52 538.16 C 573.51 536.11, 572.99 534.97, 572.20 532.70 C 571.42 530.43, 571.10 529.14, 570.58 526.80 C 570.06 524.45, 570.15 523.02, 569.61 520.97 C 569.07 518.92, 568.79 517.85, 567.89 516.56 C 566.99 515.27, 566.25 514.82, 565.10 514.51 C 563.95 514.19, 563.04 514.32, 562.13 514.96 C 561.23 515.60, 560.81 516.32, 560.57 517.72 C 560.33 519.12, 560.89 520.21, 560.95 521.97 C 561.00 523.73, 561.12 524.72, 560.84 526.54 C 560.57 528.36, 560.31 529.31, 559.58 531.06 C 558.84 532.82, 558.37 533.71, 557.17 535.30 C 555.98 536.89, 555.22 537.68, 553.60 539.03 C 551.98 540.38, 551.02 541.03, 549.05 542.06 C 547.09 543.08, 545.94 543.54, 543.77 544.14 C 541.60 544.75, 540.39 544.95, 538.19 545.09 C 535.99 545.22, 534.82 545.14, 532.77 544.80 C 530.71 544.47, 529.65 544.16, 527.92 543.40 C 526.20 542.65, 525.40 542.16, 524.14 541.02 C 522.88 539.88, 522.35 539.18, 521.61 537.71 C 520.88 536.25, 520.61 535.41, 520.44 533.70 C 520.27 531.99, 520.34 531.01, 520.77 529.17 C 521.20 527.33, 521.60 526.32, 522.60 524.51 C 523.60 522.70, 524.30 521.75, 525.77 520.11 C 527.24 518.46, 528.17 517.63, 529.94 516.30 C 531.72 514.96, 532.73 514.35, 534.65 513.43 C 536.56 512.50, 537.61 512.17, 539.51 511.67 C 541.42 511.17, 542.45 511.05, 544.19 510.91 C 545.93 510.77, 546.83 510.75, 548.22 510.97 C 549.60 511.19, 550.08 511.39, 551.11 512.00 C 552.13 512.60, 552.46 513.21, 553.34 514.00 C 554.22 514.78, 554.49 515.29, 555.51 515.93 C 556.52 516.57, 557.22 517.30, 558.42 517.20 C 559.62 517.11, 560.88 516.55, 561.52 515.46" style="stroke: black; fill: black;"/><path d="M 591.17,511.05 C 590.18 511.59, 589.90 512.27, 589.42 513.59 C 588.94 514.91, 588.78 515.78, 588.77 517.65 C 588.75 519.52, 588.99 520.77, 589.34 522.95 C 589.69 525.12, 590.07 526.29, 590.52 528.53 C 590.97 530.78, 591.19 531.98, 591.58 534.15 C 591.97 536.33, 592.14 537.47, 592.47 539.42 C 592.81 541.37, 592.88 542.39, 593.25 543.90 C 593.63 545.41, 593.64 546.14, 594.35 546.96 C 595.05 547.77, 595.72 548.01, 596.78 547.97 C 597.85 547.94, 598.80 547.63, 599.66 546.79 C 600.52 545.95, 600.91 545.24, 601.10 543.77 C 601.29 542.29, 600.96 541.29, 600.62 539.42 C 600.28 537.54, 599.73 536.43, 599.39 534.39 C 599.05 532.35, 598.94 531.28, 598.91 529.22 C 598.87 527.16, 598.91 526.07, 599.21 524.08 C 599.52 522.10, 599.73 521.12, 600.42 519.30 C 601.11 517.48, 601.60 516.61, 602.66 515.00 C 603.73 513.38, 604.34 512.55, 605.76 511.23 C 607.17 509.92, 608.00 509.34, 609.73 508.42 C 611.46 507.49, 612.45 507.10, 614.42 506.62 C 616.39 506.14, 617.53 506.01, 619.58 506.02 C 621.63 506.03, 622.69 506.11, 624.66 506.67 C 626.63 507.22, 627.63 507.65, 629.41 508.78 C 631.20 509.91, 632.07 510.64, 633.59 512.30 C 635.12 513.96, 635.80 514.96, 637.03 517.08 C 638.27 519.20, 638.83 520.40, 639.77 522.89 C 640.70 525.37, 641.05 526.80, 641.71 529.49 C 642.36 532.19, 642.51 533.66, 643.04 536.34 C 643.57 539.02, 643.80 540.40, 644.36 542.88 C 644.92 545.36, 645.14 546.69, 645.86 548.74 C 646.58 550.80, 647.05 551.86, 647.96 553.16 C 648.87 554.47, 649.53 554.77, 650.41 555.27 C 651.28 555.77, 651.68 555.80, 652.33 555.66 C 652.97 555.52, 653.30 555.10, 653.64 554.59 C 653.99 554.08, 653.95 553.91, 654.04 553.09 C 654.12 552.28, 654.28 551.81, 654.06 550.51 C 653.84 549.22, 653.38 548.46, 652.94 546.62 C 652.50 544.79, 652.28 543.70, 651.85 541.35 C 651.42 538.99, 651.31 537.58, 650.78 534.84 C 650.26 532.09, 649.98 530.56, 649.23 527.62 C 648.49 524.69, 648.15 523.06, 647.07 520.16 C 645.99 517.25, 645.39 515.72, 643.83 513.08 C 642.26 510.45, 641.33 509.14, 639.26 506.97 C 637.19 504.81, 635.97 503.79, 633.47 502.26 C 630.97 500.72, 629.54 500.10, 626.78 499.29 C 624.02 498.49, 622.52 498.28, 619.68 498.23 C 616.83 498.18, 615.28 498.36, 612.55 499.03 C 609.83 499.71, 608.47 500.30, 606.06 501.61 C 603.65 502.92, 602.47 503.76, 600.50 505.59 C 598.54 507.42, 597.70 508.56, 596.25 510.75 C 594.80 512.93, 594.20 514.12, 593.26 516.52 C 592.31 518.91, 592.02 520.23, 591.52 522.71 C 591.03 525.20, 590.98 526.48, 590.79 528.94 C 590.60 531.41, 590.59 532.66, 590.57 535.04 C 590.55 537.42, 590.47 538.75, 590.70 540.84 C 590.92 542.93, 590.98 544.01, 591.71 545.48 C 592.44 546.95, 593.11 547.59, 594.34 548.18 C 595.58 548.77, 596.71 548.77, 597.90 548.43 C 599.08 548.10, 599.72 547.59, 600.28 546.51 C 600.84 545.42, 600.71 544.63, 600.70 543.00 C 600.70 541.36, 600.47 540.32, 600.24 538.32 C 600.02 536.32, 599.83 535.19, 599.58 532.98 C 599.33 530.77, 599.20 529.55, 598.98 527.29 C 598.77 525.02, 598.75 523.80, 598.50 521.67 C 598.25 519.54, 598.15 518.36, 597.73 516.64 C 597.30 514.91, 597.06 514.21, 596.38 513.05 C 595.71 511.90, 595.42 511.27, 594.37 510.87 C 593.33 510.46, 592.16 510.50, 591.17 511.05" style="stroke: black; fill: black;"/><path d="M 669.66,510.98 C 668.68 511.45, 668.41 512.00, 667.89 513.15 C 667.37 514.30, 667.18 515.06, 667.08 516.75 C 666.97 518.44, 667.13 519.54, 667.36 521.60 C 667.59 523.66, 667.86 524.81, 668.21 527.04 C 668.55 529.28, 668.72 530.47, 669.09 532.78 C 669.46 535.09, 669.65 536.29, 670.07 538.57 C 670.48 540.85, 670.61 542.06, 671.16 544.18 C 671.71 546.30, 671.96 547.62, 672.83 549.18 C 673.70 550.74, 674.53 551.25, 675.49 551.96 C 676.46 552.67, 676.90 552.78, 677.66 552.74 C 678.43 552.70, 678.88 552.36, 679.32 551.77 C 679.76 551.18, 679.75 550.79, 679.87 549.79 C 679.98 548.79, 680.08 548.26, 679.91 546.77 C 679.74 545.28, 679.41 544.25, 679.01 542.33 C 678.61 540.41, 678.28 539.30, 677.91 537.17 C 677.54 535.05, 677.40 533.91, 677.16 531.70 C 676.93 529.49, 676.88 528.33, 676.76 526.14 C 676.64 523.95, 676.71 522.78, 676.57 520.77 C 676.42 518.76, 676.40 517.69, 676.05 516.08 C 675.70 514.47, 675.46 513.79, 674.81 512.74 C 674.16 511.68, 673.84 511.16, 672.81 510.81 C 671.78 510.46, 670.65 510.51, 669.66 510.98" style="stroke: black; fill: black;"/><path d="M 671.59,484.46 C 672.54 485.14, 673.23 485.58, 673.38 485.46 C 673.53 485.33, 673.12 484.74, 672.34 483.84 C 671.56 482.94, 670.43 481.68, 669.48 480.95 C 668.52 480.23, 667.73 479.98, 667.56 480.20 C 667.40 480.43, 667.83 481.24, 668.64 482.09 C 669.44 482.95, 670.64 483.79, 671.59 484.46" style="stroke: black; fill: black;"/><path d="M 741.74,509.36 C 741.78 508.16, 741.27 507.37, 740.23 506.32 C 739.19 505.27, 738.34 504.75, 736.53 504.12 C 734.72 503.50, 733.43 503.30, 731.20 503.21 C 728.97 503.13, 727.81 503.34, 725.38 503.71 C 722.96 504.07, 721.66 504.31, 719.07 505.06 C 716.47 505.81, 715.06 506.28, 712.42 507.45 C 709.78 508.62, 708.38 509.33, 705.86 510.90 C 703.34 512.47, 702.02 513.36, 699.83 515.30 C 697.64 517.24, 696.54 518.32, 694.90 520.60 C 693.26 522.89, 692.50 524.16, 691.63 526.71 C 690.76 529.27, 690.46 530.69, 690.55 533.38 C 690.64 536.06, 690.91 537.55, 692.08 540.15 C 693.25 542.76, 694.10 544.23, 696.40 546.39 C 698.70 548.55, 700.32 549.40, 703.59 550.95 C 706.85 552.50, 708.76 553.07, 712.73 554.16 C 716.69 555.25, 718.93 555.67, 723.40 556.40 C 727.87 557.12, 730.68 557.40, 735.07 557.77 C 739.46 558.14, 741.90 558.44, 745.36 558.25 C 748.81 558.06, 750.94 557.67, 752.34 556.82 C 753.73 555.97, 753.68 554.83, 752.31 554.01 C 750.94 553.18, 748.86 553.07, 745.50 552.70 C 742.15 552.32, 739.78 552.51, 735.54 552.15 C 731.31 551.80, 728.54 551.66, 724.33 550.91 C 720.13 550.15, 718.02 549.61, 714.52 548.38 C 711.03 547.15, 709.42 546.30, 706.87 544.77 C 704.32 543.23, 703.41 542.27, 701.77 540.71 C 700.12 539.14, 699.49 538.46, 698.64 536.94 C 697.80 535.43, 697.61 534.68, 697.56 533.13 C 697.50 531.58, 697.69 530.79, 698.36 529.20 C 699.02 527.60, 699.56 526.74, 700.87 525.17 C 702.17 523.59, 703.06 522.78, 704.90 521.32 C 706.74 519.86, 707.89 519.13, 710.06 517.89 C 712.23 516.64, 713.47 516.05, 715.74 515.09 C 718.01 514.13, 719.22 513.72, 721.40 513.08 C 723.57 512.44, 724.73 512.18, 726.61 511.91 C 728.49 511.63, 729.28 511.61, 730.81 511.71 C 732.34 511.80, 733.00 512.14, 734.27 512.36 C 735.53 512.58, 736.00 512.83, 737.15 512.82 C 738.30 512.82, 739.11 513.01, 740.02 512.32 C 740.94 511.63, 741.70 510.56, 741.74 509.36" style="stroke: black; fill: black;"/><path d="M 865.73,479.05 C 864.81 479.78, 864.59 480.55, 864.24 482.15 C 863.88 483.76, 863.81 484.89, 863.95 487.09 C 864.09 489.29, 864.46 490.61, 864.94 493.15 C 865.41 495.70, 865.73 496.99, 866.30 499.80 C 866.87 502.62, 867.20 504.10, 867.78 507.22 C 868.35 510.35, 868.62 512.06, 869.18 515.41 C 869.75 518.76, 870.06 520.57, 870.61 523.96 C 871.16 527.36, 871.42 529.08, 871.93 532.38 C 872.43 535.67, 872.70 537.33, 873.13 540.43 C 873.57 543.54, 873.67 545.13, 874.10 547.91 C 874.53 550.68, 874.69 552.03, 875.29 554.30 C 875.89 556.56, 876.31 557.72, 877.10 559.24 C 877.89 560.77, 878.35 561.45, 879.25 561.91 C 880.15 562.36, 880.91 562.25, 881.61 561.51 C 882.31 560.77, 882.54 559.93, 882.75 558.22 C 882.95 556.51, 882.87 555.28, 882.64 552.96 C 882.40 550.63, 882.10 549.33, 881.56 546.60 C 881.03 543.86, 880.57 542.32, 879.95 539.26 C 879.33 536.21, 879.02 534.58, 878.45 531.31 C 877.89 528.05, 877.64 526.33, 877.13 522.95 C 876.63 519.57, 876.37 517.76, 875.93 514.40 C 875.50 511.05, 875.29 509.34, 874.96 506.19 C 874.63 503.04, 874.54 501.52, 874.29 498.65 C 874.04 495.79, 873.99 494.43, 873.71 491.87 C 873.43 489.30, 873.37 487.98, 872.90 485.82 C 872.42 483.67, 872.15 482.57, 871.33 481.10 C 870.52 479.64, 869.96 478.91, 868.84 478.50 C 867.72 478.09, 866.65 478.32, 865.73 479.05" style="stroke: black; fill: black;"/><path d="M 849.19,483.33 C 849.96 484.10, 850.59 484.07, 852.12 484.29 C 853.66 484.51, 854.53 484.70, 856.87 484.42 C 859.22 484.15, 860.69 483.55, 863.85 482.94 C 867.01 482.32, 868.87 481.91, 872.67 481.34 C 876.48 480.77, 878.67 480.54, 882.89 480.08 C 887.10 479.62, 889.40 479.40, 893.75 479.06 C 898.11 478.72, 900.42 478.57, 904.66 478.37 C 908.90 478.17, 911.09 478.10, 914.95 478.07 C 918.81 478.04, 920.73 478.13, 923.96 478.22 C 927.19 478.30, 928.66 478.49, 931.10 478.50 C 933.55 478.52, 934.59 478.54, 936.17 478.29 C 937.76 478.03, 938.24 477.67, 939.03 477.23 C 939.82 476.78, 939.89 476.57, 940.12 476.08 C 940.34 475.59, 940.33 475.27, 940.15 474.77 C 939.97 474.27, 939.95 474.09, 939.21 473.57 C 938.47 473.05, 938.05 472.58, 936.45 472.18 C 934.85 471.78, 933.73 471.62, 931.21 471.56 C 928.69 471.50, 927.15 471.69, 923.86 471.87 C 920.57 472.06, 918.65 472.24, 914.75 472.49 C 910.85 472.74, 908.65 472.86, 904.37 473.12 C 900.10 473.39, 897.77 473.54, 893.38 473.81 C 889.00 474.09, 886.69 474.28, 882.43 474.51 C 878.18 474.75, 876.01 474.87, 872.11 474.98 C 868.21 475.10, 866.28 474.94, 862.94 475.08 C 859.60 475.22, 857.88 475.13, 855.39 475.67 C 852.91 476.21, 851.95 476.85, 850.53 477.80 C 849.10 478.75, 848.53 479.30, 848.27 480.41 C 848.00 481.51, 848.42 482.55, 849.19 483.33" style="stroke: black; fill: black;"/><path d="M 860.37,515.65 C 860.97 516.65, 861.68 517.05, 863.43 517.62 C 865.18 518.19, 866.44 518.57, 869.11 518.50 C 871.78 518.42, 873.49 517.83, 876.79 517.26 C 880.09 516.69, 882.00 516.24, 885.60 515.65 C 889.20 515.06, 891.11 514.77, 894.80 514.31 C 898.49 513.86, 900.43 513.67, 904.05 513.38 C 907.67 513.09, 909.54 512.97, 912.90 512.86 C 916.27 512.74, 917.94 512.85, 920.89 512.80 C 923.83 512.75, 925.34 512.83, 927.65 512.61 C 929.96 512.39, 930.92 512.19, 932.44 511.70 C 933.96 511.20, 934.70 510.90, 935.26 510.15 C 935.82 509.39, 935.79 508.65, 935.23 507.91 C 934.67 507.17, 933.99 506.94, 932.46 506.44 C 930.92 505.94, 929.92 505.55, 927.55 505.40 C 925.17 505.24, 923.58 505.45, 920.57 505.67 C 917.55 505.89, 915.90 506.16, 912.49 506.49 C 909.08 506.82, 907.20 506.97, 903.53 507.31 C 899.86 507.65, 897.88 507.85, 894.15 508.19 C 890.41 508.53, 888.47 508.77, 884.84 509.01 C 881.21 509.25, 879.27 509.29, 876.00 509.37 C 872.74 509.46, 871.05 509.15, 868.51 509.43 C 865.96 509.71, 864.90 510.11, 863.29 510.75 C 861.67 511.39, 861.00 511.64, 860.42 512.62 C 859.83 513.61, 859.77 514.66, 860.37 515.65" style="stroke: black; fill: black;"/><path d="M 972.69,520.68 C 973.18 519.64, 973.07 518.90, 972.61 517.80 C 972.15 516.71, 971.61 516.10, 970.39 515.22 C 969.17 514.33, 968.21 513.88, 966.52 513.39 C 964.82 512.89, 963.85 512.84, 961.92 512.74 C 959.99 512.63, 959.00 512.61, 956.89 512.87 C 954.77 513.14, 953.60 513.36, 951.36 514.07 C 949.12 514.77, 947.95 515.24, 945.69 516.37 C 943.43 517.51, 942.23 518.17, 940.06 519.73 C 937.89 521.29, 936.76 522.19, 934.83 524.16 C 932.91 526.12, 931.93 527.23, 930.44 529.54 C 928.95 531.84, 928.23 533.13, 927.37 535.70 C 926.52 538.26, 926.19 539.69, 926.15 542.38 C 926.12 545.07, 926.28 546.56, 927.19 549.14 C 928.09 551.72, 928.83 553.07, 930.66 555.28 C 932.50 557.49, 933.70 558.61, 936.36 560.21 C 939.02 561.81, 940.68 562.39, 943.96 563.26 C 947.24 564.14, 949.11 564.34, 952.76 564.57 C 956.41 564.80, 958.45 564.74, 962.23 564.42 C 966.00 564.10, 968.01 563.79, 971.65 562.97 C 975.28 562.15, 977.12 561.59, 980.42 560.33 C 983.73 559.07, 985.43 558.39, 988.18 556.68 C 990.94 554.96, 992.21 553.93, 994.20 551.76 C 996.19 549.60, 996.99 548.31, 998.12 545.86 C 999.25 543.40, 999.60 542.06, 999.85 539.50 C 1000.11 536.95, 999.99 535.56, 999.41 533.09 C 998.83 530.62, 998.22 529.36, 996.94 527.16 C 995.66 524.97, 994.76 523.93, 993.00 522.12 C 991.23 520.31, 990.13 519.48, 988.11 518.12 C 986.08 516.76, 984.88 516.14, 982.88 515.32 C 980.88 514.50, 979.76 514.18, 978.13 514.01 C 976.49 513.83, 975.75 514.10, 974.70 514.45 C 973.66 514.79, 973.30 515.08, 972.91 515.71 C 972.52 516.34, 972.55 516.93, 972.73 517.61 C 972.91 518.30, 973.15 518.48, 973.81 519.14 C 974.46 519.81, 974.85 520.26, 976.01 520.94 C 977.18 521.61, 978.10 521.77, 979.62 522.54 C 981.15 523.31, 982.09 523.73, 983.64 524.77 C 985.20 525.81, 986.04 526.44, 987.38 527.74 C 988.73 529.04, 989.38 529.79, 990.37 531.25 C 991.36 532.70, 991.82 533.48, 992.32 535.01 C 992.83 536.55, 992.98 537.33, 992.89 538.91 C 992.79 540.49, 992.63 541.31, 991.85 542.91 C 991.08 544.51, 990.50 545.35, 989.01 546.92 C 987.51 548.49, 986.58 549.28, 984.38 550.74 C 982.17 552.21, 980.81 553.04, 977.98 554.25 C 975.15 555.46, 973.48 556.03, 970.24 556.78 C 966.99 557.53, 965.13 557.79, 961.76 557.98 C 958.39 558.18, 956.51 558.14, 953.37 557.76 C 950.24 557.39, 948.67 556.97, 946.08 556.10 C 943.49 555.23, 942.36 554.58, 940.42 553.43 C 938.47 552.27, 937.63 551.67, 936.36 550.32 C 935.09 548.97, 934.66 548.23, 934.08 546.68 C 933.51 545.13, 933.42 544.26, 933.50 542.57 C 933.57 540.88, 933.78 539.96, 934.46 538.24 C 935.14 536.51, 935.71 535.60, 936.92 533.93 C 938.12 532.25, 938.94 531.37, 940.50 529.86 C 942.07 528.35, 942.99 527.59, 944.75 526.37 C 946.51 525.15, 947.49 524.63, 949.31 523.76 C 951.13 522.89, 952.11 522.56, 953.85 522.02 C 955.59 521.48, 956.48 521.29, 958.01 521.06 C 959.53 520.82, 960.26 520.79, 961.46 520.86 C 962.66 520.94, 963.11 521.12, 964.00 521.43 C 964.89 521.74, 965.16 522.08, 965.90 522.42 C 966.63 522.76, 966.85 523.01, 967.70 523.12 C 968.55 523.24, 969.16 523.50, 970.16 523.01 C 971.16 522.52, 972.20 521.73, 972.69 520.68" style="stroke: black; fill: black;"/><path d="M 1012.41,516.84 C 1011.39 516.70, 1010.81 516.86, 1009.85 517.61 C 1008.88 518.37, 1008.22 519.06, 1007.61 520.61 C 1006.99 522.16, 1006.89 523.31, 1006.76 525.37 C 1006.63 527.43, 1006.75 528.61, 1006.97 530.91 C 1007.18 533.20, 1007.33 534.45, 1007.83 536.84 C 1008.33 539.24, 1008.60 540.49, 1009.47 542.87 C 1010.34 545.25, 1010.87 546.50, 1012.18 548.73 C 1013.49 550.95, 1014.27 552.08, 1016.04 554.00 C 1017.80 555.92, 1018.83 556.85, 1020.98 558.32 C 1023.13 559.78, 1024.37 560.41, 1026.79 561.32 C 1029.21 562.23, 1030.52 562.55, 1033.09 562.86 C 1035.65 563.16, 1037.03 563.20, 1039.61 562.85 C 1042.19 562.50, 1043.55 562.12, 1045.99 561.11 C 1048.43 560.10, 1049.64 559.39, 1051.81 557.80 C 1053.97 556.21, 1055.02 555.22, 1056.82 553.16 C 1058.62 551.11, 1059.43 549.88, 1060.81 547.54 C 1062.19 545.19, 1062.76 543.92, 1063.72 541.44 C 1064.69 538.96, 1065.10 537.63, 1065.65 535.15 C 1066.19 532.67, 1066.39 531.35, 1066.46 529.05 C 1066.53 526.74, 1066.56 525.49, 1065.99 523.62 C 1065.42 521.76, 1064.72 520.40, 1063.62 519.72 C 1062.52 519.03, 1061.34 519.33, 1060.48 520.20 C 1059.61 521.07, 1059.63 522.43, 1059.30 524.08 C 1058.97 525.74, 1059.09 526.61, 1058.85 528.48 C 1058.60 530.34, 1058.57 531.40, 1058.09 533.41 C 1057.60 535.43, 1057.25 536.53, 1056.43 538.55 C 1055.61 540.56, 1055.11 541.62, 1053.99 543.51 C 1052.87 545.39, 1052.21 546.37, 1050.83 547.98 C 1049.46 549.60, 1048.70 550.36, 1047.13 551.58 C 1045.57 552.79, 1044.71 553.30, 1043.00 554.05 C 1041.29 554.79, 1040.38 555.04, 1038.58 555.29 C 1036.78 555.53, 1035.83 555.50, 1034.01 555.27 C 1032.19 555.04, 1031.22 554.81, 1029.49 554.16 C 1027.75 553.50, 1026.88 553.06, 1025.34 551.98 C 1023.79 550.91, 1023.05 550.23, 1021.77 548.80 C 1020.50 547.37, 1019.91 546.53, 1018.96 544.82 C 1018.00 543.11, 1017.61 542.15, 1017.01 540.26 C 1016.40 538.38, 1016.20 537.35, 1015.94 535.40 C 1015.67 533.46, 1015.62 532.38, 1015.66 530.54 C 1015.69 528.69, 1015.94 527.76, 1016.12 526.17 C 1016.31 524.57, 1016.60 523.76, 1016.58 522.54 C 1016.56 521.32, 1016.35 520.90, 1016.02 520.06 C 1015.69 519.22, 1015.66 518.97, 1014.93 518.33 C 1014.21 517.69, 1013.43 516.99, 1012.41 516.84" style="stroke: black; fill: black;"/><path d="M 1070.92,515.35 C 1069.92 515.78, 1069.65 516.36, 1069.12 517.47 C 1068.59 518.57, 1068.38 519.25, 1068.26 520.88 C 1068.14 522.51, 1068.26 523.63, 1068.51 525.63 C 1068.76 527.63, 1069.09 528.71, 1069.51 530.88 C 1069.93 533.06, 1070.16 534.21, 1070.61 536.50 C 1071.06 538.78, 1071.29 540.01, 1071.77 542.33 C 1072.26 544.64, 1072.46 545.88, 1073.03 548.05 C 1073.61 550.23, 1073.78 551.38, 1074.64 553.19 C 1075.50 555.01, 1076.15 556.47, 1077.34 557.13 C 1078.53 557.79, 1079.73 557.57, 1080.58 556.49 C 1081.42 555.42, 1081.51 553.77, 1081.57 551.74 C 1081.63 549.72, 1081.23 548.58, 1080.87 546.38 C 1080.50 544.17, 1080.18 543.00, 1079.75 540.73 C 1079.32 538.46, 1079.08 537.26, 1078.72 535.04 C 1078.36 532.82, 1078.18 531.69, 1077.96 529.61 C 1077.74 527.53, 1077.78 526.51, 1077.61 524.65 C 1077.45 522.79, 1077.45 521.77, 1077.12 520.30 C 1076.80 518.82, 1076.58 518.27, 1075.99 517.27 C 1075.40 516.28, 1075.18 515.72, 1074.17 515.34 C 1073.15 514.95, 1071.93 514.92, 1070.92 515.35" style="stroke: black; fill: black;"/><path d="M 1085.09,524.74 C 1086.27 524.98, 1086.99 524.35, 1088.31 523.80 C 1089.63 523.26, 1090.25 522.83, 1091.69 522.02 C 1093.13 521.22, 1093.89 520.54, 1095.51 519.80 C 1097.13 519.06, 1097.97 518.77, 1099.77 518.31 C 1101.56 517.86, 1102.62 517.71, 1104.48 517.52 C 1106.35 517.32, 1107.33 517.28, 1109.09 517.34 C 1110.85 517.40, 1111.66 517.66, 1113.28 517.84 C 1114.89 518.01, 1115.77 518.32, 1117.17 518.21 C 1118.58 518.10, 1119.52 517.99, 1120.32 517.29 C 1121.12 516.59, 1121.43 515.76, 1121.17 514.70 C 1120.92 513.65, 1120.34 512.96, 1119.05 512.03 C 1117.76 511.11, 1116.66 510.55, 1114.72 510.07 C 1112.78 509.58, 1111.52 509.66, 1109.34 509.60 C 1107.15 509.53, 1106.04 509.58, 1103.79 509.75 C 1101.54 509.92, 1100.42 510.04, 1098.10 510.46 C 1095.79 510.87, 1094.48 510.97, 1092.23 511.82 C 1089.98 512.67, 1088.65 513.36, 1086.85 514.70 C 1085.05 516.04, 1084.11 516.94, 1083.22 518.52 C 1082.34 520.10, 1082.04 521.35, 1082.42 522.60 C 1082.79 523.84, 1083.92 524.50, 1085.09 524.74" style="stroke: black; fill: black;"/></svg>