<svg xmlns="http://www.w3.org/2000/svg" id="canvas" viewBox="210.339 456.014 900.956 120.924"><path d="M 240.70,467.04 C 239.93 467.59, 239.81 468.20, 239.43 469.48 C 239.05 470.75, 238.92 471.56, 238.80 473.42 C 238.69 475.28, 238.81 476.48, 238.85 478.80 C 238.90 481.12, 238.97 482.38, 239.02 485.01 C 239.08 487.64, 239.06 489.08, 239.13 491.96 C 239.20 494.84, 239.26 496.36, 239.36 499.42 C 239.46 502.48, 239.51 504.12, 239.64 507.25 C 239.78 510.38, 239.86 511.98, 240.03 515.06 C 240.21 518.14, 240.29 519.72, 240.51 522.65 C 240.73 525.59, 240.85 527.05, 241.12 529.74 C 241.40 532.44, 241.59 533.76, 241.89 536.14 C 242.18 538.53, 242.27 539.69, 242.59 541.66 C 242.90 543.63, 243.01 544.64, 243.46 545.99 C 243.90 547.33, 244.31 547.70, 244.82 548.38 C 245.32 549.05, 245.48 549.20, 245.98 549.37 C 246.48 549.54, 246.87 549.51, 247.32 549.22 C 247.76 548.93, 247.91 548.72, 248.22 547.93 C 248.53 547.13, 248.80 546.65, 248.87 545.24 C 248.93 543.84, 248.74 542.86, 248.55 540.90 C 248.37 538.94, 248.18 537.80, 247.93 535.45 C 247.67 533.09, 247.56 531.77, 247.28 529.11 C 247.00 526.45, 246.81 525.02, 246.53 522.14 C 246.25 519.26, 246.10 517.72, 245.90 514.70 C 245.70 511.68, 245.63 510.11, 245.54 507.04 C 245.45 503.97, 245.45 502.35, 245.47 499.34 C 245.49 496.33, 245.56 494.84, 245.65 491.98 C 245.74 489.13, 245.81 487.73, 245.92 485.09 C 246.03 482.45, 246.18 481.16, 246.21 478.78 C 246.25 476.40, 246.31 475.15, 246.08 473.21 C 245.86 471.27, 245.65 470.36, 245.08 469.06 C 244.52 467.77, 244.12 467.14, 243.24 466.73 C 242.37 466.33, 241.46 466.49, 240.70 467.04" style="stroke: black; fill: black;"/><path d="M 213.90,469.16 C 214.34 469.85, 214.65 469.92, 215.59 470.23 C 216.52 470.55, 217.02 470.71, 218.57 470.74 C 220.13 470.77, 221.09 470.61, 223.34 470.37 C 225.59 470.12, 226.95 469.97, 229.83 469.51 C 232.71 469.05, 234.38 468.60, 237.74 468.07 C 241.11 467.54, 242.97 467.29, 246.64 466.85 C 250.31 466.42, 252.30 466.22, 256.09 465.89 C 259.87 465.56, 261.90 465.43, 265.57 465.23 C 269.24 465.02, 271.11 464.94, 274.44 464.89 C 277.77 464.83, 279.41 464.96, 282.22 464.96 C 285.02 464.96, 286.34 464.88, 288.45 464.87 C 290.57 464.86, 291.41 464.93, 292.79 464.90 C 294.18 464.87, 294.57 464.85, 295.37 464.73 C 296.18 464.60, 296.41 464.61, 296.81 464.26 C 297.21 463.90, 297.46 463.51, 297.37 462.94 C 297.28 462.38, 297.16 462.06, 296.38 461.44 C 295.61 460.83, 295.06 460.32, 293.51 459.88 C 291.96 459.43, 290.93 459.38, 288.65 459.21 C 286.37 459.05, 285.01 458.96, 282.12 459.05 C 279.23 459.14, 277.57 459.42, 274.20 459.67 C 270.83 459.92, 268.96 460.05, 265.26 460.32 C 261.56 460.58, 259.52 460.73, 255.70 461.00 C 251.88 461.28, 249.87 461.45, 246.16 461.70 C 242.45 461.96, 240.56 462.13, 237.15 462.29 C 233.74 462.46, 232.05 462.41, 229.13 462.53 C 226.21 462.65, 224.84 462.65, 222.54 462.90 C 220.24 463.14, 219.21 463.30, 217.65 463.74 C 216.08 464.18, 215.58 464.48, 214.73 465.09 C 213.88 465.71, 213.56 466.00, 213.39 466.81 C 213.23 467.62, 213.46 468.48, 213.90 469.16" style="stroke: black; fill: black;"/><path d="M 282.24,483.29 C 281.33 483.29, 280.66 483.65, 279.94 484.59 C 279.22 485.54, 278.84 486.41, 278.64 488.02 C 278.43 489.63, 278.55 490.72, 278.92 492.65 C 279.28 494.58, 279.75 495.58, 280.48 497.66 C 281.21 499.74, 281.69 500.81, 282.56 503.04 C 283.43 505.28, 283.92 506.46, 284.83 508.83 C 285.75 511.21, 286.22 512.43, 287.13 514.90 C 288.03 517.37, 288.52 518.68, 289.37 521.18 C 290.22 523.68, 290.65 524.96, 291.37 527.40 C 292.09 529.84, 292.43 531.07, 292.98 533.39 C 293.53 535.71, 293.77 536.86, 294.13 539.00 C 294.49 541.13, 294.55 542.19, 294.78 544.05 C 295.01 545.91, 294.98 546.90, 295.28 548.28 C 295.58 549.67, 295.86 550.15, 296.28 550.97 C 296.71 551.80, 296.87 552.14, 297.42 552.43 C 297.97 552.71, 298.49 552.72, 299.04 552.41 C 299.58 552.10, 299.75 551.77, 300.14 550.89 C 300.53 550.00, 300.82 549.48, 300.98 547.99 C 301.13 546.50, 301.07 545.43, 300.91 543.43 C 300.76 541.44, 300.57 540.28, 300.20 537.99 C 299.83 535.71, 299.61 534.47, 299.07 532.01 C 298.53 529.54, 298.21 528.23, 297.50 525.65 C 296.80 523.08, 296.37 521.73, 295.53 519.14 C 294.69 516.55, 294.20 515.22, 293.31 512.69 C 292.43 510.16, 291.99 508.92, 291.13 506.50 C 290.27 504.09, 289.82 502.85, 289.03 500.63 C 288.24 498.42, 287.77 497.31, 287.18 495.43 C 286.58 493.55, 286.37 492.70, 286.06 491.23 C 285.76 489.77, 285.84 489.11, 285.66 488.09 C 285.49 487.07, 285.41 486.85, 285.18 486.15 C 284.94 485.44, 285.09 485.14, 284.50 484.57 C 283.92 484.00, 283.16 483.29, 282.24 483.29" style="stroke: black; fill: black;"/><path d="M 271.50,490.25 C 272.34 490.21, 272.50 489.77, 273.27 489.24 C 274.04 488.72, 274.28 488.43, 275.36 487.63 C 276.45 486.84, 276.96 486.19, 278.70 485.28 C 280.43 484.37, 281.59 483.96, 284.05 483.07 C 286.52 482.17, 288.02 481.53, 291.02 480.79 C 294.02 480.05, 295.75 479.73, 299.06 479.37 C 302.36 479.01, 304.21 478.93, 307.55 479.00 C 310.89 479.08, 312.69 479.23, 315.74 479.74 C 318.78 480.25, 320.27 480.75, 322.78 481.54 C 325.29 482.34, 326.49 482.79, 328.28 483.73 C 330.08 484.66, 330.80 485.20, 331.76 486.24 C 332.72 487.27, 332.93 487.79, 333.07 488.92 C 333.20 490.04, 333.04 490.60, 332.45 491.85 C 331.85 493.11, 331.37 493.78, 330.10 495.18 C 328.84 496.57, 327.95 497.38, 326.14 498.85 C 324.32 500.31, 323.17 501.14, 321.04 502.51 C 318.90 503.87, 317.66 504.56, 315.48 505.68 C 313.30 506.80, 312.06 507.28, 310.12 508.13 C 308.19 508.97, 307.20 509.19, 305.81 509.89 C 304.42 510.59, 303.82 510.78, 303.16 511.63 C 302.50 512.48, 302.38 513.10, 302.51 514.13 C 302.65 515.16, 302.91 515.92, 303.83 516.78 C 304.74 517.65, 305.40 517.92, 307.09 518.45 C 308.78 518.97, 309.90 519.00, 312.27 519.42 C 314.64 519.84, 316.10 519.97, 318.94 520.56 C 321.78 521.15, 323.43 521.45, 326.46 522.36 C 329.49 523.26, 331.14 523.85, 334.08 525.08 C 337.03 526.31, 338.56 527.03, 341.19 528.51 C 343.81 529.99, 345.04 530.92, 347.20 532.47 C 349.36 534.03, 350.39 534.78, 351.99 536.27 C 353.58 537.76, 354.22 538.53, 355.16 539.92 C 356.11 541.32, 356.38 542.02, 356.70 543.26 C 357.02 544.50, 356.99 545.07, 356.75 546.15 C 356.51 547.23, 356.26 547.70, 355.49 548.67 C 354.73 549.64, 354.21 550.10, 352.94 551.00 C 351.66 551.91, 350.87 552.38, 349.10 553.19 C 347.33 553.99, 346.28 554.39, 344.08 555.02 C 341.87 555.64, 340.61 555.90, 338.07 556.31 C 335.53 556.72, 334.11 556.89, 331.39 557.07 C 328.66 557.25, 327.17 557.26, 324.44 557.22 C 321.71 557.17, 320.28 557.05, 317.72 556.84 C 315.16 556.63, 313.87 556.51, 311.65 556.16 C 309.43 555.81, 308.40 555.53, 306.61 555.11 C 304.83 554.69, 303.99 554.28, 302.71 554.07 C 301.43 553.86, 301.00 554.00, 300.21 554.05 C 299.42 554.11, 299.21 554.03, 298.76 554.34 C 298.32 554.66, 298.00 555.04, 297.99 555.62 C 297.98 556.19, 298.14 556.53, 298.71 557.23 C 299.28 557.92, 299.58 558.38, 300.84 559.11 C 302.10 559.84, 303.06 560.26, 305.01 560.88 C 306.97 561.50, 308.18 561.75, 310.60 562.20 C 313.02 562.66, 314.38 562.87, 317.11 563.16 C 319.85 563.46, 321.36 563.59, 324.29 563.68 C 327.22 563.77, 328.80 563.75, 331.76 563.61 C 334.72 563.46, 336.27 563.37, 339.10 562.95 C 341.94 562.53, 343.36 562.24, 345.94 561.49 C 348.52 560.74, 349.79 560.30, 351.99 559.20 C 354.18 558.10, 355.24 557.45, 356.92 555.99 C 358.60 554.52, 359.36 553.66, 360.40 551.89 C 361.44 550.11, 361.81 549.09, 362.12 547.12 C 362.43 545.15, 362.39 544.07, 361.95 542.04 C 361.50 540.01, 361.06 538.96, 359.89 536.97 C 358.72 534.99, 357.93 534.00, 356.10 532.11 C 354.27 530.22, 353.18 529.23, 350.75 527.50 C 348.31 525.78, 346.81 525.01, 343.93 523.48 C 341.04 521.96, 339.42 521.22, 336.32 519.86 C 333.21 518.50, 331.51 517.86, 328.39 516.68 C 325.27 515.49, 323.63 514.89, 320.73 513.93 C 317.83 512.97, 316.37 512.50, 313.90 511.87 C 311.44 511.25, 310.25 510.91, 308.41 510.82 C 306.58 510.74, 305.74 510.90, 304.71 511.45 C 303.68 511.99, 303.35 512.77, 303.28 513.53 C 303.20 514.30, 303.48 514.91, 304.33 515.27 C 305.18 515.63, 305.93 515.59, 307.54 515.34 C 309.15 515.08, 310.21 514.72, 312.38 513.99 C 314.55 513.25, 315.92 512.78, 318.38 511.65 C 320.84 510.52, 322.24 509.84, 324.68 508.34 C 327.13 506.85, 328.48 506.01, 330.60 504.19 C 332.72 502.36, 333.83 501.33, 335.30 499.22 C 336.76 497.12, 337.37 495.91, 337.93 493.67 C 338.49 491.44, 338.54 490.19, 338.12 488.05 C 337.69 485.90, 337.19 484.79, 335.80 482.95 C 334.41 481.10, 333.40 480.23, 331.15 478.81 C 328.91 477.39, 327.49 476.74, 324.57 475.84 C 321.64 474.94, 319.92 474.73, 316.54 474.30 C 313.16 473.86, 311.26 473.74, 307.67 473.65 C 304.08 473.57, 302.14 473.63, 298.58 473.87 C 295.02 474.11, 293.21 474.37, 289.87 474.85 C 286.54 475.34, 284.84 475.50, 281.91 476.31 C 278.98 477.11, 277.49 477.63, 275.22 478.89 C 272.95 480.16, 271.90 481.10, 270.56 482.63 C 269.23 484.16, 268.84 485.19, 268.54 486.55 C 268.24 487.92, 268.46 488.72, 269.05 489.46 C 269.64 490.20, 270.65 490.29, 271.50 490.25" style="stroke: black; fill: black;"/><path d="M 443.94,507.37 C 443.19 507.96, 443.10 508.65, 442.84 509.82 C 442.58 510.99, 442.57 511.66, 442.63 513.22 C 442.69 514.77, 442.89 515.78, 443.16 517.59 C 443.42 519.40, 443.66 520.33, 443.95 522.27 C 444.23 524.20, 444.33 525.24, 444.59 527.25 C 444.85 529.26, 444.96 530.34, 445.25 532.32 C 445.53 534.30, 445.71 535.31, 446.00 537.17 C 446.30 539.02, 446.28 540.00, 446.72 541.59 C 447.15 543.17, 447.51 544.03, 448.17 545.10 C 448.84 546.17, 449.27 546.64, 450.03 546.91 C 450.79 547.19, 451.40 547.06, 451.98 546.49 C 452.56 545.93, 452.74 545.30, 452.93 544.10 C 453.11 542.90, 453.04 542.05, 452.91 540.48 C 452.78 538.91, 452.52 538.04, 452.28 536.24 C 452.03 534.44, 451.91 533.42, 451.67 531.47 C 451.44 529.53, 451.30 528.50, 451.10 526.51 C 450.91 524.52, 450.83 523.49, 450.69 521.53 C 450.56 519.57, 450.60 518.57, 450.42 516.71 C 450.23 514.84, 450.16 513.77, 449.78 512.20 C 449.40 510.64, 449.16 509.93, 448.52 508.87 C 447.88 507.80, 447.50 507.17, 446.59 506.87 C 445.67 506.57, 444.68 506.78, 443.94 507.37" style="stroke: black; fill: black;"/><path d="M 441.82,482.88 C 442.66 483.27, 443.11 483.56, 443.15 483.46 C 443.19 483.37, 442.70 483.04, 442.03 482.42 C 441.36 481.79, 440.61 480.82, 439.82 480.34 C 439.02 479.85, 438.22 479.76, 438.05 479.98 C 437.87 480.21, 438.18 480.90, 438.94 481.47 C 439.69 482.05, 440.98 482.48, 441.82 482.88" style="stroke: black; fill: black;"/><path d="M 498.47,506.32 C 498.44 505.36, 498.04 504.65, 497.07 503.81 C 496.09 502.96, 495.25 502.55, 493.59 502.08 C 491.94 501.62, 490.81 501.51, 488.79 501.48 C 486.77 501.46, 485.64 501.67, 483.49 501.96 C 481.34 502.25, 480.16 502.43, 478.04 502.93 C 475.92 503.42, 474.79 503.71, 472.90 504.43 C 471.02 505.15, 470.05 505.52, 468.60 506.52 C 467.16 507.52, 466.47 508.09, 465.67 509.41 C 464.88 510.74, 464.60 511.62, 464.64 513.16 C 464.67 514.69, 464.91 515.63, 465.84 517.08 C 466.76 518.54, 467.51 519.24, 469.25 520.44 C 470.98 521.64, 472.14 522.10, 474.51 523.09 C 476.87 524.07, 478.30 524.47, 481.07 525.35 C 483.85 526.24, 485.45 526.58, 488.38 527.51 C 491.31 528.45, 492.92 528.95, 495.73 530.04 C 498.54 531.12, 499.95 531.81, 502.43 532.94 C 504.91 534.07, 506.14 534.61, 508.13 535.69 C 510.11 536.78, 511.00 537.35, 512.36 538.35 C 513.71 539.34, 514.21 539.85, 514.89 540.67 C 515.58 541.49, 515.71 541.83, 515.79 542.44 C 515.87 543.06, 515.73 543.25, 515.30 543.74 C 514.87 544.24, 514.57 544.44, 513.63 544.93 C 512.68 545.43, 512.08 545.71, 510.57 546.21 C 509.06 546.72, 508.12 547.02, 506.09 547.44 C 504.05 547.85, 502.82 548.05, 500.39 548.29 C 497.96 548.54, 496.58 548.63, 493.96 548.67 C 491.33 548.71, 489.89 548.66, 487.28 548.51 C 484.68 548.36, 483.29 548.23, 480.94 547.92 C 478.59 547.61, 477.42 547.39, 475.53 546.94 C 473.64 546.49, 472.80 546.18, 471.49 545.66 C 470.18 545.14, 469.79 544.69, 468.98 544.34 C 468.16 543.98, 467.91 544.04, 467.40 543.91 C 466.88 543.78, 466.88 543.63, 466.40 543.69 C 465.93 543.76, 465.37 543.81, 465.04 544.24 C 464.72 544.67, 464.62 545.06, 464.78 545.85 C 464.95 546.64, 465.05 547.22, 465.89 548.20 C 466.73 549.17, 467.39 549.83, 469.00 550.74 C 470.60 551.65, 471.71 552.07, 473.90 552.76 C 476.09 553.45, 477.37 553.73, 479.95 554.19 C 482.52 554.66, 483.99 554.84, 486.79 555.09 C 489.60 555.35, 491.13 555.44, 493.98 555.46 C 496.83 555.48, 498.32 555.44, 501.04 555.21 C 503.75 554.97, 505.13 554.82, 507.55 554.29 C 509.96 553.76, 511.13 553.44, 513.10 552.55 C 515.07 551.66, 516.01 551.12, 517.39 549.83 C 518.76 548.55, 519.33 547.72, 519.96 546.13 C 520.59 544.55, 520.72 543.59, 520.55 541.93 C 520.39 540.27, 520.06 539.40, 519.14 537.82 C 518.22 536.25, 517.54 535.50, 515.95 534.04 C 514.36 532.58, 513.35 531.87, 511.17 530.51 C 508.99 529.15, 507.71 528.44, 505.06 527.22 C 502.41 525.99, 500.83 525.50, 497.91 524.38 C 495.00 523.25, 493.37 522.72, 490.47 521.60 C 487.58 520.48, 486.07 519.83, 483.45 518.77 C 480.82 517.71, 479.47 517.18, 477.33 516.29 C 475.19 515.40, 474.22 514.95, 472.74 514.32 C 471.26 513.68, 470.72 513.44, 469.94 513.12 C 469.15 512.81, 468.94 512.88, 468.80 512.74 C 468.67 512.61, 468.76 512.66, 469.27 512.44 C 469.77 512.22, 470.21 512.02, 471.34 511.65 C 472.46 511.28, 473.27 510.99, 474.88 510.59 C 476.50 510.18, 477.53 509.95, 479.42 509.62 C 481.30 509.30, 482.45 509.12, 484.30 508.95 C 486.15 508.77, 487.07 508.72, 488.67 508.75 C 490.27 508.79, 491.01 509.05, 492.28 509.13 C 493.56 509.20, 494.05 509.25, 495.03 509.15 C 496.01 509.04, 496.50 509.18, 497.18 508.62 C 497.87 508.05, 498.49 507.28, 498.47 506.32" style="stroke: black; fill: black;"/><path d="M 593.84,478.83 C 593.11 479.27, 592.96 479.66, 592.61 480.66 C 592.27 481.65, 592.11 482.27, 592.11 483.83 C 592.12 485.39, 592.34 486.42, 592.62 488.48 C 592.90 490.53, 593.19 491.69, 593.50 494.13 C 593.82 496.57, 593.89 497.92, 594.18 500.69 C 594.47 503.45, 594.69 504.96, 594.96 507.95 C 595.24 510.94, 595.35 512.54, 595.55 515.64 C 595.76 518.74, 595.84 520.37, 595.99 523.45 C 596.15 526.53, 596.18 528.13, 596.33 531.04 C 596.49 533.95, 596.57 535.43, 596.78 538.02 C 596.99 540.61, 597.10 541.90, 597.38 543.97 C 597.65 546.04, 597.62 547.01, 598.15 548.37 C 598.68 549.72, 599.05 550.28, 600.01 550.74 C 600.96 551.21, 601.85 551.18, 602.93 550.69 C 604.01 550.21, 604.72 549.57, 605.39 548.30 C 606.06 547.03, 606.10 546.09, 606.29 544.34 C 606.49 542.59, 606.22 541.50, 606.38 539.55 C 606.54 537.60, 606.66 536.54, 607.10 534.59 C 607.53 532.63, 607.83 531.63, 608.55 529.77 C 609.27 527.91, 609.70 526.96, 610.71 525.28 C 611.71 523.59, 612.34 522.79, 613.57 521.35 C 614.81 519.90, 615.51 519.18, 616.87 518.04 C 618.23 516.90, 618.98 516.38, 620.37 515.64 C 621.76 514.90, 622.50 514.64, 623.83 514.34 C 625.16 514.05, 625.80 514.01, 627.01 514.18 C 628.22 514.34, 628.80 514.53, 629.87 515.18 C 630.94 515.83, 631.42 516.27, 632.36 517.42 C 633.31 518.56, 633.75 519.29, 634.58 520.90 C 635.40 522.51, 635.79 523.50, 636.49 525.48 C 637.20 527.47, 637.50 528.62, 638.09 530.83 C 638.68 533.03, 638.94 534.24, 639.43 536.51 C 639.93 538.78, 640.09 539.99, 640.57 542.18 C 641.05 544.38, 641.27 545.49, 641.82 547.47 C 642.38 549.46, 642.56 550.54, 643.35 552.11 C 644.14 553.68, 644.80 554.46, 645.77 555.32 C 646.73 556.19, 647.37 556.42, 648.17 556.42 C 648.97 556.41, 649.44 555.98, 649.75 555.29 C 650.07 554.61, 649.92 554.07, 649.74 552.99 C 649.57 551.91, 649.28 551.30, 648.88 549.90 C 648.48 548.49, 648.15 547.74, 647.74 545.95 C 647.32 544.16, 647.18 543.10, 646.80 540.95 C 646.42 538.80, 646.29 537.56, 645.84 535.20 C 645.39 532.84, 645.16 531.56, 644.55 529.16 C 643.95 526.75, 643.66 525.48, 642.82 523.20 C 641.98 520.91, 641.51 519.72, 640.34 517.72 C 639.18 515.72, 638.51 514.74, 636.98 513.19 C 635.46 511.64, 634.57 510.93, 632.74 509.98 C 630.90 509.02, 629.83 508.71, 627.82 508.42 C 625.82 508.14, 624.75 508.20, 622.71 508.56 C 620.68 508.91, 619.60 509.26, 617.65 510.20 C 615.69 511.13, 614.71 511.81, 612.94 513.22 C 611.17 514.63, 610.34 515.48, 608.81 517.23 C 607.28 518.98, 606.52 519.96, 605.28 521.98 C 604.03 524.00, 603.51 525.16, 602.59 527.33 C 601.66 529.50, 601.32 530.65, 600.64 532.85 C 599.95 535.05, 599.69 536.20, 599.16 538.33 C 598.63 540.45, 598.18 541.61, 598.00 543.47 C 597.82 545.33, 597.82 546.34, 598.25 547.63 C 598.68 548.93, 599.35 549.47, 600.16 549.94 C 600.98 550.40, 601.69 550.38, 602.33 549.94 C 602.98 549.50, 603.18 549.02, 603.38 547.72 C 603.58 546.43, 603.41 545.49, 603.33 543.45 C 603.25 541.42, 603.16 540.12, 602.98 537.55 C 602.81 534.99, 602.66 533.53, 602.44 530.64 C 602.22 527.76, 602.07 526.19, 601.88 523.12 C 601.69 520.05, 601.62 518.42, 601.48 515.31 C 601.34 512.20, 601.28 510.59, 601.18 507.56 C 601.08 504.54, 601.11 503.01, 600.99 500.19 C 600.87 497.36, 600.76 495.98, 600.59 493.44 C 600.42 490.91, 600.39 489.66, 600.14 487.53 C 599.89 485.40, 599.79 484.32, 599.34 482.79 C 598.89 481.26, 598.54 480.72, 597.92 479.86 C 597.29 479.00, 597.04 478.69, 596.23 478.49 C 595.41 478.28, 594.56 478.40, 593.84 478.83" style="stroke: black; fill: black;"/><path d="M 662.28,538.56 C 662.86 539.16, 663.23 539.25, 664.19 539.37 C 665.16 539.49, 665.78 539.55, 667.10 539.18 C 668.43 538.81, 669.26 538.34, 670.80 537.53 C 672.33 536.73, 673.14 536.17, 674.77 535.15 C 676.39 534.12, 677.32 533.57, 678.93 532.43 C 680.53 531.29, 681.39 530.69, 682.79 529.44 C 684.18 528.20, 684.87 527.55, 685.90 526.22 C 686.93 524.88, 687.42 524.21, 687.96 522.78 C 688.50 521.35, 688.70 520.55, 688.61 519.07 C 688.51 517.60, 688.30 516.71, 687.49 515.41 C 686.69 514.11, 686.01 513.42, 684.57 512.57 C 683.14 511.72, 682.19 511.44, 680.33 511.16 C 678.48 510.89, 677.40 510.92, 675.29 511.19 C 673.19 511.46, 672.00 511.74, 669.79 512.52 C 667.58 513.29, 666.39 513.84, 664.24 515.07 C 662.10 516.30, 661.00 517.05, 659.09 518.67 C 657.18 520.28, 656.21 521.20, 654.70 523.14 C 653.18 525.08, 652.46 526.17, 651.50 528.37 C 650.53 530.58, 650.12 531.81, 649.86 534.17 C 649.60 536.54, 649.63 537.87, 650.18 540.22 C 650.74 542.56, 651.24 543.78, 652.62 545.91 C 654.00 548.03, 654.93 549.09, 657.09 550.82 C 659.25 552.56, 660.58 553.43, 663.40 554.60 C 666.22 555.77, 667.92 556.10, 671.20 556.67 C 674.48 557.24, 676.31 557.38, 679.81 557.45 C 683.30 557.53, 685.18 557.42, 688.70 557.04 C 692.21 556.66, 694.03 556.35, 697.38 555.55 C 700.72 554.75, 702.41 554.23, 705.44 553.03 C 708.48 551.84, 709.98 551.19, 712.54 549.57 C 715.09 547.95, 716.23 546.95, 718.20 544.93 C 720.17 542.91, 721.03 541.78, 722.39 539.47 C 723.76 537.15, 724.26 535.89, 725.02 533.37 C 725.78 530.85, 725.97 529.47, 726.21 526.87 C 726.46 524.27, 726.39 522.91, 726.24 520.37 C 726.09 517.83, 725.86 516.56, 725.47 514.17 C 725.08 511.79, 724.78 510.58, 724.27 508.44 C 723.77 506.30, 723.42 505.26, 722.93 503.48 C 722.45 501.70, 722.42 500.82, 721.85 499.54 C 721.28 498.26, 720.98 497.55, 720.07 497.07 C 719.16 496.58, 718.21 496.59, 717.30 497.11 C 716.39 497.63, 715.87 498.31, 715.52 499.66 C 715.17 501.02, 715.24 501.90, 715.55 503.88 C 715.86 505.86, 716.38 507.11, 717.06 509.55 C 717.73 511.98, 718.14 513.38, 718.92 516.06 C 719.70 518.75, 720.15 520.14, 720.96 522.97 C 721.77 525.79, 722.17 527.31, 722.99 530.19 C 723.81 533.07, 724.21 534.59, 725.07 537.38 C 725.93 540.17, 726.39 541.59, 727.28 544.14 C 728.18 546.70, 728.62 547.97, 729.52 550.16 C 730.42 552.34, 730.83 553.56, 731.78 555.08 C 732.72 556.59, 733.39 557.03, 734.26 557.74 C 735.13 558.46, 735.49 558.62, 736.12 558.64 C 736.76 558.66, 737.14 558.38, 737.43 557.84 C 737.72 557.29, 737.65 556.94, 737.56 555.92 C 737.47 554.90, 737.44 554.34, 736.99 552.75 C 736.55 551.15, 736.09 550.07, 735.34 547.93 C 734.58 545.80, 734.08 544.56, 733.22 542.07 C 732.36 539.59, 731.89 538.23, 731.03 535.52 C 730.17 532.81, 729.71 531.36, 728.93 528.53 C 728.16 525.70, 727.79 524.20, 727.14 521.37 C 726.50 518.55, 726.25 517.12, 725.72 514.41 C 725.19 511.70, 724.95 510.29, 724.49 507.83 C 724.04 505.37, 724.01 504.02, 723.45 502.11 C 722.89 500.21, 722.58 499.38, 721.69 498.30 C 720.81 497.22, 720.06 496.81, 719.01 496.73 C 717.97 496.65, 717.08 497.05, 716.48 497.90 C 715.89 498.75, 715.91 499.58, 716.02 501.00 C 716.13 502.42, 716.59 503.23, 717.02 505.00 C 717.44 506.76, 717.70 507.79, 718.14 509.83 C 718.57 511.86, 718.85 513.00, 719.19 515.19 C 719.54 517.37, 719.73 518.52, 719.87 520.76 C 720.02 523.00, 720.06 524.18, 719.93 526.37 C 719.79 528.57, 719.72 529.69, 719.20 531.72 C 718.68 533.75, 718.36 534.71, 717.32 536.52 C 716.29 538.34, 715.63 539.20, 714.02 540.80 C 712.42 542.40, 711.44 543.11, 709.29 544.52 C 707.14 545.92, 705.93 546.66, 703.28 547.81 C 700.64 548.96, 699.11 549.50, 696.08 550.26 C 693.05 551.03, 691.35 551.32, 688.14 551.63 C 684.93 551.94, 683.17 551.99, 680.03 551.81 C 676.88 551.62, 675.22 551.38, 672.41 550.71 C 669.60 550.05, 668.27 549.47, 665.99 548.48 C 663.71 547.49, 662.65 546.96, 660.99 545.76 C 659.32 544.56, 658.66 543.87, 657.66 542.48 C 656.66 541.10, 656.37 540.35, 656.00 538.83 C 655.63 537.31, 655.61 536.46, 655.81 534.88 C 656.02 533.29, 656.27 532.46, 657.03 530.91 C 657.78 529.35, 658.33 528.55, 659.57 527.12 C 660.81 525.69, 661.62 524.97, 663.21 523.74 C 664.80 522.51, 665.76 521.92, 667.52 520.98 C 669.29 520.04, 670.29 519.63, 672.04 519.05 C 673.78 518.47, 674.72 518.30, 676.24 518.07 C 677.77 517.84, 678.51 517.88, 679.66 517.90 C 680.81 517.93, 681.27 518.05, 681.99 518.19 C 682.71 518.33, 682.92 518.39, 683.25 518.61 C 683.59 518.82, 683.68 518.89, 683.66 519.26 C 683.64 519.63, 683.57 519.85, 683.13 520.45 C 682.69 521.05, 682.35 521.46, 681.47 522.26 C 680.60 523.06, 680.00 523.56, 678.75 524.46 C 677.50 525.37, 676.71 525.88, 675.21 526.78 C 673.71 527.67, 672.83 528.17, 671.26 528.96 C 669.70 529.75, 668.84 530.03, 667.39 530.71 C 665.94 531.39, 665.10 531.65, 664.02 532.38 C 662.93 533.10, 662.52 533.54, 661.97 534.33 C 661.42 535.13, 661.21 535.49, 661.27 536.34 C 661.33 537.18, 661.69 537.95, 662.28 538.56" style="stroke: black; fill: black;"/><path d="M 705.97,530.71 C 706.62 531.36, 707.17 531.36, 708.47 531.54 C 709.77 531.73, 710.56 531.74, 712.48 531.63 C 714.40 531.52, 715.63 531.28, 718.07 531.00 C 720.52 530.71, 721.94 530.49, 724.70 530.21 C 727.47 529.93, 729.02 529.77, 731.88 529.59 C 734.75 529.42, 736.40 529.56, 739.02 529.33 C 741.64 529.10, 743.01 528.93, 744.98 528.45 C 746.96 527.98, 748.12 527.68, 748.91 526.94 C 749.69 526.20, 749.69 525.49, 748.89 524.77 C 748.09 524.04, 746.92 523.73, 744.91 523.31 C 742.90 522.89, 741.50 522.74, 738.83 522.66 C 736.16 522.59, 734.48 522.84, 731.56 522.95 C 728.64 523.05, 727.07 523.07, 724.21 523.18 C 721.36 523.29, 719.87 523.26, 717.29 523.50 C 714.71 523.74, 713.34 523.86, 711.31 524.38 C 709.29 524.90, 708.38 525.33, 707.16 526.12 C 705.94 526.91, 705.47 527.42, 705.23 528.34 C 704.99 529.26, 705.33 530.07, 705.97 530.71" style="stroke: black; fill: black;"/><path d="M 827.33,494.05 C 826.57 494.40, 826.40 494.78, 826.00 495.67 C 825.60 496.56, 825.39 497.08, 825.32 498.49 C 825.24 499.89, 825.41 500.84, 825.63 502.68 C 825.86 504.52, 826.13 505.53, 826.44 507.68 C 826.76 509.84, 826.90 511.03, 827.19 513.43 C 827.48 515.84, 827.61 517.15, 827.89 519.71 C 828.18 522.26, 828.33 523.63, 828.60 526.19 C 828.88 528.75, 829.01 530.06, 829.27 532.51 C 829.52 534.95, 829.64 536.22, 829.87 538.42 C 830.10 540.62, 830.21 541.74, 830.43 543.49 C 830.65 545.24, 830.56 546.06, 830.98 547.18 C 831.40 548.30, 831.69 548.74, 832.52 549.10 C 833.36 549.46, 834.18 549.39, 835.13 548.97 C 836.08 548.54, 836.73 548.01, 837.28 546.97 C 837.82 545.92, 837.79 545.18, 837.86 543.74 C 837.93 542.31, 837.57 541.41, 837.64 539.80 C 837.70 538.20, 837.80 537.30, 838.19 535.71 C 838.58 534.12, 838.82 533.30, 839.59 531.84 C 840.35 530.38, 840.83 529.70, 842.00 528.42 C 843.18 527.14, 843.89 526.53, 845.45 525.46 C 847.02 524.39, 847.93 523.85, 849.82 523.06 C 851.71 522.28, 852.80 521.93, 854.90 521.52 C 857.00 521.11, 858.18 520.99, 860.34 521.02 C 862.51 521.05, 863.66 521.16, 865.74 521.66 C 867.82 522.15, 868.89 522.57, 870.74 523.48 C 872.58 524.40, 873.49 525.00, 874.98 526.23 C 876.47 527.47, 877.13 528.22, 878.18 529.66 C 879.22 531.10, 879.65 531.91, 880.22 533.44 C 880.79 534.96, 880.93 535.76, 881.02 537.27 C 881.11 538.77, 881.01 539.54, 880.66 540.95 C 880.31 542.36, 880.05 543.07, 879.27 544.33 C 878.50 545.58, 877.99 546.17, 876.80 547.24 C 875.61 548.32, 874.90 548.84, 873.32 549.70 C 871.74 550.56, 870.85 550.96, 868.90 551.55 C 866.95 552.14, 865.82 552.35, 863.59 552.65 C 861.36 552.96, 860.11 553.06, 857.73 553.09 C 855.36 553.12, 854.06 553.02, 851.72 552.81 C 849.39 552.59, 848.15 552.41, 846.06 552.01 C 843.97 551.61, 842.93 551.35, 841.26 550.81 C 839.59 550.28, 838.93 549.84, 837.70 549.33 C 836.47 548.81, 836.02 548.54, 835.10 548.24 C 834.18 547.94, 833.78 547.66, 833.10 547.83 C 832.42 548.01, 831.86 548.39, 831.69 549.13 C 831.53 549.87, 831.65 550.51, 832.29 551.54 C 832.92 552.57, 833.49 553.27, 834.87 554.26 C 836.26 555.24, 837.24 555.68, 839.21 556.46 C 841.19 557.25, 842.36 557.61, 844.73 558.17 C 847.09 558.73, 848.43 558.97, 851.04 559.28 C 853.65 559.59, 855.09 559.72, 857.79 559.70 C 860.49 559.69, 861.91 559.60, 864.53 559.21 C 867.15 558.82, 868.49 558.55, 870.88 557.76 C 873.27 556.97, 874.43 556.45, 876.47 555.25 C 878.51 554.06, 879.48 553.35, 881.09 551.79 C 882.70 550.22, 883.44 549.31, 884.52 547.42 C 885.61 545.53, 886.01 544.44, 886.50 542.34 C 886.99 540.24, 887.10 539.11, 886.97 536.92 C 886.84 534.72, 886.63 533.54, 885.86 531.38 C 885.09 529.23, 884.50 528.11, 883.12 526.14 C 881.75 524.17, 880.88 523.18, 878.96 521.53 C 877.05 519.88, 875.91 519.10, 873.56 517.89 C 871.22 516.69, 869.86 516.17, 867.25 515.51 C 864.63 514.85, 863.20 514.69, 860.48 514.61 C 857.77 514.53, 856.33 514.63, 853.69 515.12 C 851.05 515.60, 849.67 516.03, 847.28 517.05 C 844.90 518.07, 843.75 518.78, 841.76 520.20 C 839.77 521.62, 838.89 522.46, 837.34 524.17 C 835.79 525.88, 835.11 526.85, 834.01 528.76 C 832.91 530.68, 832.54 531.77, 831.83 533.75 C 831.12 535.73, 830.94 536.77, 830.45 538.67 C 829.97 540.57, 829.49 541.58, 829.39 543.27 C 829.29 544.95, 829.35 545.91, 829.94 547.09 C 830.52 548.27, 831.30 548.78, 832.31 549.17 C 833.32 549.56, 834.17 549.51, 834.99 549.05 C 835.80 548.59, 836.08 548.09, 836.37 546.88 C 836.67 545.68, 836.49 544.84, 836.45 543.04 C 836.40 541.23, 836.30 540.09, 836.14 537.86 C 835.98 535.64, 835.84 534.37, 835.63 531.91 C 835.43 529.46, 835.34 528.15, 835.13 525.58 C 834.92 523.00, 834.82 521.61, 834.59 519.04 C 834.36 516.47, 834.21 515.16, 834.00 512.73 C 833.78 510.30, 833.70 509.10, 833.54 506.91 C 833.38 504.72, 833.39 503.65, 833.19 501.80 C 832.99 499.95, 832.91 499.00, 832.53 497.68 C 832.15 496.36, 831.84 495.96, 831.29 495.21 C 830.75 494.45, 830.59 494.14, 829.80 493.90 C 829.01 493.67, 828.09 493.69, 827.33 494.05" style="stroke: black; fill: black;"/><path d="M 899.08,540.28 C 899.74 540.94, 900.37 541.03, 901.61 541.12 C 902.84 541.22, 903.64 541.15, 905.26 540.76 C 906.89 540.37, 907.91 539.94, 909.73 539.17 C 911.55 538.41, 912.53 537.87, 914.37 536.93 C 916.20 535.98, 917.19 535.47, 918.90 534.45 C 920.62 533.43, 921.52 532.93, 922.96 531.82 C 924.40 530.71, 925.11 530.14, 926.11 528.88 C 927.12 527.63, 927.58 526.95, 927.98 525.54 C 928.38 524.13, 928.45 523.25, 928.11 521.83 C 927.77 520.40, 927.36 519.55, 926.28 518.40 C 925.20 517.26, 924.39 516.73, 922.70 516.10 C 921.01 515.47, 919.94 515.31, 917.85 515.24 C 915.75 515.17, 914.56 515.32, 912.23 515.75 C 909.91 516.18, 908.64 516.54, 906.21 517.40 C 903.79 518.26, 902.48 518.81, 900.12 520.06 C 897.77 521.32, 896.53 522.08, 894.44 523.67 C 892.34 525.27, 891.29 526.17, 889.65 528.04 C 888.01 529.90, 887.25 530.92, 886.23 533.00 C 885.21 535.09, 884.79 536.23, 884.55 538.44 C 884.31 540.65, 884.37 541.87, 885.02 544.05 C 885.67 546.22, 886.26 547.39, 887.81 549.30 C 889.35 551.22, 890.42 552.15, 892.75 553.63 C 895.08 555.12, 896.50 555.80, 899.46 556.72 C 902.43 557.65, 904.17 557.83, 907.55 558.25 C 910.94 558.66, 912.80 558.76, 916.39 558.80 C 919.97 558.85, 921.89 558.76, 925.49 558.48 C 929.08 558.21, 930.95 557.96, 934.35 557.42 C 937.76 556.89, 939.70 556.69, 942.53 555.82 C 945.36 554.95, 946.68 554.22, 948.52 553.08 C 950.37 551.93, 951.26 551.07, 951.73 550.10 C 952.20 549.13, 951.86 548.52, 950.87 548.22 C 949.88 547.92, 948.80 548.26, 946.80 548.59 C 944.80 548.93, 943.54 549.21, 940.86 549.90 C 938.17 550.59, 936.53 551.38, 933.38 552.04 C 930.22 552.70, 928.44 552.95, 925.08 553.21 C 921.72 553.47, 919.88 553.50, 916.55 553.34 C 913.23 553.17, 911.47 552.98, 908.47 552.40 C 905.47 551.82, 904.02 551.30, 901.56 550.42 C 899.09 549.54, 897.98 549.05, 896.16 548.01 C 894.33 546.98, 893.59 546.39, 892.45 545.24 C 891.30 544.09, 890.92 543.48, 890.45 542.26 C 889.98 541.03, 889.92 540.42, 890.10 539.12 C 890.29 537.81, 890.57 537.11, 891.38 535.74 C 892.20 534.37, 892.79 533.62, 894.17 532.26 C 895.54 530.89, 896.45 530.17, 898.26 528.93 C 900.06 527.69, 901.15 527.05, 903.20 526.05 C 905.24 525.05, 906.41 524.59, 908.46 523.91 C 910.52 523.23, 911.63 522.96, 913.48 522.63 C 915.33 522.30, 916.25 522.29, 917.73 522.27 C 919.21 522.26, 919.87 522.44, 920.89 522.57 C 921.91 522.69, 922.26 522.78, 922.81 522.89 C 923.36 523.01, 923.51 522.98, 923.64 523.15 C 923.77 523.31, 923.77 523.36, 923.46 523.72 C 923.15 524.08, 922.87 524.35, 922.07 524.95 C 921.27 525.56, 920.70 525.98, 919.44 526.74 C 918.19 527.49, 917.37 527.94, 915.78 528.72 C 914.19 529.50, 913.25 529.94, 911.49 530.64 C 909.74 531.34, 908.74 531.58, 907.00 532.21 C 905.26 532.84, 904.23 533.10, 902.79 533.80 C 901.36 534.49, 900.70 534.88, 899.80 535.68 C 898.90 536.49, 898.43 536.90, 898.29 537.82 C 898.14 538.74, 898.41 539.62, 899.08 540.28" style="stroke: black; fill: black;"/><path d="M 973.74,519.01 C 973.78 518.02, 973.35 517.24, 972.40 516.33 C 971.46 515.42, 970.63 514.98, 969.00 514.46 C 967.37 513.94, 966.21 513.76, 964.25 513.74 C 962.28 513.73, 961.18 514.00, 959.17 514.39 C 957.17 514.78, 956.11 515.03, 954.21 515.67 C 952.30 516.31, 951.29 516.67, 949.65 517.58 C 948.02 518.48, 947.18 518.97, 946.03 520.19 C 944.87 521.42, 944.32 522.18, 943.87 523.70 C 943.42 525.22, 943.36 526.21, 943.78 527.81 C 944.20 529.42, 944.68 530.31, 945.97 531.72 C 947.25 533.13, 948.21 533.73, 950.21 534.86 C 952.22 535.98, 953.46 536.42, 955.99 537.35 C 958.52 538.27, 960.03 538.63, 962.86 539.47 C 965.69 540.31, 967.30 540.66, 970.13 541.56 C 972.97 542.46, 974.44 543.01, 977.04 543.95 C 979.65 544.89, 980.99 545.35, 983.17 546.26 C 985.34 547.16, 986.35 547.60, 987.92 548.46 C 989.49 549.32, 990.12 549.82, 991.03 550.56 C 991.94 551.30, 992.19 551.64, 992.47 552.17 C 992.76 552.70, 992.71 552.83, 992.43 553.22 C 992.16 553.61, 991.91 553.71, 991.08 554.12 C 990.25 554.53, 989.71 554.78, 988.29 555.27 C 986.87 555.77, 985.97 556.12, 983.99 556.60 C 982.01 557.07, 980.80 557.33, 978.39 557.64 C 975.97 557.96, 974.57 558.09, 971.93 558.19 C 969.29 558.29, 967.81 558.29, 965.17 558.15 C 962.53 558.02, 961.11 557.86, 958.72 557.51 C 956.33 557.15, 955.13 556.91, 953.22 556.37 C 951.32 555.82, 950.46 555.47, 949.20 554.78 C 947.94 554.09, 947.47 553.69, 946.92 552.91 C 946.37 552.12, 946.31 551.79, 946.46 550.86 C 946.60 549.93, 947.20 549.41, 947.66 548.25 C 948.12 547.09, 948.55 546.35, 948.75 545.08 C 948.94 543.81, 949.12 542.80, 948.65 541.90 C 948.19 541.00, 947.48 540.48, 946.43 540.58 C 945.37 540.67, 944.40 541.24, 943.38 542.36 C 942.37 543.49, 941.85 544.45, 941.36 546.19 C 940.87 547.93, 940.69 549.16, 940.94 551.07 C 941.20 552.97, 941.58 554.03, 942.63 555.70 C 943.67 557.37, 944.44 558.14, 946.17 559.41 C 947.90 560.68, 949.01 561.18, 951.30 562.05 C 953.59 562.93, 954.92 563.24, 957.61 563.78 C 960.29 564.33, 961.81 564.53, 964.71 564.78 C 967.61 565.03, 969.19 565.06, 972.10 565.02 C 975.00 564.99, 976.51 564.91, 979.23 564.60 C 981.96 564.30, 983.34 564.10, 985.72 563.48 C 988.09 562.87, 989.25 562.49, 991.10 561.51 C 992.96 560.53, 993.82 559.94, 995.00 558.58 C 996.18 557.23, 996.63 556.33, 997.01 554.74 C 997.39 553.15, 997.34 552.21, 996.89 550.64 C 996.45 549.07, 995.98 548.31, 994.79 546.90 C 993.60 545.48, 992.76 544.83, 990.94 543.59 C 989.12 542.34, 988.02 541.79, 985.69 540.66 C 983.35 539.53, 981.98 538.96, 979.27 537.93 C 976.55 536.91, 974.98 536.51, 972.12 535.52 C 969.27 534.54, 967.71 534.02, 965.00 533.02 C 962.29 532.03, 960.88 531.47, 958.57 530.56 C 956.25 529.64, 955.14 529.20, 953.42 528.45 C 951.71 527.71, 951.01 527.35, 949.99 526.85 C 948.97 526.35, 948.66 526.25, 948.31 525.96 C 947.95 525.67, 947.96 525.69, 948.22 525.40 C 948.48 525.12, 948.78 524.94, 949.61 524.53 C 950.43 524.11, 951.05 523.80, 952.36 523.32 C 953.67 522.84, 954.55 522.54, 956.15 522.12 C 957.75 521.70, 958.76 521.47, 960.36 521.23 C 961.97 520.99, 962.78 520.89, 964.19 520.91 C 965.60 520.92, 966.26 521.16, 967.40 521.29 C 968.55 521.42, 968.95 521.55, 969.92 521.55 C 970.88 521.55, 971.45 521.81, 972.21 521.30 C 972.98 520.79, 973.70 520.00, 973.74 519.01" style="stroke: black; fill: black;"/><path d="M 1001.30,495.62 C 1000.53 496.04, 1000.35 496.55, 999.97 497.57 C 999.60 498.59, 999.47 499.18, 999.43 500.71 C 999.38 502.24, 999.52 503.26, 999.75 505.23 C 999.98 507.19, 1000.25 508.26, 1000.57 510.53 C 1000.90 512.79, 1001.04 514.04, 1001.36 516.57 C 1001.67 519.11, 1001.79 520.49, 1002.13 523.21 C 1002.47 525.92, 1002.67 527.37, 1003.05 530.14 C 1003.43 532.91, 1003.62 534.34, 1004.03 537.07 C 1004.44 539.79, 1004.67 541.19, 1005.09 543.76 C 1005.50 546.34, 1005.69 547.62, 1006.11 549.93 C 1006.53 552.24, 1006.64 553.51, 1007.19 555.32 C 1007.75 557.12, 1008.21 557.87, 1008.88 558.95 C 1009.54 560.03, 1009.85 560.43, 1010.52 560.71 C 1011.18 560.99, 1011.70 560.90, 1012.20 560.37 C 1012.70 559.85, 1012.86 559.32, 1013.04 558.09 C 1013.22 556.85, 1013.25 556.02, 1013.11 554.18 C 1012.96 552.34, 1012.66 551.16, 1012.30 548.88 C 1011.94 546.60, 1011.71 545.33, 1011.33 542.79 C 1010.95 540.25, 1010.75 538.87, 1010.40 536.17 C 1010.05 533.48, 1009.88 532.06, 1009.56 529.31 C 1009.23 526.56, 1009.07 525.13, 1008.78 522.43 C 1008.49 519.74, 1008.36 518.38, 1008.12 515.84 C 1007.88 513.30, 1007.76 512.02, 1007.57 509.73 C 1007.37 507.45, 1007.35 506.37, 1007.15 504.42 C 1006.96 502.48, 1006.94 501.47, 1006.59 500.00 C 1006.25 498.53, 1005.98 498.00, 1005.43 497.09 C 1004.89 496.18, 1004.69 495.74, 1003.86 495.45 C 1003.04 495.15, 1002.08 495.19, 1001.30 495.62" style="stroke: black; fill: black;"/><path d="M 992.18,535.76 C 992.86 536.27, 993.23 536.08, 994.27 536.15 C 995.31 536.22, 995.81 536.24, 997.38 536.10 C 998.95 535.95, 999.95 535.70, 1002.12 535.44 C 1004.29 535.18, 1005.60 535.05, 1008.22 534.81 C 1010.83 534.57, 1012.35 534.42, 1015.19 534.23 C 1018.04 534.04, 1019.57 533.96, 1022.45 533.86 C 1025.32 533.77, 1026.83 533.79, 1029.57 533.75 C 1032.32 533.71, 1033.69 533.69, 1036.19 533.64 C 1038.68 533.60, 1039.89 533.59, 1042.03 533.53 C 1044.18 533.46, 1045.19 533.47, 1046.90 533.32 C 1048.61 533.16, 1049.38 533.06, 1050.58 532.76 C 1051.78 532.47, 1052.15 532.25, 1052.89 531.83 C 1053.64 531.41, 1053.82 531.32, 1054.31 530.67 C 1054.80 530.02, 1055.14 529.54, 1055.35 528.60 C 1055.57 527.66, 1055.63 526.84, 1055.38 525.97 C 1055.13 525.09, 1054.78 524.84, 1054.10 524.23 C 1053.43 523.62, 1052.98 523.37, 1052.02 522.92 C 1051.05 522.47, 1050.43 522.26, 1049.27 521.96 C 1048.11 521.67, 1047.49 521.57, 1046.20 521.44 C 1044.92 521.32, 1044.24 521.26, 1042.86 521.32 C 1041.48 521.39, 1040.73 521.44, 1039.31 521.77 C 1037.89 522.10, 1037.14 522.36, 1035.75 522.99 C 1034.36 523.61, 1033.66 523.98, 1032.35 524.89 C 1031.04 525.81, 1030.34 526.34, 1029.21 527.57 C 1028.07 528.80, 1027.52 529.52, 1026.66 531.03 C 1025.81 532.53, 1025.40 533.36, 1024.92 535.10 C 1024.43 536.84, 1024.23 537.82, 1024.22 539.73 C 1024.21 541.64, 1024.32 542.69, 1024.88 544.66 C 1025.44 546.63, 1025.83 547.68, 1027.01 549.59 C 1028.19 551.50, 1028.98 552.50, 1030.78 554.21 C 1032.58 555.91, 1033.67 556.72, 1036.02 558.12 C 1038.37 559.52, 1039.73 560.17, 1042.53 561.19 C 1045.34 562.21, 1046.96 562.54, 1050.06 563.22 C 1053.16 563.90, 1055.03 564.34, 1058.03 564.60 C 1061.03 564.85, 1062.74 564.85, 1065.08 564.52 C 1067.41 564.19, 1068.78 563.71, 1069.70 562.95 C 1070.63 562.19, 1070.58 561.48, 1069.71 560.72 C 1068.83 559.96, 1067.51 559.69, 1065.34 559.14 C 1063.16 558.59, 1061.61 558.40, 1058.83 557.97 C 1056.05 557.53, 1054.23 557.56, 1051.44 556.95 C 1048.65 556.34, 1047.28 555.81, 1044.86 554.90 C 1042.45 553.99, 1041.29 553.49, 1039.37 552.39 C 1037.44 551.29, 1036.62 550.65, 1035.23 549.40 C 1033.85 548.15, 1033.29 547.45, 1032.44 546.15 C 1031.58 544.85, 1031.32 544.18, 1030.94 542.90 C 1030.55 541.62, 1030.50 540.96, 1030.50 539.75 C 1030.50 538.54, 1030.62 537.95, 1030.95 536.84 C 1031.28 535.74, 1031.57 535.20, 1032.16 534.22 C 1032.75 533.25, 1033.11 532.77, 1033.88 531.96 C 1034.66 531.16, 1035.12 530.81, 1036.03 530.20 C 1036.93 529.59, 1037.44 529.32, 1038.39 528.90 C 1039.34 528.47, 1039.85 528.30, 1040.78 528.08 C 1041.71 527.86, 1042.16 527.82, 1043.06 527.81 C 1043.96 527.81, 1044.44 527.88, 1045.26 528.05 C 1046.08 528.22, 1046.45 528.38, 1047.17 528.68 C 1047.89 528.97, 1048.29 529.24, 1048.87 529.52 C 1049.44 529.80, 1049.62 529.94, 1050.03 530.08 C 1050.44 530.23, 1050.52 530.43, 1050.91 530.24 C 1051.31 530.04, 1051.72 529.52, 1052.02 529.10 C 1052.31 528.68, 1052.42 528.39, 1052.38 528.15 C 1052.34 527.91, 1052.30 527.98, 1051.83 527.89 C 1051.36 527.80, 1051.07 527.76, 1050.04 527.70 C 1049.01 527.64, 1048.30 527.62, 1046.69 527.59 C 1045.08 527.56, 1044.08 527.57, 1041.98 527.55 C 1039.88 527.52, 1038.67 527.49, 1036.18 527.46 C 1033.69 527.42, 1032.29 527.35, 1029.52 527.36 C 1026.74 527.36, 1025.21 527.44, 1022.30 527.48 C 1019.38 527.52, 1017.84 527.53, 1014.94 527.56 C 1012.03 527.59, 1010.53 527.55, 1007.79 527.63 C 1005.04 527.71, 1003.61 527.67, 1001.21 527.97 C 998.81 528.27, 997.58 528.49, 995.78 529.12 C 993.98 529.75, 993.19 530.23, 992.21 531.12 C 991.22 532.02, 990.87 532.67, 990.87 533.60 C 990.86 534.53, 991.50 535.25, 992.18 535.76" style="stroke: black; fill: black;"/><path d="M 1103.67,507.31 C 1102.82 507.76, 1102.60 508.39, 1102.06 509.53 C 1101.52 510.67, 1101.30 511.42, 1100.98 513.01 C 1100.66 514.61, 1100.64 515.64, 1100.47 517.49 C 1100.29 519.35, 1100.28 520.31, 1100.10 522.28 C 1099.93 524.25, 1099.77 525.28, 1099.58 527.35 C 1099.40 529.41, 1099.30 530.51, 1099.18 532.60 C 1099.07 534.68, 1099.08 535.76, 1099.02 537.77 C 1098.96 539.78, 1098.86 540.81, 1098.90 542.66 C 1098.93 544.50, 1098.98 545.58, 1099.20 547.00 C 1099.42 548.42, 1099.64 548.83, 1100.00 549.74 C 1100.36 550.65, 1100.42 551.15, 1101.00 551.55 C 1101.57 551.95, 1102.22 552.05, 1102.87 551.74 C 1103.51 551.43, 1103.77 550.94, 1104.24 549.99 C 1104.71 549.04, 1104.98 548.48, 1105.21 547.01 C 1105.44 545.55, 1105.33 544.47, 1105.37 542.66 C 1105.41 540.85, 1105.34 539.90, 1105.40 537.96 C 1105.46 536.03, 1105.54 534.99, 1105.67 532.99 C 1105.80 530.99, 1105.87 529.94, 1106.07 527.96 C 1106.27 525.98, 1106.37 525.00, 1106.67 523.09 C 1106.97 521.18, 1107.25 520.28, 1107.57 518.44 C 1107.88 516.60, 1108.17 515.59, 1108.25 513.89 C 1108.33 512.18, 1108.34 511.21, 1107.96 509.90 C 1107.57 508.58, 1107.18 507.82, 1106.32 507.30 C 1105.47 506.79, 1104.53 506.87, 1103.67 507.31" style="stroke: black; fill: black;"/><path d="M 1100.71,570.32 C 1100.45 569.73, 1100.06 569.81, 1100.06 570.46 C 1100.05 571.10, 1100.44 572.95, 1100.70 573.54 C 1100.96 574.13, 1101.35 574.05, 1101.35 573.40 C 1101.35 572.76, 1100.97 570.91, 1100.71 570.32" style="stroke: black; fill: black;"/></svg>