<?xml version="1.0" encoding="UTF-8" standalone="no"?>
<!-- Created with Inkscape (http://www.inkscape.org/) -->

<svg
   width="81.088203mm"
   height="12.598426mm"
   viewBox="0 0 81.088206 12.598426"
   version="1.1"
   id="svg1"
   inkscape:version="1.4.3 (0d15f75, 2025-12-25)"
   sodipodi:docname="tb-is-het-beste.svg"
   xmlns:inkscape="http://www.inkscape.org/namespaces/inkscape"
   xmlns:sodipodi="http://sodipodi.sourceforge.net/DTD/sodipodi-0.dtd"
   xmlns="http://www.w3.org/2000/svg"
   xmlns:svg="http://www.w3.org/2000/svg">
  <sodipodi:namedview
     id="namedview1"
     pagecolor="#ffffff"
     bordercolor="#000000"
     borderopacity="0.25"
     inkscape:showpageshadow="2"
     inkscape:pageopacity="0.0"
     inkscape:pagecheckerboard="0"
     inkscape:deskcolor="#d1d1d1"
     inkscape:document-units="mm"
     inkscape:zoom="0.86679994"
     inkscape:cx="164.97463"
     inkscape:cy="68.64329"
     inkscape:window-width="1190"
     inkscape:window-height="1122"
     inkscape:window-x="0"
     inkscape:window-y="25"
     inkscape:window-maximized="0"
     inkscape:current-layer="layer1" />
  <defs
     id="defs1" />
  <g
     inkscape:label="Laag 1"
     inkscape:groupmode="layer"
     id="layer1"
     transform="translate(-12.974409,-2.7721291)">
    <path
       style="font-size:11.2889px;font-family:'Aerosoldier Drip PERSONAL USE';-inkscape-font-specification:'Aerosoldier Drip PERSONAL USE, Normal';stroke-width:0.264583"
       d="m 22.028097,13.925568 c 0.745068,0.857956 2.167469,-0.970846 1.196624,-1.941691 -0.451556,-0.451556 -1.580446,-2.5061361 -2.483558,-4.3349379 0.6096,-0.022578 1.309512,-0.090311 1.873957,-0.1580446 -0.04516,0.1580446 -0.4064,0.8128008 -0.428978,0.9256898 -0.135467,0.4289782 0.654756,0.6999118 1.354668,0.2935114 0.428978,-0.2483558 1.196623,-1.3546681 1.241779,-2.0545799 0.04516,-0.677334 -0.857956,-1.7384906 -1.557868,-1.354668 -0.72249,0.3612448 -1.919113,0.790223 -3.206048,0.8353786 C 19.770317,5.5717814 19.567117,5.0750698 19.476806,4.7589806 19.172005,3.6752461 17.128715,4.5670693 17.783471,5.842715 16.722314,5.5717814 15.728891,5.2331144 14.938668,5.3234256 13.7872,5.4588924 12.974399,6.8361382 13.584,7.423161 c 0.587023,0.6096007 2.957692,1.8513797 3.973693,2.709336 0.158044,0.135467 0.349956,0.214489 0.519289,0.225778 0,0.146756 0.01129,0.3048 0.02258,0.383823 0.02258,0.225778 0.06773,0.338667 0.169333,0.327378 0.101601,0 0.158045,-0.112889 0.169334,-0.3048 0.01129,-0.101601 0.02258,-0.293512 0.02258,-0.485423 0.508,-0.225778 0.812801,-0.9369789 0.383822,-1.6820463 -0.293511,-0.5418672 -1.806224,-0.8579564 -2.709336,-1.5578683 0.474134,0.1580446 1.490135,0.4064004 2.528714,0.5418673 1.038579,2.1674688 2.551291,5.3960943 3.364092,6.3443623 z m 4.346232,-2.799648 c -0.361245,0 -0.225778,-0.925689 -0.316089,-1.2417787 0.632178,-0.1580446 2.009424,-0.9934232 2.619025,-0.5870228 0.383823,0.2709336 -0.225778,0.8353785 -0.428978,1.0160015 -0.316089,0.248355 -1.264357,0.8128 -1.873958,0.8128 z m -0.6096,-3.3189363 C 25.719573,7.1748052 25.538951,6.5652046 25.403484,5.9781818 25.945351,5.7524038 26.442063,5.6846704 26.758152,5.7975594 27.548375,6.1136486 26.125973,7.6263613 25.764729,7.8069837 Z M 21.994236,7.0393384 c -0.02258,0.7224897 0.790223,0.8353787 1.309512,0.5644451 0.293512,-0.1354668 0.451556,-0.4967117 0.745068,-0.7224897 0.135467,0.451556 0.383822,1.6030239 0.293511,2.1448911 -0.383822,0.4064004 -0.541867,0.903112 -0.496711,1.1966231 0.06773,0.31609 0.519289,0.270934 0.587022,0.361245 0.09031,0.112889 0.270934,1.151468 0.270934,1.309513 0,0.4064 -0.383823,0.587022 -0.677334,0.903112 -0.349956,0.383822 -0.02258,1.038578 0.349956,1.275645 l 0.03387,0.462845 c 0.02258,0.225778 0.06773,0.338667 0.169333,0.327378 0.1016,0 0.158045,-0.112889 0.169334,-0.3048 0.01129,-0.09031 0.02258,-0.248356 0.02258,-0.4064 0.745068,-0.203201 4.00756,-2.25778 4.538138,-2.641603 C 31.544646,9.8841413 31.070512,8.3940065 30.325444,7.9876061 29.670688,7.6263613 28.744998,7.5586279 28.045087,7.7392503 28.541798,6.7232492 29.106243,6.0910708 28.51922,4.9621808 27.841886,3.6978239 25.787306,3.8558685 24.635839,4.2848467 23.574682,4.6912472 22.039392,5.8201372 21.994236,7.0393384 Z m 12.643566,4.6284496 c 0.519289,0.496711 1.309512,-0.180623 1.377246,-0.767646 0.112889,-0.767645 -0.270934,-1.3998233 -0.406401,-2.0771573 -0.04516,-0.225778 0.04516,-0.6547562 -0.112889,-0.8128008 -0.338667,-0.338667 -1.061156,0.2935114 -1.219201,0.6096006 -0.428978,0.8579564 0.06773,1.241779 0.135467,1.9868465 0,0.180622 -0.180623,0.293511 -0.180623,0.496712 0,0.180622 0.203201,0.383822 0.406401,0.564445 z M 33.983046,7.7618281 c 1.106312,0.338667 1.896535,-1.8739575 1.761068,-2.6190249 -0.135467,-0.6999119 -1.422401,0.2935114 -1.625602,0.6096006 -0.158044,0.2709336 -0.361244,1.8288019 -0.135466,2.0094243 z m 2.946406,1.9529797 2.698047,1.6368902 c -0.72249,0.790223 -2.167469,0.04516 -2.573869,-0.745067 -0.180623,-0.338667 -0.214489,-0.6999119 -0.124178,-0.8918232 z m -0.485423,2.9689812 c 1.828802,1.12889 4.154315,0.496711 4.989694,-1.512713 0.180623,-0.519289 -0.02258,-0.812801 -0.722489,-1.1966235 C 39.695232,9.3648519 38.159942,8.7100957 37.301986,7.9198727 37.143941,7.7618281 36.940741,7.423161 37.098785,7.2199608 c 0.474134,-0.3612448 1.219202,0.1806224 1.467557,0.6096007 0.31609,0.5192894 0.203201,1.6256016 1.264357,0.6547562 0.790223,-0.6999118 0.587023,-1.2417791 0.677334,-2.1448911 0.02258,-0.338667 0.31609,-1.4449792 0.04516,-1.6707572 -0.428978,-0.3386671 -1.603024,0.6547562 -1.603024,1.1966234 -1.196623,-0.9256898 -2.777069,0 -3.251203,1.241779 -0.316089,0.9031121 -0.180623,1.5578683 0.474134,2.0545799 l 0.180622,0.112889 c -0.541867,0.1806224 -0.993423,0.4967116 -1.083734,1.1288903 -0.135467,1.038579 0.338667,1.761068 1.174045,2.280358 z m 10.092289,-0.699912 c 0.270934,-0.474134 -0.04516,-0.812801 -0.07902,-1.241779 -0.02258,-0.72249 0.666045,-1.8965355 1.12889,-2.2352025 0,0.5418672 0.04516,1.4449792 0.06773,1.8513795 0.07902,0.654756 0.338667,1.241779 0.778934,1.535291 0.146756,0.1016 0.349956,0.112889 0.575734,0.05644 l 0.03387,0.598312 c 0.02258,0.225778 0.06773,0.338667 0.169333,0.327378 0.101601,0 0.158045,-0.112889 0.169334,-0.3048 0.02258,-0.169334 0.03387,-0.474134 0.03387,-0.778935 0.4064,-0.214489 0.756356,-0.553156 0.722489,-0.756356 -0.06773,-0.361245 -0.530578,-0.496711 -0.677334,-0.790223 C 49.268232,9.7938301 49.268232,8.8229847 49.268232,8.3262731 49.234365,7.2425386 49.90041,5.4814702 47.947431,6.5877824 47.315252,6.9264494 46.705652,7.423161 46.31054,8.0101839 l -0.553156,0.9934232 c 0.02258,-0.4289782 -0.05645,-1.6933351 0,-2.1448911 0.06773,-0.7224896 0.440267,-1.6030238 0.485423,-2.2803578 0.04516,-0.9482677 -1.219202,-0.045156 -1.535291,0.2935114 -0.316089,0.3612448 -0.440267,0.9482676 -0.485423,1.580446 -0.07902,0.6999118 0.237067,4.3349374 0.41769,5.4864054 0.191911,1.12889 1.43369,0.948268 1.896535,0.04516 z m 4.018849,0.293511 c 1.715913,1.625602 3.318937,0.04516 4.380094,-1.399823 0.2032,-0.383823 0.09031,-0.812801 -0.338667,-0.812801 -0.880535,0.06773 -1.828802,1.73849 -2.822225,1.106312 -0.09031,-0.04516 -0.428979,-0.632178 -0.180623,-0.587023 0.654756,0.06773 1.106312,0.316089 1.761069,-0.02258 0.4064,-0.2032 0.880534,-0.8353783 0.993423,-1.6256013 C 54.415971,8.3262731 53.964415,6.5652046 53.287081,5.729826 52.06788,4.2622689 50.577745,5.2556922 50.0133,7.0619162 49.335966,9.1164961 49.426277,10.945298 50.555167,12.277388 Z m 1.964269,-3.3415143 c -0.248356,0.1580446 -1.219201,0.067733 -1.309512,-0.1806224 -0.09031,-0.2709336 0.09031,-2.0094243 0.338667,-2.0771577 0.338667,-0.067733 0.541867,0.3838226 0.654756,0.6547562 0.180622,0.4967117 0.248356,1.0837345 0.316089,1.6030239 z m 2.22391,2.2352023 c 0.09031,0.903112 0.428978,1.411113 0.857956,1.591735 0,0.135467 0.01129,0.270934 0.02258,0.349956 0.02258,0.225778 0.06773,0.338667 0.169334,0.327378 0.1016,0 0.158044,-0.112889 0.169333,-0.3048 l 0.02258,-0.293512 c 0.891823,0.03387 2.009424,-0.903112 2.348091,-2.032002 0.225778,-0.632178 0.338667,-1.6933349 0.135467,-1.8513795 -0.293511,-0.225778 -0.92569,0.2483558 -1.106312,0.564445 -0.135467,0.225778 -0.09031,2.0094245 -0.880534,1.6256015 -0.496712,-0.248356 -0.293512,-2.1674687 -0.06773,-2.6641803 1.061157,-0.3612448 3.522137,-0.7450674 3.18347,-2.2803579 -0.225778,-0.3160892 -1.444979,0.338667 -1.761068,0.451556 -0.203201,0.067733 -1.354668,0.3838226 -1.422402,0.3160892 -0.04515,-0.451556 0.835379,-1.8739574 -0.158044,-1.7610684 -1.061157,0.112889 -1.44498,1.2869346 -1.399824,2.1900466 -0.632178,0.2257781 -1.85138,0.9482677 -1.377246,1.6707573 0.338667,0.5418672 1.286935,-0.2709336 1.377246,-0.1806224 -0.09031,0.4741338 -0.158045,1.6030239 -0.112889,2.2803579 z m 9.629436,-0.04516 c -0.361244,0 -0.225778,-0.925689 -0.316089,-1.2417787 0.632179,-0.1580446 2.009424,-0.9934232 2.619025,-0.5870228 0.383823,0.2709336 -0.225778,0.8353785 -0.428978,1.0160015 -0.316089,0.248355 -1.264357,0.8128 -1.873958,0.8128 z m -0.6096,-3.3189363 C 63.718026,7.1748052 63.537404,6.5652046 63.401937,5.9781818 63.943804,5.7524038 64.440516,5.6846704 64.756605,5.7975594 65.546828,6.1136486 64.124427,7.6263613 63.763182,7.8069837 Z M 59.992689,7.0393384 c -0.02258,0.7224897 0.790223,0.8353787 1.309512,0.5644451 0.293512,-0.1354668 0.451557,-0.4967117 0.745068,-0.7224897 0.135467,0.451556 0.383823,1.6030239 0.293511,2.1448911 -0.383822,0.4064004 -0.541867,0.903112 -0.496711,1.1966231 0.06773,0.31609 0.519289,0.270934 0.587023,0.361245 0.09031,0.112889 0.270933,1.151468 0.270933,1.309513 0,0.4064 -0.383822,0.587022 -0.677334,0.903112 -0.349956,0.383822 -0.02258,1.038578 0.349956,1.275645 l 0.03387,0.462845 c 0.02258,0.225778 0.06773,0.338667 0.169333,0.327378 0.1016,0 0.158045,-0.112889 0.169334,-0.3048 0.01129,-0.09031 0.02258,-0.248356 0.02258,-0.4064 0.745067,-0.203201 4.007559,-2.25778 4.538137,-2.641603 C 69.543099,9.8841413 69.068965,8.3940065 68.323898,7.9876061 67.669141,7.6263613 66.743451,7.5586279 66.04354,7.7392503 66.540251,6.7232492 67.104696,6.0910708 66.517673,4.9621808 65.840339,3.6978239 63.78576,3.8558685 62.634292,4.2848467 61.573135,4.6912472 60.037845,5.8201372 59.992689,7.0393384 Z m 10.11485,6.2540506 c 0.812801,-0.2032 0.632179,-0.2032 1.64818,-0.880534 0.722489,-0.474134 3.318936,-2.4158247 3.544714,-3.1157365 0.203201,-0.564445 -0.09031,-0.903112 -0.677334,-0.7450674 -1.174045,0.677334 -2.528713,1.9868469 -3.770492,2.4384029 -1.241779,0.428978 -1.016001,-0.203201 -1.106313,-1.2192017 0.654757,-0.045156 2.596447,-0.2709336 3.048004,-0.6096006 0.699911,-0.4741338 0.925689,-1.580446 0.338667,-1.6030238 -0.767646,-0.045156 -2.302936,0.5870228 -3.138315,0.5870228 -0.225778,0 -0.248356,-0.1354668 -0.248356,-0.338667 V 6.4523156 c 0.677334,0.1354668 1.354668,0.2935114 2.032002,0.3612448 0.338667,0.045156 1.083735,0.112889 1.399824,0.090311 0.541867,-0.067733 1.219201,-0.790223 0.835379,-1.3095124 -0.2032,-0.2709336 -2.686759,-0.6321784 -3.228626,-0.8128008 -0.948267,-0.3160892 -1.73849,-0.5644451 -2.438402,-0.4289783 -0.699912,0.1354669 -1.083735,0.8353787 -0.92569,1.3546681 0.158045,0.4967116 0.745067,0.8353786 0.835379,1.6707572 0.02258,0.2483559 -0.135467,3.8156486 -0.158045,4.0188486 -0.03387,1.061157 0.654756,1.772357 1.411112,1.907824 l 0.03387,0.417689 c 0.02258,0.225778 0.06773,0.338667 0.169334,0.327379 0.1016,0 0.158044,-0.112889 0.169333,-0.304801 0.01129,-0.09031 0.02258,-0.248356 0.02258,-0.417689 z m 4.854232,1.309513 h 0.01129 l 0.03387,0.428978 c 0.02258,0.225778 0.06773,0.338667 0.169333,0.327378 0.1016,0 0.158045,-0.112889 0.169334,-0.3048 0.01129,-0.09031 0.02258,-0.237067 0.02258,-0.383823 1.693335,0.124178 4.797782,-1.241779 6.005695,-2.05458 0.361244,-0.248356 0.745067,-0.541867 0.857956,-0.970845 0.158045,-0.564445 0.02258,-0.857957 -0.158045,-1.106312 -0.180622,-0.135467 -0.383822,-0.248356 -0.587022,-0.338667 -1.151468,-0.4515565 -4.267205,-0.5192899 -5.644451,-0.6321789 -0.632178,-0.022578 -1.264357,0 -1.873957,-0.067733 -0.02258,-0.112889 0,-0.1580446 0.06773,-0.2483558 0.225778,-0.3838226 1.783647,-1.6481794 2.190047,-1.8739575 0.835379,-0.451556 1.241779,0.3160893 1.467557,1.0160011 0.225778,0.790223 0.09031,1.5127126 1.061157,1.016001 0.428978,-0.2370669 0.620889,-0.5870228 0.587022,-1.1514678 -0.03387,-0.5080005 -0.06773,-1.0160011 -0.06773,-1.5352905 0,-0.8805342 0.248356,-1.806224 0.225778,-2.7093361 C 79.48862,3.3704458 78.867731,3.5849349 78.393597,3.8558685 77.919463,4.1493799 77.693685,4.3751579 77.603374,4.6235138 77.513063,4.939603 77.53564,5.391159 77.716263,5.6620926 77.422751,5.504048 77.174396,5.4588924 76.813151,5.5266258 c -1.061157,0.225778 -3.002848,2.0545799 -3.770493,2.8673807 -0.609601,0.6321784 -1.964269,1.8739575 -0.880534,2.6641805 0.316089,0.225778 0.767645,0.225778 1.038579,0.2032 l 2.077157,-0.06773 c -0.270933,0.903112 -1.941691,2.957692 -0.316089,3.409248 z m 1.467557,-1.693335 c -0.383822,-0.04516 -0.293511,-0.361245 -0.2032,-0.654757 0.06773,-0.180622 0.496712,-0.993423 0.654756,-1.038578 1.106312,-0.112889 2.190047,0.158044 3.273781,0.270933 0.225778,0.180623 -1.016001,0.745068 -1.106312,0.790223 -0.677334,0.293512 -1.896535,0.72249 -2.619025,0.632179 z m 7.631309,1.016001 c 0.745067,0.857956 2.167469,-0.970846 1.196623,-1.941691 -0.451556,-0.451556 -1.580446,-2.5061361 -2.483558,-4.3349379 0.609601,-0.022578 1.309512,-0.090311 1.873957,-0.1580446 -0.04516,0.1580446 -0.4064,0.8128008 -0.428978,0.9256898 -0.135467,0.4289782 0.654756,0.6999118 1.354668,0.2935114 0.428978,-0.2483558 1.196624,-1.3546681 1.241779,-2.0545799 0.04516,-0.677334 -0.857956,-1.7384906 -1.557868,-1.354668 -0.72249,0.3612448 -1.919113,0.790223 -3.206048,0.8353786 C 81.802857,5.5717814 81.599656,5.0750698 81.509345,4.7589806 81.204545,3.6752461 79.161254,4.5670693 79.81601,5.842715 78.754853,5.5717814 77.76143,5.2331144 76.971207,5.3234256 75.819739,5.4588924 75.006939,6.8361382 75.616539,7.423161 c 0.587023,0.6096007 2.957692,1.8513797 3.973693,2.709336 0.158045,0.135467 0.349956,0.214489 0.51929,0.225778 0,0.146756 0.01129,0.3048 0.02258,0.383823 0.02258,0.225778 0.06773,0.338667 0.169334,0.327378 0.1016,0 0.158044,-0.112889 0.169333,-0.3048 0.01129,-0.101601 0.02258,-0.293512 0.02258,-0.485423 0.508001,-0.225778 0.812801,-0.9369789 0.383823,-1.6820463 -0.293512,-0.5418672 -1.806224,-0.8579564 -2.709336,-1.5578683 0.474133,0.1580446 1.490134,0.4064004 2.528713,0.5418673 1.038579,2.1674688 2.551292,5.3960943 3.364093,6.3443623 z m 3.567296,-0.632179 c 0.8128,-0.2032 0.632178,-0.2032 1.648179,-0.880534 0.72249,-0.474134 3.318937,-2.4158247 3.544715,-3.1157365 0.2032,-0.564445 -0.09031,-0.903112 -0.677334,-0.7450674 -1.174046,0.677334 -2.528714,1.9868469 -3.770493,2.4384029 -1.241779,0.428978 -1.016001,-0.203201 -1.106312,-1.2192017 0.654756,-0.045156 2.596447,-0.2709336 3.048003,-0.6096006 0.699912,-0.4741338 0.92569,-1.580446 0.338667,-1.6030238 -0.767645,-0.045156 -2.302936,0.5870228 -3.138314,0.5870228 -0.225778,0 -0.248356,-0.1354668 -0.248356,-0.338667 V 6.4523156 c 0.677334,0.1354668 1.354668,0.2935114 2.032002,0.3612448 0.338667,0.045156 1.083734,0.112889 1.399823,0.090311 0.541868,-0.067733 1.219202,-0.790223 0.835379,-1.3095124 C 91.330692,5.3234256 88.847134,4.9621808 88.305267,4.7815584 87.356999,4.4654692 86.566776,4.2171133 85.866864,4.3525801 85.166952,4.488047 84.78313,5.1879588 84.941174,5.7072482 c 0.158045,0.4967116 0.745068,0.8353786 0.835379,1.6707572 0.02258,0.2483559 -0.135467,3.8156486 -0.158045,4.0188486 -0.03387,1.061157 0.654757,1.772357 1.411113,1.907824 l 0.03387,0.417689 c 0.02258,0.225778 0.06773,0.338667 0.169333,0.327379 0.1016,0 0.158045,-0.112889 0.169334,-0.304801 0.01129,-0.09031 0.02258,-0.248356 0.02258,-0.417689 z m 4.210768,0.643468 c 0.699912,0.169333 2.223913,-1.625602 1.444979,-2.47227 -0.767645,-0.846667 -3.070581,2.05458 -1.444979,2.47227 z m 0.03387,-3.18347 c 0.4064,0.270933 1.004712,-0.428979 1.095023,-0.9144013 0.135467,-0.8128008 0.372534,-4.5042712 0.587023,-5.4976945 0.248356,-1.2192012 0.05644,-1.5691571 -1.004712,-1.0272899 -0.993424,0.5080005 -1.083735,0.7450674 -1.049868,2.1110244 0,1.0498677 0.05644,3.3189367 0.146756,4.6058713 0.04516,0.462845 0.06773,0.632178 0.225778,0.72249 z"
       id="text1"
       aria-label="TB is het BESTE!" />
  </g>
</svg>
