<?xml version="1.0" encoding="UTF-8" standalone="no"?>
<!-- Created with Inkscape (http://www.inkscape.org/) -->

<svg
   width="104.97551mm"
   height="12.011402mm"
   viewBox="0 0 104.97551 12.011402"
   version="1.1"
   id="svg1"
   inkscape:version="1.4.3 (0d15f75, 2025-12-25)"
   sodipodi:docname="tilburg-gaat-winnen.svg"
   xmlns:inkscape="http://www.inkscape.org/namespaces/inkscape"
   xmlns:sodipodi="http://sodipodi.sourceforge.net/DTD/sodipodi-0.dtd"
   xmlns="http://www.w3.org/2000/svg"
   xmlns:svg="http://www.w3.org/2000/svg">
  <sodipodi:namedview
     id="namedview1"
     pagecolor="#ffffff"
     bordercolor="#000000"
     borderopacity="0.25"
     inkscape:showpageshadow="2"
     inkscape:pageopacity="0.0"
     inkscape:pagecheckerboard="0"
     inkscape:deskcolor="#d1d1d1"
     inkscape:document-units="mm"
     inkscape:zoom="0.86679994"
     inkscape:cx="164.97463"
     inkscape:cy="68.64329"
     inkscape:window-width="1190"
     inkscape:window-height="1122"
     inkscape:window-x="0"
     inkscape:window-y="25"
     inkscape:window-maximized="0"
     inkscape:current-layer="layer1" />
  <defs
     id="defs1" />
  <g
     inkscape:label="Laag 1"
     inkscape:groupmode="layer"
     id="layer1"
     transform="translate(-12.974409,-2.7721291)">
    <path
       style="font-size:11.2889px;font-family:'Aerosoldier Drip PERSONAL USE';-inkscape-font-specification:'Aerosoldier Drip PERSONAL USE, Normal';stroke-width:0.264583"
       d="m 22.028097,13.925568 c 0.745068,0.857956 2.167469,-0.970846 1.196624,-1.941691 -0.451556,-0.451556 -1.580446,-2.5061361 -2.483558,-4.3349379 0.6096,-0.022578 1.309512,-0.090311 1.873957,-0.1580446 -0.04516,0.1580446 -0.4064,0.8128008 -0.428978,0.9256898 -0.135467,0.4289782 0.654756,0.6999118 1.354668,0.2935114 0.428978,-0.2483558 1.196623,-1.3546681 1.241779,-2.0545799 0.04516,-0.677334 -0.857956,-1.7384906 -1.557868,-1.354668 -0.72249,0.3612448 -1.919113,0.790223 -3.206048,0.8353786 C 19.770317,5.5717814 19.567117,5.0750698 19.476806,4.7589806 19.172005,3.6752461 17.128715,4.5670693 17.783471,5.842715 16.722314,5.5717814 15.728891,5.2331144 14.938668,5.3234256 13.7872,5.4588924 12.974399,6.8361382 13.584,7.423161 c 0.587023,0.6096007 2.957692,1.8513797 3.973693,2.709336 0.158044,0.135467 0.349956,0.214489 0.519289,0.225778 0,0.146756 0.01129,0.3048 0.02258,0.383823 0.02258,0.225778 0.06773,0.338667 0.169333,0.327378 0.101601,0 0.158045,-0.112889 0.169334,-0.3048 0.01129,-0.101601 0.02258,-0.293512 0.02258,-0.485423 0.508,-0.225778 0.812801,-0.9369789 0.383822,-1.6820463 -0.293511,-0.5418672 -1.806224,-0.8579564 -2.709336,-1.5578683 0.474134,0.1580446 1.490135,0.4064004 2.528714,0.5418673 1.038579,2.1674688 2.551291,5.3960943 3.364092,6.3443623 z m 2.257786,-2.25778 c 0.519289,0.496711 1.309512,-0.180623 1.377246,-0.767646 0.112889,-0.767645 -0.270934,-1.3998233 -0.406401,-2.0771573 -0.04515,-0.225778 0.04516,-0.6547562 -0.112889,-0.8128008 -0.338667,-0.338667 -1.061157,0.2935114 -1.219201,0.6096006 -0.428978,0.8579564 0.06773,1.241779 0.135467,1.9868465 0,0.180622 -0.180623,0.293511 -0.180623,0.496712 0,0.180622 0.2032,0.383822 0.406401,0.564445 z M 23.631126,7.7618281 c 1.106313,0.338667 1.896536,-1.8739575 1.761069,-2.6190249 -0.135467,-0.6999119 -1.422402,0.2935114 -1.625602,0.6096006 -0.158044,0.2709336 -0.361245,1.8288019 -0.135467,2.0094243 z m 1.535294,5.4864059 c 0.05645,0.225778 0.270934,0.395111 0.575734,0.451556 l 0.03387,0.541867 c 0.02258,0.225778 0.06773,0.338667 0.169333,0.327378 0.1016,0 0.158045,-0.112889 0.169334,-0.3048 0.01129,-0.112889 0.02258,-0.349956 0.02258,-0.575734 0.530578,-0.158045 1.557868,-0.711201 2.032002,-0.891823 0.677334,-0.225778 1.241779,-0.248356 1.512712,-0.248356 0.632179,-0.02258 0.745068,0.225778 1.12889,0.158044 0.383823,-0.06773 0.699912,-0.361244 0.903112,-0.6096 0.31609,-0.361245 0.383823,-0.812801 0,-1.219201 -0.8128,-0.812801 -1.53529,-1.6707577 -2.212624,-1.5578687 -0.51929,0.1806224 -1.557868,0.9482677 -0.970846,1.4675567 0.112889,0.112889 0.654757,0.225778 0.812801,0.338667 l -1.467557,0.180623 C 28.214423,10.493742 27.830601,9.7938301 27.649978,9.0487627 27.4242,8.0327617 27.198422,7.310272 27.288733,6.2491154 c 0.02258,-0.3612448 0.406401,-1.5127126 -0.135466,-1.6030238 -0.383823,-0.067733 -1.286935,0.5870228 -1.422402,1.016001 -0.383822,1.3095124 0.361245,3.2737811 0.51929,4.6058714 0.02258,0.948268 -0.04516,1.196623 -0.474134,1.670757 -0.361245,0.406401 -0.767645,0.790223 -0.609601,1.309513 z m 7.247482,-2.415825 c -0.225778,0.06773 -0.293511,0.09031 -0.383822,-0.158045 -0.04516,-0.180622 -0.248356,-1.3320899 -0.2032,-1.6481791 0.6096,-0.2483558 2.280357,-0.564445 2.099735,0.5192894 -0.06773,0.4064004 -1.12889,1.1740457 -1.512713,1.2869347 z m -2.66418,-1.2192013 c 0.225778,0.1354668 0.428978,0.067733 0.654756,0 -0.02258,0.7224893 0.225778,1.3998233 0.383823,2.0997353 -0.609601,0.282223 -0.711201,1.286935 0.01129,1.433691 0,0.259644 0.01129,0.508 0.03387,0.643467 0.02258,0.225778 0.06773,0.338667 0.169334,0.327378 0.1016,0 0.158044,-0.112889 0.169333,-0.3048 0.02258,-0.146756 0.02258,-0.395112 0.03387,-0.677334 0.72249,-0.158045 1.986846,-0.936979 2.449691,-1.286935 0.428979,-0.316089 0.745068,-0.564445 1.219202,-1.061157 C 35.936039,9.7035189 36.094084,7.8521393 34.649105,7.3328498 33.791148,7.0619162 32.729992,7.1070718 31.894613,7.4683167 31.82688,7.3780054 32.03008,6.1362264 32.052658,5.9104484 32.142969,5.4588924 32.583236,4.1719577 32.515502,3.4833348 32.470347,2.9979121 32.188124,2.8060008 31.352746,3.4268903 30.856034,3.7881351 30.810878,4.0590687 30.720567,4.6460916 30.539945,5.7072482 30.494789,6.858716 30.336745,7.9424505 30.269011,8.1004951 29.9755,8.1908063 29.7723,8.4165843 29.478788,8.7778291 29.365899,9.3648519 29.749722,9.6132077 Z m 6.88623,2.9802693 c 0.745067,-0.496711 1.12889,-1.241779 1.354668,-1.648179 0.112889,0.632178 0.4064,1.490135 0.903112,1.603024 0.05644,0.01129 0.112889,0.01129 0.158044,0.01129 0,0.124178 0.01129,0.248356 0.02258,0.327378 0.02258,0.225778 0.06773,0.338667 0.169334,0.327378 0.1016,0 0.158044,-0.112889 0.169333,-0.3048 0.01129,-0.1016 0.02258,-0.304801 0.02258,-0.508001 0.327378,-0.237067 0.553156,-0.666045 0.496712,-0.982134 -0.06773,-0.496712 -0.699912,-0.948268 -0.835379,-1.9642689 -0.135467,-0.9934232 0.180622,-3.3640923 -0.158045,-3.6801815 -0.361244,-0.338667 -1.580446,0.090311 -1.603024,1.1740456 -0.02258,1.0837345 0.248356,1.8965353 -0.135466,2.9802697 -0.383823,1.0837341 -0.767646,1.0385791 -0.857957,0.1806221 -0.06773,-0.8805339 0.338667,-1.6481791 0.2032,-2.3706687 -0.135466,-0.7224897 -1.444979,-0.225778 -1.603023,0.7450674 -0.158045,0.9482676 -0.180623,2.4609803 0,3.1608923 0.2032,0.699912 0.925689,1.444979 1.693335,0.948267 z m 5.125151,-0.338667 c 0.564445,-0.745067 0,-0.993423 -0.248356,-1.603023 -0.474134,-1.1063127 -0.04516,-2.2126249 0.587023,-3.1383147 0.09031,-0.1128891 0.112889,-0.1580447 0.180622,-0.1806225 v 1.1514679 c 0,0.2709336 0.2032,0.564445 0.496712,0.6096006 0.496711,0.090311 0.699911,-0.225778 0.880534,-0.8353786 0.2032,-0.6096006 0.361245,-1.3546681 0.293511,-1.8288019 -0.04516,-0.4289782 -0.428978,-0.9934232 -0.903112,-1.016001 -0.993423,-0.045156 -1.964268,1.4224014 -2.280358,2.2126245 -0.135467,-0.3386671 0.06773,-0.7450675 0.06773,-1.1063123 0,-0.1806224 -0.02258,-0.451556 -0.248356,-0.5192894 -0.361245,-0.090311 -0.993423,0.6096006 -1.151468,0.8128008 -0.474134,0.6321784 -0.180622,0.8579565 -0.135467,1.4675571 0.112889,1.2869346 0.225778,2.4158245 0.812801,3.6124485 0.248356,0.519289 0.530578,0.880534 0.891823,0.869245 l 0.03387,0.462845 c 0.02258,0.225778 0.06773,0.338667 0.169333,0.327378 0.101601,0 0.158045,-0.112889 0.169334,-0.3048 0.02258,-0.135467 0.02258,-0.361245 0.03387,-0.632179 0.1016,-0.07902 0.237067,-0.214489 0.349956,-0.361245 z m 2.46097,1.693335 c 1.851379,0.338667 4.402671,0.203201 5.554139,-1.467557 0.225778,-0.383822 0.383822,-0.903112 -0.04516,-1.625601 C 49.460123,10.403431 48.985989,9.5680521 48.8731,9.2293851 48.55701,8.3262731 48.331232,7.4683167 48.444121,6.40716 48.511855,5.729826 48.827944,5.0299142 48.737633,4.3525801 48.376388,3.9913353 47.879676,4.3977357 47.586165,4.6686694 47.270076,4.9847586 47.044298,5.3234256 46.953987,5.7749816 46.321808,5.616937 45.870252,5.3234256 44.944562,5.7524038 c -0.925689,0.4064004 -1.941691,1.693335 -2.190046,3.6576037 -0.09031,0.6547565 0.248355,1.4449795 0.948267,1.5352905 0.745068,0.09031 2.551292,-0.72249 3.341515,-1.6933351 l 1.264357,2.7544921 c -0.02258,0.293511 -1.016001,0.541867 -1.309513,0.564445 -0.587023,0.04515 -1.174045,-0.04516 -1.715913,-0.225778 0.293512,-0.361245 1.64818,-1.264357 0.880535,-1.580446 -0.767646,-0.31609 -2.528714,0.8128 -2.98027,1.444979 -0.587023,0.857956 -0.372534,1.275646 0.180622,1.512712 0,0.112889 0.01129,0.21449 0.02258,0.293512 0.02258,0.225778 0.06773,0.338667 0.169334,0.327378 0.1016,0 0.158044,-0.112889 0.169333,-0.3048 0.01129,-0.05645 0.01129,-0.124178 0.01129,-0.191912 z m 1.309512,-5.0574269 c -0.428978,0.2709336 -1.241779,0.5870228 -1.219201,-0.045156 0.02258,-0.564445 0.857956,-1.7159129 1.557868,-1.7159129 1.286935,0 0.51929,1.1966235 -0.338667,1.7610685 z m 8.365081,5.0574269 c 1.851379,0.338667 4.402671,0.203201 5.554139,-1.467557 0.225778,-0.383822 0.383822,-0.903112 -0.04516,-1.625601 C 59.134715,10.403431 58.660582,9.5680521 58.547693,9.2293851 58.231603,8.3262731 58.005825,7.4683167 58.118714,6.40716 58.186448,5.729826 58.502537,5.0299142 58.412226,4.3525801 58.050981,3.9913353 57.554269,4.3977357 57.260758,4.6686694 56.944669,4.9847586 56.718891,5.3234256 56.62858,5.7749816 55.996401,5.616937 55.544845,5.3234256 54.619155,5.7524038 c -0.92569,0.4064004 -1.941691,1.693335 -2.190046,3.6576037 -0.09031,0.6547565 0.248355,1.4449795 0.948267,1.5352905 0.745068,0.09031 2.551292,-0.72249 3.341515,-1.6933351 l 1.264357,2.7544921 c -0.02258,0.293511 -1.016001,0.541867 -1.309513,0.564445 -0.587023,0.04515 -1.174045,-0.04516 -1.715913,-0.225778 0.293512,-0.361245 1.64818,-1.264357 0.880535,-1.580446 -0.767646,-0.31609 -2.528714,0.8128 -2.98027,1.444979 -0.587023,0.857956 -0.372534,1.275646 0.180622,1.512712 0,0.112889 0.01129,0.21449 0.02258,0.293512 0.02258,0.225778 0.06773,0.338667 0.169334,0.327378 0.1016,0 0.158044,-0.112889 0.169333,-0.3048 0.01129,-0.05645 0.01129,-0.124178 0.01129,-0.191912 z m 1.309512,-5.0574269 c -0.428978,0.2709336 -1.241779,0.5870228 -1.219201,-0.045156 0.02258,-0.564445 0.857956,-1.7159129 1.557868,-1.7159129 1.286935,0 0.51929,1.1966235 -0.338667,1.7610685 z m 4.594582,3.0480029 c -0.02258,-0.135467 0.04516,-0.180622 0.112889,-0.270933 0.383823,-0.496712 1.444979,-0.970846 2.077158,-0.948268 0.349956,0 0.643467,0.04516 0.824089,0.158045 0.09031,0.349955 -0.982134,0.767645 -1.207912,0.857956 -0.270934,0.112889 -1.693335,0.564445 -1.806224,0.2032 z m -0.338667,1.783646 c 1.083734,0 3.522137,-0.959556 4.018849,-1.399823 0.428978,-0.372534 0.519289,-0.474134 0.564445,-0.564445 0.428978,0.485423 0.428978,1.106312 1.02729,0.970845 l 0.03387,0.496712 c 0.02258,0.225778 0.06773,0.338667 0.169334,0.327378 0.1016,0 0.158044,-0.112889 0.169333,-0.3048 0.02258,-0.146756 0.02258,-0.395112 0.03387,-0.677334 0.248356,-0.146756 0.801512,-0.699912 0.82409,-0.993424 0,-0.451556 -0.677334,-1.309512 -0.812801,-1.9642683 -0.180623,-0.8805342 -0.112889,-1.8513796 -0.02258,-2.4835581 0.09031,-0.564445 0.180622,-1.0611566 0.04516,-1.2869346 -0.225778,-0.3612448 -1.12889,-0.338667 -1.64818,-0.2935114 -1.422401,0.1354668 -2.889958,0.5418672 -4.222049,1.0611566 -0.699911,0.2709336 -1.33209,0.4967116 -1.422401,1.3772459 -0.112889,0.9934232 1.151468,0.903112 1.806224,0.9934232 0.880534,0.1354668 1.941691,0.090311 2.235202,-0.1354668 0.225778,-0.1580446 0.203201,-0.451556 -0.04516,-0.6547562 C 61.923073,7.9876061 61.448939,7.7618281 61.13285,7.5812057 61.494095,7.4683167 63.368053,6.9038716 63.571253,7.0619162 l 0.293511,2.5512915 C 63.006808,9.3196963 62.035962,9.2971185 60.907072,9.5003187 59.80076,9.7035189 58.694448,10.493742 58.152581,11.532321 c -0.06773,0.158044 -0.112889,0.293511 -0.135467,0.451556 -0.112889,1.286934 1.061156,1.73849 1.444979,1.73849 z m 7.608709,-1.783646 c -0.02258,-0.135467 0.04516,-0.180622 0.112889,-0.270933 0.383823,-0.496712 1.44498,-0.970846 2.077158,-0.948268 0.349956,0 0.643467,0.04516 0.82409,0.158045 0.09031,0.349955 -0.982134,0.767645 -1.207912,0.857956 -0.270934,0.112889 -1.693336,0.564445 -1.806225,0.2032 z m -0.338667,1.783646 c 1.083735,0 3.522137,-0.959556 4.018849,-1.399823 0.428978,-0.372534 0.519289,-0.474134 0.564445,-0.564445 0.428978,0.485423 0.428978,1.106312 1.02729,0.970845 l 0.03387,0.496712 c 0.02258,0.225778 0.06773,0.338667 0.169333,0.327378 0.1016,0 0.158045,-0.112889 0.169334,-0.3048 0.02258,-0.146756 0.02258,-0.395112 0.03387,-0.677334 0.248356,-0.146756 0.801512,-0.699912 0.82409,-0.993424 0,-0.451556 -0.677334,-1.309512 -0.812801,-1.9642683 -0.180622,-0.8805342 -0.112889,-1.8513796 -0.02258,-2.4835581 0.09031,-0.564445 0.180623,-1.0611566 0.04516,-1.2869346 -0.225778,-0.3612448 -1.12889,-0.338667 -1.648179,-0.2935114 -1.422402,0.1354668 -2.889959,0.5418672 -4.222049,1.0611566 -0.699912,0.2709336 -1.33209,0.4967116 -1.422402,1.3772459 -0.112889,0.9934232 1.151468,0.903112 1.806224,0.9934232 0.880535,0.1354668 1.941691,0.090311 2.235203,-0.1354668 0.225778,-0.1580446 0.2032,-0.451556 -0.04516,-0.6547562 -0.293511,-0.2032002 -0.767645,-0.4289782 -1.083734,-0.6096006 0.361245,-0.112889 2.235202,-0.6773341 2.438402,-0.5192895 l 0.293512,2.5512915 C 70.27685,9.3196963 69.306005,9.2971185 68.177115,9.5003187 67.070802,9.7035189 65.96449,10.493742 65.422623,11.532321 c -0.06773,0.158044 -0.112889,0.293511 -0.135467,0.451556 -0.112889,1.286934 1.061157,1.73849 1.444979,1.73849 z m 6.728176,-2.551291 c 0.09031,0.903112 0.428978,1.411113 0.857956,1.591735 0,0.135467 0.01129,0.270934 0.02258,0.349956 0.02258,0.225778 0.06773,0.338667 0.169333,0.327378 0.1016,0 0.158045,-0.112889 0.169334,-0.3048 l 0.02258,-0.293512 c 0.891823,0.03387 2.009424,-0.903112 2.348091,-2.032002 0.225778,-0.632178 0.338667,-1.6933349 0.135467,-1.8513795 -0.293512,-0.225778 -0.92569,0.2483558 -1.106312,0.564445 -0.135467,0.225778 -0.09031,2.0094245 -0.880535,1.6256015 -0.496711,-0.248356 -0.293511,-2.1674687 -0.06773,-2.6641803 1.061157,-0.3612448 3.522137,-0.7450674 3.18347,-2.2803579 -0.225778,-0.3160892 -1.444979,0.338667 -1.761069,0.451556 -0.2032,0.067733 -1.354668,0.3838226 -1.422401,0.3160892 -0.04516,-0.451556 0.835379,-1.8739574 -0.158045,-1.7610684 -1.061156,0.112889 -1.444979,1.2869346 -1.399823,2.1900466 -0.632179,0.2257781 -1.85138,0.9482677 -1.377246,1.6707573 0.338667,0.5418672 1.286934,-0.2709336 1.377246,-0.1806224 -0.09031,0.4741338 -0.158045,1.6030239 -0.112889,2.2803579 z m 13.501535,2.528714 c 0.993423,-0.04516 0.620889,-1.196624 0.722489,-3.070581 0.06773,-1.8513799 0.835379,-6.0056952 0.2032,-6.4572513 -0.666045,-0.451556 -2.077157,0.8805343 -1.862668,1.6481795 0.191911,0.790223 0.327378,3.3866701 0.237067,4.3800938 C 85.3814,9.1164961 85.212066,7.1296496 84.647621,6.7232492 84.071887,6.3168488 83.247797,7.7166725 83.202642,8.4617399 83.168775,9.2068073 83.033308,10.674364 82.976864,10.945298 82.638197,9.0939183 82.333396,7.6715169 81.847974,6.068493 81.509307,4.9847586 80.978728,4.6235138 80.222372,5.391159 c -0.733778,0.7676452 -0.666045,1.2192012 -0.124178,1.8739574 1.761069,2.0771577 1.23049,5.2154716 2.506136,6.1637396 0.04516,0.03387 0.124178,0.05645 0.191911,0.05645 l 0.03387,0.530578 c 0.02258,0.225778 0.06773,0.338667 0.169334,0.327378 0.1016,0 0.158044,-0.112889 0.169333,-0.3048 0.02258,-0.146756 0.02258,-0.383823 0.03387,-0.666045 0.519289,-0.248356 1.162756,-0.903112 1.219201,-1.320802 0.1016,-0.564445 -0.191911,-1.648179 0.07902,-1.851379 0.395112,1.016001 1.44498,3.522136 2.460981,3.499559 z m 3.014143,-0.09031 c 0.654756,-0.282222 1.783646,-0.248355 2.483558,-0.349955 0,0.124177 0.01129,0.225778 0.02258,0.3048 0.02258,0.225778 0.06773,0.338667 0.169333,0.327378 0.101601,0 0.158045,-0.112889 0.169334,-0.3048 0.01129,-0.09031 0.02258,-0.248356 0.02258,-0.406401 0.259644,-0.07902 0.451556,-0.2032 0.587023,-0.4064 0.09031,-0.180623 0.158044,-0.51929 0.112889,-0.767645 -0.09031,-0.451556 -0.767646,-0.903112 -1.806224,-0.587023 -0.135467,-0.248356 -0.835379,-1.5578685 -1.038579,-2.1900469 -0.158045,-0.451556 -0.180623,-0.6999118 -0.135467,-0.8353786 0.09031,-0.2935114 0.677334,-0.1806224 1.309512,-0.3160892 0.880535,-0.2032002 1.264357,-1.8062241 -0.180622,-1.6933351 -1.309513,0.067733 -2.596447,0.7224896 -3.747915,1.3320903 -0.677334,0.4289782 -0.677334,1.1740456 -0.135467,1.3095124 0.428978,0.1354668 0.880534,-0.1806224 1.33209,-0.2483558 -0.135466,1.1063122 0.474134,2.0771579 0.654757,3.1383139 -0.31609,0.383823 -1.535291,1.038579 -1.038579,1.670758 0.248356,0.338667 0.790223,0.158044 1.219201,0.02258 z M 88.643899,6.7909826 C 88.982566,6.9264494 89.208344,6.858716 89.4567,6.632938 89.930833,6.2265376 89.614744,5.616937 89.637322,5.052492 89.6599,4.600936 90.134034,3.1108011 89.253499,3.2462679 c -0.383822,0.067733 -1.219201,0.7450674 -1.309512,1.1514678 -0.09031,0.4967117 0.180622,0.9934233 0.293511,1.4901349 0.06773,0.3838226 -0.135466,0.677334 0.406401,0.903112 z m 5.915396,6.2540504 c 0.72249,0.383823 1.941691,-0.541867 1.693335,-1.106312 -0.180622,-0.383822 -1.648179,-0.835378 -1.986846,-0.835378 0.248355,-0.248356 0.857956,-0.993424 0.293511,-2.1674693 1.241779,1.4449793 2.551292,3.0480033 2.709336,3.2512033 0.316089,0.372534 0.609601,0.62089 0.869245,0.677334 l 0.03387,0.587023 c 0.02258,0.225778 0.06773,0.338667 0.169334,0.327378 0.1016,0 0.158044,-0.112889 0.169333,-0.3048 0.02258,-0.146756 0.02258,-0.372534 0.03387,-0.643468 0.214489,-0.09031 0.428978,-0.282222 0.688623,-0.620889 0.248356,-0.293512 0.428978,-0.993423 0.02258,-1.151468 -0.383823,-0.158045 -1.106313,-1.016001 -1.377246,-1.9416909 -0.293512,-0.9482676 -0.51929,-1.7836463 -0.51929,-3.1383143 0,-1.241779 -1.761068,-0.1580446 -1.806224,0.790223 -0.02258,0.7450675 0.72249,1.8965353 0.993424,2.5512915 -0.158045,0.022578 -3.612449,-4.6510269 -3.70276,-4.7413381 -0.745067,-0.6999119 -1.986846,0.8579564 -1.557868,1.6256016 2.212624,1.9642687 2.46098,4.5381382 1.512713,4.6961822 -1.12889,0.428979 -1.354668,1.580446 -0.677334,1.625602 0.722489,0.04516 2.280357,0.4064 2.438402,0.519289 z m 5.712185,0 c 0.72249,0.383823 1.94169,-0.541867 1.69334,-1.106312 -0.18062,-0.383822 -1.64818,-0.835378 -1.986848,-0.835378 0.248358,-0.248356 0.857958,-0.993424 0.293508,-2.1674693 1.24178,1.4449793 2.5513,3.0480033 2.70934,3.2512033 0.31609,0.372534 0.6096,0.62089 0.86925,0.677334 l 0.0339,0.587023 c 0.0226,0.225778 0.0677,0.338667 0.16934,0.327378 0.1016,0 0.15804,-0.112889 0.16933,-0.3048 0.0226,-0.146756 0.0226,-0.372534 0.0339,-0.643468 0.21448,-0.09031 0.42897,-0.282222 0.68862,-0.620889 0.24835,-0.293512 0.42898,-0.993423 0.0226,-1.151468 -0.38383,-0.158045 -1.10632,-1.016001 -1.37725,-1.9416909 -0.29351,-0.9482676 -0.51929,-1.7836463 -0.51929,-3.1383143 0,-1.241779 -1.76107,-0.1580446 -1.80622,0.790223 -0.0226,0.7450675 0.72249,1.8965353 0.99342,2.5512915 -0.15804,0.022578 -3.612448,-4.6510269 -3.702759,-4.7413381 -0.745068,-0.6999119 -1.986847,0.8579564 -1.557868,1.6256016 2.212624,1.9642687 2.46098,4.5381382 1.512712,4.6961822 -1.12889,0.428979 -1.354668,1.580446 -0.677334,1.625602 0.72249,0.04516 2.280359,0.4064 2.438399,0.519289 z m 5.53157,0.248356 c 0.8128,-0.2032 0.63218,-0.2032 1.64818,-0.880534 0.72249,-0.474134 3.31894,-2.4158247 3.54471,-3.1157365 0.2032,-0.564445 -0.0903,-0.903112 -0.67733,-0.7450674 -1.17405,0.677334 -2.52871,1.9868469 -3.77049,2.4384029 -1.24178,0.428978 -1.016,-0.203201 -1.10631,-1.2192017 0.65475,-0.045156 2.59644,-0.2709336 3.048,-0.6096006 0.69991,-0.4741338 0.92569,-1.580446 0.33867,-1.6030238 -0.76765,-0.045156 -2.30294,0.5870228 -3.13832,0.5870228 -0.22578,0 -0.24835,-0.1354668 -0.24835,-0.338667 V 6.4523156 c 0.67733,0.1354668 1.35466,0.2935114 2.032,0.3612448 0.33866,0.045156 1.08373,0.112889 1.39982,0.090311 0.54187,-0.067733 1.2192,-0.790223 0.83538,-1.3095124 -0.2032,-0.2709336 -2.68676,-0.6321784 -3.22863,-0.8128008 -0.94826,-0.3160892 -1.73849,-0.5644451 -2.4384,-0.4289783 -0.69991,0.1354669 -1.08373,0.8353787 -0.92569,1.3546681 0.15805,0.4967116 0.74507,0.8353786 0.83538,1.6707572 0.0226,0.2483559 -0.13547,3.8156486 -0.15804,4.0188486 -0.0339,1.061157 0.65475,1.772357 1.41111,1.907824 l 0.0339,0.417689 c 0.0226,0.225778 0.0677,0.338667 0.16933,0.327379 0.1016,0 0.15804,-0.112889 0.16933,-0.304801 0.0113,-0.09031 0.0226,-0.248356 0.0226,-0.417689 z m 5.57673,-0.248356 c 0.72249,0.383823 1.94169,-0.541867 1.69333,-1.106312 -0.18062,-0.383822 -1.64818,-0.835378 -1.98685,-0.835378 0.24836,-0.248356 0.85796,-0.993424 0.29352,-2.1674693 1.24177,1.4449793 2.55129,3.0480033 2.70933,3.2512033 0.31609,0.372534 0.6096,0.62089 0.86925,0.677334 l 0.0339,0.587023 c 0.0226,0.225778 0.0677,0.338667 0.16934,0.327378 0.1016,0 0.15804,-0.112889 0.16933,-0.3048 0.0226,-0.146756 0.0226,-0.372534 0.0339,-0.643468 0.21449,-0.09031 0.42898,-0.282222 0.68862,-0.620889 0.24836,-0.293512 0.42898,-0.993423 0.0226,-1.151468 -0.38382,-0.158045 -1.10631,-1.016001 -1.37725,-1.9416909 -0.29351,-0.9482676 -0.51929,-1.7836463 -0.51929,-3.1383143 0,-1.241779 -1.76107,-0.1580446 -1.80622,0.790223 -0.0226,0.7450675 0.72249,1.8965353 0.99342,2.5512915 -0.15804,0.022578 -3.61245,-4.6510269 -3.70276,-4.7413381 -0.74506,-0.6999119 -1.98684,0.8579564 -1.55787,1.6256016 2.21263,1.9642687 2.46098,4.5381382 1.51272,4.6961822 -1.12889,0.428979 -1.35467,1.580446 -0.67734,1.625602 0.72249,0.04516 2.28036,0.4064 2.43841,0.519289 z m 4.34623,0.891824 c 0.69991,0.169333 2.22391,-1.625602 1.44498,-2.47227 -0.76765,-0.846667 -3.07058,2.05458 -1.44498,2.47227 z m 0.0339,-3.18347 c 0.4064,0.270933 1.00472,-0.428979 1.09503,-0.9144013 0.13546,-0.8128008 0.37253,-4.5042712 0.58702,-5.4976945 0.24836,-1.2192012 0.0564,-1.5691571 -1.00471,-1.0272899 -0.99343,0.5080005 -1.08374,0.7450674 -1.04987,2.1110244 0,1.0498677 0.0564,3.3189367 0.14676,4.6058713 0.0452,0.462845 0.0677,0.632178 0.22577,0.72249 z"
       id="text1"
       aria-label="Tilburg gaat WINNEN!" />
  </g>
</svg>
