<svg xmlns="http://www.w3.org/2000/svg" id="canvas" viewBox="210.648 465.352 858.579 112.267"><path d="M 240.42,480.63 C 239.75 481.03, 239.56 481.56, 239.18 482.59 C 238.80 483.61, 238.66 484.27, 238.51 485.75 C 238.37 487.23, 238.42 488.19, 238.44 489.99 C 238.46 491.80, 238.54 492.76, 238.59 494.78 C 238.64 496.80, 238.63 497.89, 238.67 500.09 C 238.71 502.29, 238.72 503.48, 238.80 505.80 C 238.88 508.11, 238.94 509.32, 239.07 511.67 C 239.20 514.01, 239.28 515.23, 239.46 517.53 C 239.65 519.84, 239.79 521.02, 240.01 523.19 C 240.24 525.36, 240.37 526.42, 240.61 528.39 C 240.85 530.37, 240.96 531.36, 241.23 533.06 C 241.50 534.77, 241.67 535.61, 241.95 536.92 C 242.23 538.22, 242.36 538.76, 242.64 539.57 C 242.92 540.38, 243.01 540.63, 243.34 540.97 C 243.68 541.31, 244.01 541.26, 244.30 541.29 C 244.59 541.32, 244.75 541.06, 244.80 541.12 C 244.86 541.19, 244.48 541.52, 244.60 541.60 C 244.72 541.69, 245.05 541.76, 245.39 541.57 C 245.74 541.38, 246.10 541.17, 246.34 540.66 C 246.59 540.15, 246.58 539.91, 246.62 539.02 C 246.66 538.13, 246.67 537.55, 246.55 536.22 C 246.44 534.89, 246.26 534.05, 246.05 532.38 C 245.84 530.70, 245.70 529.76, 245.50 527.83 C 245.29 525.90, 245.21 524.85, 245.02 522.71 C 244.84 520.58, 244.73 519.41, 244.58 517.15 C 244.43 514.89, 244.36 513.71, 244.26 511.41 C 244.16 509.11, 244.14 507.93, 244.09 505.65 C 244.04 503.38, 244.03 502.21, 244.02 500.03 C 244.02 497.86, 244.02 496.78, 244.07 494.78 C 244.12 492.79, 244.22 491.83, 244.27 490.04 C 244.31 488.25, 244.39 487.33, 244.29 485.85 C 244.19 484.37, 244.12 483.69, 243.76 482.65 C 243.41 481.60, 243.19 481.03, 242.52 480.63 C 241.85 480.23, 241.09 480.24, 240.42 480.63" style="stroke: black; fill: black;"/><path d="M 214.26,479.87 C 214.65 480.37, 214.89 480.43, 215.61 480.60 C 216.33 480.77, 216.70 480.83, 217.86 480.73 C 219.01 480.63, 219.68 480.41, 221.38 480.10 C 223.09 479.78, 224.11 479.57, 226.37 479.15 C 228.64 478.73, 230.00 478.54, 232.72 478.00 C 235.43 477.46, 236.93 477.03, 239.96 476.46 C 243.00 475.89, 244.66 475.62, 247.89 475.16 C 251.11 474.70, 252.85 474.49, 256.08 474.16 C 259.32 473.82, 261.00 473.67, 264.05 473.49 C 267.10 473.32, 268.62 473.34, 271.32 473.29 C 274.02 473.24, 275.32 473.20, 277.54 473.26 C 279.75 473.33, 280.79 473.39, 282.39 473.62 C 283.98 473.84, 284.56 474.00, 285.53 474.39 C 286.50 474.77, 286.68 475.22, 287.25 475.55 C 287.81 475.88, 287.97 475.89, 288.35 476.05 C 288.74 476.21, 288.79 476.37, 289.19 476.33 C 289.59 476.29, 290.08 476.21, 290.35 475.87 C 290.63 475.52, 290.69 475.22, 290.58 474.60 C 290.46 473.98, 290.43 473.56, 289.77 472.78 C 289.11 472.00, 288.60 471.39, 287.28 470.69 C 285.97 469.99, 285.10 469.70, 283.20 469.28 C 281.30 468.85, 280.18 468.73, 277.79 468.55 C 275.39 468.37, 274.03 468.31, 271.22 468.38 C 268.40 468.44, 266.84 468.63, 263.73 468.89 C 260.61 469.15, 258.91 469.35, 255.62 469.69 C 252.34 470.03, 250.59 470.23, 247.30 470.60 C 244.02 470.97, 242.32 471.18, 239.22 471.54 C 236.12 471.90, 234.56 472.03, 231.79 472.40 C 229.02 472.77, 227.70 473.02, 225.38 473.39 C 223.07 473.75, 222.00 473.86, 220.22 474.23 C 218.44 474.61, 217.65 474.78, 216.48 475.26 C 215.32 475.75, 214.96 476.08, 214.40 476.64 C 213.83 477.21, 213.67 477.45, 213.65 478.10 C 213.62 478.74, 213.87 479.37, 214.26 479.87" style="stroke: black; fill: black;"/><path d="M 287.13,507.52 C 286.42 507.73, 286.07 508.10, 285.49 509.03 C 284.91 509.96, 284.58 510.66, 284.23 512.16 C 283.88 513.66, 283.84 514.73, 283.74 516.53 C 283.63 518.33, 283.73 519.30, 283.71 521.16 C 283.68 523.01, 283.63 523.97, 283.61 525.81 C 283.59 527.65, 283.56 528.61, 283.60 530.34 C 283.65 532.08, 283.58 532.99, 283.83 534.48 C 284.09 535.97, 284.36 536.78, 284.87 537.80 C 285.38 538.82, 285.75 539.28, 286.36 539.57 C 286.98 539.86, 287.48 539.74, 287.95 539.26 C 288.41 538.78, 288.52 538.23, 288.69 537.18 C 288.86 536.14, 288.82 535.42, 288.82 534.04 C 288.81 532.66, 288.69 531.89, 288.69 530.27 C 288.68 528.66, 288.71 527.74, 288.81 525.98 C 288.90 524.22, 288.97 523.27, 289.17 521.50 C 289.37 519.72, 289.58 518.80, 289.80 517.09 C 290.01 515.37, 290.24 514.38, 290.26 512.92 C 290.29 511.47, 290.17 510.81, 289.92 509.82 C 289.68 508.83, 289.62 508.43, 289.06 507.97 C 288.50 507.51, 287.85 507.31, 287.13 507.52" style="stroke: black; fill: black;"/><path d="M 288.91,480.34 C 289.67 480.40, 290.10 480.31, 290.13 480.10 C 290.16 479.89, 289.70 479.60, 289.04 479.28 C 288.39 478.96, 287.61 478.60, 286.88 478.49 C 286.15 478.38, 285.51 478.48, 285.40 478.74 C 285.29 478.99, 285.64 479.45, 286.34 479.76 C 287.04 480.08, 288.15 480.27, 288.91 480.34" style="stroke: black; fill: black;"/><path d="M 311.87,472.40 C 311.23 472.79, 311.04 473.30, 310.71 474.30 C 310.38 475.30, 310.29 475.93, 310.21 477.40 C 310.13 478.88, 310.24 479.82, 310.32 481.67 C 310.41 483.52, 310.53 484.52, 310.64 486.65 C 310.75 488.79, 310.78 489.97, 310.87 492.35 C 310.97 494.74, 311.01 496.03, 311.11 498.59 C 311.22 501.14, 311.27 502.48, 311.41 505.11 C 311.55 507.74, 311.63 509.11, 311.82 511.73 C 312.00 514.35, 312.09 515.71, 312.33 518.21 C 312.57 520.71, 312.71 521.96, 313.01 524.25 C 313.31 526.54, 313.46 527.68, 313.82 529.67 C 314.18 531.66, 314.35 532.63, 314.80 534.19 C 315.26 535.76, 315.55 536.50, 316.09 537.48 C 316.63 538.47, 317.01 538.70, 317.52 539.12 C 318.04 539.54, 318.26 539.60, 318.68 539.60 C 319.09 539.59, 319.34 539.40, 319.59 539.09 C 319.85 538.79, 319.85 538.68, 319.94 538.09 C 320.03 537.51, 320.15 537.16, 320.03 536.16 C 319.91 535.16, 319.61 534.54, 319.32 533.08 C 319.03 531.63, 318.87 530.77, 318.59 528.88 C 318.31 527.00, 318.18 525.88, 317.94 523.66 C 317.70 521.44, 317.57 520.22, 317.38 517.77 C 317.19 515.32, 317.12 513.99, 316.97 511.41 C 316.83 508.83, 316.75 507.47, 316.65 504.87 C 316.54 502.27, 316.52 500.93, 316.45 498.40 C 316.38 495.86, 316.34 494.57, 316.29 492.19 C 316.24 489.81, 316.21 488.63, 316.20 486.49 C 316.18 484.34, 316.24 483.33, 316.20 481.47 C 316.16 479.60, 316.19 478.63, 315.99 477.16 C 315.79 475.69, 315.61 475.08, 315.20 474.11 C 314.79 473.15, 314.59 472.68, 313.93 472.33 C 313.26 471.99, 312.51 472.00, 311.87 472.40" style="stroke: black; fill: black;"/><path d="M 338.66,479.20 C 338.03 479.48, 337.85 479.80, 337.49 480.55 C 337.13 481.30, 336.98 481.79, 336.86 482.97 C 336.74 484.14, 336.83 484.89, 336.87 486.43 C 336.92 487.98, 337.03 488.86, 337.09 490.67 C 337.15 492.47, 337.17 493.46, 337.18 495.46 C 337.19 497.45, 337.16 498.51, 337.15 500.63 C 337.13 502.75, 337.11 503.89, 337.11 506.06 C 337.10 508.23, 337.10 509.36, 337.11 511.47 C 337.12 513.57, 337.13 514.66, 337.17 516.59 C 337.20 518.51, 337.23 519.49, 337.28 521.10 C 337.33 522.72, 337.20 523.49, 337.42 524.66 C 337.64 525.83, 337.99 526.37, 338.37 526.95 C 338.76 527.53, 339.01 527.41, 339.33 527.53 C 339.66 527.66, 339.67 527.67, 340.01 527.57 C 340.34 527.46, 340.62 527.58, 341.02 527.00 C 341.43 526.42, 341.80 525.86, 342.03 524.67 C 342.26 523.49, 342.12 522.71, 342.16 521.09 C 342.20 519.47, 342.20 518.49, 342.22 516.57 C 342.24 514.65, 342.24 513.58, 342.27 511.49 C 342.30 509.40, 342.32 508.27, 342.36 506.12 C 342.40 503.96, 342.42 502.83, 342.47 500.71 C 342.52 498.59, 342.54 497.53, 342.60 495.52 C 342.67 493.52, 342.71 492.51, 342.77 490.67 C 342.84 488.82, 342.93 487.89, 342.91 486.31 C 342.89 484.72, 342.89 483.93, 342.68 482.74 C 342.46 481.56, 342.26 481.11, 341.85 480.40 C 341.44 479.68, 341.26 479.40, 340.62 479.16 C 339.98 478.92, 339.29 478.93, 338.66 479.20" style="stroke: black; fill: black;"/><path d="M 336.33,504.01 C 337.03 504.31, 337.54 504.07, 338.58 503.84 C 339.62 503.62, 340.18 503.35, 341.54 502.87 C 342.89 502.38, 343.69 501.92, 345.35 501.41 C 347.02 500.90, 347.97 500.63, 349.87 500.31 C 351.78 500.00, 352.89 499.88, 354.90 499.84 C 356.90 499.79, 357.98 499.82, 359.89 500.08 C 361.80 500.33, 362.77 500.55, 364.44 501.11 C 366.12 501.67, 366.94 502.08, 368.27 502.89 C 369.61 503.70, 370.21 504.19, 371.11 505.16 C 372.01 506.13, 372.34 506.66, 372.77 507.73 C 373.21 508.80, 373.29 509.38, 373.29 510.50 C 373.29 511.62, 373.19 512.21, 372.79 513.34 C 372.38 514.46, 372.06 515.04, 371.28 516.14 C 370.49 517.24, 369.99 517.82, 368.84 518.83 C 367.70 519.84, 367.03 520.36, 365.57 521.22 C 364.12 522.08, 363.26 522.48, 361.57 523.14 C 359.88 523.80, 358.95 524.10, 357.14 524.54 C 355.34 524.97, 354.34 525.12, 352.55 525.31 C 350.75 525.51, 349.79 525.54, 348.18 525.52 C 346.56 525.50, 345.76 525.42, 344.47 525.22 C 343.19 525.01, 342.62 524.82, 341.75 524.51 C 340.87 524.19, 340.59 523.90, 340.10 523.64 C 339.61 523.38, 339.52 523.30, 339.29 523.22 C 339.05 523.15, 339.09 523.29, 338.94 523.25 C 338.80 523.22, 338.89 523.21, 338.56 523.04 C 338.22 522.88, 337.69 522.39, 337.26 522.42 C 336.83 522.45, 336.57 522.69, 336.41 523.19 C 336.25 523.68, 336.24 524.20, 336.46 524.89 C 336.69 525.59, 336.86 525.93, 337.53 526.66 C 338.21 527.40, 338.66 527.93, 339.86 528.58 C 341.05 529.22, 341.90 529.51, 343.52 529.90 C 345.15 530.29, 346.09 530.41, 348.00 530.52 C 349.90 530.62, 350.98 530.62, 353.05 530.44 C 355.12 530.26, 356.25 530.09, 358.34 529.61 C 360.43 529.12, 361.50 528.80, 363.49 528.02 C 365.47 527.25, 366.50 526.79, 368.27 525.72 C 370.04 524.64, 370.90 524.00, 372.34 522.65 C 373.78 521.31, 374.45 520.56, 375.47 518.99 C 376.49 517.42, 376.95 516.54, 377.45 514.82 C 377.95 513.09, 378.07 512.12, 377.99 510.36 C 377.90 508.59, 377.69 507.66, 377.02 506.00 C 376.34 504.34, 375.83 503.51, 374.60 502.07 C 373.37 500.64, 372.58 499.95, 370.88 498.82 C 369.18 497.69, 368.16 497.19, 366.12 496.42 C 364.07 495.66, 362.91 495.38, 360.66 495.00 C 358.41 494.62, 357.19 494.56, 354.88 494.52 C 352.57 494.49, 351.36 494.59, 349.13 494.84 C 346.90 495.08, 345.73 495.21, 343.72 495.76 C 341.71 496.31, 340.61 496.74, 339.09 497.59 C 337.57 498.44, 336.92 499.05, 336.12 500.00 C 335.31 500.96, 335.02 501.56, 335.07 502.36 C 335.11 503.17, 335.63 503.71, 336.33 504.01" style="stroke: black; fill: black;"/><path d="M 389.10,500.03 C 388.44 500.10, 388.13 500.26, 387.64 500.78 C 387.16 501.30, 386.91 501.73, 386.67 502.63 C 386.42 503.53, 386.44 504.12, 386.42 505.30 C 386.40 506.48, 386.46 507.17, 386.55 508.52 C 386.65 509.88, 386.69 510.63, 386.89 512.09 C 387.10 513.54, 387.20 514.32, 387.56 515.81 C 387.93 517.29, 388.13 518.08, 388.72 519.50 C 389.31 520.93, 389.67 521.66, 390.52 522.92 C 391.36 524.18, 391.86 524.78, 392.95 525.80 C 394.03 526.81, 394.64 527.29, 395.94 527.97 C 397.24 528.66, 397.99 528.93, 399.44 529.22 C 400.89 529.51, 401.69 529.54, 403.19 529.40 C 404.69 529.27, 405.47 529.09, 406.93 528.55 C 408.39 528.02, 409.14 527.61, 410.49 526.72 C 411.84 525.82, 412.48 525.26, 413.66 524.07 C 414.84 522.88, 415.41 522.17, 416.41 520.76 C 417.40 519.34, 417.86 518.53, 418.64 516.99 C 419.41 515.45, 419.74 514.61, 420.28 513.07 C 420.83 511.53, 421.01 510.70, 421.37 509.29 C 421.72 507.87, 421.98 507.19, 422.06 505.99 C 422.13 504.79, 422.18 504.05, 421.75 503.30 C 421.32 502.56, 420.67 502.29, 419.90 502.27 C 419.14 502.26, 418.50 502.54, 417.91 503.23 C 417.32 503.92, 417.08 504.51, 416.96 505.73 C 416.85 506.95, 417.07 507.78, 417.34 509.33 C 417.62 510.88, 417.90 511.78, 418.35 513.46 C 418.80 515.13, 419.04 516.02, 419.59 517.69 C 420.15 519.36, 420.41 520.23, 421.11 521.81 C 421.80 523.39, 422.19 524.20, 423.06 525.59 C 423.93 526.99, 424.42 527.66, 425.46 528.78 C 426.51 529.91, 427.10 530.46, 428.27 531.21 C 429.44 531.97, 430.18 532.32, 431.32 532.56 C 432.46 532.81, 433.14 532.70, 433.95 532.44 C 434.76 532.17, 435.14 531.80, 435.38 531.24 C 435.62 530.69, 435.41 530.14, 435.15 529.66 C 434.89 529.18, 434.56 529.13, 434.08 528.83 C 433.59 528.52, 433.35 528.43, 432.71 528.12 C 432.07 527.81, 431.62 527.78, 430.88 527.27 C 430.15 526.76, 429.77 526.43, 429.05 525.59 C 428.34 524.74, 427.96 524.18, 427.31 523.04 C 426.66 521.90, 426.33 521.23, 425.80 519.87 C 425.27 518.50, 425.04 517.73, 424.67 516.22 C 424.30 514.72, 424.16 513.89, 423.96 512.33 C 423.75 510.76, 423.81 509.87, 423.66 508.42 C 423.50 506.97, 423.54 506.18, 423.19 505.08 C 422.84 503.98, 422.57 503.53, 421.88 502.94 C 421.20 502.36, 420.59 502.14, 419.79 502.17 C 418.99 502.19, 418.40 502.44, 417.88 503.05 C 417.36 503.67, 417.45 504.25, 417.19 505.24 C 416.93 506.23, 416.92 506.79, 416.57 508.00 C 416.22 509.20, 415.96 509.94, 415.44 511.26 C 414.92 512.59, 414.64 513.32, 413.97 514.61 C 413.30 515.91, 412.90 516.59, 412.09 517.75 C 411.29 518.92, 410.85 519.51, 409.95 520.45 C 409.05 521.39, 408.57 521.79, 407.61 522.46 C 406.64 523.14, 406.10 523.41, 405.11 523.81 C 404.12 524.21, 403.62 524.34, 402.67 524.47 C 401.71 524.60, 401.23 524.59, 400.33 524.44 C 399.43 524.29, 398.99 524.16, 398.19 523.73 C 397.39 523.30, 397.01 522.99, 396.31 522.28 C 395.61 521.58, 395.25 521.15, 394.68 520.22 C 394.10 519.29, 393.84 518.76, 393.44 517.65 C 393.04 516.55, 392.91 515.92, 392.68 514.69 C 392.45 513.46, 392.39 512.77, 392.30 511.50 C 392.21 510.24, 392.20 509.57, 392.23 508.37 C 392.25 507.18, 392.37 506.57, 392.43 505.53 C 392.50 504.50, 392.62 504.00, 392.54 503.19 C 392.46 502.39, 392.34 502.05, 392.03 501.50 C 391.71 500.95, 391.56 500.75, 390.98 500.46 C 390.39 500.16, 389.77 499.96, 389.10 500.03" style="stroke: black; fill: black;"/><path d="M 440.68,506.34 C 440.04 506.66, 439.85 507.03, 439.51 507.83 C 439.18 508.62, 439.03 509.16, 438.99 510.32 C 438.95 511.47, 439.11 512.26, 439.33 513.60 C 439.55 514.94, 439.79 515.65, 440.08 517.03 C 440.37 518.40, 440.49 519.16, 440.76 520.47 C 441.04 521.79, 441.19 522.49, 441.46 523.60 C 441.73 524.70, 441.64 525.28, 442.11 526.01 C 442.59 526.73, 443.06 527.14, 443.83 527.22 C 444.61 527.29, 445.39 526.99, 445.99 526.38 C 446.60 525.78, 446.79 525.21, 446.86 524.19 C 446.92 523.18, 446.73 522.56, 446.31 521.31 C 445.89 520.07, 445.37 519.33, 444.77 517.98 C 444.17 516.64, 443.80 515.92, 443.29 514.59 C 442.78 513.26, 442.55 512.60, 442.22 511.34 C 441.90 510.07, 441.78 509.44, 441.65 508.28 C 441.53 507.13, 441.51 506.58, 441.62 505.58 C 441.73 504.58, 441.84 504.13, 442.21 503.30 C 442.58 502.47, 442.83 502.09, 443.48 501.41 C 444.12 500.74, 444.49 500.40, 445.44 499.91 C 446.40 499.41, 446.99 499.25, 448.27 498.94 C 449.56 498.64, 450.45 498.64, 451.87 498.39 C 453.28 498.13, 454.13 498.06, 455.36 497.67 C 456.59 497.28, 457.47 497.07, 458.02 496.44 C 458.56 495.80, 458.63 495.17, 458.09 494.49 C 457.54 493.82, 456.67 493.41, 455.29 493.06 C 453.90 492.71, 452.88 492.62, 451.17 492.75 C 449.46 492.88, 448.39 493.15, 446.73 493.71 C 445.07 494.28, 444.23 494.68, 442.86 495.58 C 441.49 496.48, 440.87 497.05, 439.88 498.21 C 438.89 499.37, 438.51 500.03, 437.91 501.37 C 437.31 502.72, 437.11 503.47, 436.88 504.93 C 436.66 506.39, 436.69 507.17, 436.78 508.67 C 436.86 510.16, 437.03 510.91, 437.31 512.41 C 437.59 513.92, 437.81 514.67, 438.17 516.17 C 438.54 517.67, 438.78 518.45, 439.14 519.91 C 439.50 521.38, 439.53 522.25, 439.97 523.49 C 440.40 524.72, 440.64 525.34, 441.31 526.09 C 441.97 526.84, 442.46 527.09, 443.30 527.24 C 444.14 527.39, 444.85 527.26, 445.52 526.85 C 446.19 526.44, 446.46 526.00, 446.64 525.17 C 446.83 524.34, 446.59 523.81, 446.46 522.69 C 446.33 521.57, 446.16 520.87, 445.98 519.57 C 445.81 518.27, 445.72 517.55, 445.59 516.20 C 445.46 514.84, 445.49 514.09, 445.35 512.79 C 445.21 511.49, 445.16 510.75, 444.89 509.70 C 444.62 508.65, 444.44 508.23, 444.01 507.55 C 443.58 506.86, 443.40 506.50, 442.73 506.26 C 442.07 506.02, 441.32 506.03, 440.68 506.34" style="stroke: black; fill: black;"/><path d="M 487.91,503.30 C 487.96 502.52, 487.65 502.04, 487.08 501.34 C 486.52 500.65, 486.06 500.33, 485.08 499.82 C 484.11 499.32, 483.41 499.10, 482.20 498.82 C 481.00 498.55, 480.34 498.51, 479.04 498.45 C 477.74 498.38, 477.06 498.36, 475.72 498.50 C 474.37 498.65, 473.66 498.76, 472.32 499.19 C 470.99 499.62, 470.27 499.91, 469.05 500.65 C 467.83 501.39, 467.22 501.86, 466.23 502.88 C 465.25 503.89, 464.78 504.48, 464.11 505.71 C 463.44 506.94, 463.15 507.66, 462.89 509.04 C 462.64 510.41, 462.62 511.21, 462.85 512.60 C 463.09 513.99, 463.35 514.73, 464.06 515.96 C 464.77 517.20, 465.28 517.82, 466.40 518.79 C 467.52 519.76, 468.22 520.20, 469.65 520.81 C 471.08 521.42, 471.93 521.63, 473.54 521.83 C 475.14 522.03, 476.02 522.01, 477.67 521.83 C 479.31 521.64, 480.19 521.43, 481.76 520.91 C 483.34 520.38, 484.15 520.02, 485.55 519.20 C 486.95 518.38, 487.63 517.86, 488.78 516.82 C 489.93 515.78, 490.44 515.18, 491.30 514.01 C 492.16 512.84, 492.59 512.16, 493.06 510.95 C 493.53 509.74, 493.84 508.91, 493.64 507.95 C 493.44 506.99, 492.85 506.44, 492.06 506.14 C 491.26 505.83, 490.43 505.90, 489.66 506.42 C 488.90 506.95, 488.48 507.56, 488.22 508.77 C 487.95 509.98, 488.07 510.83, 488.32 512.47 C 488.58 514.11, 488.98 515.08, 489.51 516.96 C 490.04 518.85, 490.34 519.87, 490.97 521.91 C 491.61 523.96, 491.98 525.02, 492.68 527.18 C 493.39 529.33, 493.78 530.47, 494.51 532.70 C 495.24 534.92, 495.63 536.07, 496.34 538.29 C 497.05 540.52, 497.46 541.68, 498.07 543.84 C 498.68 546.00, 498.98 547.08, 499.39 549.10 C 499.81 551.11, 499.98 552.10, 500.14 553.92 C 500.31 555.73, 500.34 556.62, 500.23 558.18 C 500.11 559.74, 499.97 560.46, 499.58 561.71 C 499.19 562.96, 498.94 563.51, 498.27 564.44 C 497.61 565.37, 497.21 565.73, 496.25 566.37 C 495.29 567.01, 494.74 567.26, 493.48 567.64 C 492.21 568.01, 491.51 568.13, 489.94 568.24 C 488.38 568.35, 487.47 568.33, 485.65 568.18 C 483.82 568.03, 482.80 567.89, 480.82 567.48 C 478.83 567.08, 477.75 566.80, 475.72 566.17 C 473.70 565.53, 472.62 565.14, 470.70 564.30 C 468.78 563.47, 467.80 562.98, 466.13 561.99 C 464.45 561.01, 463.63 560.44, 462.33 559.37 C 461.03 558.29, 460.45 557.72, 459.62 556.62 C 458.80 555.51, 458.51 554.95, 458.21 553.83 C 457.91 552.70, 457.89 552.16, 458.11 551.00 C 458.33 549.85, 458.58 549.27, 459.30 548.04 C 460.02 546.81, 460.51 546.14, 461.71 544.87 C 462.91 543.61, 463.64 542.91, 465.30 541.71 C 466.96 540.52, 467.96 539.95, 470.00 538.89 C 472.04 537.83, 473.47 537.38, 475.52 536.43 C 477.57 535.48, 478.68 535.03, 480.24 534.13 C 481.80 533.22, 482.79 532.69, 483.30 531.90 C 483.81 531.12, 483.66 530.56, 482.79 530.19 C 481.91 529.83, 480.78 529.85, 478.91 530.07 C 477.05 530.28, 475.77 530.49, 473.47 531.27 C 471.16 532.04, 469.66 532.72, 467.39 533.95 C 465.11 535.18, 464.01 535.94, 462.09 537.41 C 460.17 538.89, 459.24 539.66, 457.79 541.33 C 456.35 543.00, 455.71 543.93, 454.86 545.74 C 454.01 547.55, 453.74 548.53, 453.54 550.38 C 453.35 552.22, 453.43 553.19, 453.89 554.96 C 454.34 556.73, 454.77 557.62, 455.82 559.23 C 456.87 560.84, 457.60 561.60, 459.13 563.01 C 460.66 564.43, 461.60 565.09, 463.48 566.29 C 465.37 567.49, 466.45 568.05, 468.57 569.04 C 470.69 570.02, 471.86 570.47, 474.10 571.21 C 476.33 571.95, 477.51 572.26, 479.75 572.72 C 481.98 573.18, 483.11 573.36, 485.25 573.51 C 487.39 573.65, 488.48 573.67, 490.45 573.43 C 492.42 573.20, 493.38 572.99, 495.10 572.34 C 496.81 571.69, 497.64 571.24, 499.02 570.18 C 500.40 569.13, 501.00 568.47, 501.99 567.07 C 502.98 565.66, 503.36 564.86, 503.95 563.17 C 504.55 561.48, 504.74 560.53, 504.95 558.61 C 505.15 556.69, 505.11 555.64, 504.98 553.55 C 504.84 551.46, 504.68 550.37, 504.28 548.16 C 503.89 545.95, 503.60 544.78, 503.01 542.50 C 502.41 540.21, 501.99 539.03, 501.29 536.75 C 500.60 534.46, 500.22 533.32, 499.52 531.08 C 498.81 528.85, 498.43 527.69, 497.77 525.56 C 497.12 523.42, 496.75 522.38, 496.23 520.41 C 495.72 518.43, 495.49 517.45, 495.19 515.67 C 494.89 513.89, 494.92 512.96, 494.71 511.51 C 494.50 510.06, 494.54 509.41, 494.15 508.43 C 493.76 507.46, 493.46 507.09, 492.76 506.66 C 492.06 506.23, 491.42 506.19, 490.67 506.29 C 489.92 506.40, 489.47 506.61, 489.01 507.17 C 488.56 507.73, 488.70 508.30, 488.38 509.10 C 488.05 509.90, 487.96 510.37, 487.38 511.16 C 486.81 511.95, 486.38 512.34, 485.51 513.06 C 484.64 513.78, 484.10 514.19, 483.04 514.77 C 481.97 515.35, 481.36 515.61, 480.17 515.98 C 478.98 516.35, 478.29 516.49, 477.09 516.62 C 475.89 516.75, 475.26 516.75, 474.16 516.63 C 473.06 516.51, 472.50 516.36, 471.59 516.02 C 470.67 515.68, 470.24 515.45, 469.57 514.94 C 468.91 514.44, 468.64 514.13, 468.26 513.50 C 467.87 512.87, 467.76 512.51, 467.64 511.80 C 467.52 511.08, 467.52 510.67, 467.66 509.93 C 467.81 509.19, 467.94 508.80, 468.36 508.11 C 468.78 507.41, 469.09 507.06, 469.75 506.45 C 470.41 505.84, 470.82 505.53, 471.65 505.06 C 472.48 504.59, 472.97 504.40, 473.89 504.11 C 474.81 503.82, 475.32 503.72, 476.27 503.62 C 477.22 503.52, 477.73 503.50, 478.63 503.61 C 479.52 503.72, 479.90 503.89, 480.74 504.17 C 481.57 504.46, 481.98 504.76, 482.80 505.04 C 483.61 505.32, 484.01 505.54, 484.81 505.57 C 485.61 505.61, 486.18 505.69, 486.80 505.23 C 487.42 504.77, 487.85 504.07, 487.91 503.30" style="stroke: black; fill: black;"/><path d="M 583.94,507.86 C 584.26 507.17, 584.17 506.62, 583.86 505.78 C 583.54 504.94, 583.20 504.44, 582.37 503.67 C 581.55 502.89, 580.89 502.48, 579.72 501.90 C 578.55 501.32, 577.88 501.14, 576.51 500.76 C 575.14 500.38, 574.43 500.19, 572.88 500.01 C 571.34 499.84, 570.48 499.78, 568.79 499.87 C 567.10 499.97, 566.19 500.10, 564.44 500.50 C 562.69 500.90, 561.75 501.18, 560.05 501.87 C 558.35 502.57, 557.47 502.99, 555.93 503.96 C 554.39 504.94, 553.61 505.51, 552.36 506.73 C 551.11 507.96, 550.51 508.67, 549.69 510.08 C 548.86 511.50, 548.52 512.30, 548.23 513.82 C 547.95 515.33, 547.93 516.19, 548.25 517.66 C 548.56 519.13, 548.91 519.93, 549.82 521.17 C 550.74 522.42, 551.42 523.02, 552.82 523.88 C 554.22 524.73, 555.11 525.05, 556.83 525.44 C 558.54 525.84, 559.52 525.90, 561.38 525.85 C 563.23 525.80, 564.26 525.65, 566.10 525.20 C 567.94 524.76, 568.88 524.39, 570.56 523.62 C 572.24 522.86, 573.08 522.38, 574.51 521.36 C 575.93 520.35, 576.60 519.75, 577.68 518.54 C 578.75 517.33, 579.21 516.64, 579.88 515.32 C 580.56 513.99, 580.77 513.26, 581.06 511.92 C 581.34 510.57, 581.52 509.79, 581.33 508.59 C 581.14 507.40, 580.88 506.59, 580.11 505.94 C 579.33 505.30, 578.43 505.16, 577.46 505.36 C 576.48 505.56, 575.83 505.97, 575.24 506.93 C 574.65 507.89, 574.47 508.63, 574.50 510.16 C 574.53 511.68, 574.89 512.66, 575.41 514.54 C 575.92 516.41, 576.37 517.44, 577.09 519.52 C 577.80 521.61, 578.21 522.73, 578.99 524.96 C 579.76 527.20, 580.18 528.39, 580.95 530.72 C 581.71 533.04, 582.12 534.23, 582.81 536.60 C 583.50 538.97, 583.86 540.22, 584.41 542.57 C 584.96 544.93, 585.22 546.13, 585.58 548.37 C 585.94 550.61, 586.08 551.73, 586.21 553.77 C 586.33 555.81, 586.33 556.82, 586.21 558.59 C 586.08 560.35, 585.97 561.20, 585.60 562.62 C 585.23 564.04, 584.97 564.65, 584.36 565.69 C 583.75 566.73, 583.39 567.15, 582.54 567.83 C 581.70 568.50, 581.23 568.73, 580.13 569.06 C 579.03 569.39, 578.41 569.46, 577.03 569.46 C 575.66 569.47, 574.87 569.40, 573.25 569.09 C 571.63 568.78, 570.71 568.55, 568.94 567.93 C 567.17 567.32, 566.19 566.92, 564.40 566.03 C 562.60 565.14, 561.64 564.60, 559.97 563.48 C 558.29 562.37, 557.44 561.74, 556.04 560.44 C 554.64 559.14, 553.97 558.42, 552.97 556.98 C 551.97 555.55, 551.54 554.80, 551.04 553.26 C 550.53 551.72, 550.42 550.95, 550.44 549.29 C 550.45 547.64, 550.84 546.66, 551.11 544.98 C 551.37 543.31, 551.66 542.39, 551.76 540.93 C 551.87 539.48, 552.02 538.50, 551.65 537.72 C 551.27 536.94, 550.70 536.68, 549.89 537.05 C 549.07 537.43, 548.38 538.21, 547.58 539.59 C 546.78 540.98, 546.31 542.02, 545.88 543.99 C 545.45 545.96, 545.31 547.29, 545.43 549.44 C 545.56 551.60, 545.82 552.73, 546.52 554.78 C 547.21 556.83, 547.71 557.84, 548.91 559.70 C 550.11 561.56, 550.91 562.46, 552.53 564.08 C 554.15 565.69, 555.11 566.43, 557.01 567.77 C 558.90 569.11, 559.95 569.73, 561.99 570.78 C 564.03 571.83, 565.12 572.30, 567.20 573.01 C 569.27 573.72, 570.35 574.02, 572.37 574.32 C 574.38 574.63, 575.42 574.69, 577.29 574.54 C 579.16 574.38, 580.09 574.19, 581.72 573.54 C 583.35 572.90, 584.14 572.42, 585.44 571.32 C 586.73 570.22, 587.29 569.52, 588.22 568.03 C 589.14 566.54, 589.50 565.69, 590.05 563.89 C 590.61 562.08, 590.76 561.07, 590.97 559.00 C 591.18 556.93, 591.19 555.81, 591.11 553.53 C 591.02 551.26, 590.89 550.05, 590.56 547.62 C 590.22 545.20, 589.97 543.92, 589.42 541.43 C 588.87 538.94, 588.50 537.64, 587.81 535.17 C 587.12 532.71, 586.71 531.49, 585.98 529.12 C 585.25 526.74, 584.83 525.54, 584.15 523.29 C 583.47 521.04, 583.10 519.92, 582.56 517.87 C 582.02 515.81, 581.86 514.76, 581.47 513.02 C 581.08 511.27, 581.02 510.36, 580.61 509.16 C 580.19 507.96, 579.98 507.52, 579.42 507.00 C 578.85 506.48, 578.39 506.44, 577.78 506.54 C 577.17 506.64, 576.64 506.97, 576.35 507.50 C 576.06 508.02, 576.30 508.44, 576.32 509.15 C 576.35 509.86, 576.58 510.26, 576.46 511.06 C 576.35 511.86, 576.22 512.32, 575.76 513.16 C 575.30 514.00, 574.99 514.46, 574.17 515.28 C 573.36 516.09, 572.84 516.52, 571.70 517.24 C 570.57 517.96, 569.86 518.32, 568.49 518.88 C 567.13 519.44, 566.35 519.71, 564.89 520.03 C 563.44 520.35, 562.62 520.43, 561.22 520.48 C 559.83 520.52, 559.10 520.46, 557.91 520.25 C 556.71 520.04, 556.15 519.83, 555.26 519.43 C 554.36 519.03, 553.99 518.78, 553.45 518.24 C 552.92 517.69, 552.75 517.39, 552.60 516.71 C 552.44 516.02, 552.45 515.62, 552.68 514.80 C 552.90 513.98, 553.12 513.51, 553.74 512.62 C 554.35 511.73, 554.79 511.22, 555.76 510.37 C 556.74 509.51, 557.35 509.07, 558.59 508.35 C 559.84 507.63, 560.58 507.29, 561.98 506.76 C 563.38 506.23, 564.17 506.01, 565.59 505.70 C 567.02 505.39, 567.76 505.31, 569.11 505.23 C 570.46 505.15, 571.14 505.17, 572.33 505.28 C 573.52 505.39, 574.11 505.47, 575.06 505.77 C 576.01 506.06, 576.34 506.28, 577.07 506.75 C 577.81 507.21, 578.08 507.62, 578.75 508.07 C 579.41 508.53, 579.71 508.79, 580.41 509.02 C 581.11 509.26, 581.55 509.49, 582.25 509.26 C 582.96 509.03, 583.62 508.56, 583.94 507.86" style="stroke: black; fill: black;"/><path d="M 618.13,507.68 C 618.50 507.01, 618.45 506.43, 618.20 505.52 C 617.95 504.62, 617.66 504.06, 616.88 503.15 C 616.10 502.24, 615.47 501.71, 614.31 500.96 C 613.15 500.22, 612.47 499.94, 611.09 499.41 C 609.71 498.88, 608.96 498.62, 607.41 498.31 C 605.86 498.00, 605.03 497.89, 603.34 497.87 C 601.66 497.84, 600.75 497.90, 599.00 498.18 C 597.25 498.46, 596.31 498.68, 594.59 499.29 C 592.87 499.89, 591.97 500.28, 590.39 501.22 C 588.81 502.15, 588.00 502.73, 586.69 503.96 C 585.38 505.19, 584.76 505.92, 583.84 507.38 C 582.92 508.85, 582.52 509.67, 582.08 511.28 C 581.65 512.89, 581.54 513.80, 581.66 515.43 C 581.79 517.05, 582.02 517.93, 582.72 519.42 C 583.43 520.91, 583.96 521.66, 585.18 522.87 C 586.41 524.09, 587.22 524.67, 588.86 525.50 C 590.50 526.33, 591.49 526.64, 593.37 527.03 C 595.25 527.43, 596.29 527.50, 598.25 527.48 C 600.20 527.46, 601.24 527.33, 603.13 526.94 C 605.02 526.56, 605.98 526.25, 607.68 525.54 C 609.38 524.83, 610.20 524.36, 611.62 523.38 C 613.05 522.41, 613.70 521.85, 614.79 520.65 C 615.88 519.46, 616.37 518.78, 617.08 517.42 C 617.79 516.06, 618.04 515.27, 618.35 513.84 C 618.66 512.41, 618.64 511.65, 618.63 510.27 C 618.62 508.88, 618.63 508.13, 618.31 506.90 C 618.00 505.67, 617.82 504.83, 617.06 504.10 C 616.30 503.37, 615.48 503.16, 614.51 503.24 C 613.54 503.32, 612.88 503.72, 612.23 504.51 C 611.58 505.31, 611.31 505.96, 611.28 507.22 C 611.24 508.48, 611.51 509.33, 612.04 510.82 C 612.58 512.30, 613.13 513.11, 613.95 514.64 C 614.78 516.16, 615.24 516.92, 616.18 518.43 C 617.12 519.94, 617.59 520.75, 618.66 522.18 C 619.73 523.60, 620.33 524.44, 621.51 525.55 C 622.69 526.66, 623.45 527.17, 624.56 527.72 C 625.67 528.28, 626.35 528.45, 627.08 528.31 C 627.80 528.17, 628.12 527.75, 628.18 527.04 C 628.24 526.33, 627.93 525.76, 627.38 524.74 C 626.83 523.72, 626.32 523.08, 625.42 521.93 C 624.51 520.79, 623.79 520.25, 622.86 519.02 C 621.92 517.78, 621.48 517.11, 620.74 515.76 C 620.01 514.41, 619.70 513.67, 619.19 512.25 C 618.68 510.84, 618.61 509.97, 618.19 508.69 C 617.77 507.41, 617.62 506.70, 617.09 505.86 C 616.56 505.02, 616.21 504.74, 615.55 504.47 C 614.89 504.21, 614.36 504.24, 613.80 504.54 C 613.23 504.84, 612.84 505.26, 612.71 505.98 C 612.57 506.70, 612.93 507.24, 613.13 508.15 C 613.33 509.05, 613.60 509.55, 613.71 510.50 C 613.81 511.45, 613.81 511.95, 613.65 512.91 C 613.48 513.86, 613.36 514.35, 612.89 515.25 C 612.43 516.16, 612.13 516.61, 611.34 517.42 C 610.55 518.24, 610.05 518.64, 608.95 519.33 C 607.84 520.02, 607.18 520.37, 605.82 520.88 C 604.46 521.39, 603.67 521.60, 602.15 521.87 C 600.63 522.14, 599.77 522.23, 598.23 522.22 C 596.69 522.22, 595.86 522.13, 594.44 521.84 C 593.02 521.56, 592.30 521.31, 591.13 520.79 C 589.95 520.27, 589.40 519.92, 588.56 519.23 C 587.73 518.53, 587.40 518.15, 586.96 517.32 C 586.52 516.49, 586.41 516.03, 586.34 515.08 C 586.28 514.14, 586.34 513.60, 586.66 512.59 C 586.97 511.59, 587.23 511.04, 587.92 510.06 C 588.60 509.07, 589.07 508.55, 590.08 507.67 C 591.08 506.79, 591.71 506.35, 592.95 505.66 C 594.19 504.97, 594.91 504.67, 596.28 504.21 C 597.66 503.75, 598.42 503.59, 599.82 503.38 C 601.22 503.16, 601.95 503.13, 603.27 503.14 C 604.59 503.16, 605.24 503.23, 606.41 503.45 C 607.58 503.68, 608.18 503.84, 609.13 504.25 C 610.07 504.66, 610.41 504.93, 611.14 505.50 C 611.86 506.07, 612.11 506.53, 612.76 507.11 C 613.42 507.69, 613.70 508.03, 614.41 508.39 C 615.12 508.75, 615.57 509.06, 616.31 508.92 C 617.06 508.78, 617.75 508.36, 618.13 507.68" style="stroke: black; fill: black;"/><path d="M 659.67,508.76 C 660.08 508.04, 660.04 507.25, 659.71 506.23 C 659.37 505.21, 658.94 504.61, 658.00 503.66 C 657.05 502.71, 656.33 502.14, 654.98 501.49 C 653.63 500.83, 652.79 500.67, 651.24 500.37 C 649.69 500.08, 648.88 499.99, 647.21 500.01 C 645.55 500.02, 644.63 500.08, 642.91 500.43 C 641.18 500.79, 640.26 501.07, 638.60 501.78 C 636.94 502.50, 636.08 502.98, 634.61 504.02 C 633.13 505.06, 632.40 505.67, 631.22 506.99 C 630.03 508.32, 629.46 509.08, 628.67 510.62 C 627.88 512.16, 627.55 513.04, 627.27 514.71 C 626.99 516.37, 626.97 517.29, 627.26 518.94 C 627.56 520.59, 627.87 521.50, 628.74 522.95 C 629.62 524.41, 630.25 525.13, 631.62 526.24 C 633.00 527.34, 633.89 527.83, 635.61 528.48 C 637.33 529.14, 638.33 529.33, 640.23 529.52 C 642.12 529.70, 643.16 529.67, 645.08 529.41 C 647.00 529.15, 648.03 528.89, 649.82 528.23 C 651.62 527.57, 652.50 527.09, 654.06 526.10 C 655.61 525.12, 656.37 524.55, 657.61 523.31 C 658.85 522.06, 659.41 521.31, 660.27 519.87 C 661.14 518.43, 661.47 517.63, 661.93 516.09 C 662.40 514.55, 662.48 513.69, 662.58 512.17 C 662.69 510.64, 662.72 509.82, 662.47 508.47 C 662.23 507.12, 662.06 506.23, 661.34 505.40 C 660.62 504.57, 659.85 504.30, 658.89 504.31 C 657.93 504.32, 657.23 504.65, 656.54 505.44 C 655.85 506.24, 655.52 506.94, 655.43 508.28 C 655.34 509.63, 655.62 510.55, 656.10 512.16 C 656.57 513.78, 657.07 514.65, 657.80 516.34 C 658.53 518.02, 658.90 518.92, 659.75 520.59 C 660.59 522.26, 661.06 523.14, 662.03 524.68 C 662.99 526.23, 663.50 526.99, 664.59 528.33 C 665.69 529.66, 666.29 530.34, 667.50 531.35 C 668.71 532.36, 669.46 532.80, 670.65 533.38 C 671.84 533.96, 672.48 534.08, 673.45 534.23 C 674.42 534.38, 674.80 534.33, 675.50 534.14 C 676.20 533.96, 676.60 533.70, 676.94 533.31 C 677.28 532.92, 677.36 532.55, 677.18 532.19 C 677.01 531.83, 676.34 531.70, 676.07 531.51 C 675.79 531.31, 675.90 531.37, 675.80 531.22 C 675.70 531.06, 675.77 530.94, 675.55 530.75 C 675.33 530.55, 675.21 530.54, 674.69 530.23 C 674.17 529.92, 673.74 529.71, 672.93 529.19 C 672.13 528.68, 671.54 528.45, 670.65 527.67 C 669.76 526.88, 669.32 526.39, 668.48 525.26 C 667.63 524.14, 667.21 523.44, 666.44 522.06 C 665.66 520.67, 665.23 519.88, 664.59 518.34 C 663.94 516.81, 663.66 515.97, 663.22 514.39 C 662.77 512.81, 662.74 511.86, 662.37 510.43 C 662.00 509.00, 661.88 508.21, 661.38 507.24 C 660.88 506.26, 660.55 505.91, 659.89 505.54 C 659.23 505.18, 658.68 505.15, 658.09 505.42 C 657.50 505.70, 657.09 506.13, 656.93 506.92 C 656.77 507.70, 657.14 508.33, 657.29 509.34 C 657.43 510.35, 657.66 510.88, 657.66 511.96 C 657.65 513.04, 657.58 513.64, 657.27 514.73 C 656.97 515.82, 656.76 516.37, 656.15 517.39 C 655.53 518.41, 655.14 518.94, 654.21 519.83 C 653.27 520.72, 652.68 521.13, 651.45 521.84 C 650.23 522.55, 649.51 522.90, 648.10 523.38 C 646.69 523.86, 645.88 524.05, 644.40 524.24 C 642.93 524.42, 642.12 524.44, 640.71 524.31 C 639.31 524.19, 638.59 524.03, 637.38 523.63 C 636.17 523.22, 635.57 522.91, 634.66 522.27 C 633.75 521.63, 633.38 521.26, 632.84 520.43 C 632.30 519.59, 632.12 519.08, 631.95 518.11 C 631.77 517.13, 631.76 516.60, 631.97 515.57 C 632.18 514.53, 632.42 513.96, 633.00 512.93 C 633.59 511.89, 634.00 511.33, 634.90 510.39 C 635.80 509.45, 636.36 508.98, 637.50 508.22 C 638.64 507.46, 639.32 507.11, 640.61 506.59 C 641.90 506.07, 642.62 505.89, 643.95 505.63 C 645.29 505.37, 646.03 505.31, 647.29 505.28 C 648.55 505.26, 649.21 505.29, 650.26 505.49 C 651.30 505.69, 651.71 505.86, 652.51 506.30 C 653.31 506.75, 653.60 507.18, 654.26 507.71 C 654.92 508.25, 655.13 508.54, 655.81 508.97 C 656.49 509.39, 656.88 509.87, 657.65 509.83 C 658.42 509.79, 659.26 509.48, 659.67 508.76" style="stroke: black; fill: black;"/><path d="M 680.22,473.33 C 679.64 473.62, 679.48 473.84, 679.19 474.56 C 678.89 475.27, 678.72 475.75, 678.74 476.92 C 678.76 478.08, 678.96 478.82, 679.28 480.37 C 679.61 481.92, 679.92 482.82, 680.36 484.67 C 680.81 486.51, 681.05 487.51, 681.50 489.59 C 681.95 491.68, 682.17 492.80, 682.61 495.08 C 683.06 497.35, 683.25 498.57, 683.72 500.97 C 684.19 503.37, 684.45 504.63, 684.97 507.07 C 685.48 509.51, 685.74 510.78, 686.29 513.17 C 686.85 515.57, 687.14 516.79, 687.73 519.04 C 688.32 521.29, 688.66 522.40, 689.25 524.42 C 689.84 526.44, 690.07 527.45, 690.69 529.15 C 691.31 530.84, 691.68 531.77, 692.33 532.90 C 692.98 534.02, 693.37 534.25, 693.94 534.77 C 694.51 535.28, 694.73 535.41, 695.18 535.45 C 695.63 535.50, 695.92 535.34, 696.18 534.99 C 696.45 534.64, 696.45 534.46, 696.52 533.73 C 696.59 532.99, 696.75 532.55, 696.52 531.32 C 696.29 530.09, 695.86 529.23, 695.35 527.58 C 694.84 525.93, 694.52 525.02, 693.97 523.07 C 693.43 521.11, 693.15 520.01, 692.62 517.81 C 692.09 515.60, 691.82 514.40, 691.31 512.05 C 690.80 509.69, 690.55 508.44, 690.07 506.03 C 689.59 503.62, 689.35 502.37, 688.91 499.98 C 688.47 497.60, 688.28 496.39, 687.88 494.10 C 687.48 491.81, 687.26 490.66, 686.89 488.54 C 686.52 486.42, 686.35 485.39, 686.03 483.51 C 685.71 481.63, 685.61 480.66, 685.30 479.13 C 684.98 477.60, 684.86 476.89, 684.47 475.85 C 684.08 474.82, 683.83 474.49, 683.35 473.94 C 682.86 473.39, 682.68 473.22, 682.06 473.10 C 681.43 472.98, 680.79 473.04, 680.22 473.33" style="stroke: black; fill: black;"/><path d="M 673.19,509.88 C 673.68 510.38, 674.02 510.38, 675.01 510.54 C 675.99 510.70, 676.61 510.75, 678.11 510.68 C 679.61 510.61, 680.57 510.38, 682.52 510.20 C 684.48 510.02, 685.64 509.92, 687.87 509.77 C 690.10 509.62, 691.49 509.66, 693.67 509.45 C 695.86 509.24, 697.08 509.12, 698.81 508.71 C 700.54 508.30, 701.62 508.03, 702.32 507.40 C 703.01 506.77, 703.01 506.18, 702.30 505.57 C 701.58 504.95, 700.49 504.68, 698.73 504.33 C 696.97 503.99, 695.74 503.91, 693.51 503.83 C 691.28 503.74, 689.91 503.85, 687.60 503.91 C 685.29 503.98, 684.05 503.94, 681.97 504.13 C 679.89 504.31, 678.79 504.41, 677.18 504.84 C 675.57 505.27, 674.86 505.62, 673.93 506.27 C 673.00 506.91, 672.69 507.33, 672.54 508.05 C 672.40 508.78, 672.69 509.38, 673.19 509.88" style="stroke: black; fill: black;"/><path d="M 763.12,503.65 C 762.47 503.90, 762.22 504.23, 761.81 505.01 C 761.41 505.80, 761.21 506.35, 761.11 507.59 C 761.00 508.83, 761.09 509.67, 761.28 511.20 C 761.46 512.73, 761.69 513.59, 762.03 515.25 C 762.37 516.92, 762.55 517.83, 762.98 519.54 C 763.42 521.25, 763.66 522.16, 764.23 523.82 C 764.80 525.47, 765.12 526.32, 765.82 527.82 C 766.52 529.33, 766.91 530.07, 767.73 531.34 C 768.55 532.61, 768.98 533.22, 769.92 534.17 C 770.85 535.12, 771.34 535.55, 772.40 536.10 C 773.46 536.65, 774.06 536.85, 775.22 536.91 C 776.38 536.96, 777.07 536.87, 778.20 536.39 C 779.33 535.91, 779.91 535.47, 780.84 534.49 C 781.78 533.51, 782.14 532.84, 782.87 531.50 C 783.59 530.15, 783.88 529.34, 784.47 527.78 C 785.05 526.21, 785.30 525.30, 785.78 523.67 C 786.25 522.04, 786.49 521.16, 786.84 519.63 C 787.19 518.11, 787.46 517.23, 787.52 516.06 C 787.58 514.88, 787.48 514.31, 787.14 513.77 C 786.81 513.22, 786.34 513.12, 785.86 513.33 C 785.38 513.54, 784.91 513.95, 784.73 514.81 C 784.55 515.68, 784.58 516.41, 784.95 517.68 C 785.33 518.94, 785.83 519.72, 786.60 521.16 C 787.36 522.59, 787.84 523.40, 788.79 524.87 C 789.73 526.35, 790.23 527.13, 791.31 528.53 C 792.39 529.93, 792.97 530.66, 794.19 531.86 C 795.41 533.07, 796.05 533.65, 797.39 534.57 C 798.73 535.49, 799.44 535.93, 800.89 536.47 C 802.34 537.00, 803.13 537.21, 804.64 537.27 C 806.14 537.33, 806.95 537.22, 808.40 536.76 C 809.86 536.30, 810.62 535.93, 811.92 534.97 C 813.23 534.02, 813.86 533.35, 814.91 531.98 C 815.97 530.61, 816.41 529.77, 817.19 528.11 C 817.97 526.46, 818.30 525.54, 818.80 523.72 C 819.30 521.89, 819.49 520.88, 819.69 519.00 C 819.90 517.11, 819.91 516.11, 819.83 514.29 C 819.75 512.47, 819.62 511.54, 819.29 509.87 C 818.96 508.21, 818.72 507.35, 818.18 505.98 C 817.64 504.62, 817.19 503.95, 816.58 503.05 C 815.97 502.14, 815.70 501.86, 815.15 501.44 C 814.59 501.03, 814.24 501.03, 813.82 500.97 C 813.40 500.91, 813.30 501.01, 813.03 501.14 C 812.76 501.28, 812.65 501.41, 812.47 501.65 C 812.29 501.88, 812.21 501.94, 812.12 502.31 C 812.03 502.67, 811.94 502.90, 812.03 503.47 C 812.11 504.03, 812.24 504.30, 812.54 505.14 C 812.84 505.98, 813.17 506.55, 813.54 507.68 C 813.91 508.81, 814.17 509.44, 814.41 510.80 C 814.65 512.15, 814.71 512.93, 814.73 514.44 C 814.76 515.96, 814.72 516.81, 814.51 518.38 C 814.31 519.95, 814.14 520.79, 813.70 522.28 C 813.27 523.77, 812.96 524.53, 812.35 525.85 C 811.74 527.16, 811.35 527.81, 810.64 528.86 C 809.93 529.90, 809.54 530.37, 808.79 531.07 C 808.03 531.77, 807.64 532.02, 806.85 532.35 C 806.06 532.68, 805.68 532.77, 804.84 532.73 C 804.00 532.68, 803.57 532.55, 802.65 532.13 C 801.73 531.71, 801.22 531.39, 800.26 530.63 C 799.30 529.87, 798.78 529.39, 797.84 528.35 C 796.89 527.31, 796.39 526.68, 795.53 525.43 C 794.67 524.19, 794.24 523.50, 793.55 522.14 C 792.87 520.77, 792.63 519.99, 792.10 518.62 C 791.57 517.25, 791.51 516.42, 790.92 515.28 C 790.32 514.14, 789.97 513.59, 789.12 512.92 C 788.28 512.24, 787.66 511.99, 786.68 511.91 C 785.71 511.83, 785.05 511.94, 784.24 512.52 C 783.42 513.11, 783.13 513.68, 782.61 514.83 C 782.09 515.98, 782.05 516.85, 781.64 518.29 C 781.22 519.73, 781.03 520.55, 780.53 522.03 C 780.03 523.52, 779.70 524.33, 779.14 525.71 C 778.58 527.09, 778.23 527.81, 777.73 528.94 C 777.22 530.07, 776.96 530.59, 776.61 531.36 C 776.25 532.12, 776.17 532.40, 775.95 532.76 C 775.73 533.11, 775.74 533.16, 775.49 533.12 C 775.24 533.07, 775.11 532.94, 774.69 532.54 C 774.27 532.14, 773.96 531.85, 773.40 531.10 C 772.84 530.36, 772.49 529.88, 771.89 528.82 C 771.30 527.76, 770.98 527.11, 770.43 525.79 C 769.88 524.47, 769.60 523.71, 769.16 522.22 C 768.71 520.74, 768.50 519.92, 768.19 518.35 C 767.88 516.78, 767.77 515.92, 767.59 514.36 C 767.42 512.81, 767.43 512.00, 767.32 510.59 C 767.21 509.18, 767.25 508.42, 767.03 507.31 C 766.81 506.21, 766.62 505.77, 766.23 505.06 C 765.85 504.36, 765.72 504.06, 765.10 503.78 C 764.48 503.50, 763.78 503.40, 763.12 503.65" style="stroke: black; fill: black;"/><path d="M 829.43,506.45 C 828.83 506.77, 828.70 507.03, 828.40 507.68 C 828.10 508.33, 827.97 508.74, 827.94 509.70 C 827.90 510.67, 828.06 511.29, 828.25 512.50 C 828.43 513.71, 828.61 514.37, 828.86 515.74 C 829.11 517.10, 829.25 517.86, 829.51 519.33 C 829.77 520.79, 829.90 521.57, 830.16 523.06 C 830.42 524.55, 830.52 525.36, 830.83 526.79 C 831.14 528.22, 831.24 529.09, 831.71 530.21 C 832.17 531.33, 832.59 531.76, 833.16 532.39 C 833.72 533.02, 833.98 533.24, 834.52 533.34 C 835.06 533.45, 835.45 533.32, 835.83 532.93 C 836.22 532.55, 836.28 532.20, 836.43 531.43 C 836.58 530.65, 836.65 530.18, 836.58 529.05 C 836.51 527.91, 836.31 527.14, 836.07 525.77 C 835.83 524.39, 835.63 523.61, 835.38 522.16 C 835.14 520.70, 835.03 519.94, 834.84 518.50 C 834.65 517.06, 834.56 516.32, 834.43 514.96 C 834.30 513.60, 834.33 512.92, 834.20 511.71 C 834.06 510.51, 834.05 509.88, 833.77 508.94 C 833.49 508.01, 833.28 507.60, 832.80 507.03 C 832.32 506.47, 832.06 506.21, 831.38 506.09 C 830.71 505.98, 830.02 506.13, 829.43 506.45" style="stroke: black; fill: black;"/><path d="M 827.63,487.12 C 828.14 487.23, 828.27 486.94, 827.86 486.63 C 827.44 486.33, 826.06 485.70, 825.56 485.60 C 825.05 485.49, 824.92 485.78, 825.34 486.09 C 825.75 486.39, 827.13 487.02, 827.63 487.12" style="stroke: black; fill: black;"/><path d="M 849.18,505.94 C 848.58 506.37, 848.47 506.86, 848.25 507.74 C 848.03 508.62, 848.00 509.15, 848.07 510.35 C 848.15 511.55, 848.35 512.33, 848.63 513.73 C 848.91 515.12, 849.18 515.84, 849.49 517.31 C 849.80 518.78, 849.93 519.56, 850.18 521.06 C 850.44 522.56, 850.54 523.36, 850.78 524.80 C 851.01 526.23, 851.14 526.99, 851.36 528.23 C 851.58 529.47, 851.47 530.13, 851.87 531.01 C 852.26 531.90, 852.58 532.36, 853.34 532.66 C 854.11 532.96, 854.89 532.92, 855.69 532.53 C 856.49 532.14, 856.93 531.63, 857.35 530.70 C 857.76 529.78, 857.75 529.15, 857.76 527.88 C 857.78 526.62, 857.50 525.80, 857.44 524.36 C 857.38 522.92, 857.35 522.10, 857.49 520.68 C 857.62 519.26, 857.71 518.59, 858.10 517.27 C 858.48 515.95, 858.78 515.30, 859.41 514.08 C 860.04 512.86, 860.42 512.24, 861.26 511.17 C 862.09 510.11, 862.55 509.60, 863.58 508.76 C 864.60 507.91, 865.21 507.54, 866.37 506.96 C 867.53 506.38, 868.17 506.13, 869.39 505.86 C 870.62 505.59, 871.27 505.54, 872.48 505.62 C 873.70 505.69, 874.32 505.81, 875.45 506.24 C 876.59 506.68, 877.14 506.99, 878.16 507.79 C 879.17 508.58, 879.65 509.09, 880.51 510.22 C 881.36 511.35, 881.75 512.01, 882.44 513.44 C 883.12 514.86, 883.40 515.69, 883.93 517.33 C 884.45 518.96, 884.66 519.88, 885.07 521.62 C 885.48 523.35, 885.64 524.27, 885.99 525.98 C 886.35 527.69, 886.36 528.66, 886.83 530.17 C 887.30 531.69, 887.69 532.54, 888.35 533.56 C 889.01 534.59, 889.46 535.05, 890.13 535.30 C 890.80 535.54, 891.29 535.37, 891.69 534.80 C 892.10 534.23, 892.14 533.60, 892.17 532.45 C 892.19 531.29, 892.03 530.51, 891.80 529.02 C 891.57 527.52, 891.35 526.70, 891.02 524.98 C 890.69 523.26, 890.57 522.29, 890.15 520.43 C 889.74 518.58, 889.54 517.56, 888.92 515.70 C 888.31 513.83, 887.96 512.85, 887.08 511.12 C 886.20 509.40, 885.69 508.54, 884.51 507.07 C 883.33 505.61, 882.64 504.90, 881.17 503.81 C 879.70 502.73, 878.85 502.27, 877.18 501.65 C 875.51 501.03, 874.58 500.84, 872.82 500.71 C 871.06 500.58, 870.11 500.65, 868.37 501.00 C 866.64 501.35, 865.76 501.69, 864.17 502.46 C 862.57 503.24, 861.77 503.75, 860.40 504.87 C 859.02 505.99, 858.38 506.67, 857.29 508.05 C 856.20 509.44, 855.74 510.24, 854.95 511.78 C 854.16 513.32, 853.87 514.15, 853.32 515.75 C 852.78 517.36, 852.58 518.16, 852.21 519.81 C 851.83 521.46, 851.69 522.38, 851.46 524.01 C 851.22 525.64, 850.99 526.56, 851.04 527.95 C 851.09 529.34, 851.19 530.03, 851.68 530.95 C 852.18 531.88, 852.70 532.32, 853.52 532.57 C 854.33 532.83, 855.12 532.69, 855.75 532.23 C 856.38 531.78, 856.55 531.23, 856.67 530.28 C 856.79 529.34, 856.49 528.74, 856.34 527.49 C 856.19 526.24, 856.11 525.48, 855.91 524.04 C 855.72 522.59, 855.59 521.80, 855.39 520.27 C 855.19 518.75, 855.09 517.94, 854.92 516.43 C 854.74 514.91, 854.73 514.12, 854.51 512.69 C 854.30 511.26, 854.20 510.43, 853.84 509.28 C 853.47 508.12, 853.22 507.66, 852.71 506.93 C 852.19 506.19, 851.96 505.80, 851.26 505.60 C 850.55 505.41, 849.79 505.52, 849.18 505.94" style="stroke: black; fill: black;"/><path d="M 897.50,506.50 C 896.93 506.91, 896.86 507.26, 896.64 508.04 C 896.41 508.82, 896.33 509.27, 896.37 510.39 C 896.41 511.50, 896.59 512.22, 896.82 513.59 C 897.05 514.96, 897.28 515.72, 897.54 517.22 C 897.80 518.72, 897.90 519.55, 898.12 521.11 C 898.34 522.68, 898.45 523.53, 898.65 525.04 C 898.85 526.55, 898.95 527.32, 899.12 528.67 C 899.29 530.02, 899.14 530.77, 899.49 531.80 C 899.84 532.83, 900.12 533.40, 900.85 533.83 C 901.58 534.25, 902.33 534.23, 903.14 533.92 C 903.95 533.61, 904.42 533.16, 904.90 532.26 C 905.37 531.37, 905.47 530.73, 905.52 529.44 C 905.58 528.15, 905.27 527.29, 905.16 525.81 C 905.04 524.33, 904.91 523.52, 904.93 522.05 C 904.95 520.59, 905.01 519.88, 905.25 518.49 C 905.49 517.10, 905.68 516.39, 906.14 515.12 C 906.60 513.84, 906.87 513.22, 907.55 512.10 C 908.22 510.99, 908.62 510.46, 909.49 509.56 C 910.37 508.66, 910.90 508.25, 911.93 507.60 C 912.96 506.95, 913.53 506.66, 914.66 506.31 C 915.78 505.96, 916.42 505.87, 917.57 505.85 C 918.72 505.83, 919.31 505.89, 920.41 506.22 C 921.50 506.56, 922.03 506.81, 923.04 507.52 C 924.05 508.23, 924.55 508.71, 925.45 509.79 C 926.34 510.87, 926.76 511.52, 927.51 512.93 C 928.26 514.33, 928.60 515.16, 929.21 516.82 C 929.82 518.47, 930.06 519.42, 930.56 521.21 C 931.05 523.00, 931.25 523.98, 931.70 525.77 C 932.16 527.57, 932.39 528.50, 932.84 530.17 C 933.30 531.84, 933.44 532.71, 933.98 534.13 C 934.53 535.55, 934.92 536.34, 935.58 537.26 C 936.23 538.19, 936.63 538.38, 937.24 538.76 C 937.84 539.14, 938.14 539.22, 938.60 539.16 C 939.06 539.09, 939.31 538.80, 939.53 538.43 C 939.76 538.06, 939.69 537.92, 939.72 537.31 C 939.74 536.70, 939.87 536.34, 939.65 535.38 C 939.43 534.42, 939.02 533.80, 938.62 532.52 C 938.22 531.23, 938.04 530.53, 937.66 528.94 C 937.29 527.35, 937.13 526.39, 936.73 524.57 C 936.32 522.75, 936.14 521.74, 935.63 519.82 C 935.11 517.90, 934.87 516.86, 934.16 514.98 C 933.46 513.09, 933.06 512.10, 932.10 510.39 C 931.13 508.69, 930.58 507.83, 929.32 506.43 C 928.06 505.03, 927.31 504.38, 925.82 503.40 C 924.32 502.43, 923.48 502.05, 921.82 501.55 C 920.17 501.05, 919.25 500.90, 917.53 500.91 C 915.80 500.91, 914.86 501.08, 913.21 501.57 C 911.57 502.07, 910.76 502.48, 909.31 503.39 C 907.85 504.29, 907.14 504.86, 905.93 506.08 C 904.73 507.31, 904.19 508.05, 903.29 509.51 C 902.39 510.97, 902.05 511.80, 901.45 513.39 C 900.85 514.98, 900.67 515.83, 900.29 517.47 C 899.91 519.11, 899.80 519.94, 899.55 521.60 C 899.31 523.26, 899.22 524.16, 899.08 525.76 C 898.93 527.36, 898.71 528.27, 898.83 529.61 C 898.95 530.96, 899.12 531.65, 899.67 532.50 C 900.23 533.35, 900.81 533.71, 901.61 533.88 C 902.40 534.05, 903.08 533.88, 903.65 533.35 C 904.21 532.82, 904.34 532.28, 904.45 531.23 C 904.56 530.19, 904.32 529.48, 904.20 528.12 C 904.07 526.76, 903.97 525.96, 903.82 524.44 C 903.66 522.91, 903.56 522.09, 903.42 520.51 C 903.29 518.92, 903.25 518.09, 903.13 516.52 C 903.00 514.95, 903.01 514.10, 902.81 512.66 C 902.61 511.23, 902.50 510.45, 902.13 509.34 C 901.77 508.23, 901.52 507.78, 900.99 507.12 C 900.45 506.45, 900.17 506.14, 899.47 506.01 C 898.78 505.89, 898.06 506.10, 897.50 506.50" style="stroke: black; fill: black;"/><path d="M 955.29,524.63 C 956.11 524.90, 956.87 524.67, 958.14 524.23 C 959.42 523.79, 960.25 523.37, 961.67 522.42 C 963.09 521.48, 963.93 520.72, 965.24 519.50 C 966.55 518.29, 967.12 517.59, 968.22 516.34 C 969.33 515.09, 969.89 514.49, 970.75 513.26 C 971.61 512.04, 972.04 511.46, 972.54 510.23 C 973.04 509.00, 973.23 508.35, 973.26 507.12 C 973.30 505.89, 973.21 505.19, 972.70 504.07 C 972.18 502.94, 971.73 502.30, 970.68 501.48 C 969.64 500.67, 968.89 500.33, 967.46 499.98 C 966.03 499.63, 965.18 499.62, 963.53 499.73 C 961.88 499.85, 960.96 500.01, 959.20 500.55 C 957.44 501.08, 956.46 501.47, 954.72 502.41 C 952.98 503.34, 952.08 503.93, 950.50 505.20 C 948.92 506.48, 948.11 507.19, 946.82 508.77 C 945.54 510.35, 944.91 511.30, 944.09 513.10 C 943.27 514.91, 942.95 515.89, 942.71 517.80 C 942.47 519.71, 942.46 520.76, 942.88 522.67 C 943.30 524.57, 943.69 525.58, 944.79 527.30 C 945.88 529.02, 946.67 529.86, 948.36 531.26 C 950.06 532.65, 951.11 533.28, 953.27 534.28 C 955.43 535.28, 956.71 535.69, 959.17 536.25 C 961.64 536.81, 963.02 536.96, 965.60 537.10 C 968.17 537.23, 969.54 537.18, 972.05 536.93 C 974.56 536.68, 975.85 536.45, 978.16 535.85 C 980.46 535.25, 981.60 534.85, 983.56 533.94 C 985.53 533.02, 986.45 532.47, 987.99 531.26 C 989.54 530.06, 990.21 529.36, 991.28 527.93 C 992.35 526.50, 992.74 525.68, 993.33 524.13 C 993.91 522.58, 994.03 521.72, 994.21 520.18 C 994.39 518.63, 994.32 517.82, 994.22 516.40 C 994.11 514.98, 993.93 514.27, 993.67 513.09 C 993.40 511.91, 993.39 511.29, 992.89 510.50 C 992.39 509.72, 992.00 509.33, 991.18 509.16 C 990.37 509.00, 989.56 509.17, 988.81 509.68 C 988.06 510.19, 987.70 510.75, 987.44 511.70 C 987.18 512.66, 987.30 513.26, 987.53 514.47 C 987.75 515.69, 988.16 516.40, 988.56 517.79 C 988.97 519.17, 989.19 519.96, 989.55 521.38 C 989.91 522.80, 990.09 523.55, 990.36 524.88 C 990.64 526.21, 990.63 526.92, 990.93 528.01 C 991.24 529.10, 991.30 529.73, 991.87 530.34 C 992.44 530.95, 993.00 531.10, 993.77 531.05 C 994.54 531.01, 995.12 530.72, 995.72 530.11 C 996.32 529.49, 996.60 528.99, 996.77 527.98 C 996.94 526.97, 996.71 526.28, 996.56 525.05 C 996.41 523.83, 996.13 523.14, 996.02 521.87 C 995.90 520.60, 995.88 519.94, 995.98 518.69 C 996.07 517.44, 996.17 516.80, 996.49 515.62 C 996.82 514.44, 997.03 513.87, 997.59 512.78 C 998.14 511.70, 998.46 511.14, 999.27 510.19 C 1000.08 509.25, 1000.57 508.82, 1001.65 508.06 C 1002.73 507.29, 1003.36 506.91, 1004.67 506.37 C 1005.97 505.83, 1006.73 505.61, 1008.18 505.36 C 1009.64 505.10, 1010.44 505.01, 1011.95 505.09 C 1013.45 505.17, 1014.24 505.30, 1015.72 505.75 C 1017.20 506.20, 1017.98 506.54, 1019.35 507.35 C 1020.72 508.15, 1021.38 508.65, 1022.58 509.78 C 1023.77 510.92, 1024.34 511.62, 1025.33 513.04 C 1026.32 514.46, 1026.78 515.28, 1027.53 516.90 C 1028.29 518.51, 1028.57 519.40, 1029.09 521.13 C 1029.61 522.86, 1029.79 523.80, 1030.12 525.54 C 1030.46 527.28, 1030.52 528.19, 1030.75 529.83 C 1030.99 531.47, 1030.98 532.40, 1031.30 533.74 C 1031.62 535.09, 1031.89 535.69, 1032.35 536.55 C 1032.81 537.42, 1033.05 537.80, 1033.59 538.06 C 1034.13 538.32, 1034.60 538.26, 1035.05 537.86 C 1035.50 537.46, 1035.63 537.02, 1035.85 536.08 C 1036.06 535.13, 1036.14 534.53, 1036.12 533.15 C 1036.11 531.77, 1035.98 530.88, 1035.77 529.17 C 1035.57 527.46, 1035.46 526.50, 1035.10 524.60 C 1034.75 522.70, 1034.57 521.64, 1033.99 519.67 C 1033.40 517.69, 1033.08 516.65, 1032.18 514.73 C 1031.29 512.81, 1030.74 511.81, 1029.51 510.09 C 1028.28 508.36, 1027.56 507.52, 1026.04 506.11 C 1024.52 504.69, 1023.67 504.04, 1021.91 503.00 C 1020.14 501.96, 1019.14 501.50, 1017.21 500.90 C 1015.27 500.31, 1014.22 500.14, 1012.24 500.02 C 1010.26 499.89, 1009.23 499.96, 1007.32 500.28 C 1005.40 500.60, 1004.41 500.88, 1002.68 501.61 C 1000.95 502.34, 1000.11 502.86, 998.66 503.92 C 997.21 504.99, 996.54 505.62, 995.44 506.94 C 994.33 508.25, 993.89 509.03, 993.13 510.49 C 992.38 511.95, 992.12 512.71, 991.66 514.23 C 991.21 515.74, 991.10 516.54, 990.86 518.06 C 990.61 519.57, 990.58 520.33, 990.43 521.81 C 990.28 523.29, 990.11 524.09, 990.12 525.46 C 990.13 526.83, 990.10 527.63, 990.49 528.65 C 990.87 529.68, 991.30 530.11, 992.04 530.57 C 992.78 531.04, 993.42 531.14, 994.17 530.98 C 994.92 530.81, 995.42 530.49, 995.77 529.74 C 996.13 528.99, 996.02 528.36, 995.96 527.21 C 995.91 526.06, 995.69 525.36, 995.50 523.98 C 995.30 522.61, 995.19 521.81, 994.98 520.33 C 994.78 518.84, 994.67 518.02, 994.48 516.56 C 994.30 515.10, 994.38 514.23, 994.07 513.02 C 993.76 511.81, 993.53 511.21, 992.91 510.51 C 992.30 509.82, 991.78 509.62, 990.99 509.53 C 990.20 509.45, 989.53 509.64, 988.97 510.10 C 988.42 510.56, 988.27 511.03, 988.22 511.83 C 988.18 512.64, 988.56 513.12, 988.75 514.12 C 988.95 515.13, 989.07 515.72, 989.20 516.85 C 989.32 517.98, 989.41 518.63, 989.36 519.78 C 989.32 520.93, 989.32 521.51, 988.98 522.60 C 988.64 523.68, 988.41 524.21, 987.66 525.21 C 986.90 526.20, 986.42 526.70, 985.21 527.56 C 984.00 528.43, 983.26 528.85, 981.61 529.53 C 979.97 530.22, 978.98 530.53, 976.97 530.98 C 974.97 531.43, 973.81 531.61, 971.59 531.78 C 969.38 531.95, 968.16 531.97, 965.91 531.82 C 963.66 531.66, 962.46 531.50, 960.36 531.02 C 958.27 530.55, 957.20 530.20, 955.44 529.44 C 953.67 528.68, 952.85 528.20, 951.54 527.22 C 950.22 526.25, 949.67 525.69, 948.86 524.57 C 948.05 523.45, 947.78 522.84, 947.48 521.62 C 947.19 520.40, 947.19 519.75, 947.41 518.47 C 947.62 517.20, 947.88 516.54, 948.55 515.26 C 949.22 513.98, 949.71 513.25, 950.75 512.07 C 951.79 510.89, 952.44 510.32, 953.73 509.35 C 955.03 508.39, 955.82 507.94, 957.23 507.23 C 958.64 506.53, 959.44 506.24, 960.79 505.83 C 962.15 505.43, 962.86 505.34, 964.01 505.21 C 965.16 505.08, 965.70 505.12, 966.54 505.18 C 967.38 505.23, 967.70 505.32, 968.21 505.47 C 968.72 505.62, 968.90 505.67, 969.10 505.93 C 969.30 506.18, 969.33 506.30, 969.21 506.77 C 969.09 507.24, 968.97 507.55, 968.52 508.26 C 968.07 508.97, 967.76 509.44, 966.98 510.33 C 966.20 511.22, 965.69 511.77, 964.60 512.72 C 963.51 513.67, 962.82 514.09, 961.51 515.08 C 960.21 516.07, 959.32 516.61, 958.08 517.65 C 956.85 518.70, 956.16 519.27, 955.36 520.31 C 954.55 521.35, 954.05 522.00, 954.04 522.86 C 954.03 523.73, 954.46 524.35, 955.29 524.63" style="stroke: black; fill: black;"/><path d="M 1062.46,476.58 C 1061.80 476.81, 1061.59 477.12, 1061.18 477.80 C 1060.77 478.47, 1060.60 478.91, 1060.40 479.97 C 1060.19 481.03, 1060.19 481.73, 1060.14 483.09 C 1060.08 484.45, 1060.16 485.24, 1060.14 486.79 C 1060.11 488.35, 1060.07 489.16, 1060.00 490.87 C 1059.93 492.58, 1059.85 493.52, 1059.79 495.36 C 1059.72 497.20, 1059.70 498.18, 1059.66 500.07 C 1059.62 501.97, 1059.60 502.94, 1059.59 504.83 C 1059.59 506.72, 1059.61 507.68, 1059.62 509.50 C 1059.63 511.33, 1059.60 512.24, 1059.66 513.95 C 1059.72 515.67, 1059.73 516.65, 1059.91 518.09 C 1060.09 519.53, 1060.28 520.18, 1060.56 521.15 C 1060.85 522.12, 1061.01 522.38, 1061.35 522.95 C 1061.68 523.52, 1061.78 523.80, 1062.23 523.99 C 1062.68 524.18, 1063.17 524.15, 1063.59 523.90 C 1064.02 523.65, 1064.08 523.38, 1064.34 522.75 C 1064.59 522.12, 1064.76 521.75, 1064.86 520.75 C 1064.96 519.75, 1064.87 519.12, 1064.85 517.73 C 1064.83 516.35, 1064.79 515.46, 1064.75 513.81 C 1064.72 512.16, 1064.68 511.26, 1064.68 509.48 C 1064.68 507.70, 1064.70 506.75, 1064.74 504.90 C 1064.78 503.05, 1064.83 502.09, 1064.90 500.23 C 1064.98 498.36, 1065.02 497.40, 1065.11 495.59 C 1065.20 493.77, 1065.24 492.86, 1065.36 491.16 C 1065.47 489.47, 1065.55 488.65, 1065.70 487.10 C 1065.84 485.56, 1065.99 484.78, 1066.09 483.42 C 1066.19 482.06, 1066.28 481.39, 1066.19 480.30 C 1066.11 479.22, 1066.00 478.74, 1065.65 478.02 C 1065.31 477.29, 1065.12 476.95, 1064.48 476.66 C 1063.84 476.38, 1063.12 476.36, 1062.46 476.58" style="stroke: black; fill: black;"/></svg>