<?xml version="1.0" encoding="UTF-8" standalone="no"?>
<!-- Created with Inkscape (http://www.inkscape.org/) -->

<svg
   width="115.33884mm"
   height="11.582423mm"
   viewBox="0 0 115.33884 11.582423"
   version="1.1"
   id="svg1"
   xmlns="http://www.w3.org/2000/svg"
   xmlns:svg="http://www.w3.org/2000/svg">
  <defs
     id="defs1" />
  <g
     id="layer1"
     transform="translate(-45.867453,-88.85024)">
    <path
       d="m 53.340708,99.7779 c 0.993423,-0.04516 0.620889,-1.196623 0.72249,-3.070581 0.06773,-1.851379 0.835378,-6.005695 0.2032,-6.457251 -0.666045,-0.451556 -2.077158,0.880535 -1.862669,1.64818 0.191912,0.790223 0.327378,3.38667 0.237067,4.380093 -0.880534,-1.083734 -1.049868,-3.070581 -1.614313,-3.476981 -0.575734,-0.4064 -1.399823,0.993423 -1.444979,1.738491 -0.03387,0.745067 -0.169333,2.212624 -0.225778,2.483558 -0.338667,-1.85138 -0.643467,-3.273781 -1.12889,-4.876805 -0.338667,-1.083735 -0.869245,-1.44498 -1.625602,-0.677334 -0.733778,0.767645 -0.666045,1.219201 -0.124177,1.873957 1.761068,2.077158 1.23049,5.215472 2.506135,6.16374 0.04516,0.03387 0.124178,0.05644 0.191912,0.05644 l 0.03387,0.530579 c 0.02258,0.22578 0.06773,0.33867 0.169334,0.32738 0.1016,0 0.158045,-0.11289 0.169333,-0.3048 0.02258,-0.146758 0.02258,-0.383825 0.03387,-0.666048 0.51929,-0.248356 1.162757,-0.903112 1.219201,-1.320801 0.1016,-0.564445 -0.191911,-1.64818 0.07902,-1.85138 0.395111,1.016001 1.444979,3.522137 2.46098,3.499559 z m 3.014147,-0.09031 c 0.654756,-0.282222 1.783646,-0.248356 2.483558,-0.349956 0,0.124178 0.01129,0.225778 0.02258,0.304801 0.02258,0.225778 0.06773,0.338667 0.169333,0.327378 0.1016,0 0.158045,-0.112889 0.169334,-0.304801 0.01129,-0.09031 0.02258,-0.248355 0.02258,-0.4064 0.259645,-0.07902 0.451557,-0.2032 0.587023,-0.4064 0.09031,-0.180623 0.158045,-0.51929 0.112889,-0.767646 -0.09031,-0.451556 -0.767645,-0.903112 -1.806224,-0.587023 -0.135467,-0.248355 -0.835378,-1.557868 -1.038579,-2.190046 -0.158044,-0.451556 -0.180622,-0.699912 -0.135466,-0.835379 0.09031,-0.293511 0.677334,-0.180622 1.309512,-0.316089 0.880534,-0.2032 1.264357,-1.806224 -0.180622,-1.693335 -1.309513,0.06773 -2.596447,0.72249 -3.747915,1.33209 -0.677334,0.428978 -0.677334,1.174046 -0.135467,1.309513 0.428978,0.135466 0.880534,-0.180623 1.33209,-0.248356 -0.135467,1.106312 0.474134,2.077157 0.654756,3.138314 -0.316089,0.383823 -1.53529,1.038579 -1.038578,1.670757 0.248355,0.338669 0.790223,0.158045 1.219201,0.02258 z m -1.33209,-6.818496 c 0.338667,0.135467 0.564445,0.06773 0.8128,-0.158044 0.474134,-0.406401 0.158045,-1.016001 0.180623,-1.580446 0.02258,-0.451556 0.496711,-1.941691 -0.383823,-1.806224 -0.383822,0.06773 -1.219201,0.745067 -1.309512,1.151467 -0.09031,0.496712 0.180622,0.993424 0.293511,1.490135 0.06773,0.383823 -0.135467,0.677334 0.406401,0.903112 z m 5.91539,6.254051 c 0.722489,0.383823 1.94169,-0.541867 1.693335,-1.106312 -0.180623,-0.383823 -1.64818,-0.835379 -1.986847,-0.835379 0.248356,-0.248356 0.857957,-0.993423 0.293512,-2.167469 1.241779,1.44498 2.551291,3.048003 2.709336,3.251204 0.316089,0.372533 0.6096,0.620889 0.869245,0.677334 l 0.03387,0.587023 c 0.02258,0.225778 0.06773,0.338667 0.169333,0.327378 0.1016,0 0.158045,-0.112889 0.169334,-0.304801 0.02258,-0.146755 0.02258,-0.372533 0.03387,-0.643467 0.21449,-0.09031 0.428979,-0.282222 0.688623,-0.620889 0.248356,-0.293512 0.428979,-0.993424 0.02258,-1.151468 -0.383822,-0.158045 -1.106312,-1.016001 -1.377246,-1.941691 -0.293511,-0.948268 -0.519289,-1.783646 -0.519289,-3.138315 0,-1.241779 -1.761069,-0.158044 -1.806224,0.790224 -0.02258,0.745067 0.722489,1.896535 0.993423,2.551291 -0.158045,0.02258 -3.612448,-4.651027 -3.702759,-4.741338 -0.745068,-0.699912 -1.986847,0.857956 -1.557869,1.625602 2.212625,1.964268 2.460981,4.538137 1.512713,4.696182 -1.12889,0.428978 -1.354668,1.580446 -0.677334,1.625602 0.72249,0.04516 2.280358,0.4064 2.438403,0.519289 z m 5.712189,0 c 0.72249,0.383823 1.941691,-0.541867 1.693335,-1.106312 -0.180622,-0.383823 -1.648179,-0.835379 -1.986846,-0.835379 0.248356,-0.248356 0.857956,-0.993423 0.293511,-2.167469 1.241779,1.44498 2.551292,3.048003 2.709336,3.251204 0.31609,0.372533 0.609601,0.620889 0.869246,0.677334 l 0.03387,0.587023 c 0.02258,0.225778 0.06773,0.338667 0.169334,0.327378 0.1016,0 0.158044,-0.112889 0.169333,-0.304801 0.02258,-0.146755 0.02258,-0.372533 0.03387,-0.643467 0.214489,-0.09031 0.428978,-0.282222 0.688623,-0.620889 0.248356,-0.293512 0.428978,-0.993424 0.02258,-1.151468 -0.383823,-0.158045 -1.106312,-1.016001 -1.377246,-1.941691 -0.293511,-0.948268 -0.519289,-1.783646 -0.519289,-3.138315 0,-1.241779 -1.761069,-0.158044 -1.806225,0.790224 -0.02258,0.745067 0.72249,1.896535 0.993424,2.551291 -0.158045,0.02258 -3.612448,-4.651027 -3.70276,-4.741338 -0.745067,-0.699912 -1.986846,0.857956 -1.557868,1.625602 2.212625,1.964268 2.46098,4.538137 1.512713,4.696182 -1.12889,0.428978 -1.354668,1.580446 -0.677334,1.625602 0.722489,0.04516 2.280358,0.4064 2.438402,0.519289 z m 5.531568,0.248356 c 0.812801,-0.2032 0.632179,-0.2032 1.64818,-0.880534 0.72249,-0.474134 3.318937,-2.415825 3.544715,-3.115737 0.2032,-0.564445 -0.09031,-0.903112 -0.677334,-0.745067 -1.174046,0.677334 -2.528714,1.986846 -3.770493,2.438402 -1.241779,0.428978 -1.016001,-0.2032 -1.106312,-1.219201 0.654756,-0.04516 2.596447,-0.270934 3.048003,-0.609601 0.699912,-0.474133 0.92569,-1.580446 0.338667,-1.603023 -0.767645,-0.04516 -2.302936,0.587022 -3.138315,0.587022 -0.225778,0 -0.248355,-0.135466 -0.248355,-0.338667 v -1.354668 c 0.677334,0.135467 1.354668,0.293512 2.032002,0.361245 0.338667,0.04516 1.083734,0.112889 1.399823,0.09031 0.541868,-0.06773 1.219202,-0.790223 0.835379,-1.309512 -0.2032,-0.270934 -2.686758,-0.632179 -3.228626,-0.812801 -0.948267,-0.316089 -1.73849,-0.564445 -2.438402,-0.428978 -0.699912,0.135467 -1.083734,0.835378 -0.92569,1.354668 0.158045,0.496712 0.745068,0.835379 0.835379,1.670757 0.02258,0.248356 -0.135467,3.815648 -0.158045,4.018849 -0.03387,1.061156 0.654756,1.772357 1.411113,1.907824 l 0.03387,0.417689 c 0.02258,0.225782 0.06773,0.338672 0.169334,0.327382 0.1016,0 0.158045,-0.11289 0.169333,-0.304804 0.01129,-0.09031 0.02258,-0.248356 0.02258,-0.417689 z m 5.576724,-0.248356 c 0.722489,0.383823 1.941691,-0.541867 1.693335,-1.106312 -0.180622,-0.383823 -1.64818,-0.835379 -1.986847,-0.835379 0.248356,-0.248356 0.857957,-0.993423 0.293512,-2.167469 1.241779,1.44498 2.551291,3.048003 2.709336,3.251204 0.316089,0.372533 0.609601,0.620889 0.869245,0.677334 l 0.03387,0.587023 c 0.02258,0.225778 0.06773,0.338667 0.169333,0.327378 0.101601,0 0.158045,-0.112889 0.169334,-0.304801 0.02258,-0.146755 0.02258,-0.372533 0.03387,-0.643467 0.214489,-0.09031 0.428978,-0.282222 0.688623,-0.620889 0.248355,-0.293512 0.428978,-0.993424 0.02258,-1.151468 -0.383822,-0.158045 -1.106312,-1.016001 -1.377245,-1.941691 -0.293512,-0.948268 -0.51929,-1.783646 -0.51929,-3.138315 0,-1.241779 -1.761068,-0.158044 -1.806224,0.790224 -0.02258,0.745067 0.72249,1.896535 0.993423,2.551291 -0.158044,0.02258 -3.612448,-4.651027 -3.702759,-4.741338 -0.745067,-0.699912 -1.986846,0.857956 -1.557868,1.625602 2.212624,1.964268 2.46098,4.538137 1.512712,4.696182 -1.12889,0.428978 -1.354668,1.580446 -0.677334,1.625602 0.72249,0.04516 2.280358,0.4064 2.438403,0.519289 z M 91.779467,99.7779 c 0.993423,-0.04516 0.620889,-1.196623 0.722489,-3.070581 0.06773,-1.851379 0.835379,-6.005695 0.203201,-6.457251 -0.666045,-0.451556 -2.077158,0.880535 -1.862669,1.64818 0.191911,0.790223 0.327378,3.38667 0.237067,4.380093 -0.880534,-1.083734 -1.049868,-3.070581 -1.614313,-3.476981 -0.575734,-0.4064 -1.399823,0.993423 -1.444979,1.738491 -0.03387,0.745067 -0.169334,2.212624 -0.225778,2.483558 -0.338667,-1.85138 -0.643467,-3.273781 -1.12889,-4.876805 -0.338667,-1.083735 -0.869245,-1.44498 -1.625602,-0.677334 -0.733778,0.767645 -0.666045,1.219201 -0.124178,1.873957 1.761069,2.077158 1.230491,5.215472 2.506136,6.16374 0.04516,0.03387 0.124178,0.05644 0.191912,0.05644 l 0.03387,0.530579 c 0.02258,0.22578 0.06773,0.33867 0.169334,0.32738 0.1016,0 0.158044,-0.11289 0.169333,-0.3048 0.02258,-0.146758 0.02258,-0.383825 0.03387,-0.666048 0.519289,-0.248356 1.162757,-0.903112 1.219201,-1.320801 0.1016,-0.564445 -0.191911,-1.64818 0.07902,-1.85138 0.395111,1.016001 1.444979,3.522137 2.46098,3.499559 z m 3.014143,-0.09031 c 0.654757,-0.282222 1.783647,-0.248356 2.483558,-0.349956 0,0.124178 0.01129,0.225778 0.02258,0.304801 0.02258,0.225778 0.06773,0.338667 0.169334,0.327378 0.1016,0 0.158044,-0.112889 0.169333,-0.304801 0.01129,-0.09031 0.02258,-0.248355 0.02258,-0.4064 0.259645,-0.07902 0.451556,-0.2032 0.587023,-0.4064 0.09031,-0.180623 0.158044,-0.51929 0.112889,-0.767646 -0.09031,-0.451556 -0.767645,-0.903112 -1.806224,-0.587023 C 96.419212,97.249187 95.7193,95.939674 95.5161,95.307496 95.358055,94.85594 95.335478,94.607584 95.380633,94.472117 c 0.09031,-0.293511 0.677334,-0.180622 1.309513,-0.316089 0.880534,-0.2032 1.264356,-1.806224 -0.180623,-1.693335 -1.309512,0.06773 -2.596447,0.72249 -3.747915,1.33209 -0.677334,0.428978 -0.677334,1.174046 -0.135467,1.309513 0.428979,0.135466 0.880535,-0.180623 1.332091,-0.248356 -0.135467,1.106312 0.474133,2.077157 0.654756,3.138314 -0.316089,0.383823 -1.535291,1.038579 -1.038579,1.670757 0.248356,0.338669 0.790223,0.158045 1.219201,0.02258 z m -1.33209,-6.818496 c 0.338667,0.135467 0.564445,0.06773 0.812801,-0.158044 0.474134,-0.406401 0.158044,-1.016001 0.180622,-1.580446 0.02258,-0.451556 0.496712,-1.941691 -0.383822,-1.806224 -0.383823,0.06773 -1.219202,0.745067 -1.309513,1.151467 -0.09031,0.496712 0.180623,0.993424 0.293512,1.490135 0.06773,0.383823 -0.135467,0.677334 0.4064,0.903112 z m 5.915392,6.254051 c 0.722488,0.383823 1.941688,-0.541867 1.693338,-1.106312 -0.18062,-0.383823 -1.648182,-0.835379 -1.986849,-0.835379 0.248356,-0.248356 0.857956,-0.993423 0.293511,-2.167469 1.241778,1.44498 2.551288,3.048003 2.709338,3.251204 0.31609,0.372533 0.6096,0.620889 0.86924,0.677334 l 0.0339,0.587023 c 0.0226,0.225778 0.0677,0.338667 0.16933,0.327378 0.1016,0 0.15805,-0.112889 0.16934,-0.304801 0.0226,-0.146755 0.0226,-0.372533 0.0339,-0.643467 0.21449,-0.09031 0.42898,-0.282222 0.68863,-0.620889 0.24835,-0.293512 0.42898,-0.993424 0.0226,-1.151468 -0.38383,-0.158045 -1.10632,-1.016001 -1.37725,-1.941691 -0.29351,-0.948268 -0.51929,-1.783646 -0.51929,-3.138315 0,-1.241779 -1.76107,-0.158044 -1.80622,0.790224 -0.0226,0.745067 0.72249,1.896535 0.99342,2.551291 -0.15805,0.02258 -3.612449,-4.651027 -3.70276,-4.741338 -0.745068,-0.699912 -1.986847,0.857956 -1.557869,1.625602 2.212625,1.964268 2.460981,4.538137 1.512713,4.696182 -1.12889,0.428978 -1.354668,1.580446 -0.677334,1.625602 0.72249,0.04516 2.280358,0.4064 2.438402,0.519289 z m 5.712188,0 c 0.72249,0.383823 1.94169,-0.541867 1.69334,-1.106312 -0.18063,-0.383823 -1.64818,-0.835379 -1.98685,-0.835379 0.24836,-0.248356 0.85796,-0.993423 0.29351,-2.167469 1.24178,1.44498 2.55129,3.048003 2.70934,3.251204 0.31609,0.372533 0.6096,0.620889 0.86924,0.677334 l 0.0339,0.587023 c 0.0226,0.225778 0.0677,0.338667 0.16933,0.327378 0.1016,0 0.15805,-0.112889 0.16934,-0.304801 0.0226,-0.146755 0.0226,-0.372533 0.0339,-0.643467 0.21449,-0.09031 0.42898,-0.282222 0.68863,-0.620889 0.24835,-0.293512 0.42897,-0.993424 0.0226,-1.151468 -0.38382,-0.158045 -1.10631,-1.016001 -1.37724,-1.941691 -0.29351,-0.948268 -0.51929,-1.783646 -0.51929,-3.138315 0,-1.241779 -1.76107,-0.158044 -1.80623,0.790224 -0.0226,0.745067 0.72249,1.896535 0.99343,2.551291 -0.15805,0.02258 -3.61245,-4.651027 -3.70276,-4.741338 -0.74507,-0.699912 -1.98685,0.857956 -1.55787,1.625602 2.21262,1.964268 2.46098,4.538137 1.51271,4.696182 -1.12889,0.428978 -1.35467,1.580446 -0.67733,1.625602 0.72249,0.04516 2.28036,0.4064 2.4384,0.519289 z m 5.53157,0.248356 c 0.8128,-0.2032 0.63218,-0.2032 1.64818,-0.880534 0.72249,-0.474134 3.31893,-2.415825 3.54471,-3.115737 0.2032,-0.564445 -0.0903,-0.903112 -0.67733,-0.745067 -1.17405,0.677334 -2.52872,1.986846 -3.7705,2.438402 -1.24177,0.428978 -1.016,-0.2032 -1.10631,-1.219201 0.65476,-0.04516 2.59645,-0.270934 3.04801,-0.609601 0.69991,-0.474133 0.92569,-1.580446 0.33866,-1.603023 -0.76764,-0.04516 -2.30293,0.587022 -3.13831,0.587022 -0.22578,0 -0.24836,-0.135466 -0.24836,-0.338667 v -1.354668 c 0.67734,0.135467 1.35467,0.293512 2.032,0.361245 0.33867,0.04516 1.08374,0.112889 1.39983,0.09031 0.54187,-0.06773 1.2192,-0.790223 0.83538,-1.309512 -0.2032,-0.270934 -2.68676,-0.632179 -3.22863,-0.812801 -0.94827,-0.316089 -1.73849,-0.564445 -2.4384,-0.428978 -0.69991,0.135467 -1.08374,0.835378 -0.92569,1.354668 0.15804,0.496712 0.74507,0.835379 0.83538,1.670757 0.0226,0.248356 -0.13547,3.815648 -0.15805,4.018849 -0.0339,1.061156 0.65476,1.772357 1.41112,1.907824 l 0.0339,0.417689 c 0.0226,0.225782 0.0677,0.338672 0.16934,0.327382 0.1016,0 0.15804,-0.11289 0.16933,-0.304804 0.0113,-0.09031 0.0226,-0.248356 0.0226,-0.417689 z m 5.57672,-0.248356 c 0.72249,0.383823 1.94169,-0.541867 1.69333,-1.106312 -0.18062,-0.383823 -1.64818,-0.835379 -1.98684,-0.835379 0.24835,-0.248356 0.85795,-0.993423 0.29351,-2.167469 1.24178,1.44498 2.55129,3.048003 2.70934,3.251204 0.31608,0.372533 0.6096,0.620889 0.86924,0.677334 l 0.0339,0.587023 c 0.0226,0.225778 0.0677,0.338667 0.16933,0.327378 0.1016,0 0.15805,-0.112889 0.16933,-0.304801 0.0226,-0.146755 0.0226,-0.372533 0.0339,-0.643467 0.21449,-0.09031 0.42898,-0.282222 0.68862,-0.620889 0.24836,-0.293512 0.42898,-0.993424 0.0226,-1.151468 -0.38382,-0.158045 -1.10631,-1.016001 -1.37724,-1.941691 -0.29352,-0.948268 -0.51929,-1.783646 -0.51929,-3.138315 0,-1.241779 -1.76107,-0.158044 -1.80623,0.790224 -0.0226,0.745067 0.72249,1.896535 0.99343,2.551291 -0.15805,0.02258 -3.61245,-4.651027 -3.70276,-4.741338 -0.74507,-0.699912 -1.98685,0.857956 -1.55787,1.625602 2.21262,1.964268 2.46098,4.538137 1.51271,4.696182 -1.12889,0.428978 -1.35467,1.580446 -0.67733,1.625602 0.72249,0.04516 2.28035,0.4064 2.4384,0.519289 z m 14.02084,0.654756 c 0.99342,-0.04516 0.62089,-1.196623 0.72249,-3.070581 0.0677,-1.851379 0.83537,-6.005695 0.2032,-6.457251 -0.66605,-0.451556 -2.07716,0.880535 -1.86267,1.64818 0.19191,0.790223 0.32738,3.38667 0.23706,4.380093 -0.88053,-1.083734 -1.04986,-3.070581 -1.61431,-3.476981 -0.57573,-0.4064 -1.39982,0.993423 -1.44498,1.738491 -0.0339,0.745067 -0.16933,2.212624 -0.22578,2.483558 -0.33866,-1.85138 -0.64346,-3.273781 -1.12889,-4.876805 -0.33866,-1.083735 -0.86924,-1.44498 -1.6256,-0.677334 -0.73378,0.767645 -0.66604,1.219201 -0.12418,1.873957 1.76107,2.077158 1.23049,5.215472 2.50614,6.16374 0.0452,0.03387 0.12418,0.05644 0.19191,0.05644 l 0.0339,0.530579 c 0.0226,0.22578 0.0677,0.33867 0.16933,0.32738 0.1016,0 0.15805,-0.11289 0.16934,-0.3048 0.0226,-0.146758 0.0226,-0.383825 0.0339,-0.666048 0.51929,-0.248356 1.16276,-0.903112 1.2192,-1.320801 0.1016,-0.564445 -0.19191,-1.64818 0.079,-1.85138 0.39511,1.016001 1.44497,3.522137 2.46098,3.499559 z m 3.01414,-0.09031 c 0.65476,-0.282222 1.78365,-0.248356 2.48356,-0.349956 0,0.124178 0.0113,0.225778 0.0226,0.304801 0.0226,0.225778 0.0677,0.338667 0.16933,0.327378 0.1016,0 0.15804,-0.112889 0.16933,-0.304801 0.0113,-0.09031 0.0226,-0.248355 0.0226,-0.4064 0.25964,-0.07902 0.45156,-0.2032 0.58702,-0.4064 0.0903,-0.180623 0.15805,-0.51929 0.11289,-0.767646 -0.0903,-0.451556 -0.76764,-0.903112 -1.80622,-0.587023 -0.13547,-0.248355 -0.83538,-1.557868 -1.03858,-2.190046 -0.15805,-0.451556 -0.18062,-0.699912 -0.13547,-0.835379 0.0903,-0.293511 0.67734,-0.180622 1.30951,-0.316089 0.88054,-0.2032 1.26436,-1.806224 -0.18062,-1.693335 -1.30951,0.06773 -2.59645,0.72249 -3.74791,1.33209 -0.67734,0.428978 -0.67734,1.174046 -0.13547,1.309513 0.42898,0.135466 0.88053,-0.180623 1.33209,-0.248356 -0.13547,1.106312 0.47413,2.077157 0.65476,3.138314 -0.31609,0.383823 -1.53529,1.038579 -1.03858,1.670757 0.24835,0.338669 0.79022,0.158045 1.2192,0.02258 z m -1.33209,-6.818496 c 0.33867,0.135467 0.56444,0.06773 0.8128,-0.158044 0.47413,-0.406401 0.15804,-1.016001 0.18062,-1.580446 0.0226,-0.451556 0.49671,-1.941691 -0.38382,-1.806224 -0.38382,0.06773 -1.2192,0.745067 -1.30951,1.151467 -0.0903,0.496712 0.18062,0.993424 0.29351,1.490135 0.0677,0.383823 -0.13547,0.677334 0.4064,0.903112 z m 5.91539,6.254051 c 0.72249,0.383823 1.94169,-0.541867 1.69333,-1.106312 -0.18062,-0.383823 -1.64818,-0.835379 -1.98684,-0.835379 0.24835,-0.248356 0.85795,-0.993423 0.29351,-2.167469 1.24178,1.44498 2.55129,3.048003 2.70933,3.251204 0.31609,0.372533 0.6096,0.620889 0.86925,0.677334 l 0.0339,0.587023 c 0.0226,0.225778 0.0677,0.338667 0.16933,0.327378 0.1016,0 0.15804,-0.112889 0.16933,-0.304801 0.0226,-0.146755 0.0226,-0.372533 0.0339,-0.643467 0.21449,-0.09031 0.42898,-0.282222 0.68862,-0.620889 0.24836,-0.293512 0.42898,-0.993424 0.0226,-1.151468 -0.38382,-0.158045 -1.10631,-1.016001 -1.37725,-1.941691 -0.29351,-0.948268 -0.51929,-1.783646 -0.51929,-3.138315 0,-1.241779 -1.76106,-0.158044 -1.80622,0.790224 -0.0226,0.745067 0.72249,1.896535 0.99342,2.551291 -0.15804,0.02258 -3.61244,-4.651027 -3.70276,-4.741338 -0.74506,-0.699912 -1.98684,0.857956 -1.55786,1.625602 2.21262,1.964268 2.46098,4.538137 1.51271,4.696182 -1.12889,0.428978 -1.35467,1.580446 -0.67733,1.625602 0.72248,0.04516 2.28035,0.4064 2.4384,0.519289 z m 5.71219,0 c 0.72249,0.383823 1.94169,-0.541867 1.69333,-1.106312 -0.18062,-0.383823 -1.64818,-0.835379 -1.98685,-0.835379 0.24836,-0.248356 0.85796,-0.993423 0.29352,-2.167469 1.24178,1.44498 2.55129,3.048003 2.70933,3.251204 0.31609,0.372533 0.6096,0.620889 0.86925,0.677334 l 0.0339,0.587023 c 0.0226,0.225778 0.0677,0.338667 0.16934,0.327378 0.1016,0 0.15804,-0.112889 0.16933,-0.304801 0.0226,-0.146755 0.0226,-0.372533 0.0339,-0.643467 0.21449,-0.09031 0.42898,-0.282222 0.68862,-0.620889 0.24836,-0.293512 0.42898,-0.993424 0.0226,-1.151468 -0.38382,-0.158045 -1.10631,-1.016001 -1.37725,-1.941691 -0.29351,-0.948268 -0.51929,-1.783646 -0.51929,-3.138315 0,-1.241779 -1.76106,-0.158044 -1.80622,0.790224 -0.0226,0.745067 0.72249,1.896535 0.99342,2.551291 -0.15804,0.02258 -3.61245,-4.651027 -3.70276,-4.741338 -0.74506,-0.699912 -1.98684,0.857956 -1.55786,1.625602 2.21262,1.964268 2.46098,4.538137 1.51271,4.696182 -1.12889,0.428978 -1.35467,1.580446 -0.67734,1.625602 0.72249,0.04516 2.28036,0.4064 2.43841,0.519289 z m 5.53157,0.248356 c 0.8128,-0.2032 0.63218,-0.2032 1.64818,-0.880534 0.72249,-0.474134 3.31894,-2.415825 3.54471,-3.115737 0.2032,-0.564445 -0.0903,-0.903112 -0.67733,-0.745067 -1.17405,0.677334 -2.52871,1.986846 -3.77049,2.438402 -1.24178,0.428978 -1.016,-0.2032 -1.10631,-1.219201 0.65475,-0.04516 2.59644,-0.270934 3.048,-0.609601 0.69991,-0.474133 0.92569,-1.580446 0.33867,-1.603023 -0.76765,-0.04516 -2.30294,0.587022 -3.13832,0.587022 -0.22578,0 -0.24835,-0.135466 -0.24835,-0.338667 v -1.354668 c 0.67733,0.135467 1.35466,0.293512 2.032,0.361245 0.33866,0.04516 1.08373,0.112889 1.39982,0.09031 0.54187,-0.06773 1.2192,-0.790223 0.83538,-1.309512 -0.2032,-0.270934 -2.68676,-0.632179 -3.22863,-0.812801 -0.94826,-0.316089 -1.73849,-0.564445 -2.4384,-0.428978 -0.69991,0.135467 -1.08373,0.835378 -0.92569,1.354668 0.15805,0.496712 0.74507,0.835379 0.83538,1.670757 0.0226,0.248356 -0.13547,3.815648 -0.15804,4.018849 -0.0339,1.061156 0.65475,1.772357 1.41111,1.907824 l 0.0339,0.417689 c 0.0226,0.225782 0.0677,0.338672 0.16933,0.327382 0.1016,0 0.15804,-0.11289 0.16933,-0.304804 0.0113,-0.09031 0.0226,-0.248356 0.0226,-0.417689 z m 5.57672,-0.248356 c 0.72249,0.383823 1.94169,-0.541867 1.69333,-1.106312 -0.18062,-0.383823 -1.64818,-0.835379 -1.98684,-0.835379 0.24835,-0.248356 0.85795,-0.993423 0.29351,-2.167469 1.24178,1.44498 2.55129,3.048003 2.70933,3.251204 0.31609,0.372533 0.6096,0.620889 0.86925,0.677334 l 0.0339,0.587023 c 0.0226,0.225778 0.0677,0.338667 0.16933,0.327378 0.1016,0 0.15804,-0.112889 0.16933,-0.304801 0.0226,-0.146755 0.0226,-0.372533 0.0339,-0.643467 0.21449,-0.09031 0.42898,-0.282222 0.68862,-0.620889 0.24836,-0.293512 0.42898,-0.993424 0.0226,-1.151468 -0.38382,-0.158045 -1.10631,-1.016001 -1.37725,-1.941691 -0.29351,-0.948268 -0.51928,-1.783646 -0.51928,-3.138315 0,-1.241779 -1.76107,-0.158044 -1.80623,0.790224 -0.0226,0.745067 0.72249,1.896535 0.99342,2.551291 -0.15804,0.02258 -3.61244,-4.651027 -3.70276,-4.741338 -0.74506,-0.699912 -1.98684,0.857956 -1.55786,1.625602 2.21262,1.964268 2.46098,4.538137 1.51271,4.696182 -1.12889,0.428978 -1.35467,1.580446 -0.67733,1.625602 0.72248,0.04516 2.28035,0.4064 2.4384,0.519289 z m 4.34623,0.891826 c 0.69991,0.16933 2.22391,-1.625604 1.44498,-2.472272 -0.76765,-0.846667 -3.07058,2.05458 -1.44498,2.472272 z m 0.0339,-3.183473 c 0.4064,0.270934 1.00471,-0.428978 1.09502,-0.914401 0.13547,-0.8128 0.37253,-4.504271 0.58702,-5.497694 0.24836,-1.219201 0.0565,-1.569157 -1.00471,-1.02729 -0.99342,0.508001 -1.08373,0.745067 -1.04987,2.111024 0,1.049868 0.0565,3.318937 0.14676,4.605872 0.0452,0.462845 0.0677,0.632178 0.22578,0.722489 z"
       id="text1"
       style="font-size:11.2889px;font-family:'Aerosoldier Drip PERSONAL USE';-inkscape-font-specification:'Aerosoldier Drip PERSONAL USE, Normal';fill:none;stroke:#000000;stroke-width:1.165"
       aria-label="WINNEN WINNEN WINNEN!" />
  </g>
</svg>
