<svg xmlns="http://www.w3.org/2000/svg" id="canvas" viewBox="209.484 467.779 910.845 77.735"><path d="M 214.30,479.73 C 213.68 480.07, 213.54 480.50, 213.18 481.41 C 212.83 482.33, 212.64 482.90, 212.53 484.30 C 212.42 485.70, 212.53 486.66, 212.63 488.42 C 212.74 490.18, 212.89 491.13, 213.05 493.11 C 213.20 495.10, 213.25 496.17, 213.41 498.35 C 213.57 500.53, 213.64 501.73, 213.85 504.01 C 214.05 506.30, 214.16 507.49, 214.44 509.77 C 214.72 512.06, 214.88 513.25, 215.25 515.43 C 215.63 517.61, 215.86 518.72, 216.32 520.66 C 216.78 522.61, 217.02 523.54, 217.54 525.16 C 218.06 526.79, 218.30 527.57, 218.91 528.80 C 219.51 530.02, 219.80 530.57, 220.57 531.29 C 221.34 532.01, 221.81 532.26, 222.77 532.40 C 223.72 532.54, 224.41 532.48, 225.35 531.99 C 226.29 531.49, 226.81 531.02, 227.48 529.94 C 228.14 528.86, 228.28 528.09, 228.66 526.57 C 229.05 525.05, 229.09 524.13, 229.41 522.35 C 229.72 520.57, 229.87 519.57, 230.22 517.65 C 230.58 515.73, 230.77 514.69, 231.16 512.76 C 231.55 510.83, 231.76 509.82, 232.17 507.98 C 232.57 506.14, 232.77 505.20, 233.19 503.55 C 233.61 501.90, 233.92 501.12, 234.28 499.73 C 234.64 498.34, 234.95 497.56, 235.00 496.62 C 235.06 495.67, 234.86 495.27, 234.56 495.02 C 234.27 494.77, 233.85 494.85, 233.55 495.36 C 233.24 495.88, 233.02 496.41, 233.04 497.61 C 233.07 498.82, 233.27 499.70, 233.67 501.40 C 234.08 503.09, 234.46 504.14, 235.07 506.09 C 235.68 508.04, 236.02 509.12, 236.71 511.14 C 237.40 513.17, 237.74 514.22, 238.52 516.21 C 239.30 518.19, 239.72 519.23, 240.62 521.07 C 241.52 522.91, 242.00 523.84, 243.02 525.42 C 244.03 527.01, 244.56 527.78, 245.69 529.01 C 246.82 530.24, 247.43 530.80, 248.67 531.57 C 249.91 532.35, 250.57 532.64, 251.89 532.88 C 253.21 533.13, 253.96 533.13, 255.27 532.78 C 256.59 532.43, 257.30 532.08, 258.47 531.15 C 259.64 530.23, 260.16 529.56, 261.11 528.15 C 262.06 526.74, 262.45 525.87, 263.21 524.08 C 263.97 522.29, 264.31 521.28, 264.92 519.20 C 265.53 517.13, 265.81 515.98, 266.27 513.71 C 266.74 511.43, 266.92 510.20, 267.23 507.84 C 267.54 505.47, 267.65 504.24, 267.81 501.87 C 267.97 499.49, 268.01 498.27, 268.01 495.96 C 268.02 493.65, 267.96 492.49, 267.84 490.34 C 267.71 488.19, 267.61 487.14, 267.39 485.22 C 267.18 483.29, 267.02 482.37, 266.76 480.71 C 266.49 479.05, 266.36 478.26, 266.07 476.91 C 265.78 475.57, 265.60 474.92, 265.31 473.99 C 265.01 473.06, 264.84 472.77, 264.58 472.26 C 264.33 471.75, 264.28 471.63, 264.02 471.45 C 263.77 471.27, 263.54 471.36, 263.30 471.35 C 263.07 471.34, 262.96 471.47, 262.85 471.41 C 262.74 471.35, 262.90 471.11, 262.77 471.05 C 262.63 471.00, 262.44 471.00, 262.17 471.15 C 261.91 471.29, 261.64 471.43, 261.45 471.79 C 261.27 472.14, 261.28 472.31, 261.24 472.91 C 261.20 473.52, 261.18 473.84, 261.26 474.80 C 261.34 475.76, 261.45 476.41, 261.65 477.73 C 261.85 479.05, 262.04 479.80, 262.27 481.39 C 262.49 482.98, 262.62 483.85, 262.78 485.68 C 262.95 487.52, 263.01 488.52, 263.09 490.57 C 263.17 492.61, 263.21 493.73, 263.17 495.92 C 263.14 498.10, 263.09 499.26, 262.91 501.51 C 262.73 503.75, 262.58 504.92, 262.25 507.14 C 261.92 509.37, 261.71 510.53, 261.24 512.64 C 260.77 514.74, 260.49 515.80, 259.90 517.68 C 259.32 519.56, 258.96 520.47, 258.31 522.03 C 257.67 523.59, 257.31 524.32, 256.70 525.47 C 256.09 526.62, 255.80 527.08, 255.26 527.78 C 254.72 528.48, 254.52 528.70, 254.00 528.96 C 253.49 529.22, 253.27 529.26, 252.68 529.10 C 252.09 528.94, 251.78 528.76, 251.06 528.16 C 250.34 527.56, 249.89 527.14, 249.09 526.10 C 248.28 525.07, 247.84 524.41, 247.02 522.99 C 246.21 521.57, 245.78 520.71, 245.00 519.00 C 244.22 517.30, 243.81 516.34, 243.14 514.46 C 242.46 512.59, 242.15 511.59, 241.62 509.63 C 241.08 507.68, 240.87 506.62, 240.46 504.68 C 240.05 502.74, 240.02 501.66, 239.58 499.93 C 239.14 498.21, 238.96 497.30, 238.26 496.07 C 237.56 494.83, 237.06 494.30, 236.09 493.76 C 235.11 493.21, 234.37 493.08, 233.36 493.34 C 232.36 493.59, 231.79 494.03, 231.07 495.04 C 230.35 496.05, 230.24 496.91, 229.75 498.37 C 229.26 499.83, 229.09 500.64, 228.62 502.33 C 228.15 504.03, 227.89 504.98, 227.41 506.84 C 226.93 508.71, 226.69 509.72, 226.22 511.66 C 225.74 513.60, 225.50 514.65, 225.05 516.56 C 224.60 518.47, 224.36 519.48, 223.94 521.21 C 223.52 522.95, 223.25 523.83, 222.95 525.23 C 222.65 526.63, 222.48 527.29, 222.46 528.22 C 222.43 529.15, 222.61 529.48, 222.82 529.87 C 223.03 530.25, 223.36 530.27, 223.50 530.14 C 223.65 530.02, 223.69 529.84, 223.56 529.25 C 223.43 528.65, 223.20 528.25, 222.87 527.18 C 222.53 526.11, 222.29 525.41, 221.90 523.90 C 221.52 522.40, 221.30 521.51, 220.93 519.66 C 220.57 517.81, 220.37 516.75, 220.06 514.66 C 219.74 512.57, 219.60 511.42, 219.37 509.21 C 219.14 507.00, 219.07 505.83, 218.90 503.59 C 218.73 501.36, 218.65 500.18, 218.54 498.03 C 218.43 495.88, 218.39 494.82, 218.34 492.85 C 218.30 490.87, 218.38 489.90, 218.32 488.16 C 218.27 486.42, 218.25 485.50, 218.07 484.15 C 217.88 482.79, 217.76 482.28, 217.40 481.39 C 217.04 480.50, 216.87 480.04, 216.25 479.71 C 215.63 479.38, 214.91 479.39, 214.30 479.73" style="stroke: black; fill: black;"/><path d="M 279.97,503.41 C 279.37 503.71, 279.17 504.04, 278.86 504.82 C 278.54 505.59, 278.40 506.15, 278.39 507.30 C 278.38 508.45, 278.57 509.21, 278.80 510.57 C 279.02 511.93, 279.25 512.65, 279.52 514.10 C 279.79 515.55, 279.91 516.32, 280.13 517.80 C 280.34 519.27, 280.41 520.03, 280.59 521.46 C 280.78 522.89, 280.81 523.68, 281.05 524.93 C 281.29 526.17, 281.40 526.82, 281.77 527.67 C 282.14 528.52, 282.47 528.77, 282.88 529.18 C 283.28 529.59, 283.43 529.65, 283.82 529.73 C 284.20 529.80, 284.46 529.76, 284.79 529.56 C 285.12 529.36, 285.24 529.24, 285.49 528.73 C 285.73 528.21, 285.95 527.85, 286.03 526.96 C 286.10 526.07, 285.95 525.48, 285.85 524.27 C 285.75 523.06, 285.67 522.31, 285.53 520.89 C 285.39 519.47, 285.29 518.68, 285.14 517.18 C 284.99 515.68, 284.90 514.88, 284.78 513.40 C 284.66 511.93, 284.68 511.15, 284.54 509.79 C 284.39 508.43, 284.36 507.66, 284.06 506.59 C 283.77 505.52, 283.53 505.10, 283.08 504.44 C 282.64 503.79, 282.47 503.52, 281.85 503.32 C 281.23 503.11, 280.57 503.11, 279.97 503.41" style="stroke: black; fill: black;"/><path d="M 279.42,483.04 C 279.91 482.98, 279.95 482.63, 279.49 482.46 C 279.03 482.28, 277.60 482.10, 277.11 482.16 C 276.62 482.21, 276.57 482.56, 277.03 482.74 C 277.50 482.91, 278.92 483.09, 279.42 483.04" style="stroke: black; fill: black;"/><path d="M 299.45,504.01 C 298.91 504.44, 298.84 504.90, 298.68 505.72 C 298.51 506.54, 298.51 507.02, 298.63 508.13 C 298.75 509.23, 298.96 509.95, 299.26 511.24 C 299.55 512.53, 299.82 513.21, 300.12 514.59 C 300.41 515.97, 300.52 516.72, 300.74 518.14 C 300.96 519.57, 300.99 520.36, 301.22 521.70 C 301.46 523.04, 301.52 523.75, 301.92 524.85 C 302.32 525.95, 302.58 526.75, 303.22 527.20 C 303.86 527.65, 304.53 527.63, 305.11 527.09 C 305.69 526.55, 305.91 525.70, 306.12 524.51 C 306.34 523.32, 306.26 522.55, 306.19 521.14 C 306.11 519.73, 305.93 518.94, 305.75 517.46 C 305.57 515.97, 305.49 515.19, 305.31 513.72 C 305.12 512.25, 305.10 511.47, 304.85 510.09 C 304.60 508.72, 304.46 507.92, 304.05 506.84 C 303.65 505.76, 303.37 505.35, 302.84 504.69 C 302.31 504.03, 302.07 503.69, 301.40 503.56 C 300.72 503.42, 300.00 503.58, 299.45 504.01" style="stroke: black; fill: black;"/><path d="M 301.32,508.96 C 301.96 509.13, 302.20 508.90, 302.70 508.76 C 303.20 508.63, 303.30 508.53, 303.82 508.28 C 304.34 508.03, 304.55 507.78, 305.29 507.51 C 306.03 507.24, 306.49 507.12, 307.52 506.92 C 308.56 506.72, 309.21 506.63, 310.47 506.53 C 311.72 506.43, 312.45 506.37, 313.80 506.41 C 315.15 506.45, 315.87 506.49, 317.21 506.72 C 318.55 506.96, 319.26 507.15, 320.51 507.60 C 321.75 508.06, 322.38 508.31, 323.45 508.99 C 324.51 509.67, 324.98 510.08, 325.83 511.01 C 326.68 511.93, 327.03 512.47, 327.68 513.62 C 328.32 514.77, 328.57 515.43, 329.06 516.76 C 329.55 518.09, 329.73 518.87, 330.12 520.27 C 330.52 521.68, 330.68 522.42, 331.03 523.78 C 331.38 525.14, 331.47 525.89, 331.87 527.08 C 332.27 528.28, 332.57 528.92, 333.03 529.74 C 333.49 530.56, 333.71 530.78, 334.17 531.19 C 334.63 531.59, 334.92 531.67, 335.31 531.78 C 335.71 531.88, 335.89 531.88, 336.14 531.71 C 336.39 531.55, 336.43 531.18, 336.56 530.95 C 336.69 530.72, 336.69 530.80, 336.80 530.57 C 336.92 530.33, 337.10 530.25, 337.15 529.78 C 337.20 529.32, 337.19 529.05, 337.04 528.25 C 336.89 527.44, 336.69 526.89, 336.42 525.77 C 336.16 524.65, 336.01 524.01, 335.71 522.65 C 335.40 521.29, 335.31 520.50, 334.89 518.96 C 334.48 517.43, 334.27 516.55, 333.65 514.99 C 333.03 513.44, 332.66 512.64, 331.79 511.20 C 330.91 509.77, 330.41 509.05, 329.26 507.83 C 328.12 506.60, 327.45 506.01, 326.05 505.06 C 324.65 504.11, 323.84 503.73, 322.27 503.08 C 320.70 502.44, 319.84 502.18, 318.19 501.82 C 316.55 501.46, 315.66 501.38, 314.04 501.28 C 312.42 501.18, 311.60 501.24, 310.11 501.32 C 308.61 501.41, 307.93 501.49, 306.58 501.73 C 305.23 501.96, 304.51 502.05, 303.35 502.51 C 302.20 502.98, 301.59 503.36, 300.79 504.05 C 300.00 504.75, 299.63 505.21, 299.37 505.98 C 299.11 506.75, 299.12 507.30, 299.51 507.90 C 299.90 508.50, 300.68 508.79, 301.32 508.96" style="stroke: black; fill: black;"/><path d="M 340.37,504.92 C 339.85 505.35, 339.81 505.73, 339.65 506.50 C 339.49 507.26, 339.48 507.71, 339.57 508.76 C 339.67 509.81, 339.85 510.48, 340.12 511.75 C 340.40 513.03, 340.64 513.75, 340.95 515.14 C 341.26 516.53, 341.40 517.28, 341.67 518.69 C 341.94 520.10, 342.06 520.87, 342.29 522.20 C 342.52 523.53, 342.61 524.23, 342.82 525.36 C 343.03 526.49, 342.99 527.09, 343.33 527.83 C 343.67 528.58, 343.92 528.87, 344.52 529.09 C 345.13 529.32, 345.69 529.24, 346.35 528.95 C 347.01 528.65, 347.47 528.34, 347.83 527.61 C 348.19 526.88, 348.20 526.36, 348.16 525.30 C 348.13 524.24, 347.80 523.57, 347.66 522.32 C 347.51 521.07, 347.43 520.35, 347.43 519.04 C 347.43 517.74, 347.47 517.05, 347.66 515.80 C 347.86 514.55, 348.00 513.95, 348.42 512.81 C 348.84 511.68, 349.13 511.13, 349.76 510.14 C 350.40 509.14, 350.78 508.64, 351.58 507.83 C 352.39 507.02, 352.83 506.65, 353.78 506.08 C 354.73 505.52, 355.29 505.29, 356.33 505.00 C 357.38 504.71, 357.94 504.62, 359.00 504.62 C 360.06 504.63, 360.62 504.70, 361.65 505.04 C 362.68 505.37, 363.21 505.64, 364.16 506.31 C 365.11 506.99, 365.57 507.41, 366.41 508.41 C 367.25 509.41, 367.64 510.02, 368.35 511.32 C 369.06 512.62, 369.37 513.39, 369.95 514.90 C 370.53 516.41, 370.78 517.26, 371.26 518.88 C 371.74 520.50, 371.93 521.38, 372.37 522.98 C 372.81 524.59, 373.00 525.42, 373.46 526.92 C 373.92 528.41, 374.11 529.21, 374.66 530.45 C 375.21 531.69, 375.64 532.31, 376.22 533.13 C 376.81 533.94, 377.04 534.15, 377.58 534.51 C 378.12 534.87, 378.51 534.90, 378.94 534.92 C 379.37 534.94, 379.55 534.82, 379.73 534.61 C 379.91 534.40, 379.77 534.11, 379.83 533.88 C 379.90 533.66, 379.97 533.73, 380.06 533.49 C 380.15 533.24, 380.32 533.13, 380.30 532.66 C 380.27 532.19, 380.22 531.94, 379.96 531.15 C 379.69 530.36, 379.36 529.82, 378.97 528.71 C 378.57 527.60, 378.36 527.00, 377.98 525.61 C 377.61 524.22, 377.48 523.40, 377.10 521.78 C 376.71 520.15, 376.54 519.23, 376.05 517.49 C 375.56 515.75, 375.31 514.80, 374.64 513.08 C 373.97 511.35, 373.60 510.44, 372.68 508.87 C 371.77 507.30, 371.24 506.52, 370.07 505.22 C 368.91 503.92, 368.26 503.31, 366.86 502.38 C 365.46 501.44, 364.65 501.03, 363.08 500.54 C 361.52 500.05, 360.64 499.96, 359.05 499.94 C 357.45 499.92, 356.63 500.03, 355.09 500.44 C 353.55 500.85, 352.74 501.19, 351.37 502.00 C 349.99 502.80, 349.35 503.36, 348.22 504.47 C 347.10 505.59, 346.60 506.26, 345.76 507.58 C 344.91 508.91, 344.57 509.65, 343.99 511.10 C 343.41 512.55, 343.21 513.32, 342.86 514.84 C 342.50 516.36, 342.40 517.17, 342.21 518.69 C 342.02 520.22, 341.99 521.02, 341.90 522.46 C 341.82 523.89, 341.64 524.67, 341.81 525.86 C 341.97 527.05, 342.14 527.68, 342.73 528.41 C 343.32 529.14, 343.94 529.39, 344.76 529.52 C 345.57 529.65, 346.21 529.49, 346.80 529.05 C 347.39 528.61, 347.55 528.19, 347.71 527.32 C 347.86 526.46, 347.67 525.88, 347.56 524.71 C 347.45 523.53, 347.34 522.83, 347.16 521.46 C 346.99 520.10, 346.86 519.34, 346.67 517.89 C 346.49 516.45, 346.41 515.67, 346.22 514.22 C 346.03 512.76, 345.99 511.96, 345.74 510.62 C 345.48 509.28, 345.35 508.57, 344.96 507.52 C 344.57 506.47, 344.34 506.01, 343.80 505.37 C 343.26 504.73, 342.93 504.41, 342.25 504.32 C 341.56 504.23, 340.89 504.48, 340.37 504.92" style="stroke: black; fill: black;"/><path d="M 388.10,522.12 C 388.72 522.47, 389.19 522.38, 390.08 522.22 C 390.96 522.06, 391.49 521.88, 392.53 521.33 C 393.56 520.79, 394.18 520.29, 395.25 519.48 C 396.33 518.67, 396.86 518.18, 397.92 517.28 C 398.98 516.37, 399.56 515.90, 400.54 514.96 C 401.51 514.02, 402.03 513.56, 402.81 512.58 C 403.58 511.60, 403.95 511.10, 404.41 510.06 C 404.87 509.02, 405.07 508.47, 405.11 507.40 C 405.15 506.32, 405.07 505.67, 404.61 504.68 C 404.15 503.69, 403.73 503.15, 402.80 502.45 C 401.88 501.75, 401.24 501.47, 399.98 501.19 C 398.73 500.91, 397.96 500.90, 396.51 501.06 C 395.07 501.22, 394.27 501.44, 392.77 501.98 C 391.26 502.52, 390.46 502.89, 388.98 503.77 C 387.51 504.65, 386.72 505.18, 385.38 506.36 C 384.04 507.54, 383.37 508.23, 382.27 509.65 C 381.18 511.07, 380.64 511.85, 379.90 513.47 C 379.16 515.10, 378.84 516.02, 378.58 517.76 C 378.32 519.50, 378.31 520.44, 378.61 522.16 C 378.90 523.89, 379.19 524.80, 380.06 526.38 C 380.94 527.97, 381.56 528.77, 382.98 530.08 C 384.40 531.40, 385.31 532.01, 387.17 532.94 C 389.03 533.88, 390.12 534.24, 392.28 534.76 C 394.43 535.28, 395.65 535.44, 397.94 535.56 C 400.23 535.67, 401.47 535.59, 403.73 535.32 C 405.99 535.04, 407.15 534.80, 409.25 534.18 C 411.34 533.57, 412.38 533.17, 414.20 532.25 C 416.02 531.33, 416.88 530.78, 418.33 529.58 C 419.79 528.39, 420.43 527.70, 421.47 526.29 C 422.51 524.87, 422.92 524.07, 423.54 522.52 C 424.17 520.97, 424.34 520.10, 424.59 518.53 C 424.84 516.96, 424.83 516.13, 424.80 514.68 C 424.76 513.24, 424.65 512.50, 424.42 511.30 C 424.20 510.10, 424.20 509.47, 423.68 508.70 C 423.16 507.92, 422.69 507.54, 421.85 507.41 C 421.00 507.29, 420.19 507.46, 419.47 508.07 C 418.76 508.68, 418.47 509.33, 418.28 510.46 C 418.09 511.59, 418.26 512.28, 418.52 513.70 C 418.77 515.12, 419.13 515.99, 419.55 517.57 C 419.97 519.15, 420.22 520.02, 420.61 521.58 C 421.00 523.14, 421.17 523.98, 421.50 525.37 C 421.84 526.77, 421.93 527.53, 422.30 528.56 C 422.67 529.58, 422.82 530.03, 423.35 530.51 C 423.88 530.98, 424.28 531.06, 424.94 530.93 C 425.60 530.81, 426.17 530.53, 426.64 529.88 C 427.11 529.24, 427.27 528.71, 427.29 527.71 C 427.31 526.72, 427.00 526.10, 426.74 524.90 C 426.48 523.70, 426.21 523.00, 425.99 521.71 C 425.77 520.43, 425.67 519.74, 425.64 518.46 C 425.62 517.19, 425.66 516.56, 425.86 515.35 C 426.06 514.14, 426.23 513.53, 426.65 512.42 C 427.08 511.31, 427.33 510.76, 427.99 509.81 C 428.65 508.85, 429.05 508.41, 429.95 507.64 C 430.85 506.88, 431.38 506.51, 432.49 505.97 C 433.59 505.43, 434.22 505.20, 435.49 504.93 C 436.75 504.66, 437.48 504.59, 438.83 504.63 C 440.18 504.66, 440.90 504.74, 442.25 505.11 C 443.59 505.48, 444.28 505.76, 445.55 506.48 C 446.82 507.21, 447.46 507.68, 448.60 508.74 C 449.74 509.80, 450.28 510.46, 451.25 511.80 C 452.23 513.14, 452.67 513.91, 453.45 515.46 C 454.24 517.00, 454.55 517.86, 455.17 519.52 C 455.78 521.18, 456.00 522.10, 456.51 523.76 C 457.03 525.41, 457.20 526.36, 457.74 527.78 C 458.27 529.20, 458.58 529.89, 459.19 530.84 C 459.80 531.80, 460.18 532.29, 460.79 532.55 C 461.41 532.80, 461.89 532.65, 462.27 532.11 C 462.65 531.57, 462.67 530.98, 462.69 529.85 C 462.71 528.72, 462.66 527.98, 462.37 526.47 C 462.08 524.96, 461.75 524.04, 461.22 522.31 C 460.70 520.58, 460.43 519.63, 459.75 517.82 C 459.07 516.00, 458.73 515.02, 457.83 513.23 C 456.92 511.45, 456.41 510.52, 455.22 508.91 C 454.03 507.29, 453.35 506.48, 451.89 505.15 C 450.43 503.83, 449.59 503.23, 447.92 502.29 C 446.26 501.35, 445.34 500.98, 443.55 500.47 C 441.76 499.96, 440.79 499.82, 438.97 499.76 C 437.15 499.70, 436.18 499.80, 434.45 500.18 C 432.73 500.57, 431.86 500.90, 430.34 501.67 C 428.82 502.44, 428.08 502.95, 426.83 504.04 C 425.59 505.13, 425.02 505.79, 424.10 507.12 C 423.18 508.45, 422.83 509.21, 422.24 510.68 C 421.65 512.15, 421.47 512.94, 421.15 514.47 C 420.84 516.00, 420.79 516.79, 420.69 518.33 C 420.58 519.86, 420.62 520.66, 420.64 522.16 C 420.65 523.66, 420.62 524.47, 420.76 525.83 C 420.90 527.19, 420.89 527.94, 421.33 528.95 C 421.76 529.96, 422.17 530.43, 422.93 530.87 C 423.69 531.32, 424.40 531.34, 425.13 531.16 C 425.86 530.98, 426.24 530.65, 426.57 529.96 C 426.90 529.27, 426.81 528.80, 426.78 527.70 C 426.74 526.60, 426.58 525.88, 426.38 524.44 C 426.17 523.01, 426.02 522.13, 425.76 520.53 C 425.51 518.94, 425.32 518.05, 425.11 516.46 C 424.89 514.87, 424.93 513.95, 424.69 512.59 C 424.44 511.24, 424.35 510.58, 423.88 509.69 C 423.41 508.79, 423.03 508.40, 422.33 508.11 C 421.63 507.83, 420.96 507.93, 420.38 508.26 C 419.81 508.60, 419.58 509.03, 419.46 509.77 C 419.33 510.52, 419.64 511.00, 419.75 512.00 C 419.86 513.01, 419.96 513.62, 419.99 514.79 C 420.01 515.97, 420.02 516.65, 419.89 517.87 C 419.75 519.10, 419.69 519.77, 419.30 520.92 C 418.90 522.08, 418.66 522.64, 417.91 523.67 C 417.16 524.69, 416.68 525.19, 415.53 526.07 C 414.38 526.95, 413.69 527.37, 412.17 528.07 C 410.66 528.77, 409.76 529.08, 407.96 529.54 C 406.16 530.01, 405.13 530.20, 403.18 530.39 C 401.23 530.58, 400.15 530.62, 398.20 530.51 C 396.26 530.39, 395.22 530.24, 393.45 529.83 C 391.68 529.42, 390.80 529.13, 389.35 528.45 C 387.89 527.78, 387.24 527.34, 386.18 526.46 C 385.12 525.59, 384.68 525.09, 384.06 524.08 C 383.44 523.07, 383.26 522.52, 383.08 521.41 C 382.90 520.29, 382.93 519.70, 383.15 518.52 C 383.38 517.34, 383.61 516.68, 384.20 515.52 C 384.79 514.36, 385.20 513.77, 386.09 512.70 C 386.98 511.64, 387.56 511.11, 388.65 510.21 C 389.75 509.32, 390.39 508.90, 391.57 508.24 C 392.74 507.58, 393.40 507.32, 394.52 506.93 C 395.64 506.54, 396.23 506.44, 397.18 506.29 C 398.12 506.15, 398.56 506.20, 399.24 506.21 C 399.92 506.21, 400.17 506.27, 400.58 506.34 C 400.98 506.40, 401.11 506.39, 401.26 506.52 C 401.41 506.64, 401.44 506.67, 401.33 506.96 C 401.21 507.25, 401.08 507.45, 400.67 507.95 C 400.27 508.46, 399.97 508.81, 399.29 509.48 C 398.61 510.15, 398.17 510.57, 397.27 511.30 C 396.36 512.04, 395.83 512.47, 394.78 513.18 C 393.73 513.88, 393.10 514.15, 392.02 514.85 C 390.94 515.55, 390.26 515.93, 389.38 516.67 C 388.50 517.41, 388.11 517.80, 387.63 518.56 C 387.15 519.31, 386.87 519.74, 386.97 520.45 C 387.06 521.17, 387.48 521.77, 388.10 522.12" style="stroke: black; fill: black;"/><path d="M 516.16,481.40 C 515.59 481.69, 515.44 482.01, 515.17 482.74 C 514.90 483.48, 514.79 483.93, 514.80 485.05 C 514.81 486.17, 514.98 486.88, 515.21 488.35 C 515.44 489.82, 515.67 490.64, 515.96 492.41 C 516.25 494.18, 516.39 495.17, 516.68 497.18 C 516.97 499.20, 517.10 500.31, 517.43 502.49 C 517.76 504.67, 517.93 505.83, 518.32 508.07 C 518.71 510.31, 518.92 511.50, 519.39 513.69 C 519.85 515.89, 520.12 517.02, 520.66 519.06 C 521.20 521.11, 521.49 522.13, 522.09 523.91 C 522.70 525.69, 523.00 526.55, 523.68 527.96 C 524.37 529.37, 524.70 530.02, 525.53 530.95 C 526.36 531.88, 526.82 532.27, 527.83 532.61 C 528.83 532.96, 529.51 532.98, 530.56 532.68 C 531.61 532.38, 532.24 532.01, 533.08 531.10 C 533.92 530.19, 534.24 529.51, 534.77 528.13 C 535.31 526.76, 535.39 525.89, 535.76 524.25 C 536.12 522.61, 536.26 521.70, 536.59 519.94 C 536.93 518.17, 537.09 517.21, 537.42 515.42 C 537.74 513.62, 537.90 512.69, 538.22 510.97 C 538.53 509.26, 538.74 508.38, 538.99 506.86 C 539.25 505.34, 539.48 504.47, 539.49 503.39 C 539.49 502.31, 539.32 501.84, 539.02 501.46 C 538.72 501.08, 538.30 501.09, 537.99 501.50 C 537.67 501.90, 537.39 502.39, 537.43 503.48 C 537.48 504.56, 537.70 505.38, 538.21 506.92 C 538.73 508.47, 539.23 509.41, 540.01 511.19 C 540.80 512.98, 541.23 513.98, 542.12 515.86 C 543.01 517.73, 543.48 518.73, 544.47 520.55 C 545.46 522.38, 545.97 523.33, 547.07 525.00 C 548.17 526.67, 548.76 527.50, 549.97 528.90 C 551.18 530.31, 551.82 530.99, 553.11 532.03 C 554.40 533.06, 555.07 533.50, 556.42 534.07 C 557.77 534.65, 558.48 534.84, 559.83 534.90 C 561.19 534.97, 561.93 534.88, 563.21 534.39 C 564.49 533.90, 565.16 533.48, 566.25 532.46 C 567.34 531.43, 567.82 530.75, 568.67 529.27 C 569.51 527.79, 569.85 526.91, 570.47 525.07 C 571.09 523.22, 571.34 522.17, 571.77 520.06 C 572.20 517.94, 572.36 516.78, 572.61 514.48 C 572.87 512.18, 572.96 510.96, 573.05 508.55 C 573.14 506.15, 573.14 504.89, 573.06 502.47 C 572.97 500.06, 572.87 498.81, 572.61 496.47 C 572.36 494.13, 572.17 492.95, 571.78 490.77 C 571.39 488.60, 571.14 487.52, 570.66 485.58 C 570.18 483.64, 569.90 482.70, 569.37 481.08 C 568.84 479.45, 568.58 478.65, 568.02 477.45 C 567.45 476.25, 567.12 475.78, 566.55 475.08 C 565.97 474.38, 565.68 474.08, 565.14 473.95 C 564.59 473.82, 564.17 473.98, 563.84 474.43 C 563.51 474.88, 563.48 475.30, 563.49 476.20 C 563.50 477.10, 563.58 477.68, 563.88 478.92 C 564.18 480.16, 564.55 480.87, 565.00 482.42 C 565.44 483.97, 565.70 484.83, 566.11 486.66 C 566.53 488.50, 566.74 489.52, 567.08 491.58 C 567.41 493.64, 567.57 494.76, 567.78 496.96 C 567.99 499.17, 568.07 500.34, 568.12 502.62 C 568.17 504.89, 568.14 506.08, 568.02 508.33 C 567.91 510.58, 567.80 511.74, 567.52 513.87 C 567.24 516.00, 567.06 517.07, 566.64 518.98 C 566.23 520.89, 565.95 521.83, 565.45 523.42 C 564.94 525.01, 564.65 525.75, 564.12 526.93 C 563.59 528.11, 563.33 528.58, 562.81 529.32 C 562.30 530.06, 562.08 530.30, 561.54 530.62 C 560.99 530.95, 560.75 531.00, 560.09 530.93 C 559.43 530.86, 559.05 530.75, 558.24 530.29 C 557.42 529.83, 556.96 529.51, 556.03 528.63 C 555.10 527.75, 554.58 527.16, 553.60 525.91 C 552.62 524.67, 552.08 523.93, 551.14 522.40 C 550.19 520.87, 549.73 520.00, 548.88 518.27 C 548.03 516.55, 547.60 515.60, 546.88 513.78 C 546.17 511.96, 545.88 510.98, 545.29 509.18 C 544.71 507.38, 544.60 506.34, 543.97 504.79 C 543.34 503.24, 543.00 502.44, 542.13 501.43 C 541.27 500.43, 540.68 500.05, 539.65 499.77 C 538.62 499.49, 537.90 499.53, 536.98 500.03 C 536.06 500.53, 535.63 501.09, 535.06 502.27 C 534.50 503.45, 534.50 504.38, 534.16 505.93 C 533.83 507.49, 533.74 508.34, 533.39 510.04 C 533.05 511.73, 532.83 512.65, 532.44 514.41 C 532.04 516.16, 531.84 517.11, 531.42 518.81 C 530.99 520.51, 530.73 521.38, 530.31 522.90 C 529.89 524.42, 529.61 525.22, 529.33 526.41 C 529.05 527.60, 528.97 528.13, 528.93 528.86 C 528.88 529.59, 529.04 529.83, 529.11 530.06 C 529.19 530.29, 529.37 530.29, 529.31 530.03 C 529.25 529.76, 529.13 529.50, 528.82 528.74 C 528.51 527.97, 528.20 527.46, 527.75 526.21 C 527.29 524.97, 527.03 524.17, 526.55 522.50 C 526.06 520.84, 525.80 519.85, 525.34 517.89 C 524.87 515.93, 524.63 514.84, 524.22 512.71 C 523.80 510.58, 523.62 509.44, 523.27 507.25 C 522.93 505.06, 522.78 503.92, 522.50 501.78 C 522.23 499.63, 522.11 498.53, 521.88 496.51 C 521.66 494.49, 521.57 493.48, 521.37 491.67 C 521.18 489.86, 521.13 488.96, 520.90 487.46 C 520.66 485.96, 520.54 485.22, 520.21 484.18 C 519.87 483.14, 519.63 482.84, 519.20 482.25 C 518.77 481.67, 518.65 481.44, 518.04 481.26 C 517.43 481.09, 516.74 481.10, 516.16 481.40" style="stroke: black; fill: black;"/><path d="M 583.45,505.56 C 582.83 505.85, 582.62 506.21, 582.27 507.00 C 581.93 507.79, 581.79 508.35, 581.74 509.51 C 581.69 510.67, 581.84 511.44, 582.02 512.81 C 582.20 514.17, 582.42 514.90, 582.64 516.33 C 582.86 517.76, 582.94 518.52, 583.11 519.97 C 583.28 521.42, 583.29 522.21, 583.47 523.60 C 583.64 524.99, 583.66 525.79, 583.96 526.92 C 584.27 528.06, 584.56 528.55, 585.00 529.26 C 585.45 529.96, 585.68 530.26, 586.19 530.46 C 586.71 530.66, 587.13 530.59, 587.56 530.25 C 587.99 529.92, 588.12 529.56, 588.35 528.77 C 588.58 527.99, 588.68 527.46, 588.70 526.32 C 588.72 525.18, 588.57 524.44, 588.45 523.07 C 588.33 521.71, 588.22 520.95, 588.11 519.49 C 588.00 518.04, 587.96 517.26, 587.89 515.81 C 587.82 514.36, 587.86 513.58, 587.76 512.22 C 587.67 510.86, 587.64 510.10, 587.40 509.02 C 587.16 507.94, 586.95 507.50, 586.55 506.81 C 586.14 506.12, 585.98 505.81, 585.37 505.56 C 584.75 505.31, 584.07 505.28, 583.45 505.56" style="stroke: black; fill: black;"/><path d="M 602.34,492.99 C 601.69 493.31, 601.38 493.79, 601.02 494.76 C 600.65 495.73, 600.52 496.44, 600.52 497.84 C 600.51 499.24, 600.69 500.17, 600.99 501.74 C 601.29 503.32, 601.62 504.13, 602.02 505.72 C 602.41 507.31, 602.62 508.11, 602.96 509.68 C 603.31 511.26, 603.46 512.07, 603.75 513.58 C 604.04 515.09, 604.18 515.88, 604.42 517.24 C 604.66 518.59, 604.65 519.30, 604.97 520.37 C 605.28 521.43, 605.41 522.02, 606.00 522.57 C 606.58 523.13, 607.13 523.21, 607.89 523.13 C 608.65 523.06, 609.18 522.80, 609.79 522.21 C 610.41 521.61, 610.73 521.14, 610.95 520.15 C 611.17 519.15, 610.92 518.43, 610.90 517.23 C 610.87 516.03, 610.73 515.40, 610.83 514.15 C 610.93 512.90, 611.05 512.20, 611.39 510.96 C 611.73 509.72, 611.97 509.11, 612.53 507.94 C 613.10 506.77, 613.44 506.16, 614.21 505.11 C 614.99 504.05, 615.45 503.53, 616.39 502.66 C 617.34 501.80, 617.87 501.39, 618.93 500.77 C 620.00 500.14, 620.58 499.86, 621.70 499.53 C 622.82 499.20, 623.43 499.12, 624.53 499.11 C 625.64 499.10, 626.21 499.16, 627.23 499.47 C 628.26 499.79, 628.76 500.03, 629.66 500.69 C 630.57 501.35, 630.99 501.79, 631.76 502.79 C 632.52 503.79, 632.87 504.40, 633.48 505.70 C 634.08 506.99, 634.33 507.76, 634.78 509.26 C 635.23 510.77, 635.39 511.62, 635.72 513.23 C 636.05 514.83, 636.15 515.73, 636.43 517.29 C 636.71 518.86, 636.75 519.74, 637.12 521.05 C 637.49 522.36, 637.78 522.98, 638.28 523.84 C 638.77 524.69, 639.05 525.08, 639.60 525.32 C 640.15 525.56, 640.60 525.47, 641.03 525.05 C 641.45 524.62, 641.56 524.16, 641.72 523.20 C 641.88 522.24, 641.89 521.59, 641.81 520.25 C 641.73 518.91, 641.55 518.10, 641.32 516.50 C 641.08 514.89, 640.98 513.97, 640.63 512.24 C 640.28 510.50, 640.12 509.55, 639.58 507.80 C 639.05 506.06, 638.76 505.13, 637.94 503.52 C 637.13 501.91, 636.64 501.09, 635.52 499.76 C 634.40 498.42, 633.73 497.79, 632.34 496.85 C 630.96 495.92, 630.15 495.54, 628.59 495.06 C 627.03 494.58, 626.17 494.46, 624.54 494.45 C 622.90 494.44, 622.01 494.56, 620.42 495.00 C 618.82 495.44, 618.02 495.83, 616.57 496.64 C 615.12 497.46, 614.41 497.96, 613.16 499.08 C 611.91 500.19, 611.30 500.87, 610.30 502.21 C 609.30 503.56, 608.90 504.33, 608.17 505.78 C 607.43 507.24, 607.16 507.99, 606.65 509.49 C 606.14 510.99, 605.95 511.81, 605.60 513.29 C 605.25 514.78, 605.06 515.53, 604.90 516.90 C 604.73 518.27, 604.56 519.09, 604.79 520.15 C 605.01 521.21, 605.40 521.66, 606.01 522.19 C 606.61 522.72, 607.15 522.86, 607.81 522.81 C 608.48 522.76, 608.96 522.58, 609.32 521.94 C 609.67 521.31, 609.64 520.72, 609.61 519.63 C 609.58 518.53, 609.37 517.84, 609.16 516.46 C 608.96 515.07, 608.84 514.25, 608.57 512.70 C 608.31 511.15, 608.12 510.31, 607.83 508.70 C 607.53 507.10, 607.35 506.26, 607.10 504.69 C 606.86 503.11, 606.79 502.31, 606.60 500.83 C 606.40 499.36, 606.38 498.53, 606.13 497.32 C 605.88 496.10, 605.73 495.60, 605.36 494.77 C 605.00 493.93, 604.91 493.50, 604.31 493.15 C 603.70 492.79, 603.00 492.67, 602.34 492.99" style="stroke: black; fill: black;"/><path d="M 647.78,500.37 C 647.25 500.77, 647.23 501.12, 647.02 501.86 C 646.82 502.59, 646.74 503.01, 646.77 504.04 C 646.79 505.08, 646.96 505.77, 647.15 507.05 C 647.35 508.32, 647.53 509.03, 647.74 510.42 C 647.95 511.81, 648.04 512.59, 648.21 514.01 C 648.39 515.43, 648.46 516.20, 648.61 517.53 C 648.77 518.85, 648.82 519.53, 648.98 520.64 C 649.14 521.76, 649.03 522.36, 649.41 523.11 C 649.79 523.86, 650.16 524.20, 650.87 524.40 C 651.58 524.60, 652.23 524.46, 652.95 524.12 C 653.68 523.77, 654.08 523.46, 654.48 522.67 C 654.89 521.89, 654.95 521.32, 654.99 520.19 C 655.03 519.06, 654.72 518.30, 654.67 517.00 C 654.63 515.71, 654.62 515.02, 654.75 513.70 C 654.88 512.38, 655.01 511.68, 655.35 510.40 C 655.68 509.13, 655.88 508.49, 656.44 507.31 C 656.99 506.14, 657.36 505.56, 658.11 504.53 C 658.86 503.50, 659.26 502.98, 660.18 502.16 C 661.10 501.34, 661.68 501.00, 662.71 500.43 C 663.74 499.86, 664.30 499.60, 665.34 499.32 C 666.39 499.04, 666.93 498.99, 667.95 499.04 C 668.98 499.10, 669.51 499.21, 670.46 499.59 C 671.42 499.98, 671.88 500.24, 672.73 500.97 C 673.58 501.71, 673.97 502.18, 674.72 503.26 C 675.46 504.34, 675.82 505.00, 676.45 506.37 C 677.07 507.74, 677.34 508.52, 677.83 510.10 C 678.32 511.67, 678.49 512.56, 678.91 514.23 C 679.32 515.91, 679.50 516.82, 679.90 518.46 C 680.30 520.10, 680.44 520.96, 680.91 522.44 C 681.37 523.92, 681.61 524.76, 682.21 525.87 C 682.81 526.99, 683.25 527.42, 683.90 528.01 C 684.55 528.60, 684.91 528.79, 685.46 528.82 C 686.01 528.85, 686.37 528.60, 686.65 528.14 C 686.92 527.68, 686.87 527.32, 686.83 526.54 C 686.78 525.75, 686.70 525.29, 686.43 524.21 C 686.16 523.12, 685.83 522.49, 685.48 521.13 C 685.12 519.76, 684.99 518.99, 684.65 517.38 C 684.31 515.77, 684.17 514.84, 683.77 513.08 C 683.37 511.32, 683.21 510.36, 682.65 508.59 C 682.10 506.82, 681.81 505.87, 681.01 504.22 C 680.21 502.57, 679.73 501.74, 678.67 500.35 C 677.61 498.97, 677.01 498.32, 675.70 497.31 C 674.39 496.29, 673.64 495.85, 672.15 495.28 C 670.65 494.71, 669.79 494.55, 668.21 494.45 C 666.63 494.36, 665.79 494.47, 664.24 494.82 C 662.70 495.18, 661.93 495.49, 660.48 496.24 C 659.04 496.98, 658.26 497.47, 657.02 498.56 C 655.77 499.65, 655.23 500.36, 654.25 501.68 C 653.26 503.01, 652.81 503.74, 652.09 505.21 C 651.36 506.68, 651.11 507.49, 650.63 509.03 C 650.14 510.56, 649.99 511.37, 649.67 512.89 C 649.35 514.41, 649.25 515.20, 649.03 516.64 C 648.80 518.07, 648.54 518.84, 648.53 520.06 C 648.53 521.29, 648.56 521.93, 648.99 522.75 C 649.42 523.57, 649.95 523.90, 650.68 524.15 C 651.42 524.40, 652.04 524.31, 652.64 524.01 C 653.24 523.71, 653.47 523.41, 653.68 522.65 C 653.90 521.90, 653.75 521.35, 653.72 520.24 C 653.69 519.12, 653.61 518.42, 653.52 517.08 C 653.43 515.74, 653.36 514.98, 653.27 513.54 C 653.18 512.10, 653.14 511.32, 653.06 509.87 C 652.98 508.42, 653.02 507.63, 652.86 506.27 C 652.69 504.92, 652.58 504.17, 652.24 503.10 C 651.91 502.03, 651.68 501.59, 651.17 500.94 C 650.66 500.29, 650.36 499.95, 649.69 499.84 C 649.01 499.73, 648.32 499.97, 647.78 500.37" style="stroke: black; fill: black;"/><path d="M 696.03,518.60 C 696.63 518.97, 697.08 518.88, 697.98 518.76 C 698.89 518.64, 699.44 518.50, 700.55 517.98 C 701.66 517.46, 702.34 516.99, 703.53 516.18 C 704.72 515.37, 705.33 514.86, 706.51 513.93 C 707.68 513.00, 708.31 512.51, 709.39 511.54 C 710.47 510.57, 711.03 510.07, 711.90 509.06 C 712.77 508.05, 713.17 507.54, 713.74 506.49 C 714.31 505.43, 714.57 504.90, 714.73 503.79 C 714.90 502.68, 714.91 502.01, 714.55 500.94 C 714.19 499.86, 713.81 499.25, 712.93 498.43 C 712.05 497.62, 711.42 497.27, 710.15 496.88 C 708.88 496.49, 708.08 496.41, 706.58 496.48 C 705.08 496.54, 704.24 496.74, 702.65 497.20 C 701.05 497.67, 700.20 498.00, 698.60 498.81 C 697.01 499.62, 696.14 500.11, 694.65 501.23 C 693.16 502.36, 692.39 503.03, 691.15 504.44 C 689.91 505.86, 689.30 506.68, 688.47 508.31 C 687.63 509.93, 687.28 510.82, 686.96 512.56 C 686.63 514.30, 686.58 515.25, 686.85 517.00 C 687.12 518.74, 687.42 519.69, 688.32 521.29 C 689.22 522.89, 689.87 523.68, 691.33 524.99 C 692.79 526.31, 693.73 526.93, 695.63 527.88 C 697.53 528.84, 698.65 529.21, 700.85 529.76 C 703.04 530.32, 704.28 530.48, 706.60 530.65 C 708.92 530.82, 710.16 530.79, 712.46 530.59 C 714.75 530.40, 715.94 530.20, 718.08 529.68 C 720.22 529.15, 721.29 528.80, 723.15 527.97 C 725.02 527.15, 725.90 526.64, 727.40 525.54 C 728.91 524.44, 729.59 523.80, 730.68 522.47 C 731.77 521.14, 732.21 520.36, 732.87 518.88 C 733.53 517.41, 733.72 516.58, 733.99 515.08 C 734.26 513.59, 734.24 512.80, 734.22 511.42 C 734.20 510.05, 734.07 509.34, 733.88 508.19 C 733.70 507.05, 733.74 506.44, 733.30 505.69 C 732.86 504.93, 732.45 504.58, 731.68 504.42 C 730.91 504.25, 730.16 504.38, 729.44 504.84 C 728.72 505.31, 728.33 505.81, 728.06 506.74 C 727.78 507.67, 727.88 508.29, 728.06 509.49 C 728.25 510.69, 728.65 511.40, 729.00 512.74 C 729.35 514.09, 729.51 514.85, 729.82 516.20 C 730.13 517.54, 730.28 518.26, 730.53 519.47 C 730.79 520.67, 730.84 521.29, 731.11 522.23 C 731.37 523.16, 731.38 523.63, 731.86 524.15 C 732.34 524.68, 732.78 524.84, 733.50 524.85 C 734.22 524.86, 734.85 524.69, 735.48 524.21 C 736.11 523.72, 736.41 523.30, 736.65 522.43 C 736.88 521.57, 736.72 520.97, 736.67 519.88 C 736.61 518.79, 736.40 518.15, 736.37 516.98 C 736.34 515.81, 736.35 515.18, 736.50 514.04 C 736.64 512.90, 736.73 512.33, 737.09 511.30 C 737.44 510.27, 737.68 509.80, 738.28 508.89 C 738.89 507.98, 739.27 507.53, 740.11 506.74 C 740.95 505.95, 741.43 505.56, 742.47 504.94 C 743.51 504.31, 744.11 504.02, 745.30 503.62 C 746.50 503.22, 747.17 503.06, 748.46 502.92 C 749.74 502.79, 750.43 502.78, 751.72 502.94 C 753.01 503.11, 753.68 503.27, 754.90 503.74 C 756.13 504.22, 756.74 504.54, 757.84 505.32 C 758.94 506.10, 759.47 506.58, 760.42 507.64 C 761.36 508.70, 761.78 509.32, 762.55 510.61 C 763.33 511.91, 763.65 512.65, 764.27 514.11 C 764.89 515.57, 765.13 516.39, 765.65 517.92 C 766.17 519.45, 766.37 520.37, 766.87 521.76 C 767.36 523.15, 767.60 523.90, 768.11 524.89 C 768.62 525.88, 768.92 526.18, 769.42 526.71 C 769.91 527.25, 770.13 527.48, 770.60 527.57 C 771.07 527.66, 771.45 527.50, 771.77 527.15 C 772.09 526.81, 772.07 526.55, 772.18 525.85 C 772.29 525.15, 772.43 524.76, 772.32 523.64 C 772.21 522.53, 772.01 521.76, 771.62 520.29 C 771.23 518.82, 770.94 517.92, 770.37 516.29 C 769.79 514.67, 769.50 513.79, 768.77 512.15 C 768.04 510.51, 767.67 509.63, 766.72 508.08 C 765.76 506.53, 765.22 505.74, 763.99 504.40 C 762.76 503.07, 762.05 502.42, 760.58 501.40 C 759.11 500.38, 758.28 499.94, 756.64 499.30 C 755.00 498.65, 754.10 498.42, 752.37 498.18 C 750.63 497.94, 749.71 497.92, 747.99 498.08 C 746.26 498.24, 745.36 498.44, 743.75 498.97 C 742.14 499.51, 741.33 499.90, 739.93 500.76 C 738.53 501.62, 737.86 502.17, 736.74 503.28 C 735.62 504.39, 735.15 505.04, 734.33 506.31 C 733.51 507.57, 733.19 508.25, 732.64 509.61 C 732.09 510.97, 731.91 511.70, 731.57 513.10 C 731.23 514.49, 731.14 515.23, 730.93 516.59 C 730.72 517.96, 730.56 518.69, 730.51 519.91 C 730.46 521.12, 730.40 521.78, 730.70 522.67 C 731.01 523.56, 731.38 523.96, 732.05 524.37 C 732.72 524.78, 733.38 524.85, 734.06 524.71 C 734.75 524.57, 735.16 524.30, 735.48 523.67 C 735.80 523.04, 735.70 522.54, 735.68 521.54 C 735.66 520.55, 735.50 519.93, 735.37 518.69 C 735.23 517.45, 735.15 516.73, 735.01 515.35 C 734.87 513.96, 734.79 513.16, 734.67 511.76 C 734.54 510.37, 734.63 509.54, 734.40 508.36 C 734.16 507.19, 734.03 506.64, 733.50 505.91 C 732.97 505.17, 732.52 504.86, 731.75 504.70 C 730.99 504.53, 730.27 504.68, 729.69 505.08 C 729.10 505.47, 728.94 505.92, 728.83 506.68 C 728.73 507.44, 729.04 507.90, 729.16 508.88 C 729.28 509.86, 729.40 510.46, 729.45 511.56 C 729.50 512.66, 729.55 513.25, 729.41 514.37 C 729.27 515.48, 729.18 516.06, 728.76 517.12 C 728.33 518.19, 728.08 518.72, 727.29 519.68 C 726.50 520.63, 726.01 521.09, 724.82 521.89 C 723.63 522.70, 722.91 523.08, 721.35 523.70 C 719.78 524.32, 718.85 524.60, 717.00 524.99 C 715.15 525.39, 714.10 525.54, 712.09 525.67 C 710.09 525.79, 708.99 525.78, 706.99 525.62 C 704.99 525.45, 703.91 525.28, 702.08 524.82 C 700.25 524.37, 699.35 524.05, 697.83 523.35 C 696.31 522.65, 695.60 522.18, 694.49 521.30 C 693.38 520.42, 692.93 519.95, 692.28 518.94 C 691.64 517.94, 691.45 517.39, 691.27 516.29 C 691.09 515.20, 691.11 514.61, 691.38 513.47 C 691.65 512.33, 691.92 511.73, 692.61 510.59 C 693.29 509.45, 693.80 508.82, 694.80 507.76 C 695.81 506.70, 696.43 506.17, 697.64 505.31 C 698.86 504.45, 699.59 504.07, 700.88 503.47 C 702.17 502.86, 702.89 502.62, 704.11 502.28 C 705.32 501.94, 705.95 501.87, 706.95 501.76 C 707.95 501.65, 708.42 501.71, 709.11 501.74 C 709.80 501.77, 710.03 501.80, 710.40 501.90 C 710.77 502.00, 710.84 502.03, 710.94 502.24 C 711.04 502.45, 711.07 502.57, 710.91 502.95 C 710.74 503.34, 710.60 503.58, 710.12 504.15 C 709.63 504.73, 709.28 505.09, 708.50 505.81 C 707.72 506.54, 707.22 506.99, 706.21 507.76 C 705.21 508.53, 704.63 508.96, 703.48 509.69 C 702.34 510.41, 701.64 510.69, 700.47 511.38 C 699.31 512.08, 698.60 512.43, 697.65 513.16 C 696.69 513.88, 696.25 514.26, 695.71 515.01 C 695.17 515.77, 694.88 516.21, 694.95 516.92 C 695.01 517.64, 695.42 518.23, 696.03 518.60" style="stroke: black; fill: black;"/><path d="M 824.40,478.51 C 823.76 478.92, 823.52 479.53, 823.20 480.58 C 822.89 481.63, 822.83 482.33, 822.82 483.77 C 822.81 485.21, 822.95 486.13, 823.14 487.79 C 823.33 489.46, 823.53 490.29, 823.78 492.09 C 824.03 493.88, 824.13 494.82, 824.39 496.78 C 824.65 498.73, 824.76 499.79, 825.09 501.84 C 825.42 503.89, 825.62 504.97, 826.03 507.04 C 826.45 509.10, 826.67 510.16, 827.15 512.16 C 827.64 514.15, 827.89 515.20, 828.46 517.02 C 829.04 518.85, 829.37 519.76, 830.02 521.29 C 830.67 522.82, 830.99 523.51, 831.71 524.68 C 832.43 525.84, 832.75 526.40, 833.62 527.11 C 834.48 527.83, 835.03 528.10, 836.04 528.25 C 837.04 528.40, 837.69 528.27, 838.66 527.86 C 839.62 527.45, 840.13 527.08, 840.88 526.18 C 841.62 525.28, 841.89 524.64, 842.38 523.36 C 842.88 522.08, 842.99 521.29, 843.35 519.78 C 843.71 518.28, 843.85 517.43, 844.19 515.82 C 844.52 514.20, 844.69 513.33, 845.03 511.69 C 845.37 510.06, 845.59 509.17, 845.89 507.63 C 846.19 506.10, 846.41 505.20, 846.53 504.00 C 846.65 502.79, 846.67 502.22, 846.48 501.61 C 846.30 501.00, 845.97 500.83, 845.62 500.93 C 845.28 501.03, 844.88 501.32, 844.76 502.13 C 844.63 502.93, 844.64 503.63, 845.00 504.95 C 845.36 506.27, 845.81 507.12, 846.57 508.73 C 847.33 510.33, 847.82 511.26, 848.79 512.98 C 849.77 514.70, 850.30 515.64, 851.44 517.33 C 852.58 519.03, 853.19 519.91, 854.49 521.46 C 855.79 523.02, 856.49 523.79, 857.95 525.11 C 859.41 526.42, 860.22 527.05, 861.79 528.02 C 863.36 528.99, 864.19 529.39, 865.79 529.95 C 867.40 530.51, 868.21 530.70, 869.81 530.83 C 871.40 530.96, 872.24 530.94, 873.76 530.60 C 875.28 530.25, 876.03 529.94, 877.39 529.12 C 878.74 528.29, 879.41 527.75, 880.52 526.49 C 881.64 525.23, 882.14 524.45, 882.97 522.81 C 883.79 521.17, 884.12 520.23, 884.65 518.29 C 885.19 516.35, 885.38 515.28, 885.63 513.13 C 885.89 510.99, 885.94 509.83, 885.93 507.56 C 885.91 505.29, 885.82 504.09, 885.55 501.77 C 885.28 499.46, 885.08 498.26, 884.59 495.98 C 884.09 493.70, 883.75 492.54, 883.06 490.38 C 882.38 488.21, 881.95 487.14, 881.15 485.16 C 880.35 483.18, 879.91 482.23, 879.08 480.48 C 878.25 478.74, 877.79 477.88, 876.98 476.45 C 876.17 475.02, 875.79 474.32, 875.05 473.33 C 874.30 472.34, 873.90 472.01, 873.25 471.50 C 872.60 470.99, 872.32 470.79, 871.81 470.78 C 871.29 470.76, 870.91 470.97, 870.66 471.43 C 870.41 471.89, 870.44 472.26, 870.56 473.07 C 870.69 473.88, 870.83 474.39, 871.30 475.50 C 871.77 476.61, 872.21 477.23, 872.91 478.62 C 873.62 480.02, 874.06 480.82, 874.82 482.48 C 875.58 484.14, 875.98 485.05, 876.70 486.92 C 877.43 488.78, 877.81 489.81, 878.43 491.82 C 879.05 493.84, 879.35 494.91, 879.79 497.01 C 880.22 499.10, 880.39 500.20, 880.61 502.32 C 880.83 504.43, 880.89 505.53, 880.89 507.57 C 880.88 509.61, 880.80 510.64, 880.57 512.52 C 880.34 514.40, 880.15 515.35, 879.73 516.98 C 879.31 518.61, 879.05 519.38, 878.48 520.67 C 877.91 521.96, 877.58 522.51, 876.87 523.44 C 876.16 524.37, 875.76 524.74, 874.94 525.31 C 874.12 525.89, 873.72 526.09, 872.77 526.32 C 871.83 526.55, 871.29 526.56, 870.21 526.44 C 869.13 526.32, 868.54 526.21, 867.36 525.74 C 866.18 525.27, 865.54 524.92, 864.31 524.09 C 863.07 523.26, 862.39 522.73, 861.18 521.59 C 859.97 520.45, 859.37 519.78, 858.27 518.38 C 857.17 516.99, 856.64 516.18, 855.70 514.61 C 854.75 513.04, 854.29 512.18, 853.53 510.54 C 852.78 508.90, 852.53 507.99, 851.92 506.42 C 851.31 504.86, 851.19 503.96, 850.50 502.71 C 849.81 501.45, 849.40 500.84, 848.47 500.15 C 847.55 499.45, 846.89 499.24, 845.88 499.24 C 844.87 499.25, 844.23 499.44, 843.42 500.16 C 842.61 500.88, 842.31 501.54, 841.82 502.83 C 841.32 504.12, 841.28 505.04, 840.93 506.59 C 840.58 508.14, 840.44 508.99, 840.06 510.59 C 839.69 512.20, 839.47 513.05, 839.06 514.61 C 838.65 516.16, 838.42 516.99, 838.02 518.37 C 837.61 519.76, 837.34 520.44, 837.03 521.54 C 836.71 522.64, 836.54 523.14, 836.44 523.87 C 836.33 524.60, 836.43 524.89, 836.50 525.20 C 836.57 525.52, 836.78 525.57, 836.78 525.45 C 836.77 525.33, 836.73 525.17, 836.47 524.61 C 836.22 524.05, 835.94 523.65, 835.51 522.65 C 835.08 521.66, 834.80 521.02, 834.31 519.62 C 833.82 518.22, 833.54 517.37, 833.06 515.66 C 832.58 513.94, 832.34 512.95, 831.91 511.04 C 831.48 509.13, 831.28 508.10, 830.91 506.10 C 830.55 504.10, 830.38 503.05, 830.08 501.06 C 829.77 499.06, 829.63 498.03, 829.38 496.12 C 829.14 494.21, 829.00 493.28, 828.85 491.52 C 828.70 489.75, 828.73 488.92, 828.62 487.30 C 828.52 485.67, 828.53 484.76, 828.33 483.39 C 828.12 482.03, 827.98 481.42, 827.61 480.45 C 827.23 479.48, 827.08 478.92, 826.44 478.53 C 825.80 478.14, 825.05 478.10, 824.40 478.51" style="stroke: black; fill: black;"/><path d="M 894.90,502.34 C 894.28 502.61, 894.07 502.95, 893.73 503.68 C 893.39 504.40, 893.24 504.89, 893.18 505.96 C 893.12 507.03, 893.24 507.76, 893.42 509.02 C 893.59 510.29, 893.83 510.95, 894.06 512.28 C 894.29 513.61, 894.39 514.31, 894.58 515.68 C 894.77 517.05, 894.78 517.78, 894.99 519.11 C 895.21 520.44, 895.27 521.27, 895.64 522.34 C 896.02 523.42, 896.37 523.85, 896.88 524.48 C 897.39 525.11, 897.65 525.36, 898.18 525.49 C 898.70 525.62, 899.10 525.48, 899.48 525.12 C 899.87 524.76, 899.92 524.42, 900.10 523.70 C 900.28 522.97, 900.39 522.55, 900.38 521.49 C 900.37 520.43, 900.21 519.68, 900.05 518.39 C 899.89 517.11, 899.73 516.41, 899.58 515.06 C 899.43 513.71, 899.39 512.97, 899.30 511.64 C 899.21 510.31, 899.22 509.62, 899.12 508.40 C 899.02 507.17, 899.04 506.49, 898.81 505.51 C 898.59 504.54, 898.40 504.14, 898.00 503.51 C 897.60 502.87, 897.45 502.57, 896.83 502.34 C 896.21 502.11, 895.52 502.08, 894.90 502.34" style="stroke: black; fill: black;"/><path d="M 893.78,483.98 C 894.45 484.27, 894.82 484.21, 894.99 484.28 C 895.16 484.36, 894.79 484.52, 894.63 484.34 C 894.47 484.16, 894.43 484.00, 894.20 483.39 C 893.97 482.77, 893.89 481.81, 893.47 481.26 C 893.04 480.71, 892.57 480.58, 892.07 480.64 C 891.57 480.70, 891.05 481.10, 890.97 481.54 C 890.89 481.98, 891.09 482.36, 891.65 482.85 C 892.21 483.34, 893.11 483.69, 893.78 483.98" style="stroke: black; fill: black;"/><path d="M 915.05,501.12 C 914.50 501.50, 914.42 501.83, 914.21 502.54 C 913.99 503.25, 913.91 503.68, 913.97 504.66 C 914.04 505.65, 914.25 506.30, 914.53 507.46 C 914.81 508.62, 915.06 509.21, 915.36 510.47 C 915.65 511.73, 915.76 512.42, 916.01 513.77 C 916.25 515.12, 916.36 515.87, 916.59 517.21 C 916.82 518.56, 916.95 519.27, 917.16 520.50 C 917.37 521.73, 917.35 522.39, 917.66 523.36 C 917.97 524.34, 918.10 524.88, 918.71 525.38 C 919.32 525.88, 919.94 525.99, 920.72 525.87 C 921.51 525.75, 922.06 525.42, 922.62 524.76 C 923.19 524.10, 923.37 523.61, 923.54 522.58 C 923.72 521.54, 923.52 520.84, 923.48 519.60 C 923.43 518.37, 923.29 517.65, 923.32 516.39 C 923.35 515.14, 923.39 514.52, 923.63 513.33 C 923.87 512.13, 924.06 511.53, 924.53 510.43 C 924.99 509.32, 925.27 508.78, 925.95 507.79 C 926.62 506.80, 927.03 506.31, 927.90 505.48 C 928.78 504.65, 929.30 504.28, 930.33 503.66 C 931.36 503.05, 931.93 502.76, 933.07 502.41 C 934.20 502.06, 934.83 501.96, 935.99 501.90 C 937.16 501.84, 937.77 501.86, 938.88 502.12 C 939.99 502.37, 940.53 502.59, 941.55 503.18 C 942.56 503.77, 943.06 504.16, 943.95 505.08 C 944.85 505.99, 945.27 506.57, 946.01 507.78 C 946.74 508.99, 947.06 509.69, 947.63 511.12 C 948.21 512.56, 948.43 513.38, 948.86 514.96 C 949.29 516.53, 949.46 517.40, 949.80 518.99 C 950.13 520.58, 950.20 521.43, 950.53 522.91 C 950.86 524.39, 951.01 525.25, 951.45 526.40 C 951.89 527.55, 952.21 527.99, 952.72 528.66 C 953.23 529.33, 953.50 529.61, 954.02 529.76 C 954.53 529.90, 954.95 529.77, 955.32 529.39 C 955.69 529.00, 955.74 528.63, 955.86 527.82 C 955.97 527.01, 956.01 526.51, 955.90 525.34 C 955.79 524.17, 955.54 523.43, 955.29 521.96 C 955.03 520.50, 954.93 519.68, 954.61 518.02 C 954.29 516.35, 954.15 515.39, 953.68 513.64 C 953.20 511.89, 952.94 510.95, 952.24 509.25 C 951.53 507.56, 951.15 506.68, 950.17 505.16 C 949.20 503.64, 948.61 502.86, 947.35 501.65 C 946.09 500.43, 945.34 499.90, 943.86 499.09 C 942.38 498.27, 941.57 497.94, 939.96 497.56 C 938.34 497.17, 937.46 497.09, 935.80 497.15 C 934.14 497.20, 933.26 497.37, 931.68 497.84 C 930.10 498.31, 929.32 498.69, 927.90 499.52 C 926.48 500.34, 925.78 500.84, 924.59 501.96 C 923.40 503.07, 922.85 503.77, 921.96 505.10 C 921.07 506.42, 920.75 507.15, 920.14 508.56 C 919.54 509.98, 919.34 510.72, 918.92 512.16 C 918.51 513.60, 918.38 514.33, 918.09 515.78 C 917.80 517.22, 917.61 518.03, 917.48 519.40 C 917.34 520.78, 917.22 521.58, 917.42 522.66 C 917.61 523.74, 917.89 524.21, 918.47 524.81 C 919.05 525.40, 919.59 525.63, 920.30 525.63 C 921.02 525.63, 921.60 525.41, 922.02 524.80 C 922.45 524.20, 922.42 523.62, 922.41 522.61 C 922.40 521.60, 922.17 520.98, 922.00 519.75 C 921.83 518.51, 921.76 517.80, 921.56 516.44 C 921.37 515.07, 921.23 514.33, 921.03 512.94 C 920.82 511.56, 920.72 510.85, 920.54 509.52 C 920.36 508.19, 920.35 507.51, 920.13 506.29 C 919.91 505.08, 919.81 504.40, 919.46 503.46 C 919.10 502.52, 918.85 502.16, 918.35 501.60 C 917.85 501.04, 917.61 500.77, 916.95 500.67 C 916.29 500.57, 915.59 500.75, 915.05 501.12" style="stroke: black; fill: black;"/><path d="M 960.76,503.63 C 960.22 504.02, 960.16 504.39, 959.96 505.11 C 959.75 505.84, 959.71 506.25, 959.74 507.26 C 959.78 508.26, 959.92 508.92, 960.13 510.16 C 960.35 511.39, 960.55 512.09, 960.81 513.45 C 961.07 514.80, 961.21 515.53, 961.44 516.91 C 961.67 518.30, 961.78 519.04, 961.97 520.38 C 962.17 521.71, 962.22 522.41, 962.42 523.57 C 962.62 524.73, 962.59 525.42, 962.98 526.19 C 963.37 526.96, 963.73 527.22, 964.38 527.44 C 965.04 527.65, 965.55 527.54, 966.26 527.26 C 966.97 526.98, 967.48 526.74, 967.91 526.04 C 968.35 525.33, 968.43 524.78, 968.44 523.74 C 968.46 522.69, 968.11 522.04, 968.00 520.83 C 967.88 519.62, 967.81 518.95, 967.86 517.70 C 967.92 516.45, 968.01 515.80, 968.26 514.57 C 968.52 513.34, 968.68 512.70, 969.13 511.55 C 969.58 510.40, 969.83 509.84, 970.49 508.82 C 971.14 507.81, 971.57 507.32, 972.40 506.49 C 973.24 505.65, 973.69 505.24, 974.67 504.64 C 975.64 504.04, 976.20 503.80, 977.27 503.48 C 978.34 503.17, 978.92 503.08, 980.02 503.05 C 981.11 503.03, 981.70 503.07, 982.74 503.35 C 983.79 503.64, 984.30 503.86, 985.26 504.48 C 986.21 505.11, 986.68 505.52, 987.52 506.47 C 988.36 507.42, 988.75 507.99, 989.46 509.23 C 990.17 510.47, 990.49 511.21, 991.08 512.67 C 991.67 514.14, 991.91 514.97, 992.40 516.57 C 992.89 518.17, 993.07 519.06, 993.52 520.68 C 993.97 522.29, 994.21 523.13, 994.66 524.64 C 995.11 526.15, 995.21 526.97, 995.79 528.23 C 996.36 529.48, 996.83 530.14, 997.53 530.91 C 998.23 531.68, 998.66 531.97, 999.29 532.06 C 999.91 532.16, 1000.34 531.93, 1000.66 531.39 C 1000.98 530.86, 1000.96 530.33, 1000.87 529.38 C 1000.77 528.42, 1000.52 527.82, 1000.19 526.61 C 999.87 525.41, 999.62 524.78, 999.24 523.35 C 998.85 521.91, 998.69 521.06, 998.28 519.42 C 997.88 517.77, 997.70 516.85, 997.19 515.13 C 996.68 513.40, 996.41 512.47, 995.72 510.79 C 995.02 509.10, 994.64 508.23, 993.71 506.71 C 992.78 505.19, 992.26 504.43, 991.07 503.19 C 989.89 501.94, 989.20 501.35, 987.78 500.48 C 986.36 499.61, 985.55 499.26, 983.98 498.83 C 982.41 498.41, 981.54 498.32, 979.93 498.34 C 978.33 498.36, 977.48 498.49, 975.94 498.94 C 974.39 499.39, 973.58 499.76, 972.20 500.59 C 970.82 501.42, 970.19 501.97, 969.04 503.09 C 967.90 504.21, 967.35 504.86, 966.47 506.19 C 965.59 507.52, 965.25 508.30, 964.65 509.74 C 964.04 511.19, 963.84 511.95, 963.46 513.43 C 963.07 514.91, 962.95 515.69, 962.71 517.15 C 962.47 518.60, 962.42 519.37, 962.25 520.73 C 962.09 522.09, 961.82 522.81, 961.91 523.94 C 961.99 525.08, 962.15 525.71, 962.68 526.41 C 963.22 527.10, 963.84 527.28, 964.58 527.43 C 965.33 527.57, 965.85 527.51, 966.43 527.14 C 967.00 526.78, 967.26 526.45, 967.44 525.60 C 967.62 524.76, 967.43 524.10, 967.32 522.92 C 967.21 521.74, 967.06 521.04, 966.89 519.70 C 966.71 518.36, 966.62 517.61, 966.46 516.20 C 966.30 514.80, 966.22 514.07, 966.09 512.68 C 965.95 511.30, 965.97 510.55, 965.79 509.27 C 965.61 507.99, 965.51 507.29, 965.18 506.27 C 964.85 505.26, 964.64 504.83, 964.14 504.20 C 963.64 503.57, 963.36 503.25, 962.68 503.14 C 962.01 503.02, 961.31 503.23, 960.76 503.63" style="stroke: black; fill: black;"/><path d="M 1010.48,522.19 C 1011.07 522.57, 1011.50 522.51, 1012.39 522.42 C 1013.28 522.32, 1013.83 522.19, 1014.94 521.71 C 1016.04 521.24, 1016.71 520.78, 1017.92 520.03 C 1019.13 519.28, 1019.76 518.81, 1020.98 517.96 C 1022.20 517.12, 1022.87 516.68, 1024.03 515.79 C 1025.19 514.90, 1025.81 514.46, 1026.78 513.53 C 1027.75 512.60, 1028.22 512.13, 1028.89 511.15 C 1029.56 510.16, 1029.87 509.65, 1030.14 508.59 C 1030.42 507.54, 1030.50 506.92, 1030.28 505.86 C 1030.05 504.79, 1029.79 504.14, 1029.03 503.27 C 1028.28 502.39, 1027.69 501.97, 1026.50 501.47 C 1025.30 500.97, 1024.55 500.85, 1023.07 500.78 C 1021.60 500.71, 1020.75 500.80, 1019.11 501.12 C 1017.47 501.43, 1016.56 501.69, 1014.87 502.35 C 1013.18 503.02, 1012.26 503.44, 1010.66 504.44 C 1009.05 505.43, 1008.21 506.05, 1006.84 507.32 C 1005.46 508.60, 1004.80 509.32, 1003.78 510.81 C 1002.76 512.31, 1002.29 513.14, 1001.74 514.79 C 1001.20 516.45, 1001.03 517.38, 1001.06 519.11 C 1001.09 520.83, 1001.25 521.76, 1001.90 523.42 C 1002.55 525.08, 1003.05 525.95, 1004.31 527.40 C 1005.57 528.86, 1006.41 529.56, 1008.19 530.69 C 1009.97 531.83, 1011.04 532.32, 1013.21 533.08 C 1015.37 533.84, 1016.62 534.12, 1019.02 534.50 C 1021.42 534.89, 1022.74 534.97, 1025.20 534.99 C 1027.66 535.02, 1028.96 534.93, 1031.33 534.62 C 1033.69 534.31, 1034.90 534.07, 1037.02 533.44 C 1039.14 532.81, 1040.17 532.41, 1041.92 531.47 C 1043.67 530.54, 1044.46 529.97, 1045.77 528.77 C 1047.07 527.57, 1047.61 526.86, 1048.44 525.46 C 1049.26 524.07, 1049.54 523.26, 1049.89 521.78 C 1050.25 520.31, 1050.22 519.50, 1050.22 518.10 C 1050.23 516.70, 1050.12 516.03, 1049.91 514.78 C 1049.69 513.53, 1049.64 512.77, 1049.13 511.86 C 1048.62 510.95, 1048.17 510.52, 1047.36 510.24 C 1046.54 509.95, 1045.85 510.06, 1045.04 510.43 C 1044.23 510.80, 1043.74 511.23, 1043.31 512.10 C 1042.89 512.97, 1042.83 513.62, 1042.90 514.80 C 1042.96 515.98, 1043.32 516.67, 1043.63 518.00 C 1043.95 519.33, 1044.15 520.09, 1044.47 521.44 C 1044.79 522.79, 1044.95 523.53, 1045.22 524.76 C 1045.50 525.99, 1045.59 526.62, 1045.86 527.59 C 1046.12 528.57, 1046.11 529.07, 1046.56 529.65 C 1047.01 530.22, 1047.41 530.41, 1048.12 530.46 C 1048.82 530.50, 1049.45 530.32, 1050.09 529.87 C 1050.73 529.41, 1051.08 529.01, 1051.33 528.20 C 1051.57 527.38, 1051.42 526.83, 1051.32 525.81 C 1051.22 524.79, 1050.93 524.21, 1050.83 523.11 C 1050.73 522.01, 1050.71 521.42, 1050.82 520.32 C 1050.92 519.21, 1051.02 518.66, 1051.36 517.59 C 1051.69 516.52, 1051.93 515.99, 1052.49 514.98 C 1053.05 513.96, 1053.38 513.44, 1054.18 512.52 C 1054.98 511.61, 1055.45 511.17, 1056.49 510.41 C 1057.53 509.64, 1058.12 509.27, 1059.36 508.70 C 1060.60 508.14, 1061.31 507.90, 1062.69 507.60 C 1064.07 507.29, 1064.84 507.20, 1066.27 507.18 C 1067.70 507.17, 1068.45 507.23, 1069.84 507.53 C 1071.22 507.84, 1071.94 508.08, 1073.21 508.71 C 1074.49 509.34, 1075.11 509.74, 1076.20 510.68 C 1077.29 511.62, 1077.78 512.18, 1078.66 513.40 C 1079.53 514.62, 1079.91 515.33, 1080.57 516.80 C 1081.23 518.26, 1081.46 519.11, 1081.95 520.74 C 1082.45 522.36, 1082.65 523.25, 1083.05 524.92 C 1083.46 526.59, 1083.58 527.51, 1083.99 529.09 C 1084.39 530.68, 1084.57 531.59, 1085.07 532.85 C 1085.57 534.11, 1085.92 534.62, 1086.49 535.39 C 1087.06 536.15, 1087.36 536.50, 1087.92 536.67 C 1088.48 536.84, 1088.93 536.69, 1089.29 536.24 C 1089.65 535.79, 1089.67 535.33, 1089.73 534.40 C 1089.78 533.48, 1089.76 532.91, 1089.57 531.62 C 1089.37 530.33, 1089.10 529.53, 1088.75 527.95 C 1088.40 526.38, 1088.23 525.50, 1087.81 523.77 C 1087.39 522.03, 1087.22 521.09, 1086.66 519.29 C 1086.10 517.48, 1085.84 516.49, 1085.01 514.74 C 1084.18 513.00, 1083.67 512.10, 1082.52 510.57 C 1081.38 509.03, 1080.72 508.30, 1079.28 507.07 C 1077.84 505.85, 1077.02 505.29, 1075.34 504.45 C 1073.66 503.61, 1072.71 503.29, 1070.90 502.86 C 1069.09 502.44, 1068.12 502.35, 1066.27 502.33 C 1064.42 502.32, 1063.44 502.41, 1061.65 502.79 C 1059.86 503.17, 1058.94 503.49, 1057.32 504.23 C 1055.71 504.97, 1054.93 505.46, 1053.57 506.48 C 1052.20 507.50, 1051.57 508.11, 1050.51 509.33 C 1049.45 510.56, 1049.02 511.28, 1048.27 512.62 C 1047.52 513.97, 1047.24 514.67, 1046.75 516.06 C 1046.27 517.45, 1046.13 518.19, 1045.86 519.57 C 1045.59 520.96, 1045.57 521.67, 1045.41 522.98 C 1045.25 524.30, 1045.06 524.98, 1045.08 526.14 C 1045.09 527.29, 1045.08 527.95, 1045.48 528.77 C 1045.89 529.59, 1046.38 529.94, 1047.11 530.24 C 1047.85 530.54, 1048.51 530.52, 1049.17 530.28 C 1049.83 530.04, 1050.15 529.74, 1050.40 529.06 C 1050.66 528.37, 1050.51 527.88, 1050.46 526.86 C 1050.41 525.83, 1050.28 525.20, 1050.14 523.94 C 1050.00 522.68, 1049.91 521.93, 1049.77 520.54 C 1049.62 519.16, 1049.56 518.35, 1049.42 517.02 C 1049.28 515.69, 1049.35 514.93, 1049.08 513.88 C 1048.82 512.83, 1048.62 512.33, 1048.08 511.75 C 1047.55 511.18, 1047.06 511.03, 1046.42 511.01 C 1045.77 510.98, 1045.26 511.17, 1044.87 511.64 C 1044.48 512.11, 1044.41 512.55, 1044.46 513.37 C 1044.51 514.19, 1044.88 514.76, 1045.11 515.73 C 1045.33 516.71, 1045.50 517.23, 1045.58 518.26 C 1045.66 519.28, 1045.69 519.84, 1045.52 520.86 C 1045.35 521.87, 1045.26 522.38, 1044.73 523.32 C 1044.21 524.27, 1043.86 524.73, 1042.90 525.56 C 1041.93 526.39, 1041.33 526.80, 1039.90 527.47 C 1038.48 528.13, 1037.60 528.44, 1035.77 528.89 C 1033.94 529.35, 1032.85 529.53, 1030.75 529.74 C 1028.66 529.96, 1027.47 530.01, 1025.29 529.95 C 1023.10 529.89, 1021.92 529.79, 1019.84 529.45 C 1017.75 529.10, 1016.68 528.85, 1014.87 528.24 C 1013.06 527.64, 1012.21 527.24, 1010.81 526.42 C 1009.40 525.61, 1008.80 525.11, 1007.85 524.16 C 1006.91 523.21, 1006.57 522.69, 1006.10 521.67 C 1005.63 520.64, 1005.53 520.10, 1005.51 519.03 C 1005.49 517.95, 1005.59 517.38, 1006.01 516.28 C 1006.42 515.19, 1006.77 514.62, 1007.59 513.56 C 1008.41 512.51, 1008.97 511.96, 1010.10 511.01 C 1011.24 510.06, 1011.94 509.57, 1013.27 508.82 C 1014.59 508.07, 1015.36 507.74, 1016.72 507.25 C 1018.09 506.76, 1018.85 506.60, 1020.10 506.37 C 1021.35 506.14, 1021.99 506.13, 1022.99 506.10 C 1023.98 506.07, 1024.40 506.16, 1025.05 506.22 C 1025.71 506.29, 1025.92 506.33, 1026.26 506.42 C 1026.59 506.50, 1026.68 506.48, 1026.73 506.64 C 1026.78 506.80, 1026.74 506.88, 1026.50 507.24 C 1026.25 507.59, 1026.06 507.86, 1025.49 508.40 C 1024.93 508.95, 1024.54 509.30, 1023.68 509.97 C 1022.81 510.63, 1022.25 511.04, 1021.16 511.75 C 1020.07 512.46, 1019.44 512.86, 1018.23 513.53 C 1017.01 514.20, 1016.29 514.44, 1015.07 515.09 C 1013.85 515.74, 1013.11 516.07, 1012.13 516.79 C 1011.15 517.50, 1010.70 517.90, 1010.16 518.65 C 1009.62 519.40, 1009.37 519.82, 1009.44 520.53 C 1009.50 521.24, 1009.89 521.81, 1010.48 522.19" style="stroke: black; fill: black;"/><path d="M 1113.79,481.10 C 1113.16 481.29, 1112.97 481.55, 1112.57 482.17 C 1112.16 482.80, 1111.96 483.20, 1111.75 484.21 C 1111.54 485.21, 1111.56 485.89, 1111.51 487.20 C 1111.45 488.51, 1111.51 489.24, 1111.48 490.76 C 1111.45 492.27, 1111.42 493.10, 1111.37 494.76 C 1111.33 496.41, 1111.29 497.29, 1111.25 499.04 C 1111.21 500.80, 1111.19 501.72, 1111.17 503.53 C 1111.15 505.33, 1111.15 506.26, 1111.16 508.06 C 1111.17 509.86, 1111.05 510.87, 1111.22 512.55 C 1111.39 514.22, 1111.58 515.16, 1111.99 516.44 C 1112.41 517.72, 1112.70 518.46, 1113.31 518.94 C 1113.91 519.42, 1114.47 519.39, 1115.02 518.84 C 1115.57 518.28, 1115.79 517.47, 1116.04 516.17 C 1116.28 514.86, 1116.22 513.95, 1116.23 512.32 C 1116.25 510.69, 1116.14 509.76, 1116.12 508.02 C 1116.10 506.28, 1116.11 505.36, 1116.14 503.60 C 1116.17 501.84, 1116.21 500.93, 1116.29 499.21 C 1116.36 497.49, 1116.40 496.63, 1116.51 495.00 C 1116.62 493.37, 1116.70 492.55, 1116.84 491.05 C 1116.98 489.56, 1117.12 488.81, 1117.21 487.51 C 1117.30 486.21, 1117.38 485.56, 1117.29 484.55 C 1117.20 483.54, 1117.09 483.12, 1116.77 482.45 C 1116.45 481.79, 1116.28 481.48, 1115.69 481.21 C 1115.09 480.94, 1114.41 480.91, 1113.79 481.10" style="stroke: black; fill: black;"/><path d="M 1109.17,542.46 C 1109.85 542.63, 1109.95 542.35, 1110.17 542.22 C 1110.39 542.09, 1110.40 541.94, 1110.26 541.79 C 1110.12 541.65, 1110.13 541.69, 1109.45 541.49 C 1108.77 541.30, 1107.57 540.92, 1106.87 540.84 C 1106.16 540.76, 1106.09 541.04, 1105.92 541.09 C 1105.74 541.13, 1105.83 541.01, 1105.99 541.06 C 1106.16 541.11, 1106.12 541.06, 1106.76 541.34 C 1107.39 541.61, 1108.49 542.28, 1109.17 542.46" style="stroke: black; fill: black;"/></svg>