<?xml version="1.0" encoding="UTF-8" standalone="no"?>
<!-- Created with Inkscape (http://www.inkscape.org/) -->

<svg
   width="115.33884mm"
   height="11.582423mm"
   viewBox="0 0 115.33884 11.582423"
   version="1.1"
   id="svg1"
   inkscape:version="1.4.3 (0d15f75, 2025-12-25)"
   sodipodi:docname="winnen-winnen-winnen.svg"
   xmlns:inkscape="http://www.inkscape.org/namespaces/inkscape"
   xmlns:sodipodi="http://sodipodi.sourceforge.net/DTD/sodipodi-0.dtd"
   xmlns="http://www.w3.org/2000/svg"
   xmlns:svg="http://www.w3.org/2000/svg">
  <sodipodi:namedview
     id="namedview1"
     pagecolor="#ffffff"
     bordercolor="#000000"
     borderopacity="0.25"
     inkscape:showpageshadow="2"
     inkscape:pageopacity="0.0"
     inkscape:pagecheckerboard="0"
     inkscape:deskcolor="#d1d1d1"
     inkscape:document-units="mm"
     inkscape:zoom="0.86679994"
     inkscape:cx="164.97463"
     inkscape:cy="68.64329"
     inkscape:window-width="1190"
     inkscape:window-height="1122"
     inkscape:window-x="0"
     inkscape:window-y="25"
     inkscape:window-maximized="0"
     inkscape:current-layer="layer1" />
  <defs
     id="defs1" />
  <g
     inkscape:label="Laag 1"
     inkscape:groupmode="layer"
     id="layer1"
     transform="translate(-16.564267,-2.7721291)">
    <path
       style="font-size:11.2889px;font-family:'Aerosoldier Drip PERSONAL USE';-inkscape-font-specification:'Aerosoldier Drip PERSONAL USE, Normal';stroke-width:0.264583"
       d="m 24.037522,13.69979 c 0.993423,-0.04516 0.620889,-1.196624 0.722489,-3.070581 0.06773,-1.8513799 0.835379,-6.0056952 0.2032,-6.4572513 -0.666045,-0.451556 -2.077157,0.8805343 -1.862668,1.6481795 0.191911,0.790223 0.327378,3.3866701 0.237067,4.3800938 C 22.457075,9.1164961 22.287742,7.1296496 21.723297,6.7232492 21.147563,6.3168488 20.323473,7.7166725 20.278318,8.4617399 20.244451,9.2068073 20.108984,10.674364 20.05254,10.945298 19.713873,9.0939183 19.409072,7.6715169 18.92365,6.068493 18.584983,4.9847586 18.054404,4.6235138 17.298048,5.391159 16.564269,6.1588042 16.632003,6.6103602 17.17387,7.2651164 c 1.761069,2.0771577 1.23049,5.2154716 2.506136,6.1637396 0.04516,0.03387 0.124178,0.05645 0.191911,0.05645 l 0.03387,0.530578 c 0.02258,0.225778 0.06773,0.338667 0.169334,0.327378 0.1016,0 0.158044,-0.112889 0.169333,-0.3048 0.02258,-0.146756 0.02258,-0.383823 0.03387,-0.666045 0.519289,-0.248356 1.162756,-0.903112 1.219201,-1.320802 0.1016,-0.564445 -0.191911,-1.648179 0.07902,-1.851379 0.395112,1.016001 1.44498,3.522136 2.460981,3.499559 z m 3.014146,-0.09031 c 0.654757,-0.282222 1.783647,-0.248355 2.483558,-0.349955 0,0.124177 0.01129,0.225778 0.02258,0.3048 0.02258,0.225778 0.06773,0.338667 0.169334,0.327378 0.1016,0 0.158044,-0.112889 0.169333,-0.3048 0.01129,-0.09031 0.02258,-0.248356 0.02258,-0.406401 0.259645,-0.07902 0.451556,-0.2032 0.587023,-0.4064 0.09031,-0.180623 0.158044,-0.51929 0.112889,-0.767645 C 30.52865,11.554899 29.851316,11.103343 28.812737,11.419432 28.67727,11.171076 27.977358,9.8615635 27.774158,9.2293851 27.616113,8.7778291 27.593536,8.5294733 27.638691,8.3940065 27.729002,8.1004951 28.316025,8.2133841 28.948204,8.0779173 29.828738,7.8747171 30.21256,6.2716932 28.767581,6.3845822 27.458069,6.4523156 26.171134,7.1070718 25.019666,7.7166725 24.342332,8.1456507 24.342332,8.8907181 24.8842,9.0261849 c 0.428978,0.1354668 0.880534,-0.1806224 1.33209,-0.2483558 -0.135467,1.1063122 0.474134,2.0771579 0.654756,3.1383139 -0.316089,0.383823 -1.53529,1.038579 -1.038579,1.670758 0.248356,0.338667 0.790223,0.158044 1.219201,0.02258 z m -1.33209,-6.8184954 c 0.338667,0.1354668 0.564445,0.067733 0.812801,-0.1580446 0.474134,-0.4064004 0.158045,-1.016001 0.180622,-1.580446 0.02258,-0.451556 0.496712,-1.9416909 -0.383822,-1.8062241 -0.383823,0.067733 -1.219201,0.7450674 -1.309513,1.1514678 -0.09031,0.4967117 0.180623,0.9934233 0.293512,1.4901349 0.06773,0.3838226 -0.135467,0.677334 0.4064,0.903112 z m 5.91539,6.2540504 c 0.72249,0.383823 1.941691,-0.541867 1.693335,-1.106312 -0.180622,-0.383822 -1.648179,-0.835378 -1.986846,-0.835378 0.248356,-0.248356 0.857956,-0.993424 0.293511,-2.1674693 1.241779,1.4449793 2.551292,3.0480033 2.709336,3.2512033 0.316089,0.372534 0.609601,0.62089 0.869246,0.677334 l 0.03387,0.587023 c 0.02258,0.225778 0.06773,0.338667 0.169334,0.327378 0.1016,0 0.158044,-0.112889 0.169333,-0.3048 0.02258,-0.146756 0.02258,-0.372534 0.03387,-0.643468 0.214489,-0.09031 0.428978,-0.282222 0.688623,-0.620889 0.248356,-0.293512 0.428978,-0.993423 0.02258,-1.151468 -0.383823,-0.158045 -1.106313,-1.016001 -1.377246,-1.9416909 -0.293512,-0.9482676 -0.51929,-1.7836463 -0.51929,-3.1383143 0,-1.241779 -1.761068,-0.1580446 -1.806224,0.790223 -0.02258,0.7450675 0.72249,1.8965353 0.993424,2.5512915 -0.158045,0.022578 -3.612449,-4.6510269 -3.70276,-4.7413381 -0.745067,-0.6999119 -1.986846,0.8579564 -1.557868,1.6256016 2.212625,1.9642687 2.46098,4.5381382 1.512713,4.6961822 -1.12889,0.428979 -1.354668,1.580446 -0.677334,1.625602 0.722489,0.04516 2.280358,0.4064 2.438402,0.519289 z m 5.71219,0 c 0.722489,0.383823 1.941691,-0.541867 1.693335,-1.106312 -0.180623,-0.383822 -1.64818,-0.835378 -1.986847,-0.835378 0.248356,-0.248356 0.857957,-0.993424 0.293512,-2.1674693 1.241779,1.4449793 2.551291,3.0480033 2.709336,3.2512033 0.316089,0.372534 0.609601,0.62089 0.869245,0.677334 l 0.03387,0.587023 c 0.02258,0.225778 0.06773,0.338667 0.169333,0.327378 0.101601,0 0.158045,-0.112889 0.169334,-0.3048 0.02258,-0.146756 0.02258,-0.372534 0.03387,-0.643468 0.214489,-0.09031 0.428978,-0.282222 0.688623,-0.620889 0.248355,-0.293512 0.428978,-0.993423 0.02258,-1.151468 -0.383822,-0.158045 -1.106312,-1.016001 -1.377245,-1.9416909 -0.293512,-0.9482676 -0.51929,-1.7836463 -0.51929,-3.1383143 0,-1.241779 -1.761068,-0.1580446 -1.806224,0.790223 -0.02258,0.7450675 0.72249,1.8965353 0.993423,2.5512915 -0.158044,0.022578 -3.612448,-4.6510269 -3.702759,-4.7413381 -0.745067,-0.6999119 -1.986847,0.8579564 -1.557868,1.6256016 2.212624,1.9642687 2.46098,4.5381382 1.512712,4.6961822 -1.12889,0.428979 -1.354668,1.580446 -0.677334,1.625602 0.72249,0.04516 2.280358,0.4064 2.438403,0.519289 z m 5.531568,0.248356 c 0.812801,-0.2032 0.632178,-0.2032 1.648179,-0.880534 0.72249,-0.474134 3.318937,-2.4158247 3.544715,-3.1157365 0.2032,-0.564445 -0.09031,-0.903112 -0.677334,-0.7450674 -1.174045,0.677334 -2.528713,1.9868469 -3.770493,2.4384029 -1.241779,0.428978 -1.016001,-0.203201 -1.106312,-1.2192017 0.654756,-0.045156 2.596447,-0.2709336 3.048003,-0.6096006 0.699912,-0.4741338 0.92569,-1.580446 0.338667,-1.6030238 -0.767645,-0.045156 -2.302935,0.5870228 -3.138314,0.5870228 -0.225778,0 -0.248356,-0.1354668 -0.248356,-0.338667 V 6.4523156 c 0.677334,0.1354668 1.354668,0.2935114 2.032002,0.3612448 0.338667,0.045156 1.083735,0.112889 1.399824,0.090311 0.541867,-0.067733 1.219201,-0.790223 0.835379,-1.3095124 C 46.581485,5.3234256 44.097927,4.9621808 43.55606,4.7815584 42.607792,4.4654692 41.817569,4.2171133 41.117658,4.3525801 c -0.699912,0.1354669 -1.083735,0.8353787 -0.92569,1.3546681 0.158044,0.4967116 0.745067,0.8353786 0.835378,1.6707572 0.02258,0.2483559 -0.135466,3.8156486 -0.158044,4.0188486 -0.03387,1.061157 0.654756,1.772357 1.411112,1.907824 l 0.03387,0.417689 c 0.02258,0.225778 0.06773,0.338667 0.169334,0.327379 0.1016,0 0.158044,-0.112889 0.169333,-0.304801 0.01129,-0.09031 0.02258,-0.248356 0.02258,-0.417689 z m 5.576723,-0.248356 c 0.72249,0.383823 1.941691,-0.541867 1.693336,-1.106312 -0.180623,-0.383822 -1.64818,-0.835378 -1.986847,-0.835378 0.248356,-0.248356 0.857956,-0.993424 0.293511,-2.1674693 1.241779,1.4449793 2.551292,3.0480033 2.709337,3.2512033 0.316089,0.372534 0.6096,0.62089 0.869245,0.677334 l 0.03387,0.587023 c 0.02258,0.225778 0.06773,0.338667 0.169333,0.327378 0.1016,0 0.158045,-0.112889 0.169334,-0.3048 0.02258,-0.146756 0.02258,-0.372534 0.03387,-0.643468 0.214489,-0.09031 0.428978,-0.282222 0.688623,-0.620889 0.248356,-0.293512 0.428978,-0.993423 0.02258,-1.151468 C 52.767809,10.900142 52.04532,10.042186 51.774386,9.1164961 51.480875,8.1682285 51.255097,7.3328498 51.255097,5.9781818 c 0,-1.241779 -1.761069,-0.1580446 -1.806224,0.790223 -0.02258,0.7450675 0.722489,1.8965353 0.993423,2.5512915 -0.158045,0.022578 -3.612448,-4.6510269 -3.702759,-4.7413381 -0.745068,-0.6999119 -1.986847,0.8579564 -1.557869,1.6256016 2.212625,1.9642687 2.460981,4.5381382 1.512713,4.6961822 -1.12889,0.428979 -1.354668,1.580446 -0.677334,1.625602 0.72249,0.04516 2.280358,0.4064 2.438402,0.519289 z M 62.47628,13.69979 c 0.993424,-0.04516 0.62089,-1.196624 0.72249,-3.070581 0.06773,-1.8513799 0.835379,-6.0056952 0.2032,-6.4572513 -0.666045,-0.451556 -2.077157,0.8805343 -1.862668,1.6481795 0.191911,0.790223 0.327378,3.3866701 0.237067,4.3800938 C 60.895834,9.1164961 60.726501,7.1296496 60.162056,6.7232492 59.586322,6.3168488 58.762232,7.7166725 58.717077,8.4617399 58.68321,9.2068073 58.547743,10.674364 58.491299,10.945298 58.152632,9.0939183 57.847831,7.6715169 57.362409,6.068493 57.023742,4.9847586 56.493163,4.6235138 55.736807,5.391159 c -0.733779,0.7676452 -0.666045,1.2192012 -0.124178,1.8739574 1.761068,2.0771577 1.23049,5.2154716 2.506136,6.1637396 0.04515,0.03387 0.124178,0.05645 0.191911,0.05645 l 0.03387,0.530578 c 0.02258,0.225778 0.06773,0.338667 0.169333,0.327378 0.1016,0 0.158045,-0.112889 0.169334,-0.3048 0.02258,-0.146756 0.02258,-0.383823 0.03387,-0.666045 0.519289,-0.248356 1.162756,-0.903112 1.219201,-1.320802 0.1016,-0.564445 -0.191912,-1.648179 0.07902,-1.851379 0.395112,1.016001 1.444979,3.522136 2.46098,3.499559 z m 3.014144,-0.09031 c 0.654756,-0.282222 1.783646,-0.248355 2.483558,-0.349955 0,0.124177 0.01129,0.225778 0.02258,0.3048 0.02258,0.225778 0.06773,0.338667 0.169333,0.327378 0.1016,0 0.158045,-0.112889 0.169334,-0.3048 0.01129,-0.09031 0.02258,-0.248356 0.02258,-0.406401 0.259644,-0.07902 0.451556,-0.2032 0.587022,-0.4064 0.09031,-0.180623 0.158045,-0.51929 0.112889,-0.767645 -0.09031,-0.451556 -0.767645,-0.903112 -1.806224,-0.587023 -0.135466,-0.248356 -0.835378,-1.5578685 -1.038578,-2.1900469 -0.158045,-0.451556 -0.180623,-0.6999118 -0.135467,-0.8353786 0.09031,-0.2935114 0.677334,-0.1806224 1.309512,-0.3160892 0.880534,-0.2032002 1.264357,-1.8062241 -0.180622,-1.6933351 -1.309513,0.067733 -2.596447,0.7224896 -3.747915,1.3320903 -0.677334,0.4289782 -0.677334,1.1740456 -0.135467,1.3095124 0.428978,0.1354668 0.880534,-0.1806224 1.33209,-0.2483558 -0.135467,1.1063122 0.474134,2.0771579 0.654756,3.1383139 -0.316089,0.383823 -1.53529,1.038579 -1.038578,1.670758 0.248355,0.338667 0.790223,0.158044 1.219201,0.02258 z m -1.33209,-6.8184954 c 0.338667,0.1354668 0.564445,0.067733 0.8128,-0.1580446 0.474134,-0.4064004 0.158045,-1.016001 0.180623,-1.580446 0.02258,-0.451556 0.496711,-1.9416909 -0.383823,-1.8062241 -0.383822,0.067733 -1.219201,0.7450674 -1.309512,1.1514678 -0.09031,0.4967117 0.180622,0.9934233 0.293511,1.4901349 0.06773,0.3838226 -0.135467,0.677334 0.406401,0.903112 z m 5.915392,6.2540504 c 0.72249,0.383823 1.941691,-0.541867 1.693335,-1.106312 -0.180622,-0.383822 -1.648179,-0.835378 -1.986846,-0.835378 0.248355,-0.248356 0.857956,-0.993424 0.293511,-2.1674693 1.241779,1.4449793 2.551292,3.0480033 2.709336,3.2512033 0.316089,0.372534 0.609601,0.62089 0.869245,0.677334 l 0.03387,0.587023 c 0.02258,0.225778 0.06773,0.338667 0.169334,0.327378 0.1016,0 0.158044,-0.112889 0.169333,-0.3048 0.02258,-0.146756 0.02258,-0.372534 0.03387,-0.643468 0.214489,-0.09031 0.428978,-0.282222 0.688623,-0.620889 0.248356,-0.293512 0.428978,-0.993423 0.02258,-1.151468 -0.383823,-0.158045 -1.106313,-1.016001 -1.377246,-1.9416909 -0.293512,-0.9482676 -0.51929,-1.7836463 -0.51929,-3.1383143 0,-1.241779 -1.761068,-0.1580446 -1.806224,0.790223 -0.02258,0.7450675 0.72249,1.8965353 0.993424,2.5512915 -0.158045,0.022578 -3.612449,-4.6510269 -3.70276,-4.7413381 -0.745067,-0.6999119 -1.986846,0.8579564 -1.557868,1.6256016 2.212624,1.9642687 2.46098,4.5381382 1.512713,4.6961822 -1.12889,0.428979 -1.354668,1.580446 -0.677334,1.625602 0.722489,0.04516 2.280357,0.4064 2.438402,0.519289 z m 5.712189,0 c 0.722489,0.383823 1.941691,-0.541867 1.693335,-1.106312 -0.180623,-0.383822 -1.64818,-0.835378 -1.986847,-0.835378 0.248356,-0.248356 0.857957,-0.993424 0.293512,-2.1674693 1.241779,1.4449793 2.551291,3.0480033 2.709336,3.2512033 0.316089,0.372534 0.6096,0.62089 0.869245,0.677334 l 0.03387,0.587023 c 0.02258,0.225778 0.06773,0.338667 0.169333,0.327378 0.1016,0 0.158045,-0.112889 0.169334,-0.3048 0.02258,-0.146756 0.02258,-0.372534 0.03387,-0.643468 0.214489,-0.09031 0.428978,-0.282222 0.688623,-0.620889 0.248355,-0.293512 0.428978,-0.993423 0.02258,-1.151468 C 80.098275,10.900142 79.375785,10.042186 79.104851,9.1164961 78.81134,8.1682285 78.585562,7.3328498 78.585562,5.9781818 c 0,-1.241779 -1.761068,-0.1580446 -1.806224,0.790223 -0.02258,0.7450675 0.72249,1.8965353 0.993423,2.5512915 -0.158044,0.022578 -3.612448,-4.6510269 -3.702759,-4.7413381 -0.745068,-0.6999119 -1.986847,0.8579564 -1.557868,1.6256016 2.212624,1.9642687 2.46098,4.5381382 1.512712,4.6961822 -1.12889,0.428979 -1.354668,1.580446 -0.677334,1.625602 0.72249,0.04516 2.280358,0.4064 2.438403,0.519289 z m 5.531566,0.248356 c 0.812801,-0.2032 0.632179,-0.2032 1.64818,-0.880534 0.722489,-0.474134 3.318936,-2.4158247 3.544714,-3.1157365 0.2032,-0.564445 -0.09031,-0.903112 -0.677334,-0.7450674 -1.174045,0.677334 -2.528713,1.9868469 -3.770492,2.4384029 -1.24178,0.428978 -1.016002,-0.203201 -1.106313,-1.2192017 0.654756,-0.045156 2.596447,-0.2709336 3.048003,-0.6096006 0.699912,-0.4741338 0.92569,-1.580446 0.338667,-1.6030238 -0.767645,-0.045156 -2.302935,0.5870228 -3.138314,0.5870228 -0.225778,0 -0.248356,-0.1354668 -0.248356,-0.338667 V 6.4523156 c 0.677334,0.1354668 1.354668,0.2935114 2.032002,0.3612448 0.338667,0.045156 1.083735,0.112889 1.399824,0.090311 0.541867,-0.067733 1.219201,-0.790223 0.835379,-1.3095124 C 85.02024,5.3234256 82.536682,4.9621808 81.994815,4.7815584 81.046547,4.4654692 80.256324,4.2171133 79.556413,4.3525801 c -0.699912,0.1354669 -1.083735,0.8353787 -0.92569,1.3546681 0.158044,0.4967116 0.745067,0.8353786 0.835378,1.6707572 0.02258,0.2483559 -0.135466,3.8156486 -0.158044,4.0188486 -0.03387,1.061157 0.654756,1.772357 1.411112,1.907824 l 0.03387,0.417689 c 0.02258,0.225778 0.06773,0.338667 0.169334,0.327379 0.1016,0 0.158044,-0.112889 0.169333,-0.304801 0.01129,-0.09031 0.02258,-0.248356 0.02258,-0.417689 z m 5.576722,-0.248356 c 0.722489,0.383823 1.94169,-0.541867 1.693335,-1.106312 -0.180623,-0.383822 -1.64818,-0.835378 -1.986847,-0.835378 0.248356,-0.248356 0.857957,-0.993424 0.293512,-2.1674693 1.241779,1.4449793 2.551291,3.0480033 2.709336,3.2512033 0.316089,0.372534 0.6096,0.62089 0.869245,0.677334 l 0.03387,0.587023 c 0.02258,0.225778 0.06773,0.338667 0.169333,0.327378 0.1016,0 0.158045,-0.112889 0.169334,-0.3048 0.02258,-0.146756 0.02258,-0.372534 0.03387,-0.643468 0.21449,-0.09031 0.428979,-0.282222 0.688623,-0.620889 0.248356,-0.293512 0.428979,-0.993423 0.02258,-1.151468 C 91.206563,10.900142 90.484073,10.042186 90.213139,9.1164961 89.919628,8.1682285 89.69385,7.3328498 89.69385,5.9781818 c 0,-1.241779 -1.761069,-0.1580446 -1.806224,0.790223 -0.02258,0.7450675 0.722489,1.8965353 0.993423,2.5512915 -0.158045,0.022578 -3.612448,-4.6510269 -3.702759,-4.7413381 -0.745068,-0.6999119 -1.986847,0.8579564 -1.557869,1.6256016 2.212625,1.9642687 2.460981,4.5381382 1.512713,4.6961822 -1.12889,0.428979 -1.354668,1.580446 -0.677334,1.625602 0.72249,0.04516 2.280358,0.4064 2.438403,0.519289 z m 14.020837,0.654757 c 0.99342,-0.04516 0.62089,-1.196624 0.72249,-3.070581 0.0677,-1.8513799 0.83538,-6.0056952 0.2032,-6.4572513 -0.66605,-0.451556 -2.077159,0.8805343 -1.862669,1.6481795 0.191909,0.790223 0.327379,3.3866701 0.237069,4.3800938 C 99.334593,9.1164961 99.16526,7.1296496 98.600815,6.7232492 98.025081,6.3168488 97.200991,7.7166725 97.155835,8.4617399 97.121969,9.2068073 96.986502,10.674364 96.930057,10.945298 96.59139,9.0939183 96.28659,7.6715169 95.801167,6.068493 95.4625,4.9847586 94.931922,4.6235138 94.175566,5.391159 c -0.733779,0.7676452 -0.666045,1.2192012 -0.124178,1.8739574 1.761068,2.0771577 1.23049,5.2154716 2.506136,6.1637396 0.04515,0.03387 0.124178,0.05645 0.191911,0.05645 l 0.03387,0.530578 c 0.02258,0.225778 0.06773,0.338667 0.169333,0.327378 0.1016,0 0.158045,-0.112889 0.169334,-0.3048 0.02258,-0.146756 0.02258,-0.383823 0.03387,-0.666045 0.51929,-0.248356 1.162757,-0.903112 1.219202,-1.320802 0.1016,-0.564445 -0.191912,-1.648179 0.07902,-1.851379 0.395111,1.016001 1.444979,3.522136 2.460981,3.499559 z m 3.01414,-0.09031 c 0.65476,-0.282222 1.78365,-0.248355 2.48356,-0.349955 0,0.124177 0.0113,0.225778 0.0226,0.3048 0.0226,0.225778 0.0677,0.338667 0.16933,0.327378 0.1016,0 0.15805,-0.112889 0.16934,-0.3048 0.0113,-0.09031 0.0226,-0.248356 0.0226,-0.406401 0.25965,-0.07902 0.45156,-0.2032 0.58703,-0.4064 0.0903,-0.180623 0.15804,-0.51929 0.11289,-0.767645 -0.0903,-0.451556 -0.76765,-0.903112 -1.80623,-0.587023 -0.13547,-0.248356 -0.83538,-1.5578685 -1.03858,-2.1900469 -0.15804,-0.451556 -0.18062,-0.6999118 -0.13546,-0.8353786 0.0903,-0.2935114 0.67733,-0.1806224 1.30951,-0.3160892 0.88053,-0.2032002 1.26435,-1.8062241 -0.18062,-1.6933351 -1.30952,0.067733 -2.59645,0.7224896 -3.74792,1.3320903 -0.67733,0.4289782 -0.67733,1.1740456 -0.13547,1.3095124 0.42898,0.1354668 0.88054,-0.1806224 1.33209,-0.2483558 -0.13546,1.1063122 0.47414,2.0771579 0.65476,3.1383139 -0.31609,0.383823 -1.53529,1.038579 -1.03858,1.670758 0.24836,0.338667 0.79022,0.158044 1.2192,0.02258 z m -1.33209,-6.8184954 c 0.33867,0.1354668 0.56445,0.067733 0.8128,-0.1580446 0.47414,-0.4064004 0.15805,-1.016001 0.18063,-1.580446 0.0226,-0.451556 0.49671,-1.9416909 -0.38383,-1.8062241 -0.38382,0.067733 -1.2192,0.7450674 -1.30951,1.1514678 -0.0903,0.4967117 0.18062,0.9934233 0.29351,1.4901349 0.0677,0.3838226 -0.13546,0.677334 0.4064,0.903112 z m 5.91539,6.2540504 c 0.72249,0.383823 1.94169,-0.541867 1.69334,-1.106312 -0.18063,-0.383822 -1.64818,-0.835378 -1.98685,-0.835378 0.24836,-0.248356 0.85796,-0.993424 0.29351,-2.1674693 1.24178,1.4449793 2.55129,3.0480033 2.70934,3.2512033 0.31609,0.372534 0.6096,0.62089 0.86924,0.677334 l 0.0339,0.587023 c 0.0226,0.225778 0.0677,0.338667 0.16933,0.327378 0.1016,0 0.15805,-0.112889 0.16934,-0.3048 0.0226,-0.146756 0.0226,-0.372534 0.0339,-0.643468 0.21449,-0.09031 0.42898,-0.282222 0.68863,-0.620889 0.24835,-0.293512 0.42897,-0.993423 0.0226,-1.151468 -0.38382,-0.158045 -1.10631,-1.016001 -1.37724,-1.9416909 -0.29351,-0.9482676 -0.51929,-1.7836463 -0.51929,-3.1383143 0,-1.241779 -1.76107,-0.1580446 -1.80623,0.790223 -0.0226,0.7450675 0.72249,1.8965353 0.99343,2.5512915 -0.15805,0.022578 -3.61245,-4.6510269 -3.70276,-4.7413381 -0.74507,-0.6999119 -1.98685,0.8579564 -1.55787,1.6256016 2.21262,1.9642687 2.46098,4.5381382 1.51271,4.6961822 -1.12889,0.428979 -1.35467,1.580446 -0.67733,1.625602 0.72249,0.04516 2.28036,0.4064 2.4384,0.519289 z m 5.71219,0 c 0.72249,0.383823 1.94169,-0.541867 1.69333,-1.106312 -0.18062,-0.383822 -1.64817,-0.835378 -1.98684,-0.835378 0.24835,-0.248356 0.85795,-0.993424 0.29351,-2.1674693 1.24178,1.4449793 2.55129,3.0480033 2.70934,3.2512033 0.31609,0.372534 0.6096,0.62089 0.86924,0.677334 l 0.0339,0.587023 c 0.0226,0.225778 0.0677,0.338667 0.16933,0.327378 0.1016,0 0.15805,-0.112889 0.16933,-0.3048 0.0226,-0.146756 0.0226,-0.372534 0.0339,-0.643468 0.21449,-0.09031 0.42898,-0.282222 0.68862,-0.620889 0.24836,-0.293512 0.42898,-0.993423 0.0226,-1.151468 -0.38382,-0.158045 -1.10631,-1.016001 -1.37724,-1.9416909 -0.29351,-0.9482676 -0.51929,-1.7836463 -0.51929,-3.1383143 0,-1.241779 -1.76107,-0.1580446 -1.80623,0.790223 -0.0226,0.7450675 0.72249,1.8965353 0.99343,2.5512915 -0.15805,0.022578 -3.61245,-4.6510269 -3.70276,-4.7413381 -0.74507,-0.6999119 -1.98685,0.8579564 -1.55787,1.6256016 2.21262,1.9642687 2.46098,4.5381382 1.51271,4.6961822 -1.12889,0.428979 -1.35467,1.580446 -0.67733,1.625602 0.72249,0.04516 2.28036,0.4064 2.4384,0.519289 z m 5.53157,0.248356 c 0.8128,-0.2032 0.63218,-0.2032 1.64818,-0.880534 0.72249,-0.474134 3.31894,-2.4158247 3.54472,-3.1157365 0.2032,-0.564445 -0.0903,-0.903112 -0.67734,-0.7450674 -1.17404,0.677334 -2.52871,1.9868469 -3.77049,2.4384029 -1.24178,0.428978 -1.016,-0.203201 -1.10631,-1.2192017 0.65476,-0.045156 2.59645,-0.2709336 3.048,-0.6096006 0.69991,-0.4741338 0.92569,-1.580446 0.33867,-1.6030238 -0.76765,-0.045156 -2.30294,0.5870228 -3.13832,0.5870228 -0.22577,0 -0.24835,-0.1354668 -0.24835,-0.338667 V 6.4523156 c 0.67733,0.1354668 1.35467,0.2935114 2.032,0.3612448 0.33867,0.045156 1.08374,0.112889 1.39982,0.090311 0.54187,-0.067733 1.21921,-0.790223 0.83538,-1.3095124 -0.2032,-0.2709336 -2.68676,-0.6321784 -3.22862,-0.8128008 -0.94827,-0.3160892 -1.73849,-0.5644451 -2.4384,-0.4289783 -0.69992,0.1354669 -1.08374,0.8353787 -0.92569,1.3546681 0.15804,0.4967116 0.74506,0.8353786 0.83537,1.6707572 0.0226,0.2483559 -0.13546,3.8156486 -0.15804,4.0188486 -0.0339,1.061157 0.65476,1.772357 1.41111,1.907824 l 0.0339,0.417689 c 0.0226,0.225778 0.0677,0.338667 0.16933,0.327379 0.1016,0 0.15805,-0.112889 0.16934,-0.304801 0.0113,-0.09031 0.0226,-0.248356 0.0226,-0.417689 z m 5.57672,-0.248356 c 0.72249,0.383823 1.94169,-0.541867 1.69334,-1.106312 -0.18063,-0.383822 -1.64818,-0.835378 -1.98685,-0.835378 0.24836,-0.248356 0.85796,-0.993424 0.29351,-2.1674693 1.24178,1.4449793 2.55129,3.0480033 2.70934,3.2512033 0.31609,0.372534 0.6096,0.62089 0.86924,0.677334 l 0.0339,0.587023 c 0.0226,0.225778 0.0677,0.338667 0.16933,0.327378 0.1016,0 0.15805,-0.112889 0.16934,-0.3048 0.0226,-0.146756 0.0226,-0.372534 0.0339,-0.643468 0.21449,-0.09031 0.42898,-0.282222 0.68863,-0.620889 0.24835,-0.293512 0.42897,-0.993423 0.0226,-1.151468 -0.38382,-0.158045 -1.10631,-1.016001 -1.37724,-1.9416909 -0.29351,-0.9482676 -0.51929,-1.7836463 -0.51929,-3.1383143 0,-1.241779 -1.76107,-0.1580446 -1.80623,0.790223 -0.0226,0.7450675 0.72249,1.8965353 0.99343,2.5512915 -0.15805,0.022578 -3.61245,-4.6510269 -3.70276,-4.7413381 -0.74507,-0.6999119 -1.98685,0.8579564 -1.55787,1.6256016 2.21262,1.9642687 2.46098,4.5381382 1.51271,4.6961822 -1.12889,0.428979 -1.35467,1.580446 -0.67733,1.625602 0.72249,0.04516 2.28036,0.4064 2.4384,0.519289 z m 4.34623,0.891824 c 0.69992,0.169333 2.22392,-1.625602 1.44498,-2.47227 -0.76764,-0.846667 -3.07058,2.05458 -1.44498,2.47227 z m 0.0339,-3.18347 c 0.4064,0.270933 1.00471,-0.428979 1.09502,-0.9144013 0.13547,-0.8128008 0.37254,-4.5042712 0.58703,-5.4976945 0.24835,-1.2192012 0.0564,-1.5691571 -1.00472,-1.0272899 -0.99342,0.5080005 -1.08373,0.7450674 -1.04986,2.1110244 0,1.0498677 0.0564,3.3189367 0.14675,4.6058713 0.0452,0.462845 0.0677,0.632178 0.22578,0.72249 z"
       id="text1"
       aria-label="WINNEN WINNEN WINNEN!" />
  </g>
</svg>
